<?xml version="1.0" encoding="UTF-8"?>
<svg height="800.0" width="700.0" xmlns="http://www.w3.org/2000/svg">
 <g>
  <g stroke="pink">
   <path id="path10091" stroke-width="2.0" fill="#fffeff" clip-path="url(#clipPath2)" stroke="black" signature="MLLLZ" d="M87.468 389.079 L289.419 389.079 L289.419 534.966 L87.468 534.966 Z"/>
   <path id="path10093" d="M87.468 389.079 L289.419 389.079 L289.419 534.966 L87.468 534.966 Z" stroke-width="2.0" stroke="#fffeff" clip-path="url(#clipPath2)" fill="none" signature="MLLLZ"/>
   <path id="path10095" stroke-width="4.0" stroke="#eaf1f3" clip-path="url(#clipPath2)" fill="none" signature="ML" d="M87.468 393.296 L289.419 393.296 "/>
   <path id="path10097" stroke-width="4.0" stroke="#eaf1f3" clip-path="url(#clipPath2)" fill="none" signature="ML" d="M87.468 420.787 L289.419 420.787 "/>
   <path id="path10099" stroke-width="4.0" stroke="#eaf1f3" clip-path="url(#clipPath2)" fill="none" signature="ML" d="M87.468 448.277 L289.419 448.277 "/>
   <path id="path10101" stroke-width="4.0" stroke="#eaf1f3" clip-path="url(#clipPath2)" fill="none" signature="ML" d="M87.468 475.768 L289.419 475.768 "/>
   <path id="path10103" stroke-width="4.0" stroke="#eaf1f3" clip-path="url(#clipPath2)" fill="none" signature="ML" d="M87.468 503.414 L289.419 503.414 "/>
   <path id="path10105" stroke-width="4.0" stroke="#eaf1f3" clip-path="url(#clipPath2)" fill="none" signature="ML" d="M87.468 530.905 L289.419 530.905 "/>
   <path id="path10107" stroke-width="4.0" stroke="#19466e" clip-path="url(#clipPath10)" fill="none" signature="MCCCCZ" d="M232.358 457.337 C232.358 456.556 232.887 455.931 233.547 455.931 C234.207 455.931 234.736 456.556 234.736 457.337 C234.736 458.118 234.207 458.742 233.547 458.742 C232.887 458.742 232.358 458.118 232.358 457.337 Z"/>
   <path id="path10109" stroke-width="4.0" stroke="#19466e" clip-path="url(#clipPath10)" fill="none" signature="MCCCCZ" d="M203.968 492.012 C203.968 491.231 204.527 490.606 205.226 490.606 C205.926 490.606 206.485 491.231 206.485 492.012 C206.485 492.793 205.926 493.418 205.226 493.418 C204.527 493.418 203.968 492.793 203.968 492.012 Z"/>
   <path id="path10111" stroke-width="4.0" stroke="#19466e" clip-path="url(#clipPath10)" fill="none" signature="MCCCCZ" d="M120.893 499.978 C120.893 499.197 121.422 498.572 122.082 498.572 C122.743 498.572 123.271 499.197 123.271 499.978 C123.271 500.759 122.743 501.384 122.082 501.384 C121.422 501.384 120.893 500.759 120.893 499.978 Z"/>
   <path id="path10113" stroke-width="4.0" stroke="#19466e" clip-path="url(#clipPath10)" fill="none" signature="MCCCCZ" d="M195.856 466.865 C195.856 466.084 196.384 465.459 197.045 465.459 C197.705 465.459 198.234 466.084 198.234 466.865 C198.234 467.645 197.705 468.27 197.045 468.27 C196.384 468.27 195.856 467.645 195.856 466.865 Z"/>
   <path id="path10115" stroke-width="4.0" stroke="#19466e" clip-path="url(#clipPath10)" fill="none" signature="MCCCCZ" d="M150.543 446.559 C150.543 445.778 151.071 445.153 151.732 445.153 C152.392 445.153 152.92 445.778 152.92 446.559 C152.92 447.34 152.392 447.965 151.732 447.965 C151.071 447.965 150.543 447.34 150.543 446.559 Z"/>
   <path id="path10117" stroke-width="4.0" stroke="#19466e" clip-path="url(#clipPath10)" fill="none" signature="MCCCCZ" d="M198.793 477.642 C198.793 476.861 199.352 476.236 200.052 476.236 C200.751 476.236 201.31 476.861 201.31 477.642 C201.31 478.423 200.751 479.048 200.052 479.048 C199.352 479.048 198.793 478.423 198.793 477.642 Z"/>
   <path id="path10119" stroke-width="4.0" stroke="#19466e" clip-path="url(#clipPath10)" fill="none" signature="MCCCCZ" d="M194.318 507.163 C194.318 506.382 194.846 505.757 195.506 505.757 C196.167 505.757 196.695 506.382 196.695 507.163 C196.695 507.944 196.167 508.569 195.506 508.569 C194.846 508.569 194.318 507.944 194.318 507.163 Z"/>
   <path id="path10121" stroke-width="4.0" stroke="#19466e" clip-path="url(#clipPath10)" fill="none" signature="MCCCCZ" d="M168.304 484.515 C168.304 483.734 168.864 483.109 169.563 483.109 C170.262 483.109 170.822 483.734 170.822 484.515 C170.822 485.296 170.262 485.92 169.563 485.92 C168.864 485.92 168.304 485.296 168.304 484.515 Z"/>
   <path id="path10123" stroke-width="4.0" stroke="#19466e" clip-path="url(#clipPath10)" fill="none" signature="MCCCCZ" d="M190.122 463.272 C190.122 462.491 190.681 461.866 191.381 461.866 C192.08 461.866 192.639 462.491 192.639 463.272 C192.639 464.053 192.08 464.678 191.381 464.678 C190.681 464.678 190.122 464.053 190.122 463.272 Z"/>
   <path id="path10125" stroke-width="4.0" stroke="#19466e" clip-path="url(#clipPath10)" fill="none" signature="MCCCCZ" d="M214.037 482.64 C214.037 481.859 214.597 481.234 215.296 481.234 C215.995 481.234 216.555 481.859 216.555 482.64 C216.555 483.421 215.995 484.046 215.296 484.046 C214.597 484.046 214.037 483.421 214.037 482.64 Z"/>
   <path id="path10127" stroke-width="4.0" stroke="#19466e" clip-path="url(#clipPath10)" fill="none" signature="MCCCCZ" d="M186.346 485.608 C186.346 484.827 186.905 484.202 187.605 484.202 C188.304 484.202 188.863 484.827 188.863 485.608 C188.863 486.389 188.304 487.014 187.605 487.014 C186.905 487.014 186.346 486.389 186.346 485.608 Z"/>
   <path id="path10129" stroke-width="4.0" stroke="#19466e" clip-path="url(#clipPath10)" fill="none" signature="MCCCCZ" d="M151.662 461.866 C151.662 461.085 152.221 460.46 152.92 460.46 C153.62 460.46 154.179 461.085 154.179 461.866 C154.179 462.647 153.62 463.272 152.92 463.272 C152.221 463.272 151.662 462.647 151.662 461.866 Z"/>
   <path id="path10131" stroke-width="4.0" stroke="#19466e" clip-path="url(#clipPath10)" fill="none" signature="MCCCCZ" d="M193.758 437.5 C193.758 436.719 194.287 436.094 194.947 436.094 C195.607 436.094 196.136 436.719 196.136 437.5 C196.136 438.281 195.607 438.906 194.947 438.906 C194.287 438.906 193.758 438.281 193.758 437.5 Z"/>
   <path id="path10133" stroke-width="4.0" stroke="#19466e" clip-path="url(#clipPath10)" fill="none" signature="MCCCCZ" d="M156.836 519.659 C156.836 518.878 157.396 518.253 158.095 518.253 C158.794 518.253 159.354 518.878 159.354 519.659 C159.354 520.44 158.794 521.063 158.095 521.063 C157.396 521.063 156.836 520.44 156.836 519.659 Z"/>
   <path id="path10135" stroke-width="4.0" stroke="#19466e" clip-path="url(#clipPath10)" fill="none" signature="MCCCCZ" d="M149.564 524.813 C149.564 524.032 150.092 523.407 150.753 523.407 C151.413 523.407 151.941 524.032 151.941 524.813 C151.941 525.594 151.413 526.219 150.753 526.219 C150.092 526.219 149.564 525.594 149.564 524.813 Z"/>
   <path id="path10137" stroke-width="4.0" stroke="#19466e" clip-path="url(#clipPath10)" fill="none" signature="MCCCCZ" d="M175.577 463.897 C175.577 463.116 176.105 462.491 176.766 462.491 C177.426 462.491 177.955 463.116 177.955 463.897 C177.955 464.678 177.426 465.303 176.766 465.303 C176.105 465.303 175.577 464.678 175.577 463.897 Z"/>
   <path id="path10139" stroke-width="4.0" stroke="#19466e" clip-path="url(#clipPath10)" fill="none" signature="MCCCCZ" d="M152.501 473.425 C152.501 472.644 153.06 472.019 153.759 472.019 C154.459 472.019 155.018 472.644 155.018 473.425 C155.018 474.206 154.459 474.83 153.759 474.83 C153.06 474.83 152.501 474.206 152.501 473.425 Z"/>
   <path id="path10141" stroke-width="4.0" stroke="#19466e" clip-path="url(#clipPath10)" fill="none" signature="MCCCCZ" d="M204.387 455.618 C204.387 454.837 204.916 454.213 205.576 454.213 C206.236 454.213 206.765 454.837 206.765 455.618 C206.765 456.399 206.236 457.024 205.576 457.024 C204.916 457.024 204.387 456.399 204.387 455.618 Z"/>
   <path id="path10143" stroke-width="4.0" stroke="#19466e" clip-path="url(#clipPath10)" fill="none" signature="MCCCCZ" d="M226.624 496.229 C226.624 495.448 227.184 494.823 227.883 494.823 C228.582 494.823 229.142 495.448 229.142 496.229 C229.142 497.01 228.582 497.635 227.883 497.635 C227.184 497.635 226.624 497.01 226.624 496.229 Z"/>
   <path id="path10145" stroke-width="4.0" stroke="#19466e" clip-path="url(#clipPath10)" fill="none" signature="MCCCCZ" d="M162.71 475.143 C162.71 474.362 163.239 473.737 163.899 473.737 C164.559 473.737 165.088 474.362 165.088 475.143 C165.088 475.924 164.559 476.549 163.899 476.549 C163.239 476.549 162.71 475.924 162.71 475.143 Z"/>
   <path id="path10147" stroke-width="4.0" stroke="#19466e" clip-path="url(#clipPath10)" fill="none" signature="MCCCCZ" d="M237.393 496.229 C237.393 495.448 237.953 494.823 238.652 494.823 C239.351 494.823 239.91 495.448 239.91 496.229 C239.91 497.01 239.351 497.635 238.652 497.635 C237.953 497.635 237.393 497.01 237.393 496.229 Z"/>
   <path id="path10149" stroke-width="4.0" stroke="#19466e" clip-path="url(#clipPath10)" fill="none" signature="MCCCCZ" d="M192.22 481.703 C192.22 480.922 192.748 480.297 193.409 480.297 C194.069 480.297 194.597 480.922 194.597 481.703 C194.597 482.484 194.069 483.109 193.409 483.109 C192.748 483.109 192.22 482.484 192.22 481.703 Z"/>
   <path id="path10151" stroke-width="4.0" stroke="#19466e" clip-path="url(#clipPath10)" fill="none" signature="MCCCCZ" d="M197.255 449.371 C197.255 448.59 197.814 447.965 198.513 447.965 C199.213 447.965 199.772 448.59 199.772 449.371 C199.772 450.152 199.213 450.776 198.513 450.776 C197.814 450.776 197.255 450.152 197.255 449.371 Z"/>
   <path id="path10153" stroke-width="4.0" stroke="#000000" clip-path="url(#clipPath10)" fill="none" signature="ML" d="M187.605 393.296 L185.507 396.264 "/>
   <path id="path10155" stroke-width="4.0" stroke="#000000" clip-path="url(#clipPath10)" fill="none" signature="ML" d="M184.528 397.67 L182.43 400.638 "/>
   <path id="path10157" stroke-width="4.0" stroke="#000000" clip-path="url(#clipPath10)" fill="none" signature="ML" d="M181.451 402.043 L179.353 405.011 "/>
   <path id="path10159" stroke-width="4.0" stroke="#000000" clip-path="url(#clipPath10)" fill="none" signature="ML" d="M178.374 406.573 L176.276 409.541 "/>
   <path id="path10161" stroke-width="4.0" stroke="#000000" clip-path="url(#clipPath10)" fill="none" signature="ML" d="M175.297 410.947 L173.199 413.914 "/>
   <path id="path10163" stroke-width="4.0" stroke="#000000" clip-path="url(#clipPath10)" fill="none" signature="ML" d="M172.22 415.476 L170.123 418.444 "/>
   <path id="path10165" stroke-width="4.0" stroke="#000000" clip-path="url(#clipPath10)" fill="none" signature="ML" d="M169.144 419.85 L167.046 422.817 "/>
   <path id="path10167" stroke-width="4.0" stroke="#000000" clip-path="url(#clipPath10)" fill="none" signature="ML" d="M166.067 424.379 L163.969 427.347 "/>
   <path id="path10169" stroke-width="4.0" stroke="#000000" clip-path="url(#clipPath10)" fill="none" signature="ML" d="M162.99 428.753 L160.892 431.721 "/>
   <path id="path10171" stroke-width="4.0" stroke="#000000" clip-path="url(#clipPath10)" fill="none" signature="ML" d="M159.913 433.282 L157.815 436.094 "/>
   <path id="path10173" stroke-width="4.0" stroke="#000000" clip-path="url(#clipPath10)" fill="none" signature="ML" d="M156.836 437.656 L154.738 440.624 "/>
   <path id="path10175" stroke-width="4.0" stroke="#000000" clip-path="url(#clipPath10)" fill="none" signature="ML" d="M153.759 442.029 L151.662 444.997 "/>
   <path id="path10177" stroke-width="4.0" stroke="#000000" clip-path="url(#clipPath10)" fill="none" signature="ML" d="M150.683 446.559 L148.585 449.527 "/>
   <path id="path10179" stroke-width="4.0" stroke="#000000" clip-path="url(#clipPath10)" fill="none" signature="ML" d="M147.606 450.933 L145.508 453.9 "/>
   <path id="path10181" stroke-width="4.0" stroke="#000000" clip-path="url(#clipPath10)" fill="none" signature="ML" d="M144.529 455.462 L142.431 458.43 "/>
   <path id="path10183" stroke-width="4.0" stroke="#000000" clip-path="url(#clipPath10)" fill="none" signature="ML" d="M141.452 459.836 L139.354 462.803 "/>
   <path id="path10185" stroke-width="4.0" stroke="#000000" clip-path="url(#clipPath10)" fill="none" signature="ML" d="M138.375 464.365 L136.278 467.177 "/>
   <path id="path10187" stroke-width="4.0" stroke="#000000" clip-path="url(#clipPath10)" fill="none" signature="ML" d="M135.299 468.739 L133.201 471.707 "/>
   <path id="path10189" stroke-width="4.0" stroke="#000000" clip-path="url(#clipPath10)" fill="none" signature="ML" d="M132.222 473.112 L130.124 476.08 "/>
   <path id="path10191" stroke-width="4.0" stroke="#000000" clip-path="url(#clipPath10)" fill="none" signature="ML" d="M129.145 477.642 L127.047 480.61 "/>
   <path id="path10193" stroke-width="4.0" stroke="#000000" clip-path="url(#clipPath10)" fill="none" signature="ML" d="M126.068 482.016 L123.97 484.983 "/>
   <path id="path10195" stroke-width="4.0" stroke="#000000" clip-path="url(#clipPath10)" fill="none" signature="ML" d="M122.991 486.545 L120.893 489.513 "/>
   <path id="path10197" stroke-width="4.0" stroke="#000000" clip-path="url(#clipPath10)" fill="none" signature="ML" d="M119.914 490.919 L117.817 493.886 "/>
   <path id="path10199" stroke-width="4.0" stroke="#000000" clip-path="url(#clipPath10)" fill="none" signature="ML" d="M116.838 495.448 L114.74 498.416 "/>
   <path id="path10201" stroke-width="4.0" stroke="#000000" clip-path="url(#clipPath10)" fill="none" signature="ML" d="M113.761 499.822 L111.663 502.789 "/>
   <path id="path10203" stroke-width="4.0" stroke="#000000" clip-path="url(#clipPath10)" fill="none" signature="ML" d="M110.684 504.195 L108.586 507.163 "/>
   <path id="path10205" stroke-width="4.0" stroke="#000000" clip-path="url(#clipPath10)" fill="none" signature="ML" d="M107.607 508.725 L105.509 511.693 "/>
   <path id="path10207" stroke-width="4.0" stroke="#000000" clip-path="url(#clipPath10)" fill="none" signature="ML" d="M104.53 513.097 L102.433 516.066 "/>
   <path id="path10209" stroke-width="4.0" stroke="#000000" clip-path="url(#clipPath10)" fill="none" signature="ML" d="M101.454 517.628 L99.356 520.596 "/>
   <path id="path10211" stroke-width="4.0" stroke="#000000" clip-path="url(#clipPath10)" fill="none" signature="ML" d="M98.377 522.001 L96.419 524.813 "/>
   <path id="path10213" stroke-width="4.0" stroke="#000000" clip-path="url(#clipPath10)" fill="none" signature="ML" d="M187.605 393.296 L189.563 396.264 "/>
   <path id="path10215" stroke-width="4.0" stroke="#000000" clip-path="url(#clipPath10)" fill="none" signature="ML" d="M190.681 397.67 L192.639 400.638 "/>
   <path id="path10217" stroke-width="4.0" stroke="#000000" clip-path="url(#clipPath10)" fill="none" signature="ML" d="M193.758 402.043 L195.716 405.011 "/>
   <path id="path10219" stroke-width="4.0" stroke="#000000" clip-path="url(#clipPath10)" fill="none" signature="ML" d="M196.835 406.573 L198.793 409.541 "/>
   <path id="path10221" stroke-width="4.0" stroke="#000000" clip-path="url(#clipPath10)" fill="none" signature="ML" d="M199.912 410.947 L201.87 413.914 "/>
   <path id="path10223" stroke-width="4.0" stroke="#000000" clip-path="url(#clipPath10)" fill="none" signature="ML" d="M202.989 415.476 L204.947 418.444 "/>
   <path id="path10225" stroke-width="4.0" stroke="#000000" clip-path="url(#clipPath10)" fill="none" signature="ML" d="M206.065 419.85 L208.023 422.817 "/>
   <path id="path10227" stroke-width="4.0" stroke="#000000" clip-path="url(#clipPath10)" fill="none" signature="ML" d="M209.142 424.379 L211.1 427.347 "/>
   <path id="path10229" stroke-width="4.0" stroke="#000000" clip-path="url(#clipPath10)" fill="none" signature="ML" d="M212.219 428.753 L214.177 431.721 "/>
   <path id="path10231" stroke-width="4.0" stroke="#000000" clip-path="url(#clipPath10)" fill="none" signature="ML" d="M215.296 433.282 L217.254 436.094 "/>
   <path id="path10233" stroke-width="4.0" stroke="#000000" clip-path="url(#clipPath10)" fill="none" signature="ML" d="M218.373 437.656 L220.331 440.624 "/>
   <path id="path10235" stroke-width="4.0" stroke="#000000" clip-path="url(#clipPath10)" fill="none" signature="ML" d="M221.45 442.029 L223.408 444.997 "/>
   <path id="path10237" stroke-width="4.0" stroke="#000000" clip-path="url(#clipPath10)" fill="none" signature="ML" d="M224.526 446.559 L226.484 449.527 "/>
   <path id="path10239" stroke-width="4.0" stroke="#000000" clip-path="url(#clipPath10)" fill="none" signature="ML" d="M227.603 450.933 L229.561 453.9 "/>
   <path id="path10241" stroke-width="4.0" stroke="#000000" clip-path="url(#clipPath10)" fill="none" signature="ML" d="M230.68 455.462 L232.638 458.43 "/>
   <path id="path10243" stroke-width="4.0" stroke="#000000" clip-path="url(#clipPath10)" fill="none" signature="ML" d="M233.757 459.836 L235.715 462.803 "/>
   <path id="path10245" stroke-width="4.0" stroke="#000000" clip-path="url(#clipPath10)" fill="none" signature="ML" d="M236.834 464.365 L238.792 467.177 "/>
   <path id="path10247" stroke-width="4.0" stroke="#000000" clip-path="url(#clipPath10)" fill="none" signature="ML" d="M239.911 468.739 L241.868 471.707 "/>
   <path id="path10249" stroke-width="4.0" stroke="#000000" clip-path="url(#clipPath10)" fill="none" signature="ML" d="M242.987 473.112 L244.945 476.08 "/>
   <path id="path10251" stroke-width="4.0" stroke="#000000" clip-path="url(#clipPath10)" fill="none" signature="ML" d="M246.064 477.642 L248.022 480.61 "/>
   <path id="path10253" stroke-width="4.0" stroke="#000000" clip-path="url(#clipPath10)" fill="none" signature="ML" d="M249.141 482.016 L251.099 484.983 "/>
   <path id="path10255" stroke-width="4.0" stroke="#000000" clip-path="url(#clipPath10)" fill="none" signature="ML" d="M252.218 486.545 L254.176 489.513 "/>
   <path id="path10257" stroke-width="4.0" stroke="#000000" clip-path="url(#clipPath10)" fill="none" signature="ML" d="M255.295 490.919 L257.253 493.886 "/>
   <path id="path10259" stroke-width="4.0" stroke="#000000" clip-path="url(#clipPath10)" fill="none" signature="ML" d="M258.37 495.448 L260.329 498.416 "/>
   <path id="path10261" stroke-width="4.0" stroke="#000000" clip-path="url(#clipPath10)" fill="none" signature="ML" d="M261.447 499.822 L263.406 502.789 "/>
   <path id="path10263" stroke-width="4.0" stroke="#000000" clip-path="url(#clipPath10)" fill="none" signature="ML" d="M264.525 504.195 L266.483 507.163 "/>
   <path id="path10265" stroke-width="4.0" stroke="#000000" clip-path="url(#clipPath10)" fill="none" signature="ML" d="M267.602 508.725 L269.56 511.693 "/>
   <path id="path10267" stroke-width="4.0" stroke="#000000" clip-path="url(#clipPath10)" fill="none" signature="ML" d="M270.679 513.097 L272.637 516.066 "/>
   <path id="path10269" stroke-width="4.0" stroke="#000000" clip-path="url(#clipPath10)" fill="none" signature="ML" d="M273.756 517.628 L275.714 520.596 "/>
   <path id="path10271" stroke-width="4.0" stroke="#000000" clip-path="url(#clipPath10)" fill="none" signature="ML" d="M276.832 522.001 L278.65 524.813 "/>
   <path id="path10273" stroke-width="4.0" stroke="#000000" clip-path="url(#clipPath10)" fill="none" signature="ML" d="M187.605 393.296 L187.605 524.813 "/>
   <path id="path10275" stroke-width="2.0" stroke="#000000" clip-path="url(#clipPath10)" fill="none" signature="ML" d="M87.468 534.966 L87.468 389.079 "/>
   <path id="path10277" stroke-width="2.0" stroke="#000000" clip-path="url(#clipPath10)" fill="none" signature="ML" d="M87.468 393.296 L85.09 393.296 "/>
   <path id="path10281" stroke-width="2.0" stroke="#000000" clip-path="url(#clipPath10)" fill="none" signature="ML" d="M87.468 420.787 L85.09 420.787 "/>
   <path id="path10287" stroke-width="2.0" stroke="#000000" clip-path="url(#clipPath10)" fill="none" signature="ML" d="M87.468 448.277 L85.09 448.277 "/>
   <path id="path10293" stroke-width="2.0" stroke="#000000" clip-path="url(#clipPath10)" fill="none" signature="ML" d="M87.468 475.768 L85.09 475.768 "/>
   <path id="path10299" stroke-width="2.0" stroke="#000000" clip-path="url(#clipPath10)" fill="none" signature="ML" d="M87.468 503.414 L85.09 503.414 "/>
   <path id="path10305" stroke-width="2.0" stroke="#000000" clip-path="url(#clipPath10)" fill="none" signature="ML" d="M87.468 530.905 L85.09 530.905 "/>
   <path id="path10329" stroke-width="2.0" stroke="#000000" clip-path="url(#clipPath10)" fill="none" signature="ML" d="M87.468 534.966 L289.419 534.966 "/>
   <path id="path10331" stroke-width="2.0" stroke="#000000" clip-path="url(#clipPath10)" fill="none" signature="ML" d="M91.104 534.966 L91.104 537.621 "/>
   <path id="path10337" stroke-width="2.0" stroke="#000000" clip-path="url(#clipPath10)" fill="none" signature="ML" d="M139.774 534.966 L139.774 537.621 "/>
   <path id="path10345" stroke-width="2.0" stroke="#000000" clip-path="url(#clipPath10)" fill="none" signature="ML" d="M188.444 534.966 L188.444 537.621 "/>
   <path id="path10349" stroke-width="2.0" stroke="#000000" clip-path="url(#clipPath10)" fill="none" signature="ML" d="M237.113 534.966 L237.113 537.621 "/>
   <path id="path10355" stroke-width="2.0" stroke="#000000" clip-path="url(#clipPath10)" fill="none" signature="ML" d="M285.783 534.966 L285.783 537.621 "/>
   <text id="text10279" font-weight="normal" font-family="Helvetica" svgx:width="556.0" svgx:fontName="SWHEEG+ArialMT" clip-path="url(#clipPath10)" fill="#000000" stroke="none" transform="matrix(0.0,-1.0,1.0,0.0,-313.10638,477.23499)" x="82.064" y="395.171" font-size="6.208" xmlns:svgx="http://www.xml-cml.org/schema/svgx">0</text>
   <text id="text10283" font-weight="normal" font-family="Helvetica" svgx:width="278.0" svgx:fontName="SWHEEG+ArialMT" clip-path="url(#clipPath10)" fill="#000000" stroke="none" transform="matrix(0.0,-1.0,1.0,0.0,-341.37769,505.50629)" x="82.064" y="423.442" font-size="6.208" xmlns:svgx="http://www.xml-cml.org/schema/svgx">.</text>
   <text id="text10285" font-weight="normal" font-family="Helvetica" svgx:width="556.0" svgx:fontName="SWHEEG+ArialMT" clip-path="url(#clipPath10)" fill="#000000" stroke="none" transform="matrix(0.0,-1.0,1.0,0.0,-339.50146,503.63007)" x="82.064" y="421.566" font-size="6.208" xmlns:svgx="http://www.xml-cml.org/schema/svgx">1</text>
   <text id="text10289" font-weight="normal" font-family="Helvetica" svgx:width="278.0" svgx:fontName="SWHEEG+ArialMT" clip-path="url(#clipPath10)" fill="#000000" stroke="none" transform="matrix(0.0,-1.0,1.0,0.0,-368.8681,532.9967)" x="82.064" y="450.932" font-size="6.208" xmlns:svgx="http://www.xml-cml.org/schema/svgx">.</text>
   <text id="text10291" font-weight="normal" font-family="Helvetica" svgx:width="556.0" svgx:fontName="SWHEEG+ArialMT" clip-path="url(#clipPath10)" fill="#000000" stroke="none" transform="matrix(0.0,-1.0,1.0,0.0,-366.99188,531.12048)" x="82.064" y="449.056" font-size="6.208" xmlns:svgx="http://www.xml-cml.org/schema/svgx">2</text>
   <text id="text10295" font-weight="normal" font-family="Helvetica" svgx:width="278.0" svgx:fontName="SWHEEG+ArialMT" clip-path="url(#clipPath10)" fill="#000000" stroke="none" transform="matrix(0.0,-1.0,1.0,0.0,-396.35861,560.48721)" x="82.064" y="478.423" font-size="6.208" xmlns:svgx="http://www.xml-cml.org/schema/svgx">.</text>
   <text id="text10297" font-weight="normal" font-family="Helvetica" svgx:width="556.0" svgx:fontName="SWHEEG+ArialMT" clip-path="url(#clipPath10)" fill="#000000" stroke="none" transform="matrix(0.0,-1.0,1.0,0.0,-394.48239,558.61099)" x="82.064" y="476.547" font-size="6.208" xmlns:svgx="http://www.xml-cml.org/schema/svgx">3</text>
   <text id="text10301" font-weight="normal" font-family="Helvetica" svgx:width="278.0" svgx:fontName="SWHEEG+ArialMT" clip-path="url(#clipPath10)" fill="#000000" stroke="none" transform="matrix(0.0,-1.0,1.0,0.0,-424.00531,588.13391)" x="82.064" y="506.07" font-size="6.208" xmlns:svgx="http://www.xml-cml.org/schema/svgx">.</text>
   <text id="text10303" font-weight="normal" font-family="Helvetica" svgx:width="556.0" svgx:fontName="SWHEEG+ArialMT" clip-path="url(#clipPath10)" fill="#000000" stroke="none" transform="matrix(0.0,-1.0,1.0,0.0,-422.12909,586.25769)" x="82.064" y="504.193" font-size="6.208" xmlns:svgx="http://www.xml-cml.org/schema/svgx">4</text>
   <text id="text10307" font-weight="normal" font-family="Helvetica" svgx:width="278.0" svgx:fontName="SWHEEG+ArialMT" clip-path="url(#clipPath10)" fill="#000000" stroke="none" transform="matrix(0.0,-1.0,1.0,0.0,-451.49564,615.62424)" x="82.064" y="533.56" font-size="6.208" xmlns:svgx="http://www.xml-cml.org/schema/svgx">.</text>
   <text id="text10309" font-weight="normal" font-family="Helvetica" svgx:width="556.0" svgx:fontName="SWHEEG+ArialMT" clip-path="url(#clipPath10)" fill="#000000" stroke="none" transform="matrix(0.0,-1.0,1.0,0.0,-449.61942,613.74802)" x="82.064" y="531.684" font-size="6.208" xmlns:svgx="http://www.xml-cml.org/schema/svgx">5</text>
   <text id="text10311" font-weight="normal" font-family="Helvetica" svgx:width="500.0" svgx:fontName="SWHEEG+ArialMT" clip-path="url(#clipPath10)" fill="#000000" stroke="none" transform="matrix(0.0,-1.0,1.0,0.0,-401.38619,552.64799)" x="75.631" y="477.017" font-size="6.208" xmlns:svgx="http://www.xml-cml.org/schema/svgx">s</text>
   <text id="text10313" font-weight="normal" font-family="Helvetica" svgx:width="556.0" svgx:fontName="SWHEEG+ArialMT" clip-path="url(#clipPath10)" fill="#000000" stroke="none" transform="matrix(0.0,-1.0,1.0,0.0,-398.10607,549.36787)" x="75.631" y="473.737" font-size="6.208" xmlns:svgx="http://www.xml-cml.org/schema/svgx">e</text>
   <text id="text10315" font-weight="normal" font-family="Helvetica" svgx:width="333.0" svgx:fontName="SWHEEG+ArialMT" clip-path="url(#clipPath10)" fill="#000000" stroke="none" transform="matrix(0.0,-1.0,1.0,0.0,-394.35757,545.61936)" x="75.631" y="469.988" font-size="6.208" xmlns:svgx="http://www.xml-cml.org/schema/svgx">(</text>
   <text id="text10317" font-weight="normal" font-family="Helvetica" svgx:width="222.0" svgx:fontName="SWHEEG+ArialMT" clip-path="url(#clipPath10)" fill="#000000" stroke="none" transform="matrix(0.0,-1.0,1.0,0.0,-392.17037,543.43217)" x="75.631" y="467.801" font-size="6.208" xmlns:svgx="http://www.xml-cml.org/schema/svgx">l</text>
   <text id="text10319" font-weight="normal" font-family="Helvetica" svgx:width="556.0" svgx:fontName="SWHEEG+ArialMT" clip-path="url(#clipPath10)" fill="#000000" stroke="none" transform="matrix(0.0,-1.0,1.0,0.0,-390.7665,542.0283)" x="75.631" y="466.397" font-size="6.208" xmlns:svgx="http://www.xml-cml.org/schema/svgx">o</text>
   <text id="text10321" font-weight="normal" font-family="Helvetica" svgx:width="556.0" svgx:fontName="SWHEEG+ArialMT" clip-path="url(#clipPath10)" fill="#000000" stroke="none" transform="matrix(0.0,-1.0,1.0,0.0,-387.01733,538.27912)" x="75.631" y="462.648" font-size="6.208" xmlns:svgx="http://www.xml-cml.org/schema/svgx">g</text>
   <text id="text10323" font-weight="normal" font-family="Helvetica" svgx:width="778.0" svgx:fontName="SWHEEG+ArialMT" clip-path="url(#clipPath10)" fill="#000000" stroke="none" transform="matrix(0.0,-1.0,1.0,0.0,-383.42233,534.68412)" x="75.631" y="459.053" font-size="6.208" xmlns:svgx="http://www.xml-cml.org/schema/svgx">O</text>
   <text id="text10325" font-weight="normal" font-family="Helvetica" svgx:width="722.0" svgx:fontName="SWHEEG+ArialMT" clip-path="url(#clipPath10)" fill="#000000" stroke="none" transform="matrix(0.0,-1.0,1.0,0.0,-378.26797,529.52976)" x="75.631" y="453.899" font-size="6.208" xmlns:svgx="http://www.xml-cml.org/schema/svgx">R</text>
   <text id="text10327" font-weight="normal" font-family="Helvetica" svgx:width="333.0" svgx:fontName="SWHEEG+ArialMT" clip-path="url(#clipPath10)" fill="#000000" stroke="none" transform="matrix(0.0,-1.0,1.0,0.0,-373.58398,524.84577)" x="75.631" y="449.215" font-size="6.208" xmlns:svgx="http://www.xml-cml.org/schema/svgx">)</text>
   <text id="text10333" font-weight="normal" font-family="Helvetica" svgx:width="333.0" svgx:fontName="SWHEEG+ArialMT" clip-path="url(#clipPath10)" fill="#000000" stroke="none" x="88.587" y="545.469" font-size="6.208" xmlns:svgx="http://www.xml-cml.org/schema/svgx">-</text>
   <text id="text10335" font-weight="normal" font-family="Helvetica" svgx:width="556.0" svgx:fontName="SWHEEG+ArialMT" clip-path="url(#clipPath10)" fill="#000000" stroke="none" x="90.543" y="545.469" font-size="6.208" xmlns:svgx="http://www.xml-cml.org/schema/svgx">1</text>
   <text id="text10339" font-weight="normal" font-family="Helvetica" svgx:width="333.0" svgx:fontName="SWHEEG+ArialMT" clip-path="url(#clipPath10)" fill="#000000" stroke="none" x="136.417" y="545.469" font-size="6.208" xmlns:svgx="http://www.xml-cml.org/schema/svgx">-</text>
   <text id="text10341" font-weight="normal" font-family="Helvetica" svgx:width="278.0" svgx:fontName="SWHEEG+ArialMT" clip-path="url(#clipPath10)" fill="#000000" stroke="none" x="138.375" y="545.469" font-size="6.208" xmlns:svgx="http://www.xml-cml.org/schema/svgx">.</text>
   <text id="text10343" font-weight="normal" font-family="Helvetica" svgx:width="556.0" svgx:fontName="SWHEEG+ArialMT" clip-path="url(#clipPath10)" fill="#000000" stroke="none" x="139.914" y="545.469" font-size="6.208" xmlns:svgx="http://www.xml-cml.org/schema/svgx">5</text>
   <text id="text10347" font-weight="normal" font-family="Helvetica" svgx:width="556.0" svgx:fontName="SWHEEG+ArialMT" clip-path="url(#clipPath10)" fill="#000000" stroke="none" x="186.905" y="545.469" font-size="6.208" xmlns:svgx="http://www.xml-cml.org/schema/svgx">0</text>
   <text id="text10351" font-weight="normal" font-family="Helvetica" svgx:width="278.0" svgx:fontName="SWHEEG+ArialMT" clip-path="url(#clipPath10)" fill="#000000" stroke="none" x="234.736" y="545.469" font-size="6.208" xmlns:svgx="http://www.xml-cml.org/schema/svgx">.</text>
   <text id="text10353" font-weight="normal" font-family="Helvetica" svgx:width="556.0" svgx:fontName="SWHEEG+ArialMT" clip-path="url(#clipPath10)" fill="#000000" stroke="none" x="236.275" y="545.469" font-size="6.208" xmlns:svgx="http://www.xml-cml.org/schema/svgx">5</text>
   <text id="text10357" font-weight="normal" font-family="Helvetica" svgx:width="556.0" svgx:fontName="SWHEEG+ArialMT" clip-path="url(#clipPath10)" fill="#000000" stroke="none" x="284.245" y="545.469" font-size="6.208" xmlns:svgx="http://www.xml-cml.org/schema/svgx">1</text>
   <text id="text10359" font-weight="normal" font-family="Helvetica" svgx:width="222.0" svgx:fontName="SWHEEG+ArialMT" clip-path="url(#clipPath10)" fill="#000000" stroke="none" x="182.01" y="550.486" font-size="6.208" xmlns:svgx="http://www.xml-cml.org/schema/svgx">l</text>
   <text id="text10361" font-weight="normal" font-family="Helvetica" svgx:width="556.0" svgx:fontName="SWHEEG+ArialMT" clip-path="url(#clipPath10)" fill="#000000" stroke="none" x="183.267" y="550.486" font-size="6.208" xmlns:svgx="http://www.xml-cml.org/schema/svgx">o</text>
   <text id="text10363" font-weight="normal" font-family="Helvetica" svgx:width="556.0" svgx:fontName="SWHEEG+ArialMT" clip-path="url(#clipPath10)" fill="#000000" stroke="none" x="186.624" y="550.486" font-size="6.208" xmlns:svgx="http://www.xml-cml.org/schema/svgx">g</text>
   <text id="text10365" font-weight="normal" font-family="Helvetica" svgx:width="556.0" svgx:fontName="SWHEEG+ArialMT" clip-path="url(#clipPath10)" fill="#000000" stroke="none" x="189.843" y="550.486" font-size="6.208" xmlns:svgx="http://www.xml-cml.org/schema/svgx">o</text>
   <text id="text10367" font-weight="normal" font-family="Helvetica" svgx:width="333.0" svgx:fontName="SWHEEG+ArialMT" clip-path="url(#clipPath10)" fill="#000000" stroke="none" x="193.199" y="550.486" font-size="6.208" xmlns:svgx="http://www.xml-cml.org/schema/svgx">r</text>
   <text id="text10369" font-weight="normal" font-family="Helvetica" svgx:width="611.0" svgx:fontName="SWHEEG+ArialMT" clip-path="url(#clipPath10)" fill="#000000" stroke="none" x="122.991" y="385.653" font-size="6.799" xmlns:svgx="http://www.xml-cml.org/schema/svgx">F</text>
   <text id="text10371" font-weight="normal" font-family="Helvetica" svgx:width="556.0" svgx:fontName="SWHEEG+ArialMT" clip-path="url(#clipPath10)" fill="#000000" stroke="none" x="126.907" y="385.653" font-size="6.799" xmlns:svgx="http://www.xml-cml.org/schema/svgx">u</text>
   <text id="text10373" font-weight="normal" font-family="Helvetica" svgx:width="556.0" svgx:fontName="SWHEEG+ArialMT" clip-path="url(#clipPath10)" fill="#000000" stroke="none" x="130.401" y="385.653" font-size="6.799" xmlns:svgx="http://www.xml-cml.org/schema/svgx">n</text>
   <text id="text10375" font-weight="normal" font-family="Helvetica" svgx:width="556.0" svgx:fontName="SWHEEG+ArialMT" clip-path="url(#clipPath10)" fill="#000000" stroke="none" x="134.037" y="385.653" font-size="6.799" xmlns:svgx="http://www.xml-cml.org/schema/svgx">n</text>
   <text id="text10377" font-weight="normal" font-family="Helvetica" svgx:width="556.0" svgx:fontName="SWHEEG+ArialMT" clip-path="url(#clipPath10)" fill="#000000" stroke="none" x="137.53" y="385.653" font-size="6.799" xmlns:svgx="http://www.xml-cml.org/schema/svgx">e</text>
   <text id="text10379" font-weight="normal" font-family="Helvetica" svgx:width="222.0" svgx:fontName="SWHEEG+ArialMT" clip-path="url(#clipPath10)" fill="#000000" stroke="none" x="141.023" y="385.653" font-size="6.799" xmlns:svgx="http://www.xml-cml.org/schema/svgx">l</text>
   <text id="text10383" font-weight="normal" font-family="Helvetica" svgx:width="556.0" svgx:fontName="SWHEEG+ArialMT" clip-path="url(#clipPath10)" fill="#000000" stroke="none" x="144.243" y="385.653" font-size="6.799" xmlns:svgx="http://www.xml-cml.org/schema/svgx">p</text>
   <text id="text10385" font-weight="normal" font-family="Helvetica" svgx:width="222.0" svgx:fontName="SWHEEG+ArialMT" clip-path="url(#clipPath10)" fill="#000000" stroke="none" x="147.736" y="385.653" font-size="6.799" xmlns:svgx="http://www.xml-cml.org/schema/svgx">l</text>
   <text id="text10387" font-weight="normal" font-family="Helvetica" svgx:width="556.0" svgx:fontName="SWHEEG+ArialMT" clip-path="url(#clipPath10)" fill="#000000" stroke="none" x="149.135" y="385.653" font-size="6.799" xmlns:svgx="http://www.xml-cml.org/schema/svgx">o</text>
   <text id="text10389" font-weight="normal" font-family="Helvetica" svgx:width="278.0" svgx:fontName="SWHEEG+ArialMT" clip-path="url(#clipPath10)" fill="#000000" stroke="none" x="152.771" y="385.653" font-size="6.799" xmlns:svgx="http://www.xml-cml.org/schema/svgx">t</text>
   <text id="text10393" font-weight="normal" font-family="Helvetica" svgx:width="722.0" svgx:fontName="SWHEEG+ArialMT" clip-path="url(#clipPath10)" fill="#000000" stroke="none" x="156.41" y="385.653" font-size="6.799" xmlns:svgx="http://www.xml-cml.org/schema/svgx">w</text>
   <text id="text10395" font-weight="normal" font-family="Helvetica" svgx:width="222.0" svgx:fontName="SWHEEG+ArialMT" clip-path="url(#clipPath10)" fill="#000000" stroke="none" x="160.885" y="385.653" font-size="6.799" xmlns:svgx="http://www.xml-cml.org/schema/svgx">i</text>
   <text id="text10397" font-weight="normal" font-family="Helvetica" svgx:width="278.0" svgx:fontName="SWHEEG+ArialMT" clip-path="url(#clipPath10)" fill="#000000" stroke="none" x="162.284" y="385.653" font-size="6.799" xmlns:svgx="http://www.xml-cml.org/schema/svgx">t</text>
   <text id="text10399" font-weight="normal" font-family="Helvetica" svgx:width="556.0" svgx:fontName="SWHEEG+ArialMT" clip-path="url(#clipPath10)" fill="#000000" stroke="none" x="164.102" y="385.653" font-size="6.799" xmlns:svgx="http://www.xml-cml.org/schema/svgx">h</text>
   <text id="text10403" font-weight="normal" font-family="Helvetica" svgx:width="556.0" svgx:fontName="SWHEEG+ArialMT" clip-path="url(#clipPath10)" fill="#000000" stroke="none" x="169.416" y="385.653" font-size="6.799" xmlns:svgx="http://www.xml-cml.org/schema/svgx">p</text>
   <text id="text10405" font-weight="normal" font-family="Helvetica" svgx:width="500.0" svgx:fontName="SWHEEG+ArialMT" clip-path="url(#clipPath10)" fill="#000000" stroke="none" x="172.909" y="385.653" font-size="6.799" xmlns:svgx="http://www.xml-cml.org/schema/svgx">s</text>
   <text id="text10407" font-weight="normal" font-family="Helvetica" svgx:width="556.0" svgx:fontName="SWHEEG+ArialMT" clip-path="url(#clipPath10)" fill="#000000" stroke="none" x="176.126" y="385.653" font-size="6.799" xmlns:svgx="http://www.xml-cml.org/schema/svgx">e</text>
   <text id="text10409" font-weight="normal" font-family="Helvetica" svgx:width="556.0" svgx:fontName="SWHEEG+ArialMT" clip-path="url(#clipPath10)" fill="#000000" stroke="none" x="179.762" y="385.653" font-size="6.799" xmlns:svgx="http://www.xml-cml.org/schema/svgx">u</text>
   <text id="text10411" font-weight="normal" font-family="Helvetica" svgx:width="556.0" svgx:fontName="SWHEEG+ArialMT" clip-path="url(#clipPath10)" fill="#000000" stroke="none" x="183.255" y="385.653" font-size="6.799" xmlns:svgx="http://www.xml-cml.org/schema/svgx">d</text>
   <text id="text10413" font-weight="normal" font-family="Helvetica" svgx:width="556.0" svgx:fontName="SWHEEG+ArialMT" clip-path="url(#clipPath10)" fill="#000000" stroke="none" x="186.749" y="385.653" font-size="6.799" xmlns:svgx="http://www.xml-cml.org/schema/svgx">o</text>
   <text id="text10417" font-weight="normal" font-family="Helvetica" svgx:width="556.0" svgx:fontName="SWHEEG+ArialMT" clip-path="url(#clipPath10)" fill="#000000" stroke="none" x="192.206" y="385.653" font-size="6.799" xmlns:svgx="http://www.xml-cml.org/schema/svgx">9</text>
   <text id="text10419" font-weight="normal" font-family="Helvetica" svgx:width="556.0" svgx:fontName="SWHEEG+ArialMT" clip-path="url(#clipPath10)" fill="#000000" stroke="none" x="195.7" y="385.653" font-size="6.799" xmlns:svgx="http://www.xml-cml.org/schema/svgx">5</text>
   <text id="text10421" font-weight="normal" font-family="Helvetica" svgx:width="889.0" svgx:fontName="SWHEEG+ArialMT" clip-path="url(#clipPath10)" fill="#000000" stroke="none" x="199.193" y="385.653" font-size="6.799" xmlns:svgx="http://www.xml-cml.org/schema/svgx">%</text>
   <text id="text10425" font-weight="normal" font-family="Helvetica" svgx:width="500.0" svgx:fontName="SWHEEG+ArialMT" clip-path="url(#clipPath10)" fill="#000000" stroke="none" x="206.748" y="385.653" font-size="6.799" xmlns:svgx="http://www.xml-cml.org/schema/svgx">c</text>
   <text id="text10427" font-weight="normal" font-family="Helvetica" svgx:width="556.0" svgx:fontName="SWHEEG+ArialMT" clip-path="url(#clipPath10)" fill="#000000" stroke="none" x="209.964" y="385.653" font-size="6.799" xmlns:svgx="http://www.xml-cml.org/schema/svgx">o</text>
   <text id="text10429" font-weight="normal" font-family="Helvetica" svgx:width="556.0" svgx:fontName="SWHEEG+ArialMT" clip-path="url(#clipPath10)" fill="#000000" stroke="none" x="213.458" y="385.653" font-size="6.799" xmlns:svgx="http://www.xml-cml.org/schema/svgx">n</text>
   <text id="text10431" font-weight="normal" font-family="Helvetica" svgx:width="278.0" svgx:fontName="SWHEEG+ArialMT" clip-path="url(#clipPath10)" fill="#000000" stroke="none" x="217.094" y="385.653" font-size="6.799" xmlns:svgx="http://www.xml-cml.org/schema/svgx">f</text>
   <text id="text10433" font-weight="normal" font-family="Helvetica" svgx:width="222.0" svgx:fontName="SWHEEG+ArialMT" clip-path="url(#clipPath10)" fill="#000000" stroke="none" x="218.912" y="385.653" font-size="6.799" xmlns:svgx="http://www.xml-cml.org/schema/svgx">i</text>
   <text id="text10435" font-weight="normal" font-family="Helvetica" svgx:width="556.0" svgx:fontName="SWHEEG+ArialMT" clip-path="url(#clipPath10)" fill="#000000" stroke="none" x="220.311" y="385.653" font-size="6.799" xmlns:svgx="http://www.xml-cml.org/schema/svgx">d</text>
   <text id="text10437" font-weight="normal" font-family="Helvetica" svgx:width="556.0" svgx:fontName="SWHEEG+ArialMT" clip-path="url(#clipPath10)" fill="#000000" stroke="none" x="223.804" y="385.653" font-size="6.799" xmlns:svgx="http://www.xml-cml.org/schema/svgx">e</text>
   <text id="text10439" font-weight="normal" font-family="Helvetica" svgx:width="556.0" svgx:fontName="SWHEEG+ArialMT" clip-path="url(#clipPath10)" fill="#000000" stroke="none" x="227.44" y="385.653" font-size="6.799" xmlns:svgx="http://www.xml-cml.org/schema/svgx">n</text>
   <text id="text10441" font-weight="normal" font-family="Helvetica" svgx:width="500.0" svgx:fontName="SWHEEG+ArialMT" clip-path="url(#clipPath10)" fill="#000000" stroke="none" x="230.933" y="385.653" font-size="6.799" xmlns:svgx="http://www.xml-cml.org/schema/svgx">c</text>
   <text id="text10443" font-weight="normal" font-family="Helvetica" svgx:width="556.0" svgx:fontName="SWHEEG+ArialMT" clip-path="url(#clipPath10)" fill="#000000" stroke="none" x="234.15" y="385.653" font-size="6.799" xmlns:svgx="http://www.xml-cml.org/schema/svgx">e</text>
   <text id="text10447" font-weight="normal" font-family="Helvetica" svgx:width="222.0" svgx:fontName="SWHEEG+ArialMT" clip-path="url(#clipPath10)" fill="#000000" stroke="none" x="239.464" y="385.653" font-size="6.799" xmlns:svgx="http://www.xml-cml.org/schema/svgx">l</text>
   <text id="text10449" font-weight="normal" font-family="Helvetica" svgx:width="222.0" svgx:fontName="SWHEEG+ArialMT" clip-path="url(#clipPath10)" fill="#000000" stroke="none" x="240.863" y="385.653" font-size="6.799" xmlns:svgx="http://www.xml-cml.org/schema/svgx">i</text>
   <text id="text10451" font-weight="normal" font-family="Helvetica" svgx:width="833.0" svgx:fontName="SWHEEG+ArialMT" clip-path="url(#clipPath10)" fill="#000000" stroke="none" x="242.261" y="385.653" font-size="6.799" xmlns:svgx="http://www.xml-cml.org/schema/svgx">m</text>
   <text id="text10453" font-weight="normal" font-family="Helvetica" svgx:width="222.0" svgx:fontName="SWHEEG+ArialMT" clip-path="url(#clipPath10)" fill="#000000" stroke="none" x="247.576" y="385.653" font-size="6.799" xmlns:svgx="http://www.xml-cml.org/schema/svgx">i</text>
   <text id="text10455" font-weight="normal" font-family="Helvetica" svgx:width="278.0" svgx:fontName="SWHEEG+ArialMT" clip-path="url(#clipPath10)" fill="#000000" stroke="none" x="248.975" y="385.653" font-size="6.799" xmlns:svgx="http://www.xml-cml.org/schema/svgx">t</text>
   <text id="text10457" font-weight="normal" font-family="Helvetica" svgx:width="500.0" svgx:fontName="SWHEEG+ArialMT" clip-path="url(#clipPath10)" fill="#000000" stroke="none" x="250.793" y="385.653" font-size="6.799" xmlns:svgx="http://www.xml-cml.org/schema/svgx">s</text>
  </g>
  <g fill="orange">
   <circle fill="none" stroke="#19466e" stroke-width="4.0" cx="233.547" cy="457.337" r="1.359" id="circle.7"/>
   <circle fill="none" stroke="#19466e" stroke-width="4.0" cx="205.226" cy="492.012" r="1.375" id="circle.8"/>
   <circle fill="none" stroke="#19466e" stroke-width="4.0" cx="122.082" cy="499.978" r="1.359" id="circle.9"/>
   <circle fill="none" stroke="#19466e" stroke-width="4.0" cx="197.045" cy="466.865" r="1.359" id="circle.10"/>
   <circle fill="none" stroke="#19466e" stroke-width="4.0" cx="151.732" cy="446.559" r="1.359" id="circle.11"/>
   <circle fill="none" stroke="#19466e" stroke-width="4.0" cx="200.052" cy="477.642" r="1.375" id="circle.12"/>
   <circle fill="none" stroke="#19466e" stroke-width="4.0" cx="195.506" cy="507.163" r="1.359" id="circle.13"/>
   <circle fill="none" stroke="#19466e" stroke-width="4.0" cx="169.563" cy="484.515" r="1.375" id="circle.14"/>
   <circle fill="none" stroke="#19466e" stroke-width="4.0" cx="191.381" cy="463.272" r="1.375" id="circle.15"/>
   <circle fill="none" stroke="#19466e" stroke-width="4.0" cx="215.296" cy="482.64" r="1.375" id="circle.16"/>
   <circle fill="none" stroke="#19466e" stroke-width="4.0" cx="187.605" cy="485.608" r="1.375" id="circle.17"/>
   <circle fill="none" stroke="#19466e" stroke-width="4.0" cx="152.92" cy="461.866" r="1.375" id="circle.18"/>
   <circle fill="none" stroke="#19466e" stroke-width="4.0" cx="194.947" cy="437.5" r="1.359" id="circle.19"/>
   <circle fill="none" stroke="#19466e" stroke-width="4.0" cx="158.095" cy="519.658" r="1.375" id="circle.20"/>
   <circle fill="none" stroke="#19466e" stroke-width="4.0" cx="150.753" cy="524.813" r="1.359" id="circle.21"/>
   <circle fill="none" stroke="#19466e" stroke-width="4.0" cx="176.766" cy="463.897" r="1.359" id="circle.22"/>
   <circle fill="none" stroke="#19466e" stroke-width="4.0" cx="153.759" cy="473.425" r="1.375" id="circle.23"/>
   <circle fill="none" stroke="#19466e" stroke-width="4.0" cx="205.576" cy="455.618" r="1.359" id="circle.24"/>
   <circle fill="none" stroke="#19466e" stroke-width="4.0" cx="227.883" cy="496.229" r="1.375" id="circle.25"/>
   <circle fill="none" stroke="#19466e" stroke-width="4.0" cx="163.899" cy="475.143" r="1.359" id="circle.26"/>
   <circle fill="none" stroke="#19466e" stroke-width="4.0" cx="238.652" cy="496.229" r="1.375" id="circle.27"/>
   <circle fill="none" stroke="#19466e" stroke-width="4.0" cx="193.409" cy="481.703" r="1.359" id="circle.28"/>
   <circle fill="none" stroke="#19466e" stroke-width="4.0" cx="198.513" cy="449.371" r="1.375" id="circle.29"/>
  </g>
  <g class="pathAnnotation NYI"/>
  <g class="plotBox">
   <g class="axis">
    <g class="axisTickBox">
     <rect stroke="black" x="82.468" y="524.966" width="211.95099999999996" height="28.0" stroke-width="0.2" fill="yellow" opacity="0.3"/>
     <rect stroke="black" x="91.104" y="534.966" width="194.67900000000003" height="2.6549999999999727" stroke-width="0.2" fill="green" opacity="0.3"/>
    </g>
    <g class="axisTextBox">
     <rect stroke="black" x="82.468" y="524.966" width="211.95099999999996" height="28.0" stroke-width="0.2" fill="yellow" opacity="0.3"/>
     <rect stroke="black" x="88.587" y="539.2610000000001" width="199.13448" height="6.20799999999997" stroke-width="0.2" fill="green" opacity="0.3"/>
    </g>
   </g>
   <g class="axis">
    <g class="axisTickBox">
     <rect stroke="black" x="69.468" y="384.079" width="28.0" height="155.887" stroke-width="0.2" fill="yellow" opacity="0.3"/>
     <rect stroke="black" x="85.09" y="393.296" width="2.378" height="137.60899999999998" stroke-width="0.2" fill="green" opacity="0.3"/>
    </g>
    <g class="axisTextBox">
     <rect stroke="black" x="69.468" y="384.079" width="28.0" height="155.887" stroke-width="0.2" fill="yellow" opacity="0.3"/>
     <rect stroke="black" x="75.85590999999994" y="391.69451" width="6.208710000000053" height="139.98951000000005" stroke-width="0.2" fill="green" opacity="0.3"/>
    </g>
   </g>
   <g class="axis">
    <g class="axisTickBox">
     <rect stroke="black" x="82.468" y="371.079" width="211.95099999999996" height="28.0" stroke-width="0.2" fill="yellow" opacity="0.3"/>
    </g>
    <g class="axisTextBox">
     <rect stroke="black" x="82.468" y="371.079" width="211.95099999999996" height="28.0" stroke-width="0.2" fill="yellow" opacity="0.3"/>
    </g>
   </g>
   <g class="axis">
    <g class="axisTickBox">
     <rect stroke="black" x="279.419" y="384.079" width="28.0" height="155.887" stroke-width="0.2" fill="yellow" opacity="0.3"/>
    </g>
    <g class="axisTextBox">
     <rect stroke="black" x="279.419" y="384.079" width="28.0" height="155.887" stroke-width="0.2" fill="yellow" opacity="0.3"/>
    </g>
   </g>
  </g>
 </g>
</svg>
