<?xml version="1.0" encoding="UTF-8"?>
<svg height="800.0" width="700.0" xmlns="http://www.w3.org/2000/svg">
 <g>
  <g stroke="pink">
   <path id="path6368" stroke-width="0.518" stroke="#070707" clip-path="url(#clipPath1)" fill="none" signature="ML" d="M189.236 252.84 L189.236 249.297 "/>
   <path id="path6376" stroke-width="0.518" stroke="#070707" clip-path="url(#clipPath1)" fill="none" signature="ML" d="M250.492 252.84 L250.492 249.297 "/>
   <path id="path6384" stroke-width="0.518" stroke="#070707" clip-path="url(#clipPath1)" fill="none" signature="ML" d="M311.749 252.84 L311.749 249.297 "/>
   <path id="path6392" stroke-width="0.518" stroke="#070707" clip-path="url(#clipPath1)" fill="none" signature="ML" d="M372.997 252.84 L372.997 249.297 "/>
   <path id="path6400" stroke-width="0.518" stroke="#070707" clip-path="url(#clipPath1)" fill="none" signature="ML" d="M434.262 252.84 L434.262 249.297 "/>
   <path id="path6406" stroke-width="0.518" stroke="#070707" clip-path="url(#clipPath1)" fill="none" signature="ML" d="M183.388 237.88 L179.592 237.88 "/>
   <path id="path6410" stroke-width="0.518" stroke="#070707" clip-path="url(#clipPath1)" fill="none" signature="ML" d="M183.388 190.986 L179.592 190.986 "/>
   <path id="path6414" stroke-width="0.518" stroke="#070707" clip-path="url(#clipPath1)" fill="none" signature="ML" d="M183.388 144.092 L179.592 144.092 "/>
   <path id="path6418" stroke-width="0.518" stroke="#070707" clip-path="url(#clipPath1)" fill="none" signature="ML" d="M183.388 249.297 L183.388 97.208 "/>
   <path id="path6420" stroke-width="0.518" stroke="#070707" clip-path="url(#clipPath1)" fill="none" signature="ML" d="M434.262 249.297 L183.388 249.297 "/>
   <path id="path6422" stroke-width="0.518" stroke="#070707" clip-path="url(#clipPath1)" fill="none" signature="ML" d="M183.388 97.208 L179.592 97.208 "/>
   <path id="path6424" stroke-width="0.518" stroke="#070707" clip-path="url(#clipPath1)" fill="none" signature="MLLLLLLLLLLLLLLLLLLLLLLLL" d="M189.236 181.38 L224.677 181.38 L230.376 181.38 L230.832 181.38 L237.482 181.38 L237.837 181.38 L239.972 181.38 L240.43 181.38 L243.386 181.38 L258.486 181.38 L258.486 181.38 L262.757 181.38 L266.012 181.38 L266.012 181.38 L267.803 181.38 L267.803 181.38 L282.176 181.38 L290.103 181.38 L290.103 181.38 L292.248 181.38 L292.248 181.38 L302.591 181.38 L302.591 181.38 L397.367 181.38 L397.367 181.38 "/>
   <path id="path6426" stroke-width="0.518" stroke="#070707" clip-path="url(#clipPath1)" fill="none" signature="MLLLLLLLLLLLLLLLLLLLLLLLL" d="M189.236 181.38 L224.677 192.011 L230.376 193.719 L230.832 193.859 L237.482 195.855 L237.837 195.957 L239.972 196.6 L240.43 196.731 L243.386 197.618 L258.486 202.149 L258.486 202.149 L262.757 203.428 L266.012 204.416 L266.012 204.416 L267.803 204.947 L267.803 204.947 L282.176 209.267 L290.103 211.635 L290.103 211.635 L292.248 212.279 L292.248 212.279 L302.591 215.384 L302.591 215.384 L397.367 243.831 L397.367 243.831 "/>
   <path id="path6428" stroke-width="0.518" stroke="#070707" clip-path="url(#clipPath1)" fill="none" signature="MLLLLLLLLLLLLLLLLLLLLLLLL" d="M189.236 181.38 L224.677 170.729 L230.376 169.022 L230.832 168.892 L237.482 166.896 L237.837 166.783 L239.972 166.149 L240.43 166.009 L243.386 165.124 L258.486 160.591 L258.486 160.591 L262.757 159.313 L266.012 158.334 L266.012 158.334 L267.803 157.802 L267.803 157.802 L282.176 153.474 L290.103 151.106 L290.103 151.106 L292.248 150.462 L292.248 150.462 L302.591 147.356 L302.591 147.356 L397.367 118.92 L397.367 118.92 "/>
   <path id="path6430" stroke-width="0.518" stroke="#070707" clip-path="url(#clipPath1)" fill="none" signature="MCCCC" d="M225.746 176.861 C225.746 176.304 225.295 175.853 224.739 175.853 C224.183 175.853 223.731 176.304 223.731 176.861 C223.731 177.417 224.183 177.868 224.739 177.868 C225.295 177.868 225.746 177.417 225.746 176.861 "/>
   <path id="path6432" stroke-width="0.518" stroke="#070707" clip-path="url(#clipPath1)" fill="none" signature="MCCCC" d="M231.384 184.819 C231.384 184.263 230.932 183.812 230.377 183.812 C229.821 183.812 229.369 184.263 229.369 184.819 C229.369 185.375 229.821 185.827 230.377 185.827 C230.932 185.827 231.384 185.375 231.384 184.819 "/>
   <path id="path6434" stroke-width="0.518" stroke="#070707" clip-path="url(#clipPath1)" fill="none" signature="MCCCC" d="M231.882 199.742 C231.882 199.186 231.431 198.735 230.875 198.735 C230.318 198.735 229.867 199.186 229.867 199.742 C229.867 200.298 230.318 200.749 230.875 200.749 C231.431 200.749 231.882 200.298 231.882 199.742 "/>
   <path id="path6436" stroke-width="0.518" stroke="#070707" clip-path="url(#clipPath1)" fill="none" signature="MCCCC" d="M238.514 184.488 C238.514 183.932 238.062 183.481 237.506 183.481 C236.95 183.481 236.499 183.932 236.499 184.488 C236.499 185.044 236.95 185.495 237.506 185.495 C238.062 185.495 238.514 185.044 238.514 184.488 "/>
   <path id="path6438" stroke-width="0.518" stroke="#070707" clip-path="url(#clipPath1)" fill="none" signature="MCCCC" d="M238.845 175.535 C238.845 174.979 238.394 174.527 237.838 174.527 C237.282 174.527 236.831 174.979 236.831 175.535 C236.831 176.091 237.282 176.542 237.838 176.542 C238.394 176.542 238.845 176.091 238.845 175.535 "/>
   <path id="path6440" stroke-width="0.518" stroke="#070707" clip-path="url(#clipPath1)" fill="none" signature="MCCCC" d="M241.0 173.544 C241.0 172.989 240.549 172.537 239.993 172.537 C239.437 172.537 238.986 172.989 238.986 173.544 C238.986 174.102 239.437 174.552 239.993 174.552 C240.549 174.552 241.0 174.102 241.0 173.544 "/>
   <path id="path6442" stroke-width="0.518" stroke="#070707" clip-path="url(#clipPath1)" fill="none" signature="MCCCC" d="M241.498 178.685 C241.498 178.129 241.047 177.678 240.491 177.678 C239.935 177.678 239.483 178.129 239.483 178.685 C239.483 179.242 239.935 179.692 240.491 179.692 C241.047 179.692 241.498 179.242 241.498 178.685 "/>
   <path id="path6444" stroke-width="0.518" stroke="#070707" clip-path="url(#clipPath1)" fill="none" signature="MCCCC" d="M244.399 175.203 C244.399 174.647 243.948 174.196 243.392 174.196 C242.836 174.196 242.384 174.647 242.384 175.203 C242.384 175.76 242.836 176.21 243.392 176.21 C243.948 176.21 244.399 175.76 244.399 175.203 "/>
   <path id="path6446" stroke-width="0.518" stroke="#070707" clip-path="url(#clipPath1)" fill="none" signature="MCCCC" d="M259.488 220.8 C259.488 220.245 259.036 219.793 258.481 219.793 C257.923 219.793 257.473 220.245 257.473 220.8 C257.473 221.356 257.923 221.808 258.481 221.808 C259.036 221.808 259.488 221.356 259.488 220.8 "/>
   <path id="path6448" stroke-width="0.518" stroke="#070707" clip-path="url(#clipPath1)" fill="none" signature="MCCCC" d="M259.488 141.876 C259.488 141.32 259.036 140.869 258.481 140.869 C257.923 140.869 257.473 141.32 257.473 141.876 C257.473 142.433 257.923 142.883 258.481 142.883 C259.036 142.883 259.488 142.433 259.488 141.876 "/>
   <path id="path6450" stroke-width="0.518" stroke="#070707" clip-path="url(#clipPath1)" fill="none" signature="MCCCC" d="M263.716 171.058 C263.716 170.502 263.265 170.051 262.708 170.051 C262.153 170.051 261.701 170.502 261.701 171.058 C261.701 171.614 262.153 172.065 262.708 172.065 C263.265 172.065 263.716 171.614 263.716 171.058 "/>
   <path id="path6452" stroke-width="0.518" stroke="#070707" clip-path="url(#clipPath1)" fill="none" signature="MCCCC" d="M267.031 170.063 C267.031 169.507 266.581 169.056 266.025 169.056 C265.468 169.056 265.017 169.507 265.017 170.063 C265.017 170.619 265.468 171.07 266.025 171.07 C266.581 171.07 267.031 170.619 267.031 170.063 "/>
   <path id="path6454" stroke-width="0.518" stroke="#070707" clip-path="url(#clipPath1)" fill="none" signature="MCCCC" d="M267.031 192.613 C267.031 192.057 266.581 191.605 266.025 191.605 C265.468 191.605 265.017 192.057 265.017 192.613 C265.017 193.168 265.468 193.62 266.025 193.62 C266.581 193.62 267.031 193.168 267.031 192.613 "/>
   <path id="path6456" stroke-width="0.518" stroke="#070707" clip-path="url(#clipPath1)" fill="none" signature="MCCCC" d="M268.856 164.757 C268.856 164.202 268.405 163.75 267.848 163.75 C267.292 163.75 266.842 164.202 266.842 164.757 C266.842 165.313 267.292 165.765 267.848 165.765 C268.405 165.765 268.856 165.313 268.856 164.757 "/>
   <path id="path6458" stroke-width="0.518" stroke="#070707" clip-path="url(#clipPath1)" fill="none" signature="MCCCC" d="M268.856 198.001 C268.856 197.445 268.405 196.993 267.848 196.993 C267.292 196.993 266.842 197.445 266.842 198.001 C266.842 198.557 267.292 199.008 267.848 199.008 C268.405 199.008 268.856 198.557 268.856 198.001 "/>
   <path id="path6460" stroke-width="0.518" stroke="#070707" clip-path="url(#clipPath1)" fill="none" signature="MCCCC" d="M283.115 182.497 C283.115 181.942 282.664 181.49 282.108 181.49 C281.552 181.49 281.1 181.942 281.1 182.497 C281.1 183.054 281.552 183.505 282.108 183.505 C282.664 183.505 283.115 183.054 283.115 182.497 "/>
   <path id="path6462" stroke-width="0.518" stroke="#070707" clip-path="url(#clipPath1)" fill="none" signature="MCCCC" d="M291.074 208.696 C291.074 208.139 290.622 207.689 290.068 207.689 C289.511 207.689 289.06 208.139 289.06 208.696 C289.06 209.252 289.511 209.703 290.068 209.703 C290.622 209.703 291.074 209.252 291.074 208.696 "/>
   <path id="path6464" stroke-width="0.518" stroke="#070707" clip-path="url(#clipPath1)" fill="none" signature="MCCCC" d="M291.074 153.979 C291.074 153.423 290.622 152.972 290.068 152.972 C289.511 152.972 289.06 153.423 289.06 153.979 C289.06 154.535 289.511 154.986 290.068 154.986 C290.622 154.986 291.074 154.535 291.074 153.979 "/>
   <path id="path6466" stroke-width="0.518" stroke="#070707" clip-path="url(#clipPath1)" fill="none" signature="MCCCC" d="M293.229 119.74 C293.229 119.184 292.778 118.733 292.222 118.733 C291.667 118.733 291.215 119.184 291.215 119.74 C291.215 120.296 291.667 120.747 292.222 120.747 C292.778 120.747 293.229 120.296 293.229 119.74 "/>
   <path id="path6468" stroke-width="0.518" stroke="#070707" clip-path="url(#clipPath1)" fill="none" signature="MCCCC" d="M293.229 243.016 C293.229 242.46 292.778 242.009 292.222 242.009 C291.667 242.009 291.215 242.46 291.215 243.016 C291.215 243.572 291.667 244.023 292.222 244.023 C292.778 244.023 293.229 243.572 293.229 243.016 "/>
   <path id="path6470" stroke-width="0.518" stroke="#070707" clip-path="url(#clipPath1)" fill="none" signature="MCCCC" d="M303.592 137.896 C303.592 137.34 303.141 136.889 302.584 136.889 C302.03 136.889 301.578 137.34 301.578 137.896 C301.578 138.452 302.03 138.903 302.584 138.903 C303.141 138.903 303.592 138.452 303.592 137.896 "/>
   <path id="path6472" stroke-width="0.518" stroke="#070707" clip-path="url(#clipPath1)" fill="none" signature="MCCCC" d="M303.592 224.778 C303.592 224.222 303.141 223.771 302.584 223.771 C302.03 223.771 301.578 224.222 301.578 224.778 C301.578 225.335 302.03 225.785 302.584 225.785 C303.141 225.785 303.592 225.335 303.592 224.778 "/>
   <path id="path6474" stroke-width="0.518" stroke="#070707" clip-path="url(#clipPath1)" fill="none" signature="MCCCC" d="M398.351 218.146 C398.351 217.59 397.901 217.139 397.344 217.139 C396.787 217.139 396.336 217.59 396.336 218.146 C396.336 218.703 396.787 219.153 397.344 219.153 C397.901 219.153 398.351 218.703 398.351 218.146 "/>
   <path id="path6476" stroke-width="0.518" stroke="#070707" clip-path="url(#clipPath1)" fill="none" signature="MCCCC" d="M398.351 144.528 C398.351 143.973 397.901 143.521 397.344 143.521 C396.787 143.521 396.336 143.973 396.336 144.528 C396.336 145.084 396.787 145.536 397.344 145.536 C397.901 145.536 398.351 145.084 398.351 144.528 "/>
   <path id="path6478" stroke-width="0.518" stroke="#070707" clip-path="url(#clipPath1)" fill="none" signature="MLLLL" d="M256.966 222.389 L256.966 219.349 L260.007 219.349 L260.007 222.389 L256.966 222.389 "/>
   <path id="path6480" stroke-width="0.518" stroke="#070707" clip-path="url(#clipPath1)" fill="none" signature="MLLLL" d="M264.493 194.129 L264.493 191.089 L267.533 191.089 L267.533 194.129 L264.493 194.129 "/>
   <path id="path6482" stroke-width="0.518" stroke="#070707" clip-path="url(#clipPath1)" fill="none" signature="MLLLL" d="M266.282 199.52 L266.282 196.48 L269.324 196.48 L269.324 199.52 L266.282 199.52 "/>
   <path id="path6484" stroke-width="0.518" stroke="#070707" clip-path="url(#clipPath1)" fill="none" signature="MLLLL" d="M288.584 210.255 L288.584 207.214 L291.624 207.214 L291.624 210.255 L288.584 210.255 "/>
   <path id="path6486" stroke-width="0.518" stroke="#070707" clip-path="url(#clipPath1)" fill="none" signature="MLLLL" d="M290.729 244.53 L290.729 241.49 L293.77 241.49 L293.77 244.53 L290.729 244.53 "/>
   <path id="path6488" stroke-width="0.518" stroke="#070707" clip-path="url(#clipPath1)" fill="none" signature="MLLLL" d="M301.073 226.334 L301.073 223.294 L304.113 223.294 L304.113 226.334 L301.073 226.334 "/>
   <path id="path6490" stroke-width="0.518" stroke="#070707" clip-path="url(#clipPath1)" fill="none" signature="MLLLL" d="M395.849 219.674 L395.849 216.634 L398.888 216.634 L398.888 219.674 L395.849 219.674 "/>
   <text id="text6302" font-weight="normal" font-family="Helvetica" font-size="8.29" y="194.727" x="163.027" transform="matrix(0.0,-1.0,1.0,0.0,-31.70059,357.75375)" svgx:width="222.0" svgx:fontName="FfjphdHelvetica" clip-path="url(#clipPath1)" fill="#070707" stroke="none" xmlns:svgx="http://www.xml-cml.org/schema/svgx">l</text>
   <text id="text6304" font-weight="normal" font-family="Helvetica" font-size="8.29" y="192.887" x="163.027" transform="matrix(0.0,-1.0,1.0,0.0,-29.86014,355.9133)" svgx:width="556.0" svgx:fontName="FfjphdHelvetica" clip-path="url(#clipPath1)" fill="#070707" stroke="none" xmlns:svgx="http://www.xml-cml.org/schema/svgx">o</text>
   <text id="text6306" font-weight="normal" font-family="Helvetica" font-size="8.29" y="188.277" x="163.027" transform="matrix(0.0,-1.0,1.0,0.0,-25.2507,351.30386)" svgx:width="556.0" svgx:fontName="FfjphdHelvetica" clip-path="url(#clipPath1)" fill="#070707" stroke="none" xmlns:svgx="http://www.xml-cml.org/schema/svgx">g</text>
   <text id="text6308" font-weight="normal" font-family="Helvetica" font-size="8.29" y="183.668" x="163.027" transform="matrix(0.0,-1.0,1.0,0.0,-20.64127,346.69443)" svgx:width="722.0" svgx:fontName="FfjphdHelvetica" clip-path="url(#clipPath1)" fill="#070707" stroke="none" xmlns:svgx="http://www.xml-cml.org/schema/svgx">R</text>
   <text id="text6310" font-weight="normal" font-family="Helvetica" font-size="8.29" y="177.682" x="163.027" transform="matrix(0.0,-1.0,1.0,0.0,-14.65567,340.70883)" svgx:width="722.0" svgx:fontName="FfjphdHelvetica" clip-path="url(#clipPath1)" fill="#070707" stroke="none" xmlns:svgx="http://www.xml-cml.org/schema/svgx">R</text>
   <text id="text6312" font-weight="normal" font-family="Helvetica" font-size="8.29" y="171.697" x="163.027" transform="matrix(0.0,-1.0,1.0,0.0,-8.67007,334.72324)" svgx:width="278.0" svgx:fontName="FfjphdHelvetica" clip-path="url(#clipPath1)" fill="#070707" stroke="none" xmlns:svgx="http://www.xml-cml.org/schema/svgx">,</text>
   <text id="text6316" font-weight="normal" font-family="Helvetica" font-size="8.29" y="167.087" x="163.027" transform="matrix(0.0,-1.0,1.0,0.0,-4.0607,330.11386)" svgx:width="278.0" svgx:fontName="FfjphdHelvetica" clip-path="url(#clipPath1)" fill="#070707" stroke="none" xmlns:svgx="http://www.xml-cml.org/schema/svgx">f</text>
   <text id="text6318" font-weight="normal" font-family="Helvetica" font-size="8.29" y="164.783" x="163.027" transform="matrix(0.0,-1.0,1.0,0.0,-1.75601,327.80917)" svgx:width="222.0" svgx:fontName="FfjphdHelvetica" clip-path="url(#clipPath1)" fill="#070707" stroke="none" xmlns:svgx="http://www.xml-cml.org/schema/svgx">i</text>
   <text id="text6320" font-weight="normal" font-family="Helvetica" font-size="8.29" y="162.942" x="163.027" transform="matrix(0.0,-1.0,1.0,0.0,0.08444,325.96872)" svgx:width="222.0" svgx:fontName="FfjphdHelvetica" clip-path="url(#clipPath1)" fill="#070707" stroke="none" xmlns:svgx="http://www.xml-cml.org/schema/svgx">l</text>
   <text id="text6322" font-weight="normal" font-family="Helvetica" font-size="8.29" y="161.102" x="163.027" transform="matrix(0.0,-1.0,1.0,0.0,1.9249,324.12827)" svgx:width="222.0" svgx:fontName="FfjphdHelvetica" clip-path="url(#clipPath1)" fill="#070707" stroke="none" xmlns:svgx="http://www.xml-cml.org/schema/svgx">l</text>
   <text id="text6324" font-weight="normal" font-family="Helvetica" font-size="8.29" y="159.261" x="163.027" transform="matrix(0.0,-1.0,1.0,0.0,3.76535,322.28781)" svgx:width="556.0" svgx:fontName="FfjphdHelvetica" clip-path="url(#clipPath1)" fill="#070707" stroke="none" xmlns:svgx="http://www.xml-cml.org/schema/svgx">e</text>
   <text id="text6326" font-weight="normal" font-family="Helvetica" font-size="8.29" y="154.652" x="163.027" transform="matrix(0.0,-1.0,1.0,0.0,8.37479,317.67838)" svgx:width="556.0" svgx:fontName="FfjphdHelvetica" clip-path="url(#clipPath1)" fill="#070707" stroke="none" xmlns:svgx="http://www.xml-cml.org/schema/svgx">d</text>
   <text id="text6328" font-weight="normal" font-family="Helvetica" svgx:width="500.0" svgx:fontName="FfjphdHelvetica" clip-path="url(#clipPath1)" fill="#070707" stroke="none" x="276.308" y="273.938" font-size="8.29" xmlns:svgx="http://www.xml-cml.org/schema/svgx">s</text>
   <text id="text6330" font-weight="normal" font-family="Helvetica" svgx:width="556.0" svgx:fontName="FfjphdHelvetica" clip-path="url(#clipPath1)" fill="#070707" stroke="none" x="280.453" y="273.938" font-size="8.29" xmlns:svgx="http://www.xml-cml.org/schema/svgx">e</text>
   <text id="text6334" font-weight="normal" font-family="Helvetica" svgx:width="556.0" svgx:fontName="FfjphdHelvetica" clip-path="url(#clipPath1)" fill="#070707" stroke="none" x="287.367" y="273.938" font-size="8.29" xmlns:svgx="http://www.xml-cml.org/schema/svgx">o</text>
   <text id="text6336" font-weight="normal" font-family="Helvetica" svgx:width="278.0" svgx:fontName="FfjphdHelvetica" clip-path="url(#clipPath1)" fill="#070707" stroke="none" x="291.977" y="273.938" font-size="8.29" xmlns:svgx="http://www.xml-cml.org/schema/svgx">f</text>
   <text id="text6340" font-weight="normal" font-family="Helvetica" svgx:width="222.0" svgx:fontName="FfjphdHelvetica" clip-path="url(#clipPath1)" fill="#070707" stroke="none" x="296.586" y="273.938" font-size="8.29" xmlns:svgx="http://www.xml-cml.org/schema/svgx">l</text>
   <text id="text6342" font-weight="normal" font-family="Helvetica" svgx:width="556.0" svgx:fontName="FfjphdHelvetica" clip-path="url(#clipPath1)" fill="#070707" stroke="none" x="298.426" y="273.938" font-size="8.29" xmlns:svgx="http://www.xml-cml.org/schema/svgx">o</text>
   <text id="text6344" font-weight="normal" font-family="Helvetica" svgx:width="556.0" svgx:fontName="FfjphdHelvetica" clip-path="url(#clipPath1)" fill="#070707" stroke="none" x="303.036" y="273.938" font-size="8.29" xmlns:svgx="http://www.xml-cml.org/schema/svgx">g</text>
   <text id="text6346" font-weight="normal" font-family="Helvetica" svgx:width="722.0" svgx:fontName="FfjphdHelvetica" clip-path="url(#clipPath1)" fill="#070707" stroke="none" x="307.645" y="273.938" font-size="8.29" xmlns:svgx="http://www.xml-cml.org/schema/svgx">R</text>
   <text id="text6348" font-weight="normal" font-family="Helvetica" svgx:width="722.0" svgx:fontName="FfjphdHelvetica" clip-path="url(#clipPath1)" fill="#070707" stroke="none" x="313.631" y="273.938" font-size="8.29" xmlns:svgx="http://www.xml-cml.org/schema/svgx">R</text>
   <text id="text6350" font-weight="normal" font-family="Helvetica" svgx:width="278.0" svgx:fontName="FfjphdHelvetica" clip-path="url(#clipPath1)" fill="#070707" stroke="none" x="319.616" y="273.938" font-size="8.29" xmlns:svgx="http://www.xml-cml.org/schema/svgx">,</text>
   <text id="text6354" font-weight="normal" font-family="Helvetica" svgx:width="278.0" svgx:fontName="FfjphdHelvetica" clip-path="url(#clipPath1)" fill="#070707" stroke="none" x="324.226" y="273.938" font-size="8.29" xmlns:svgx="http://www.xml-cml.org/schema/svgx">f</text>
   <text id="text6356" font-weight="normal" font-family="Helvetica" svgx:width="222.0" svgx:fontName="FfjphdHelvetica" clip-path="url(#clipPath1)" fill="#070707" stroke="none" x="326.531" y="273.938" font-size="8.29" xmlns:svgx="http://www.xml-cml.org/schema/svgx">i</text>
   <text id="text6358" font-weight="normal" font-family="Helvetica" svgx:width="222.0" svgx:fontName="FfjphdHelvetica" clip-path="url(#clipPath1)" fill="#070707" stroke="none" x="328.371" y="273.938" font-size="8.29" xmlns:svgx="http://www.xml-cml.org/schema/svgx">l</text>
   <text id="text6360" font-weight="normal" font-family="Helvetica" svgx:width="222.0" svgx:fontName="FfjphdHelvetica" clip-path="url(#clipPath1)" fill="#070707" stroke="none" x="330.211" y="273.938" font-size="8.29" xmlns:svgx="http://www.xml-cml.org/schema/svgx">l</text>
   <text id="text6362" font-weight="normal" font-family="Helvetica" svgx:width="556.0" svgx:fontName="FfjphdHelvetica" clip-path="url(#clipPath1)" fill="#070707" stroke="none" x="332.052" y="273.938" font-size="8.29" xmlns:svgx="http://www.xml-cml.org/schema/svgx">e</text>
   <text id="text6364" font-weight="normal" font-family="Helvetica" svgx:width="556.0" svgx:fontName="FfjphdHelvetica" clip-path="url(#clipPath1)" fill="#070707" stroke="none" x="336.661" y="273.938" font-size="8.29" xmlns:svgx="http://www.xml-cml.org/schema/svgx">d</text>
   <text id="text6366" font-weight="normal" font-family="Helvetica" svgx:width="556.0" svgx:fontName="FfjphdHelvetica" clip-path="url(#clipPath1)" fill="#070707" stroke="none" x="187.566" y="260.268" font-size="6.972" xmlns:svgx="http://www.xml-cml.org/schema/svgx">0</text>
   <text id="text6370" font-weight="normal" font-family="Helvetica" svgx:width="556.0" svgx:fontName="FfjphdHelvetica" clip-path="url(#clipPath1)" fill="#070707" stroke="none" x="245.915" y="260.268" font-size="6.972" xmlns:svgx="http://www.xml-cml.org/schema/svgx">0</text>
   <text id="text6372" font-weight="normal" font-family="Helvetica" svgx:width="278.0" svgx:fontName="FfjphdHelvetica" clip-path="url(#clipPath1)" fill="#070707" stroke="none" x="249.792" y="260.268" font-size="6.972" xmlns:svgx="http://www.xml-cml.org/schema/svgx">.</text>
   <text id="text6374" font-weight="normal" font-family="Helvetica" svgx:width="556.0" svgx:fontName="FfjphdHelvetica" clip-path="url(#clipPath1)" fill="#070707" stroke="none" x="251.731" y="260.268" font-size="6.972" xmlns:svgx="http://www.xml-cml.org/schema/svgx">2</text>
   <text id="text6378" font-weight="normal" font-family="Helvetica" svgx:width="556.0" svgx:fontName="FfjphdHelvetica" clip-path="url(#clipPath1)" fill="#070707" stroke="none" x="307.167" y="260.268" font-size="6.972" xmlns:svgx="http://www.xml-cml.org/schema/svgx">0</text>
   <text id="text6380" font-weight="normal" font-family="Helvetica" svgx:width="278.0" svgx:fontName="FfjphdHelvetica" clip-path="url(#clipPath1)" fill="#070707" stroke="none" x="311.044" y="260.268" font-size="6.972" xmlns:svgx="http://www.xml-cml.org/schema/svgx">.</text>
   <text id="text6382" font-weight="normal" font-family="Helvetica" svgx:width="556.0" svgx:fontName="FfjphdHelvetica" clip-path="url(#clipPath1)" fill="#070707" stroke="none" x="312.982" y="260.268" font-size="6.972" xmlns:svgx="http://www.xml-cml.org/schema/svgx">4</text>
   <text id="text6386" font-weight="normal" font-family="Helvetica" svgx:width="556.0" svgx:fontName="FfjphdHelvetica" clip-path="url(#clipPath1)" fill="#070707" stroke="none" x="368.412" y="260.268" font-size="6.972" xmlns:svgx="http://www.xml-cml.org/schema/svgx">0</text>
   <text id="text6388" font-weight="normal" font-family="Helvetica" svgx:width="278.0" svgx:fontName="FfjphdHelvetica" clip-path="url(#clipPath1)" fill="#070707" stroke="none" x="372.289" y="260.268" font-size="6.972" xmlns:svgx="http://www.xml-cml.org/schema/svgx">.</text>
   <text id="text6390" font-weight="normal" font-family="Helvetica" svgx:width="556.0" svgx:fontName="FfjphdHelvetica" clip-path="url(#clipPath1)" fill="#070707" stroke="none" x="374.228" y="260.268" font-size="6.972" xmlns:svgx="http://www.xml-cml.org/schema/svgx">6</text>
   <text id="text6394" font-weight="normal" font-family="Helvetica" svgx:width="556.0" svgx:fontName="FfjphdHelvetica" clip-path="url(#clipPath1)" fill="#070707" stroke="none" x="429.678" y="260.268" font-size="6.972" xmlns:svgx="http://www.xml-cml.org/schema/svgx">0</text>
   <text id="text6396" font-weight="normal" font-family="Helvetica" svgx:width="278.0" svgx:fontName="FfjphdHelvetica" clip-path="url(#clipPath1)" fill="#070707" stroke="none" x="433.555" y="260.268" font-size="6.972" xmlns:svgx="http://www.xml-cml.org/schema/svgx">.</text>
   <text id="text6398" font-weight="normal" font-family="Helvetica" svgx:width="556.0" svgx:fontName="FfjphdHelvetica" clip-path="url(#clipPath1)" fill="#070707" stroke="none" x="435.494" y="260.268" font-size="6.972" xmlns:svgx="http://www.xml-cml.org/schema/svgx">8</text>
   <text id="text6402" font-weight="normal" font-family="Helvetica" svgx:hexCode="2212" svgx:charCode="8722" svgx:width="0.0" svgx:fontName="FfjphdHelvetica" clip-path="url(#clipPath1)" fill="#070707" stroke="none" x="168.639" y="240.648" font-size="6.972" xmlns:svgx="http://www.xml-cml.org/schema/svgx">−</text>
   <text id="text6404" font-weight="normal" font-family="Helvetica" svgx:width="556.0" svgx:fontName="FfjphdHelvetica" clip-path="url(#clipPath1)" fill="#070707" stroke="none" x="172.711" y="240.648" font-size="6.972" xmlns:svgx="http://www.xml-cml.org/schema/svgx">1</text>
   <text id="text6408" font-weight="normal" font-family="Helvetica" svgx:width="556.0" svgx:fontName="FfjphdHelvetica" clip-path="url(#clipPath1)" fill="#070707" stroke="none" x="172.41" y="193.75" font-size="6.972" xmlns:svgx="http://www.xml-cml.org/schema/svgx">0</text>
   <text id="text6412" font-weight="normal" font-family="Helvetica" svgx:width="556.0" svgx:fontName="FfjphdHelvetica" clip-path="url(#clipPath1)" fill="#070707" stroke="none" x="172.41" y="146.852" font-size="6.972" xmlns:svgx="http://www.xml-cml.org/schema/svgx">1</text>
   <text id="text6416" font-weight="normal" font-family="Helvetica" svgx:width="556.0" svgx:fontName="FfjphdHelvetica" clip-path="url(#clipPath1)" fill="#070707" stroke="none" x="172.41" y="99.97" font-size="6.972" xmlns:svgx="http://www.xml-cml.org/schema/svgx">2</text>
  </g>
  <g fill="orange">
   <polyline fill="none" stroke="#070707" stroke-width="0.518" id="polyline.12" points="397.367 243.831 302.591 215.384 292.248 212.279 290.103 211.635 282.176 209.267 267.803 204.947 266.012 204.416 262.757 203.428 258.486 202.149 243.386 197.618 240.43 196.731 239.972 196.6 237.837 195.957 237.482 195.855 230.832 193.859 230.376 193.719 224.677 192.011 189.236 181.38"/>
   <polyline fill="none" stroke="#070707" stroke-width="0.518" id="polyline.13" points="397.367 118.92 302.591 147.356 292.248 150.462 290.103 151.106 282.176 153.474 267.803 157.802 266.012 158.334 262.757 159.313 258.486 160.591 243.386 165.124 240.43 166.009 239.972 166.149 237.837 166.783 237.482 166.896 230.832 168.892 230.376 169.022 224.677 170.729 189.236 181.38"/>
   <circle fill="none" stroke="#070707" stroke-width="0.518" cx="224.739" cy="176.861" r="1.228" id="circle.14"/>
   <circle fill="none" stroke="#070707" stroke-width="0.518" cx="230.377" cy="184.819" r="1.228" id="circle.15"/>
   <circle fill="none" stroke="#070707" stroke-width="0.518" cx="230.875" cy="199.742" r="1.228" id="circle.16"/>
   <circle fill="none" stroke="#070707" stroke-width="0.518" cx="237.506" cy="184.488" r="1.228" id="circle.17"/>
   <circle fill="none" stroke="#070707" stroke-width="0.518" cx="237.838" cy="175.535" r="1.228" id="circle.18"/>
   <circle fill="none" stroke="#070707" stroke-width="0.518" cx="239.993" cy="173.544" r="1.228" id="circle.19"/>
   <circle fill="none" stroke="#070707" stroke-width="0.518" cx="240.491" cy="178.685" r="1.228" id="circle.20"/>
   <circle fill="none" stroke="#070707" stroke-width="0.518" cx="243.392" cy="175.203" r="1.228" id="circle.21"/>
   <circle fill="none" stroke="#070707" stroke-width="0.518" cx="258.481" cy="220.8" r="1.228" id="circle.22"/>
   <circle fill="none" stroke="#070707" stroke-width="0.518" cx="258.481" cy="141.876" r="1.228" id="circle.23"/>
   <circle fill="none" stroke="#070707" stroke-width="0.518" cx="262.708" cy="171.058" r="1.228" id="circle.24"/>
   <circle fill="none" stroke="#070707" stroke-width="0.518" cx="266.024" cy="170.063" r="1.228" id="circle.25"/>
   <circle fill="none" stroke="#070707" stroke-width="0.518" cx="266.024" cy="192.613" r="1.228" id="circle.26"/>
   <circle fill="none" stroke="#070707" stroke-width="0.518" cx="267.849" cy="164.757" r="1.228" id="circle.27"/>
   <circle fill="none" stroke="#070707" stroke-width="0.518" cx="267.849" cy="198.001" r="1.228" id="circle.28"/>
   <circle fill="none" stroke="#070707" stroke-width="0.518" cx="282.108" cy="182.497" r="1.228" id="circle.29"/>
   <circle fill="none" stroke="#070707" stroke-width="0.518" cx="290.067" cy="208.696" r="1.228" id="circle.30"/>
   <circle fill="none" stroke="#070707" stroke-width="0.518" cx="290.067" cy="153.979" r="1.228" id="circle.31"/>
   <circle fill="none" stroke="#070707" stroke-width="0.518" cx="292.222" cy="119.74" r="1.228" id="circle.32"/>
   <circle fill="none" stroke="#070707" stroke-width="0.518" cx="292.222" cy="243.016" r="1.228" id="circle.33"/>
   <circle fill="none" stroke="#070707" stroke-width="0.518" cx="302.585" cy="137.896" r="1.228" id="circle.34"/>
   <circle fill="none" stroke="#070707" stroke-width="0.518" cx="302.585" cy="224.778" r="1.228" id="circle.35"/>
   <circle fill="none" stroke="#070707" stroke-width="0.518" cx="397.344" cy="218.146" r="1.228" id="circle.36"/>
   <circle fill="none" stroke="#070707" stroke-width="0.518" cx="397.344" cy="144.528" r="1.228" id="circle.37"/>
  </g>
  <g class="pathAnnotation NYI"/>
  <g class="plotBox">
   <g class="axis">
    <g class="axisTickBox">
     <rect stroke="black" x="178.388" y="239.297" width="260.874" height="28.00000000000003" stroke-width="0.2" fill="yellow" opacity="0.3"/>
     <rect stroke="black" x="189.236" y="249.297" width="245.026" height="3.5430000000000064" stroke-width="0.2" fill="green" opacity="0.3"/>
    </g>
    <g class="axisTextBox">
     <rect stroke="black" x="178.388" y="239.297" width="260.874" height="28.00000000000003" stroke-width="0.2" fill="yellow" opacity="0.3"/>
     <rect stroke="black" x="187.566" y="253.29599999999996" width="251.8728" height="6.972000000000008" stroke-width="0.2" fill="green" opacity="0.3"/>
    </g>
   </g>
   <g class="axis">
    <g class="axisTickBox">
     <rect stroke="black" x="165.388" y="92.208" width="28.0" height="162.089" stroke-width="0.2" fill="yellow" opacity="0.3"/>
     <rect stroke="black" x="179.592" y="97.208" width="3.7959999999999923" height="140.672" stroke-width="0.2" fill="green" opacity="0.3"/>
    </g>
    <g class="axisTextBox">
     <rect stroke="black" x="165.388" y="92.208" width="28.0" height="162.089" stroke-width="0.2" fill="yellow" opacity="0.3"/>
     <rect stroke="black" x="168.639" y="92.998" width="7.808639999999997" height="147.64999999999998" stroke-width="0.2" fill="green" opacity="0.3"/>
    </g>
   </g>
   <g class="axis">
    <g class="axisTickBox">
     <rect stroke="black" x="178.388" y="79.208" width="260.874" height="28.0" stroke-width="0.2" fill="yellow" opacity="0.3"/>
    </g>
    <g class="axisTextBox">
     <rect stroke="black" x="178.388" y="79.208" width="260.874" height="28.0" stroke-width="0.2" fill="yellow" opacity="0.3"/>
    </g>
   </g>
   <g class="axis">
    <g class="axisTickBox">
     <rect stroke="black" x="424.262" y="92.208" width="28.0" height="162.089" stroke-width="0.2" fill="yellow" opacity="0.3"/>
    </g>
    <g class="axisTextBox">
     <rect stroke="black" x="424.262" y="92.208" width="28.0" height="162.089" stroke-width="0.2" fill="yellow" opacity="0.3"/>
    </g>
   </g>
  </g>
 </g>
</svg>
