<?xml version="1.0" encoding="UTF-8" standalone="no"?>
<svg
   xmlns:svgx="http://www.xml-cml.org/schema/svgx"
   xmlns:dc="http://purl.org/dc/elements/1.1/"
   xmlns:cc="http://creativecommons.org/ns#"
   xmlns:rdf="http://www.w3.org/1999/02/22-rdf-syntax-ns#"
   xmlns:svg="http://www.w3.org/2000/svg"
   xmlns="http://www.w3.org/2000/svg"
   id="svg3170"
   version="1.1"
   stroke-width="0.0"
   stroke="none"
   height="800.0"
   width="600.0">
  <metadata
     id="metadata3174">
    <rdf:RDF>
      <cc:Work
         rdf:about="">
        <dc:format>image/svg+xml</dc:format>
        <dc:type
           rdf:resource="http://purl.org/dc/dcmitype/StillImage" />
        <dc:title></dc:title>
      </cc:Work>
    </rdf:RDF>
  </metadata>
  <defs
     id="defs1">
    <clipPath
       id="clipPath6">
      <path
         id="path2"
         d="M196.619 400.905 L196.619 627.521 L547.147 627.521 L547.147 400.905 Z"
         fill="none"
         stroke-width="0.5"
         stroke="black" />
    </clipPath>
    <clipPath
       id="clipPath4">
      <path
         id="path5"
         d="M187.936 69.977 L187.936 491.073 L554.936 491.073 L554.936 69.977 Z"
         fill="none"
         stroke-width="0.5"
         stroke="black" />
    </clipPath>
    <clipPath
       id="clipPath2">
      <path
         id="path8"
         d="M35.433 778.637 L35.433 798.48 L92.126 798.48 L92.126 778.637 Z"
         fill="none"
         stroke-width="0.5"
         stroke="black" />
    </clipPath>
    <clipPath
       id="clipPath1">
      <path
         id="path11"
         d="M0.0 0.0 L595.0 0.0 L595.0 841.0 L0.0 841.0 L0.0 0.0 Z"
         fill="none"
         stroke-width="0.5"
         stroke="black" />
    </clipPath>
    <clipPath
       id="clipPath5">
      <path
         id="path14"
         d="M183.919 523.022 L183.919 768.246 L559.326 768.246 L559.326 523.022 Z"
         fill="none"
         stroke-width="0.5"
         stroke="black" />
    </clipPath>
    <clipPath
       id="clipPath3">
      <path
         id="path17"
         d="M0.0 0.0 L0.0 841.0 L595.0 841.0 L595.0 0.0 Z"
         fill="none"
         stroke-width="0.5"
         stroke="black" />
    </clipPath>
    <clipPath
       id="clipPath7">
      <path
         id="path20"
         d="M196.619 400.906 L196.619 627.521 L547.147 627.521 L547.147 400.906 Z"
         fill="none"
         stroke-width="0.5"
         stroke="black" />
    </clipPath>
  </defs>
  <text
     id="text2598"
     font-weight="normal"
     font-family="Helvetica"
     font-size="8.997"
     y="625.082"
     x="369.743"
     svgx:width="556.0"
     svgx:fontName="NNQQZN+Optima"
     clip-path="url(#clipPath6)"
     fill="#000000"
     stroke="none">P</text>
  <text
     id="text2600"
     font-weight="normal"
     font-family="Helvetica"
     font-size="8.997"
     y="625.082"
     x="374.707"
     svgx:width="333.0"
     svgx:fontName="NNQQZN+Optima"
     clip-path="url(#clipPath6)"
     fill="#000000"
     stroke="none">r</text>
  <text
     id="text2602"
     font-weight="normal"
     font-family="Helvetica"
     font-size="8.997"
     y="625.082"
     x="377.666"
     svgx:width="500.0"
     svgx:fontName="NNQQZN+Optima"
     clip-path="url(#clipPath6)"
     fill="#000000"
     stroke="none">e</text>
  <text
     id="text2604"
     font-weight="normal"
     font-family="Helvetica"
     font-size="8.997"
     y="625.082"
     x="382.126"
     svgx:width="500.0"
     svgx:fontName="NNQQZN+Optima"
     clip-path="url(#clipPath6)"
     fill="#000000"
     stroke="none">v</text>
  <text
     id="text2606"
     font-weight="normal"
     font-family="Helvetica"
     font-size="8.997"
     y="625.082"
     x="386.587"
     svgx:width="500.0"
     svgx:fontName="NNQQZN+Optima"
     clip-path="url(#clipPath6)"
     fill="#000000"
     stroke="none">a</text>
  <text
     id="text2608"
     font-weight="normal"
     font-family="Helvetica"
     font-size="8.997"
     y="625.082"
     x="391.047"
     svgx:width="278.0"
     svgx:fontName="NNQQZN+Optima"
     clip-path="url(#clipPath6)"
     fill="#000000"
     stroke="none">l</text>
  <text
     id="text2610"
     font-weight="normal"
     font-family="Helvetica"
     font-size="8.997"
     y="625.082"
     x="393.511"
     svgx:width="500.0"
     svgx:fontName="NNQQZN+Optima"
     clip-path="url(#clipPath6)"
     fill="#000000"
     stroke="none">e</text>
  <text
     id="text2612"
     font-weight="normal"
     font-family="Helvetica"
     font-size="8.997"
     y="625.082"
     x="397.972"
     svgx:width="556.0"
     svgx:fontName="NNQQZN+Optima"
     clip-path="url(#clipPath6)"
     fill="#000000"
     stroke="none">n</text>
  <text
     id="text2614"
     font-weight="normal"
     font-family="Helvetica"
     font-size="8.997"
     y="625.082"
     x="402.936"
     svgx:width="500.0"
     svgx:fontName="NNQQZN+Optima"
     clip-path="url(#clipPath6)"
     fill="#000000"
     stroke="none">c</text>
  <text
     id="text2616"
     font-weight="normal"
     font-family="Helvetica"
     font-size="8.997"
     y="625.082"
     x="407.397"
     svgx:width="500.0"
     svgx:fontName="NNQQZN+Optima"
     clip-path="url(#clipPath6)"
     fill="#000000"
     stroke="none">e</text>
  <text
     id="text2620"
     font-weight="normal"
     font-family="Helvetica"
     font-size="8.997"
     y="625.082"
     x="414.322"
     svgx:width="278.0"
     svgx:fontName="NNQQZN+Optima"
     clip-path="url(#clipPath6)"
     fill="#000000"
     stroke="none">(</text>
  <text
     id="text2622"
     font-weight="normal"
     font-family="Helvetica"
     font-size="8.997"
     y="625.082"
     x="416.786"
     svgx:width="889.0"
     svgx:fontName="NNQQZN+Optima"
     clip-path="url(#clipPath6)"
     fill="#000000"
     stroke="none">%</text>
  <text
     id="text2624"
     font-weight="normal"
     font-family="Helvetica"
     font-size="8.997"
     y="625.082"
     x="424.745"
     svgx:width="278.0"
     svgx:fontName="NNQQZN+Optima"
     clip-path="url(#clipPath6)"
     fill="#000000"
     stroke="none">)</text>
  <text
     id="text2626"
     font-weight="normal"
     font-family="Helvetica"
     font-size="8.997"
     y="609.391"
     x="521.775"
     svgx:width="556.0"
     svgx:fontName="NNQQZN+Optima"
     clip-path="url(#clipPath1)"
     fill="#000000"
     stroke="none">0</text>
  <text
     id="text2628"
     font-weight="normal"
     font-family="Helvetica"
     font-size="8.997"
     y="609.391"
     x="526.739"
     svgx:width="278.0"
     svgx:fontName="NNQQZN+Optima"
     clip-path="url(#clipPath1)"
     fill="#000000"
     stroke="none">.</text>
  <text
     id="text2630"
     font-weight="normal"
     font-family="Helvetica"
     font-size="8.997"
     y="609.391"
     x="529.203"
     svgx:width="556.0"
     svgx:fontName="NNQQZN+Optima"
     clip-path="url(#clipPath1)"
     fill="#000000"
     stroke="none">2</text>
  <text
     id="text2632"
     font-weight="normal"
     font-family="Helvetica"
     font-size="8.997"
     y="609.391"
     x="534.167"
     svgx:width="556.0"
     svgx:fontName="NNQQZN+Optima"
     clip-path="url(#clipPath1)"
     fill="#000000"
     stroke="none">5</text>
  <text
     id="text2634"
     font-weight="normal"
     font-family="Helvetica"
     font-size="8.997"
     y="609.391"
     x="250.426"
     svgx:width="556.0"
     svgx:fontName="NNQQZN+Optima"
     clip-path="url(#clipPath1)"
     fill="#000000"
     stroke="none">0</text>
  <text
     id="text2636"
     font-weight="normal"
     font-family="Helvetica"
     font-size="8.997"
     y="595.981"
     x="225.317"
     svgx:width="556.0"
     svgx:fontName="NNQQZN+Optima"
     clip-path="url(#clipPath1)"
     fill="#000000"
     stroke="none">0</text>
  <text
     id="text2638"
     font-weight="normal"
     font-family="Helvetica"
     font-size="8.997"
     y="595.981"
     x="230.281"
     svgx:width="278.0"
     svgx:fontName="NNQQZN+Optima"
     clip-path="url(#clipPath1)"
     fill="#000000"
     stroke="none">.</text>
  <text
     id="text2640"
     font-weight="normal"
     font-family="Helvetica"
     font-size="8.997"
     y="595.981"
     x="232.746"
     svgx:width="556.0"
     svgx:fontName="NNQQZN+Optima"
     clip-path="url(#clipPath1)"
     fill="#000000"
     stroke="none">0</text>
  <text
     id="text2642"
     font-weight="normal"
     font-family="Helvetica"
     font-size="8.997"
     y="595.981"
     x="237.71"
     svgx:width="556.0"
     svgx:fontName="NNQQZN+Optima"
     clip-path="url(#clipPath1)"
     fill="#000000"
     stroke="none">2</text>
  <path
     id="path2644"
     d="M252.909 598.614 L252.909 601.571 "
     stroke-width="0.72"
     stroke="#9d9fa1"
     clip-path="url(#clipPath1)"
     fill="none" />
  <path
     id="path2646"
     d="M247.7 593.406 L244.744 593.406 "
     stroke-width="0.72"
     stroke="#dcddde"
     clip-path="url(#clipPath1)"
     fill="none" />
  <text
     id="text2648"
     font-weight="normal"
     font-family="Helvetica"
     font-size="8.997"
     y="549.228"
     x="220.351"
     svgx:width="556.0"
     svgx:fontName="NNQQZN+Optima"
     clip-path="url(#clipPath1)"
     fill="#000000"
     stroke="none">0</text>
  <text
     id="text2650"
     font-weight="normal"
     font-family="Helvetica"
     font-size="8.997"
     y="549.228"
     x="225.315"
     svgx:width="278.0"
     svgx:fontName="NNQQZN+Optima"
     clip-path="url(#clipPath1)"
     fill="#000000"
     stroke="none">.</text>
  <text
     id="text2652"
     font-weight="normal"
     font-family="Helvetica"
     font-size="8.997"
     y="549.228"
     x="227.779"
     svgx:width="556.0"
     svgx:fontName="NNQQZN+Optima"
     clip-path="url(#clipPath1)"
     fill="#000000"
     stroke="none">0</text>
  <text
     id="text2654"
     font-weight="normal"
     font-family="Helvetica"
     font-size="8.997"
     y="549.228"
     x="232.743"
     svgx:width="556.0"
     svgx:fontName="NNQQZN+Optima"
     clip-path="url(#clipPath1)"
     fill="#000000"
     stroke="none">1</text>
  <text
     id="text2656"
     font-weight="normal"
     font-family="Helvetica"
     font-size="8.997"
     y="549.228"
     x="237.707"
     svgx:width="556.0"
     svgx:fontName="NNQQZN+Optima"
     clip-path="url(#clipPath1)"
     fill="#000000"
     stroke="none">5</text>
  <text
     id="text2658"
     font-weight="normal"
     font-family="Helvetica"
     font-size="8.997"
     y="543.584"
     x="204.202"
     transform="matrix(0.0,-1.0,1.0,0.0,-339.382,747.7856)"
     svgx:width="500.0"
     svgx:fontName="NNQQZN+Optima"
     clip-path="url(#clipPath6)"
     fill="#000000"
     stroke="none">S</text>
  <text
     id="text2660"
     font-weight="normal"
     font-family="Helvetica"
     font-size="8.997"
     y="539.123"
     x="204.202"
     transform="matrix(0.0,-1.0,1.0,0.0,-334.92143,743.32503)"
     svgx:width="278.0"
     svgx:fontName="NNQQZN+Optima"
     clip-path="url(#clipPath6)"
     fill="#000000"
     stroke="none">t</text>
  <text
     id="text2662"
     font-weight="normal"
     font-family="Helvetica"
     font-size="8.997"
     y="536.659"
     x="204.202"
     transform="matrix(0.0,-1.0,1.0,0.0,-332.45732,740.86092)"
     svgx:width="500.0"
     svgx:fontName="NNQQZN+Optima"
     clip-path="url(#clipPath6)"
     fill="#000000"
     stroke="none">a</text>
  <text
     id="text2664"
     font-weight="normal"
     font-family="Helvetica"
     font-size="8.997"
     y="532.199"
     x="204.202"
     transform="matrix(0.0,-1.0,1.0,0.0,-327.99675,736.40034)"
     svgx:width="556.0"
     svgx:fontName="NNQQZN+Optima"
     clip-path="url(#clipPath6)"
     fill="#000000"
     stroke="none">n</text>
  <text
     id="text2666"
     font-weight="normal"
     font-family="Helvetica"
     font-size="8.997"
     y="527.234"
     x="204.202"
     transform="matrix(0.0,-1.0,1.0,0.0,-323.03258,731.43617)"
     svgx:width="556.0"
     svgx:fontName="NNQQZN+Optima"
     clip-path="url(#clipPath6)"
     fill="#000000"
     stroke="none">d</text>
  <text
     id="text2668"
     font-weight="normal"
     font-family="Helvetica"
     font-size="8.997"
     y="522.27"
     x="204.202"
     transform="matrix(0.0,-1.0,1.0,0.0,-318.06834,726.47194)"
     svgx:width="500.0"
     svgx:fontName="NNQQZN+Optima"
     clip-path="url(#clipPath6)"
     fill="#000000"
     stroke="none">a</text>
  <text
     id="text2670"
     font-weight="normal"
     font-family="Helvetica"
     font-size="8.997"
     y="517.81"
     x="204.202"
     transform="matrix(0.0,-1.0,1.0,0.0,-313.60777,722.01137)"
     svgx:width="333.0"
     svgx:fontName="NNQQZN+Optima"
     clip-path="url(#clipPath6)"
     fill="#000000"
     stroke="none">r</text>
  <text
     id="text2672"
     font-weight="normal"
     font-family="Helvetica"
     font-size="8.997"
     y="514.851"
     x="204.202"
     transform="matrix(0.0,-1.0,1.0,0.0,-310.64903,719.05263)"
     svgx:width="556.0"
     svgx:fontName="NNQQZN+Optima"
     clip-path="url(#clipPath6)"
     fill="#000000"
     stroke="none">d</text>
  <text
     id="text2676"
     font-weight="normal"
     font-family="Helvetica"
     font-size="8.997"
     y="507.423"
     x="204.202"
     transform="matrix(0.0,-1.0,1.0,0.0,-303.22072,711.62431)"
     svgx:width="556.0"
     svgx:fontName="NNQQZN+Optima"
     clip-path="url(#clipPath6)"
     fill="#000000"
     stroke="none">d</text>
  <text
     id="text2678"
     font-weight="normal"
     font-family="Helvetica"
     font-size="8.997"
     y="502.458"
     x="204.202"
     transform="matrix(0.0,-1.0,1.0,0.0,-298.25652,706.66011)"
     svgx:width="500.0"
     svgx:fontName="NNQQZN+Optima"
     clip-path="url(#clipPath6)"
     fill="#000000"
     stroke="none">e</text>
  <text
     id="text2680"
     font-weight="normal"
     font-family="Helvetica"
     font-size="8.997"
     y="497.998"
     x="204.202"
     transform="matrix(0.0,-1.0,1.0,0.0,-293.79594,702.19954)"
     svgx:width="500.0"
     svgx:fontName="NNQQZN+Optima"
     clip-path="url(#clipPath6)"
     fill="#000000"
     stroke="none">v</text>
  <text
     id="text2682"
     font-weight="normal"
     font-family="Helvetica"
     font-size="8.997"
     y="493.537"
     x="204.202"
     transform="matrix(0.0,-1.0,1.0,0.0,-289.33537,697.73897)"
     svgx:width="278.0"
     svgx:fontName="NNQQZN+Optima"
     clip-path="url(#clipPath6)"
     fill="#000000"
     stroke="none">i</text>
  <text
     id="text2684"
     font-weight="normal"
     font-family="Helvetica"
     font-size="8.997"
     y="491.073"
     x="204.202"
     transform="matrix(0.0,-1.0,1.0,0.0,-286.87126,695.27486)"
     svgx:width="500.0"
     svgx:fontName="NNQQZN+Optima"
     clip-path="url(#clipPath6)"
     fill="#000000"
     stroke="none">a</text>
  <text
     id="text2686"
     font-weight="normal"
     font-family="Helvetica"
     font-size="8.997"
     y="486.612"
     x="204.202"
     transform="matrix(0.0,-1.0,1.0,0.0,-282.41069,690.81429)"
     svgx:width="278.0"
     svgx:fontName="NNQQZN+Optima"
     clip-path="url(#clipPath6)"
     fill="#000000"
     stroke="none">t</text>
  <text
     id="text2688"
     font-weight="normal"
     font-family="Helvetica"
     font-size="8.997"
     y="484.148"
     x="204.202"
     transform="matrix(0.0,-1.0,1.0,0.0,-279.94658,688.35017)"
     svgx:width="278.0"
     svgx:fontName="NNQQZN+Optima"
     clip-path="url(#clipPath6)"
     fill="#000000"
     stroke="none">i</text>
  <text
     id="text2690"
     font-weight="normal"
     font-family="Helvetica"
     font-size="8.997"
     y="481.684"
     x="204.202"
     transform="matrix(0.0,-1.0,1.0,0.0,-277.48247,685.88606)"
     svgx:width="556.0"
     svgx:fontName="NNQQZN+Optima"
     clip-path="url(#clipPath6)"
     fill="#000000"
     stroke="none">o</text>
  <text
     id="text2692"
     font-weight="normal"
     font-family="Helvetica"
     font-size="8.997"
     y="476.72"
     x="204.202"
     transform="matrix(0.0,-1.0,1.0,0.0,-272.51826,680.92186)"
     svgx:width="556.0"
     svgx:fontName="NNQQZN+Optima"
     clip-path="url(#clipPath6)"
     fill="#000000"
     stroke="none">n</text>
  <path
     id="path2694"
     d="M247.7 546.656 L244.744 546.656 "
     stroke-width="0.72"
     stroke="#dcddde"
     clip-path="url(#clipPath1)"
     fill="none" />
  <text
     id="text2696"
     font-weight="normal"
     font-family="Helvetica"
     font-size="8.997"
     y="502.332"
     x="225.315"
     svgx:width="556.0"
     svgx:fontName="NNQQZN+Optima"
     clip-path="url(#clipPath1)"
     fill="#000000"
     stroke="none">0</text>
  <text
     id="text2698"
     font-weight="normal"
     font-family="Helvetica"
     font-size="8.997"
     y="502.332"
     x="230.279"
     svgx:width="278.0"
     svgx:fontName="NNQQZN+Optima"
     clip-path="url(#clipPath1)"
     fill="#000000"
     stroke="none">.</text>
  <text
     id="text2700"
     font-weight="normal"
     font-family="Helvetica"
     font-size="8.997"
     y="502.332"
     x="232.743"
     svgx:width="556.0"
     svgx:fontName="NNQQZN+Optima"
     clip-path="url(#clipPath1)"
     fill="#000000"
     stroke="none">0</text>
  <text
     id="text2702"
     font-weight="normal"
     font-family="Helvetica"
     font-size="8.997"
     y="502.332"
     x="237.708"
     svgx:width="556.0"
     svgx:fontName="NNQQZN+Optima"
     clip-path="url(#clipPath1)"
     fill="#000000"
     stroke="none">1</text>
  <path
     id="path2704"
     d="M247.7 499.76 L244.744 499.76 "
     stroke-width="0.72"
     stroke="#dcddde"
     clip-path="url(#clipPath1)"
     fill="none" />
  <text
     id="text2706"
     font-weight="normal"
     font-family="Helvetica"
     font-size="8.997"
     y="455.478"
     x="220.351"
     svgx:width="556.0"
     svgx:fontName="NNQQZN+Optima"
     clip-path="url(#clipPath1)"
     fill="#000000"
     stroke="none">0</text>
  <text
     id="text2708"
     font-weight="normal"
     font-family="Helvetica"
     font-size="8.997"
     y="455.478"
     x="225.315"
     svgx:width="278.0"
     svgx:fontName="NNQQZN+Optima"
     clip-path="url(#clipPath1)"
     fill="#000000"
     stroke="none">.</text>
  <text
     id="text2710"
     font-weight="normal"
     font-family="Helvetica"
     font-size="8.997"
     y="455.478"
     x="227.779"
     svgx:width="556.0"
     svgx:fontName="NNQQZN+Optima"
     clip-path="url(#clipPath1)"
     fill="#000000"
     stroke="none">0</text>
  <text
     id="text2712"
     font-weight="normal"
     font-family="Helvetica"
     font-size="8.997"
     y="455.478"
     x="232.743"
     svgx:width="556.0"
     svgx:fontName="NNQQZN+Optima"
     clip-path="url(#clipPath1)"
     fill="#000000"
     stroke="none">0</text>
  <text
     id="text2714"
     font-weight="normal"
     font-family="Helvetica"
     font-size="8.997"
     y="455.478"
     x="237.707"
     svgx:width="556.0"
     svgx:fontName="NNQQZN+Optima"
     clip-path="url(#clipPath1)"
     fill="#000000"
     stroke="none">5</text>
  <path
     id="path2716"
     d="M247.7 452.906 L244.744 452.906 "
     stroke-width="0.72"
     stroke="#dcddde"
     clip-path="url(#clipPath1)"
     fill="none" />
  <text
     id="text2718"
     font-weight="normal"
     font-family="Helvetica"
     font-size="8.997"
     y="408.603"
     x="237.708"
     svgx:width="556.0"
     svgx:fontName="NNQQZN+Optima"
     clip-path="url(#clipPath6)"
     fill="#000000"
     stroke="none">0</text>
  <path
     id="path2720"
     d="M247.7 406.031 L244.744 406.031 "
     stroke-width="0.72"
     stroke="#dcddde"
     clip-path="url(#clipPath1)"
     fill="none" />
  <text
     id="text2722"
     font-weight="normal"
     font-family="Helvetica"
     font-size="8.997"
     y="609.391"
     x="410.268"
     svgx:width="556.0"
     svgx:fontName="NNQQZN+Optima"
     clip-path="url(#clipPath1)"
     fill="#000000"
     stroke="none">0</text>
  <text
     id="text2724"
     font-weight="normal"
     font-family="Helvetica"
     font-size="8.997"
     y="609.391"
     x="415.232"
     svgx:width="278.0"
     svgx:fontName="NNQQZN+Optima"
     clip-path="url(#clipPath1)"
     fill="#000000"
     stroke="none">.</text>
  <text
     id="text2726"
     font-weight="normal"
     font-family="Helvetica"
     font-size="8.997"
     y="609.391"
     x="417.696"
     svgx:width="556.0"
     svgx:fontName="NNQQZN+Optima"
     clip-path="url(#clipPath1)"
     fill="#000000"
     stroke="none">1</text>
  <text
     id="text2728"
     font-weight="normal"
     font-family="Helvetica"
     font-size="8.997"
     y="609.391"
     x="422.66"
     svgx:width="556.0"
     svgx:fontName="NNQQZN+Optima"
     clip-path="url(#clipPath1)"
     fill="#000000"
     stroke="none">5</text>
  <path
     id="path2730"
     d="M419.379 598.614 L419.379 601.571 "
     stroke-width="0.72"
     stroke="#9d9fa1"
     clip-path="url(#clipPath1)"
     fill="none" />
  <text
     id="text2732"
     font-weight="normal"
     font-family="Helvetica"
     font-size="8.997"
     y="609.391"
     x="470.545"
     svgx:width="556.0"
     svgx:fontName="NNQQZN+Optima"
     clip-path="url(#clipPath1)"
     fill="#000000"
     stroke="none">0</text>
  <text
     id="text2734"
     font-weight="normal"
     font-family="Helvetica"
     font-size="8.997"
     y="609.391"
     x="475.509"
     svgx:width="278.0"
     svgx:fontName="NNQQZN+Optima"
     clip-path="url(#clipPath1)"
     fill="#000000"
     stroke="none">.</text>
  <text
     id="text2736"
     font-weight="normal"
     font-family="Helvetica"
     font-size="8.997"
     y="609.391"
     x="477.973"
     svgx:width="556.0"
     svgx:fontName="NNQQZN+Optima"
     clip-path="url(#clipPath1)"
     fill="#000000"
     stroke="none">2</text>
  <path
     id="path2738"
     d="M474.691 598.614 L474.691 601.571 "
     stroke-width="0.72"
     stroke="#9d9fa1"
     clip-path="url(#clipPath1)"
     fill="none" />
  <text
     id="text2740"
     font-weight="normal"
     font-family="Helvetica"
     font-size="8.997"
     y="609.391"
     x="359.795"
     svgx:width="556.0"
     svgx:fontName="NNQQZN+Optima"
     clip-path="url(#clipPath1)"
     fill="#000000"
     stroke="none">0</text>
  <text
     id="text2742"
     font-weight="normal"
     font-family="Helvetica"
     font-size="8.997"
     y="609.391"
     x="364.759"
     svgx:width="278.0"
     svgx:fontName="NNQQZN+Optima"
     clip-path="url(#clipPath1)"
     fill="#000000"
     stroke="none">.</text>
  <text
     id="text2744"
     font-weight="normal"
     font-family="Helvetica"
     font-size="8.997"
     y="609.391"
     x="367.223"
     svgx:width="556.0"
     svgx:fontName="NNQQZN+Optima"
     clip-path="url(#clipPath1)"
     fill="#000000"
     stroke="none">1</text>
  <path
     id="path2746"
     d="M363.941 598.614 L363.941 601.571 "
     stroke-width="0.72"
     stroke="#9d9fa1"
     clip-path="url(#clipPath1)"
     fill="none" />
  <text
     id="text2748"
     font-weight="normal"
     font-family="Helvetica"
     font-size="8.997"
     y="609.391"
     x="299.248"
     svgx:width="556.0"
     svgx:fontName="NNQQZN+Optima"
     clip-path="url(#clipPath1)"
     fill="#000000"
     stroke="none">0</text>
  <text
     id="text2750"
     font-weight="normal"
     font-family="Helvetica"
     font-size="8.997"
     y="609.391"
     x="304.212"
     svgx:width="278.0"
     svgx:fontName="NNQQZN+Optima"
     clip-path="url(#clipPath1)"
     fill="#000000"
     stroke="none">.</text>
  <text
     id="text2752"
     font-weight="normal"
     font-family="Helvetica"
     font-size="8.997"
     y="609.391"
     x="306.676"
     svgx:width="556.0"
     svgx:fontName="NNQQZN+Optima"
     clip-path="url(#clipPath1)"
     fill="#000000"
     stroke="none">0</text>
  <text
     id="text2754"
     font-weight="normal"
     font-family="Helvetica"
     font-size="8.997"
     y="609.391"
     x="311.64"
     svgx:width="556.0"
     svgx:fontName="NNQQZN+Optima"
     clip-path="url(#clipPath1)"
     fill="#000000"
     stroke="none">5</text>
  <path
     id="path2756"
     d="M308.358 598.614 L308.358 601.571 M530.453 598.614 L530.453 601.571 "
     stroke-width="0.72"
     stroke="#9d9fa1"
     clip-path="url(#clipPath1)"
     fill="none" />
  <path
     id="path2758"
     d="M247.608 598.614 L247.608 400.906 "
     stroke-width="0.72"
     stroke="#dcddde"
     clip-path="url(#clipPath7)"
     fill="none" />
  <path
     id="path2760"
     d="M247.7 598.614 L546.786 598.614 "
     stroke-width="0.72"
     stroke="#9d9fa1"
     clip-path="url(#clipPath7)"
     fill="none" />
  <path
     id="path2762"
     d="M304.066 406.739 L304.066 570.344 "
     stroke-width="1.0"
     stroke="#000000"
     clip-path="url(#clipPath1)"
     fill="none" />
  <path
     id="path2764"
     d="M304.066 577.406 L300.001 567.457 L304.066 569.818 L308.131 567.457 Z"
     stroke-width="1.0"
     fill="#000000"
     clip-path="url(#clipPath1)"
     stroke="black" />
  <path
     id="path2766"
     d="M264.733 577.406 L265.07 575.944 "
     stroke-width="1.0"
     stroke="#000000"
     clip-path="url(#clipPath1)"
     fill="none" />
  <path
     id="path2768"
     d="M265.748 573.002 L303.391 409.673 "
     stroke-width="1.0"
     stroke-dasharray="3 3"
     stroke="#000000"
     clip-path="url(#clipPath1)"
     fill="none" />
  <path
     id="path2770"
     d="M303.729 408.201 L304.066 406.739 M344.275 577.406 L343.934 575.945 "
     stroke-width="1.0"
     stroke="#000000"
     clip-path="url(#clipPath1)"
     fill="none" />
  <path
     id="path2772"
     d="M343.246 572.994 L305.063 409.218 "
     stroke-width="1.0"
     stroke-dasharray="3 3"
     stroke="#000000"
     clip-path="url(#clipPath1)"
     fill="none" />
  <path
     id="path2774"
     d="M304.72 407.742 L304.379 406.281 "
     stroke-width="1.0"
     stroke="#000000"
     clip-path="url(#clipPath1)"
     fill="none" />
  <path
     id="path2776"
     d="M263.066 434.551 C263.066 435.621 262.198 436.488 261.128 436.488 C260.059 436.488 259.19 435.621 259.19 434.551 C259.19 433.481 260.059 432.614 261.128 432.614 C262.198 432.614 263.066 433.481 263.066 434.551 "
     stroke-width="1.0"
     fill="#000000"
     clip-path="url(#clipPath6)"
     stroke="black" />
  <path
     id="path2778"
     d="M288.275 440.823 C288.275 441.893 287.407 442.76 286.337 442.76 C285.268 442.76 284.4 441.893 284.4 440.823 C284.4 439.753 285.268 438.886 286.337 438.886 C287.407 438.886 288.275 439.753 288.275 440.823 "
     stroke-width="1.0"
     fill="#000000"
     clip-path="url(#clipPath6)"
     stroke="black" />
  <path
     id="path2780"
     d="M286.712 474.51 C286.712 475.58 285.844 476.447 284.775 476.447 C283.705 476.447 282.837 475.58 282.837 474.51 C282.837 473.44 283.705 472.573 284.775 472.573 C285.844 472.573 286.712 473.44 286.712 474.51 "
     stroke-width="1.0"
     fill="#000000"
     clip-path="url(#clipPath6)"
     stroke="black" />
  <path
     id="path2782"
     d="M291.275 482.073 C291.275 483.143 290.407 484.01 289.337 484.01 C288.268 484.01 287.4 483.143 287.4 482.073 C287.4 481.003 288.268 480.136 289.337 480.136 C290.407 480.136 291.275 481.003 291.275 482.073 "
     stroke-width="1.0"
     fill="#000000"
     clip-path="url(#clipPath6)"
     stroke="black" />
  <path
     id="path2784"
     d="M291.712 491.573 C291.712 492.643 290.844 493.51 289.775 493.51 C288.705 493.51 287.837 492.643 287.837 491.573 C287.837 490.503 288.705 489.635 289.775 489.635 C290.844 489.635 291.712 490.503 291.712 491.573 "
     stroke-width="1.0"
     fill="#000000"
     clip-path="url(#clipPath6)"
     stroke="black" />
  <path
     id="path2786"
     d="M305.65 497.885 C305.65 498.955 304.782 499.823 303.712 499.823 C302.642 499.823 301.775 498.955 301.775 497.885 C301.775 496.815 302.642 495.948 303.712 495.948 C304.782 495.948 305.65 496.815 305.65 497.885 "
     stroke-width="1.0"
     fill="#000000"
     clip-path="url(#clipPath6)"
     stroke="black" />
  <path
     id="path2788"
     d="M313.4 504.469 C313.4 505.539 312.532 506.406 311.462 506.406 C310.392 506.406 309.525 505.539 309.525 504.469 C309.525 503.399 310.392 502.531 311.462 502.531 C312.532 502.531 313.4 503.399 313.4 504.469 "
     stroke-width="1.0"
     fill="#000000"
     clip-path="url(#clipPath6)"
     stroke="black" />
  <path
     id="path2790"
     d="M336.9 500.594 C336.9 501.664 336.032 502.531 334.962 502.531 C333.892 502.531 333.025 501.664 333.025 500.594 C333.025 499.524 333.892 498.657 334.962 498.657 C336.032 498.657 336.9 499.524 336.9 500.594 "
     stroke-width="1.0"
     fill="#000000"
     clip-path="url(#clipPath6)"
     stroke="black" />
  <path
     id="path2792"
     d="M339.65 499.823 C339.65 500.893 338.782 501.76 337.712 501.76 C336.642 501.76 335.775 500.893 335.775 499.823 C335.775 498.753 336.642 497.885 337.712 497.885 C338.782 497.885 339.65 498.753 339.65 499.823 "
     stroke-width="1.0"
     fill="#000000"
     clip-path="url(#clipPath6)"
     stroke="black" />
  <path
     id="path2794"
     d="M353.785 476.355 C353.785 477.425 352.917 478.292 351.848 478.292 C350.778 478.292 349.91 477.425 349.91 476.355 C349.91 475.285 350.778 474.418 351.848 474.418 C352.917 474.418 353.785 475.285 353.785 476.355 "
     stroke-width="1.0"
     fill="#000000"
     clip-path="url(#clipPath6)"
     stroke="black" />
  <path
     id="path2796"
     d="M372.224 502.531 C372.224 503.601 371.355 504.469 370.286 504.469 C369.217 504.469 368.349 503.601 368.349 502.531 C368.349 501.462 369.217 500.594 370.286 500.594 C371.355 500.594 372.224 501.462 372.224 502.531 "
     stroke-width="1.0"
     fill="#000000"
     clip-path="url(#clipPath6)"
     stroke="black" />
  <path
     id="path2798"
     d="M385.099 500.594 C385.099 501.664 384.23 502.531 383.161 502.531 C382.092 502.531 381.224 501.664 381.224 500.594 C381.224 499.524 382.092 498.657 383.161 498.657 C384.23 498.657 385.099 499.524 385.099 500.594 "
     stroke-width="1.0"
     fill="#000000"
     clip-path="url(#clipPath6)"
     stroke="black" />
  <path
     id="path2800"
     d="M422.349 500.594 C422.349 501.664 421.48 502.531 420.411 502.531 C419.342 502.531 418.474 501.664 418.474 500.594 C418.474 499.524 419.342 498.657 420.411 498.657 C421.48 498.657 422.349 499.524 422.349 500.594 "
     stroke-width="1.0"
     fill="#000000"
     clip-path="url(#clipPath6)"
     stroke="black" />
  <path
     id="path2802"
     d="M417.671 510.719 C417.671 511.788 416.803 512.655 415.733 512.655 C414.664 512.655 413.796 511.788 413.796 510.719 C413.796 509.649 414.664 508.781 415.733 508.781 C416.803 508.781 417.671 509.649 417.671 510.719 "
     stroke-width="1.0"
     fill="#000000"
     clip-path="url(#clipPath6)"
     stroke="black" />
  <path
     id="path2804"
     d="M436.046 577.363 C436.046 578.432 435.178 579.3 434.108 579.3 C433.039 579.3 432.171 578.432 432.171 577.363 C432.171 576.293 433.039 575.425 434.108 575.425 C435.178 575.425 436.046 576.293 436.046 577.363 "
     stroke-width="1.0"
     fill="#000000"
     clip-path="url(#clipPath6)"
     stroke="black" />
  <path
     id="path2806"
     d="M516.732 527.469 C516.732 528.538 515.865 529.406 514.796 529.406 C513.726 529.406 512.857 528.538 512.857 527.469 C512.857 526.399 513.726 525.531 514.796 525.531 C515.865 525.531 516.732 526.399 516.732 527.469 "
     stroke-width="1.0"
     fill="#000000"
     clip-path="url(#clipPath6)"
     stroke="black" />
  <path
     id="path2808"
     d="M331.233 521.905 C331.233 522.976 330.366 523.844 329.296 523.844 C328.226 523.844 327.358 522.976 327.358 521.905 C327.358 520.837 328.226 519.969 329.296 519.969 C330.366 519.969 331.233 520.837 331.233 521.905 "
     stroke-width="1.0"
     fill="#000000"
     clip-path="url(#clipPath6)"
     stroke="black" />
</svg>
