<?xml version="1.0" encoding="UTF-8"?>
<svg height="800.0" width="700.0" xmlns="http://www.w3.org/2000/svg">
 <g>
  <g stroke="pink">
   <path id="path6619" stroke-width="0.0" fill="#fffeff" clip-path="url(#clipPath48)" stroke="black" signature="MLLLZ" d="M129.621 745.7 L466.101 745.7 L466.101 518.948 L129.621 518.948 Z"/>
   <path id="path6765" stroke-width="0.245" stroke="#000000" clip-path="url(#clipPath47)" fill="none" signature="ML" d="M167.829 727.892 L167.829 723.572 "/>
   <path id="path6771" stroke-width="0.245" stroke="#000000" clip-path="url(#clipPath47)" fill="none" signature="ML" d="M313.077 727.892 L313.077 723.572 "/>
   <path id="path6775" stroke-width="0.245" stroke="#000000" clip-path="url(#clipPath47)" fill="none" signature="ML" d="M458.085 727.892 L458.085 723.572 "/>
   <path id="path6781" stroke-width="0.245" stroke="#000000" clip-path="url(#clipPath47)" fill="none" signature="ML" d="M160.965 717.332 L156.453 717.332 "/>
   <path id="path6787" stroke-width="0.245" stroke="#000000" clip-path="url(#clipPath47)" fill="none" signature="ML" d="M160.965 673.94 L156.453 673.94 "/>
   <path id="path6791" stroke-width="0.245" stroke="#000000" clip-path="url(#clipPath47)" fill="none" signature="ML" d="M160.965 630.596 L156.453 630.596 "/>
   <path id="path6795" stroke-width="0.245" stroke="#000000" clip-path="url(#clipPath47)" fill="none" signature="ML" d="M160.965 587.252 L156.453 587.252 "/>
   <path id="path6799" stroke-width="0.245" stroke="#000000" clip-path="url(#clipPath47)" fill="none" signature="ML" d="M160.965 543.86 L156.453 543.86 "/>
   <path id="path6801" stroke-width="0.245" stroke="#000000" clip-path="url(#clipPath47)" fill="none" signature="MLL" d="M464.949 723.572 L160.965 723.572 L160.965 537.38 "/>
   <path id="path6803" stroke-width="0.245" stroke="#000000" clip-path="url(#clipPath47)" fill="none" signature="MLLLLLLLLLLLLLLL" d="M167.829 628.436 L196.341 628.436 L207.141 628.436 L211.269 628.436 L242.901 628.436 L247.221 628.436 L248.229 628.436 L251.157 628.436 L251.541 628.436 L264.549 628.436 L268.053 628.436 L288.501 628.436 L316.005 628.436 L337.221 628.436 L391.461 628.436 L434.325 628.436 "/>
   <path id="path6805" stroke-width="0.245" stroke="#000000" clip-path="url(#clipPath47)" fill="none" signature="MLLLLLLLLLLLLLLL" d="M167.829 628.436 L196.341 636.884 L207.141 640.004 L211.269 641.204 L242.901 650.42 L247.221 651.764 L248.229 651.956 L251.157 652.964 L251.541 652.964 L264.549 656.9 L268.053 657.86 L288.501 663.764 L316.005 671.78 L337.221 678.068 L391.461 693.956 L434.325 706.532 "/>
   <path id="path6807" stroke-width="0.245" stroke="#000000" clip-path="url(#clipPath47)" fill="none" signature="MLLLLLLLLLLLLLLL" d="M167.829 628.436 L196.341 620.18 L207.141 617.06 L211.269 615.86 L242.901 606.644 L247.221 605.3 L248.229 605.108 L251.157 604.1 L251.541 604.1 L264.549 600.164 L268.053 599.204 L288.501 593.3 L316.005 585.284 L337.221 578.996 L391.461 563.108 L434.325 550.532 "/>
   <path id="path6809" stroke-width="0.245" stroke="#000000" clip-path="url(#clipPath47)" fill="none" signature="MCCCCZ" d="M197.349 628.724 C197.349 628.148 196.869 627.668 196.245 627.668 C195.669 627.668 195.189 628.148 195.189 628.724 C195.189 629.3 195.669 629.828 196.245 629.828 C196.869 629.828 197.349 629.3 197.349 628.724 Z"/>
   <path id="path6811" stroke-width="0.245" stroke="#000000" clip-path="url(#clipPath47)" fill="none" signature="MCCCCZ" d="M208.341 627.764 C208.341 627.14 207.813 626.66 207.141 626.66 C206.517 626.66 205.989 627.14 205.989 627.764 C205.989 628.34 206.517 628.82 207.141 628.82 C207.813 628.82 208.341 628.34 208.341 627.764 Z"/>
   <path id="path6813" stroke-width="0.245" stroke="#000000" clip-path="url(#clipPath47)" fill="none" signature="MCCCCZ" d="M212.469 636.788 C212.469 636.164 211.941 635.684 211.269 635.684 C210.645 635.684 210.117 636.164 210.117 636.788 C210.117 637.364 210.645 637.844 211.269 637.844 C211.941 637.844 212.469 637.364 212.469 636.788 Z"/>
   <path id="path6815" stroke-width="0.245" stroke="#000000" clip-path="url(#clipPath47)" fill="none" signature="MCCCCZ" d="M243.909 618.932 C243.909 618.308 243.429 617.828 242.805 617.828 C242.229 617.828 241.749 618.308 241.749 618.932 C241.749 619.508 242.229 619.988 242.805 619.988 C243.429 619.988 243.909 619.508 243.909 618.932 Z"/>
   <path id="path6817" stroke-width="0.245" stroke="#000000" clip-path="url(#clipPath47)" fill="none" signature="MCCCCZ" d="M248.229 658.148 C248.229 657.572 247.749 657.092 247.125 657.092 C246.549 657.092 246.069 657.572 246.069 658.148 C246.069 658.772 246.549 659.252 247.125 659.252 C247.749 659.252 248.229 658.772 248.229 658.148 Z"/>
   <path id="path6819" stroke-width="0.245" stroke="#000000" clip-path="url(#clipPath47)" fill="none" signature="MCCCCZ" d="M249.189 612.644 C249.189 612.068 248.709 611.54 248.133 611.54 C247.509 611.54 247.029 612.068 247.029 612.644 C247.029 613.22 247.509 613.7 248.133 613.7 C248.709 613.7 249.189 613.22 249.189 612.644 Z"/>
   <path id="path6821" stroke-width="0.245" stroke="#000000" clip-path="url(#clipPath47)" fill="none" signature="MCCCCZ" d="M252.357 625.076 C252.357 624.452 251.829 623.924 251.157 623.924 C250.533 623.924 250.005 624.452 250.005 625.076 C250.005 625.748 250.533 626.276 251.157 626.276 C251.829 626.276 252.357 625.748 252.357 625.076 Z"/>
   <path id="path6823" stroke-width="0.245" stroke="#000000" clip-path="url(#clipPath47)" fill="none" signature="MCCCCZ" d="M252.741 610.004 C252.741 609.332 252.213 608.804 251.541 608.804 C250.917 608.804 250.389 609.332 250.389 610.004 C250.389 610.628 250.917 611.156 251.541 611.156 C252.213 611.156 252.741 610.628 252.741 610.004 Z"/>
   <path id="path6825" stroke-width="0.245" stroke="#000000" clip-path="url(#clipPath47)" fill="none" signature="MCCCCZ" d="M265.509 636.788 C265.509 636.164 265.029 635.684 264.453 635.684 C263.829 635.684 263.349 636.164 263.349 636.788 C263.349 637.364 263.829 637.844 264.453 637.844 C265.029 637.844 265.509 637.364 265.509 636.788 Z"/>
   <path id="path6827" stroke-width="0.245" stroke="#000000" clip-path="url(#clipPath47)" fill="none" signature="MCCCCZ" d="M269.061 625.316 C269.061 624.644 268.581 624.116 267.957 624.116 C267.381 624.116 266.901 624.644 266.901 625.316 C266.901 625.94 267.381 626.468 267.957 626.468 C268.581 626.468 269.061 625.94 269.061 625.316 Z"/>
   <path id="path6829" stroke-width="0.245" stroke="#000000" clip-path="url(#clipPath47)" fill="none" signature="MCCCCZ" d="M289.509 618.932 C289.509 618.308 289.029 617.828 288.405 617.828 C287.829 617.828 287.349 618.308 287.349 618.932 C287.349 619.508 287.829 619.988 288.405 619.988 C289.029 619.988 289.509 619.508 289.509 618.932 Z"/>
   <path id="path6831" stroke-width="0.245" stroke="#000000" clip-path="url(#clipPath47)" fill="none" signature="MCCCCZ" d="M317.013 585.092 C317.013 584.42 316.533 583.892 315.909 583.892 C315.333 583.892 314.853 584.42 314.853 585.092 C314.853 585.716 315.333 586.244 315.909 586.244 C316.533 586.244 317.013 585.716 317.013 585.092 Z"/>
   <path id="path6833" stroke-width="0.245" stroke="#000000" clip-path="url(#clipPath47)" fill="none" signature="MCCCCZ" d="M338.229 641.876 C338.229 641.3 337.749 640.772 337.125 640.772 C336.549 640.772 336.069 641.3 336.069 641.876 C336.069 642.452 336.549 642.932 337.125 642.932 C337.749 642.932 338.229 642.452 338.229 641.876 Z"/>
   <path id="path6835" stroke-width="0.245" stroke="#000000" clip-path="url(#clipPath47)" fill="none" signature="MCCCCZ" d="M392.661 644.516 C392.661 643.892 392.133 643.364 391.461 643.364 C390.837 643.364 390.309 643.892 390.309 644.516 C390.309 645.188 390.837 645.716 391.461 645.716 C392.133 645.716 392.661 645.188 392.661 644.516 Z"/>
   <path id="path6837" stroke-width="0.245" stroke="#000000" clip-path="url(#clipPath47)" fill="none" signature="MCCCCZ" d="M435.477 599.492 C435.477 598.916 434.949 598.436 434.325 598.436 C433.653 598.436 433.125 598.916 433.125 599.492 C433.125 600.068 433.653 600.596 434.325 600.596 C434.949 600.596 435.477 600.068 435.477 599.492 Z"/>
   <text id="text6621" font-weight="normal" font-family="Helvetica" svgx:width="667.0" svgx:fontName="AHODDH+Arial" clip-path="url(#clipPath47)" fill="#000000" stroke="none" x="161.013" y="530.564" font-size="7.853" xmlns:svgx="http://www.xml-cml.org/schema/svgx">B</text>
   <text id="text6623" font-weight="normal" font-family="Helvetica" svgx:width="556.0" svgx:fontName="AHODDH+Arial" clip-path="url(#clipPath47)" fill="#000000" stroke="none" x="166.293" y="530.564" font-size="7.853" xmlns:svgx="http://www.xml-cml.org/schema/svgx">e</text>
   <text id="text6625" font-weight="normal" font-family="Helvetica" svgx:width="556.0" svgx:fontName="AHODDH+Arial" clip-path="url(#clipPath47)" fill="#000000" stroke="none" x="170.618" y="530.564" font-size="7.853" xmlns:svgx="http://www.xml-cml.org/schema/svgx">g</text>
   <text id="text6627" font-weight="normal" font-family="Helvetica" svgx:width="556.0" svgx:fontName="AHODDH+Arial" clip-path="url(#clipPath47)" fill="#000000" stroke="none" x="174.943" y="530.564" font-size="7.853" xmlns:svgx="http://www.xml-cml.org/schema/svgx">g</text>
   <text id="text6629" font-weight="normal" font-family="Helvetica" svgx:width="191.0" svgx:fontName="AHODDH+Arial" clip-path="url(#clipPath47)" fill="#000000" stroke="none" x="179.268" y="530.564" font-size="7.853" xmlns:svgx="http://www.xml-cml.org/schema/svgx">'</text>
   <text id="text6631" font-weight="normal" font-family="Helvetica" svgx:width="500.0" svgx:fontName="AHODDH+Arial" clip-path="url(#clipPath47)" fill="#000000" stroke="none" x="180.66" y="530.564" font-size="7.853" xmlns:svgx="http://www.xml-cml.org/schema/svgx">s</text>
   <text id="text6635" font-weight="normal" font-family="Helvetica" svgx:width="278.0" svgx:fontName="AHODDH+Arial" clip-path="url(#clipPath47)" fill="#000000" stroke="none" x="186.757" y="530.564" font-size="7.853" xmlns:svgx="http://www.xml-cml.org/schema/svgx">f</text>
   <text id="text6637" font-weight="normal" font-family="Helvetica" svgx:width="556.0" svgx:fontName="AHODDH+Arial" clip-path="url(#clipPath47)" fill="#000000" stroke="none" x="189.111" y="530.564" font-size="7.853" xmlns:svgx="http://www.xml-cml.org/schema/svgx">u</text>
   <text id="text6639" font-weight="normal" font-family="Helvetica" svgx:width="556.0" svgx:fontName="AHODDH+Arial" clip-path="url(#clipPath47)" fill="#000000" stroke="none" x="193.435" y="530.564" font-size="7.853" xmlns:svgx="http://www.xml-cml.org/schema/svgx">n</text>
   <text id="text6641" font-weight="normal" font-family="Helvetica" svgx:width="556.0" svgx:fontName="AHODDH+Arial" clip-path="url(#clipPath47)" fill="#000000" stroke="none" x="197.76" y="530.564" font-size="7.853" xmlns:svgx="http://www.xml-cml.org/schema/svgx">n</text>
   <text id="text6643" font-weight="normal" font-family="Helvetica" svgx:width="556.0" svgx:fontName="AHODDH+Arial" clip-path="url(#clipPath47)" fill="#000000" stroke="none" x="202.085" y="530.564" font-size="7.853" xmlns:svgx="http://www.xml-cml.org/schema/svgx">e</text>
   <text id="text6645" font-weight="normal" font-family="Helvetica" svgx:width="222.0" svgx:fontName="AHODDH+Arial" clip-path="url(#clipPath47)" fill="#000000" stroke="none" x="206.41" y="530.564" font-size="7.853" xmlns:svgx="http://www.xml-cml.org/schema/svgx">l</text>
   <text id="text6649" font-weight="normal" font-family="Helvetica" svgx:width="556.0" svgx:fontName="AHODDH+Arial" clip-path="url(#clipPath47)" fill="#000000" stroke="none" x="210.346" y="530.564" font-size="7.853" xmlns:svgx="http://www.xml-cml.org/schema/svgx">p</text>
   <text id="text6651" font-weight="normal" font-family="Helvetica" svgx:width="222.0" svgx:fontName="AHODDH+Arial" clip-path="url(#clipPath47)" fill="#000000" stroke="none" x="214.671" y="530.564" font-size="7.853" xmlns:svgx="http://www.xml-cml.org/schema/svgx">l</text>
   <text id="text6653" font-weight="normal" font-family="Helvetica" svgx:width="556.0" svgx:fontName="AHODDH+Arial" clip-path="url(#clipPath47)" fill="#000000" stroke="none" x="216.446" y="530.564" font-size="7.853" xmlns:svgx="http://www.xml-cml.org/schema/svgx">o</text>
   <text id="text6655" font-weight="normal" font-family="Helvetica" svgx:width="278.0" svgx:fontName="AHODDH+Arial" clip-path="url(#clipPath47)" fill="#000000" stroke="none" x="220.771" y="530.564" font-size="7.853" xmlns:svgx="http://www.xml-cml.org/schema/svgx">t</text>
   <text id="text6659" font-weight="normal" font-family="Helvetica" svgx:width="722.0" svgx:fontName="AHODDH+Arial" clip-path="url(#clipPath47)" fill="#000000" stroke="none" x="225.073" y="530.564" font-size="7.853" xmlns:svgx="http://www.xml-cml.org/schema/svgx">w</text>
   <text id="text6661" font-weight="normal" font-family="Helvetica" svgx:width="222.0" svgx:fontName="AHODDH+Arial" clip-path="url(#clipPath47)" fill="#000000" stroke="none" x="230.591" y="530.564" font-size="7.853" xmlns:svgx="http://www.xml-cml.org/schema/svgx">i</text>
   <text id="text6663" font-weight="normal" font-family="Helvetica" svgx:width="278.0" svgx:fontName="AHODDH+Arial" clip-path="url(#clipPath47)" fill="#000000" stroke="none" x="232.366" y="530.564" font-size="7.853" xmlns:svgx="http://www.xml-cml.org/schema/svgx">t</text>
   <text id="text6665" font-weight="normal" font-family="Helvetica" svgx:width="556.0" svgx:fontName="AHODDH+Arial" clip-path="url(#clipPath47)" fill="#000000" stroke="none" x="234.507" y="530.564" font-size="7.853" xmlns:svgx="http://www.xml-cml.org/schema/svgx">h</text>
   <text id="text6669" font-weight="normal" font-family="Helvetica" svgx:width="556.0" svgx:fontName="AHODDH+Arial" clip-path="url(#clipPath47)" fill="#000000" stroke="none" x="240.993" y="530.564" font-size="7.853" xmlns:svgx="http://www.xml-cml.org/schema/svgx">p</text>
   <text id="text6671" font-weight="normal" font-family="Helvetica" svgx:width="500.0" svgx:fontName="AHODDH+Arial" clip-path="url(#clipPath47)" fill="#000000" stroke="none" x="245.318" y="530.564" font-size="7.853" xmlns:svgx="http://www.xml-cml.org/schema/svgx">s</text>
   <text id="text6673" font-weight="normal" font-family="Helvetica" svgx:width="556.0" svgx:fontName="AHODDH+Arial" clip-path="url(#clipPath47)" fill="#000000" stroke="none" x="249.254" y="530.564" font-size="7.853" xmlns:svgx="http://www.xml-cml.org/schema/svgx">e</text>
   <text id="text6675" font-weight="normal" font-family="Helvetica" svgx:width="556.0" svgx:fontName="AHODDH+Arial" clip-path="url(#clipPath47)" fill="#000000" stroke="none" x="253.579" y="530.564" font-size="7.853" xmlns:svgx="http://www.xml-cml.org/schema/svgx">u</text>
   <text id="text6677" font-weight="normal" font-family="Helvetica" svgx:width="556.0" svgx:fontName="AHODDH+Arial" clip-path="url(#clipPath47)" fill="#000000" stroke="none" x="257.903" y="530.564" font-size="7.853" xmlns:svgx="http://www.xml-cml.org/schema/svgx">d</text>
   <text id="text6679" font-weight="normal" font-family="Helvetica" svgx:width="556.0" svgx:fontName="AHODDH+Arial" clip-path="url(#clipPath47)" fill="#000000" stroke="none" x="262.228" y="530.564" font-size="7.853" xmlns:svgx="http://www.xml-cml.org/schema/svgx">o</text>
   <text id="text6683" font-weight="normal" font-family="Helvetica" svgx:width="556.0" svgx:fontName="AHODDH+Arial" clip-path="url(#clipPath47)" fill="#000000" stroke="none" x="268.714" y="530.564" font-size="7.853" xmlns:svgx="http://www.xml-cml.org/schema/svgx">9</text>
   <text id="text6685" font-weight="normal" font-family="Helvetica" svgx:width="556.0" svgx:fontName="AHODDH+Arial" clip-path="url(#clipPath47)" fill="#000000" stroke="none" x="273.039" y="530.564" font-size="7.853" xmlns:svgx="http://www.xml-cml.org/schema/svgx">5</text>
   <text id="text6687" font-weight="normal" font-family="Helvetica" svgx:width="889.0" svgx:fontName="AHODDH+Arial" clip-path="url(#clipPath47)" fill="#000000" stroke="none" x="277.364" y="530.564" font-size="7.853" xmlns:svgx="http://www.xml-cml.org/schema/svgx">%</text>
   <text id="text6691" font-weight="normal" font-family="Helvetica" svgx:width="500.0" svgx:fontName="AHODDH+Arial" clip-path="url(#clipPath47)" fill="#000000" stroke="none" x="286.628" y="530.564" font-size="7.853" xmlns:svgx="http://www.xml-cml.org/schema/svgx">c</text>
   <text id="text6693" font-weight="normal" font-family="Helvetica" svgx:width="556.0" svgx:fontName="AHODDH+Arial" clip-path="url(#clipPath47)" fill="#000000" stroke="none" x="290.564" y="530.564" font-size="7.853" xmlns:svgx="http://www.xml-cml.org/schema/svgx">o</text>
   <text id="text6695" font-weight="normal" font-family="Helvetica" svgx:width="556.0" svgx:fontName="AHODDH+Arial" clip-path="url(#clipPath47)" fill="#000000" stroke="none" x="294.889" y="530.564" font-size="7.853" xmlns:svgx="http://www.xml-cml.org/schema/svgx">n</text>
   <text id="text6697" font-weight="normal" font-family="Helvetica" svgx:width="278.0" svgx:fontName="AHODDH+Arial" clip-path="url(#clipPath47)" fill="#000000" stroke="none" x="299.213" y="530.564" font-size="7.853" xmlns:svgx="http://www.xml-cml.org/schema/svgx">f</text>
   <text id="text6699" font-weight="normal" font-family="Helvetica" svgx:width="222.0" svgx:fontName="AHODDH+Arial" clip-path="url(#clipPath47)" fill="#000000" stroke="none" x="301.354" y="530.564" font-size="7.853" xmlns:svgx="http://www.xml-cml.org/schema/svgx">i</text>
   <text id="text6701" font-weight="normal" font-family="Helvetica" svgx:width="556.0" svgx:fontName="AHODDH+Arial" clip-path="url(#clipPath47)" fill="#000000" stroke="none" x="303.129" y="530.564" font-size="7.853" xmlns:svgx="http://www.xml-cml.org/schema/svgx">d</text>
   <text id="text6703" font-weight="normal" font-family="Helvetica" svgx:width="556.0" svgx:fontName="AHODDH+Arial" clip-path="url(#clipPath47)" fill="#000000" stroke="none" x="307.454" y="530.564" font-size="7.853" xmlns:svgx="http://www.xml-cml.org/schema/svgx">e</text>
   <text id="text6705" font-weight="normal" font-family="Helvetica" svgx:width="556.0" svgx:fontName="AHODDH+Arial" clip-path="url(#clipPath47)" fill="#000000" stroke="none" x="311.778" y="530.564" font-size="7.853" xmlns:svgx="http://www.xml-cml.org/schema/svgx">n</text>
   <text id="text6707" font-weight="normal" font-family="Helvetica" svgx:width="500.0" svgx:fontName="AHODDH+Arial" clip-path="url(#clipPath47)" fill="#000000" stroke="none" x="316.103" y="530.564" font-size="7.853" xmlns:svgx="http://www.xml-cml.org/schema/svgx">c</text>
   <text id="text6709" font-weight="normal" font-family="Helvetica" svgx:width="556.0" svgx:fontName="AHODDH+Arial" clip-path="url(#clipPath47)" fill="#000000" stroke="none" x="320.039" y="530.564" font-size="7.853" xmlns:svgx="http://www.xml-cml.org/schema/svgx">e</text>
   <text id="text6713" font-weight="normal" font-family="Helvetica" svgx:width="222.0" svgx:fontName="AHODDH+Arial" clip-path="url(#clipPath47)" fill="#000000" stroke="none" x="326.525" y="530.564" font-size="7.853" xmlns:svgx="http://www.xml-cml.org/schema/svgx">l</text>
   <text id="text6715" font-weight="normal" font-family="Helvetica" svgx:width="222.0" svgx:fontName="AHODDH+Arial" clip-path="url(#clipPath47)" fill="#000000" stroke="none" x="328.3" y="530.564" font-size="7.853" xmlns:svgx="http://www.xml-cml.org/schema/svgx">i</text>
   <text id="text6717" font-weight="normal" font-family="Helvetica" svgx:width="833.0" svgx:fontName="AHODDH+Arial" clip-path="url(#clipPath47)" fill="#000000" stroke="none" x="330.027" y="530.564" font-size="7.853" xmlns:svgx="http://www.xml-cml.org/schema/svgx">m</text>
   <text id="text6719" font-weight="normal" font-family="Helvetica" svgx:width="222.0" svgx:fontName="AHODDH+Arial" clip-path="url(#clipPath47)" fill="#000000" stroke="none" x="336.747" y="530.564" font-size="7.853" xmlns:svgx="http://www.xml-cml.org/schema/svgx">i</text>
   <text id="text6721" font-weight="normal" font-family="Helvetica" svgx:width="278.0" svgx:fontName="AHODDH+Arial" clip-path="url(#clipPath47)" fill="#000000" stroke="none" x="338.473" y="530.564" font-size="7.853" xmlns:svgx="http://www.xml-cml.org/schema/svgx">t</text>
   <text id="text6723" font-weight="normal" font-family="Helvetica" svgx:width="500.0" svgx:fontName="AHODDH+Arial" clip-path="url(#clipPath47)" fill="#000000" stroke="none" x="340.613" y="530.564" font-size="7.853" xmlns:svgx="http://www.xml-cml.org/schema/svgx">s</text>
   <text id="text6725" font-weight="normal" font-family="Helvetica" font-size="7.853" y="638.564" x="136.821" transform="matrix(0.0,-1.0,1.0,0.0,-501.74278,775.38478)" svgx:width="222.0" svgx:fontName="AHODDH+Arial" clip-path="url(#clipPath47)" fill="#000000" stroke="none" xmlns:svgx="http://www.xml-cml.org/schema/svgx">l</text>
   <text id="text6727" font-weight="normal" font-family="Helvetica" font-size="7.853" y="636.789" x="136.821" transform="matrix(0.0,-1.0,1.0,0.0,-499.96776,773.60976)" svgx:width="556.0" svgx:fontName="AHODDH+Arial" clip-path="url(#clipPath47)" fill="#000000" stroke="none" xmlns:svgx="http://www.xml-cml.org/schema/svgx">o</text>
   <text id="text6729" font-weight="normal" font-family="Helvetica" font-size="7.853" y="632.47" x="136.821" transform="matrix(0.0,-1.0,1.0,0.0,-495.64928,769.29128)" svgx:width="556.0" svgx:fontName="AHODDH+Arial" clip-path="url(#clipPath47)" fill="#000000" stroke="none" xmlns:svgx="http://www.xml-cml.org/schema/svgx">g</text>
   <text id="text6731" font-weight="normal" font-family="Helvetica" font-size="7.853" y="627.959" x="136.821" transform="matrix(0.0,-1.0,1.0,0.0,-491.13829,764.78029)" svgx:width="333.0" svgx:fontName="AHODDH+Arial" clip-path="url(#clipPath47)" fill="#000000" stroke="none" xmlns:svgx="http://www.xml-cml.org/schema/svgx">r</text>
   <text id="text6733" font-weight="normal" font-family="Helvetica" font-size="7.853" y="625.415" x="136.821" transform="matrix(0.0,-1.0,1.0,0.0,-488.59398,762.23598)" svgx:width="333.0" svgx:fontName="AHODDH+Arial" clip-path="url(#clipPath47)" fill="#000000" stroke="none" xmlns:svgx="http://www.xml-cml.org/schema/svgx">r</text>
   <text id="text6735" font-weight="normal" font-family="Helvetica" svgx:width="500.0" svgx:fontName="AHODDH+Arial" clip-path="url(#clipPath47)" fill="#000000" stroke="none" x="292.341" y="742.244" font-size="7.853" xmlns:svgx="http://www.xml-cml.org/schema/svgx">s</text>
   <text id="text6737" font-weight="normal" font-family="Helvetica" svgx:width="278.0" svgx:fontName="AHODDH+Arial" clip-path="url(#clipPath47)" fill="#000000" stroke="none" x="296.277" y="742.244" font-size="7.853" xmlns:svgx="http://www.xml-cml.org/schema/svgx">.</text>
   <text id="text6739" font-weight="normal" font-family="Helvetica" svgx:width="556.0" svgx:fontName="AHODDH+Arial" clip-path="url(#clipPath47)" fill="#000000" stroke="none" x="298.438" y="742.244" font-size="7.853" xmlns:svgx="http://www.xml-cml.org/schema/svgx">e</text>
   <text id="text6741" font-weight="normal" font-family="Helvetica" svgx:width="278.0" svgx:fontName="AHODDH+Arial" clip-path="url(#clipPath47)" fill="#000000" stroke="none" x="302.771" y="742.244" font-size="7.853" xmlns:svgx="http://www.xml-cml.org/schema/svgx">.</text>
   <text id="text6745" font-weight="normal" font-family="Helvetica" svgx:width="556.0" svgx:fontName="AHODDH+Arial" clip-path="url(#clipPath47)" fill="#000000" stroke="none" x="307.081" y="742.244" font-size="7.853" xmlns:svgx="http://www.xml-cml.org/schema/svgx">o</text>
   <text id="text6747" font-weight="normal" font-family="Helvetica" svgx:width="278.0" svgx:fontName="AHODDH+Arial" clip-path="url(#clipPath47)" fill="#000000" stroke="none" x="311.414" y="742.244" font-size="7.853" xmlns:svgx="http://www.xml-cml.org/schema/svgx">f</text>
   <text id="text6749" font-weight="normal" font-family="Helvetica" svgx:width="278.0" svgx:fontName="AHODDH+Arial" clip-path="url(#clipPath47)" fill="#000000" stroke="none" x="313.815" y="742.244" font-size="7.853" xmlns:svgx="http://www.xml-cml.org/schema/svgx">:</text>
   <text id="text6753" font-weight="normal" font-family="Helvetica" svgx:width="222.0" svgx:fontName="AHODDH+Arial" clip-path="url(#clipPath47)" fill="#000000" stroke="none" x="318.125" y="742.244" font-size="7.853" xmlns:svgx="http://www.xml-cml.org/schema/svgx">l</text>
   <text id="text6755" font-weight="normal" font-family="Helvetica" svgx:width="556.0" svgx:fontName="AHODDH+Arial" clip-path="url(#clipPath47)" fill="#000000" stroke="none" x="319.833" y="742.244" font-size="7.853" xmlns:svgx="http://www.xml-cml.org/schema/svgx">o</text>
   <text id="text6757" font-weight="normal" font-family="Helvetica" svgx:width="556.0" svgx:fontName="AHODDH+Arial" clip-path="url(#clipPath47)" fill="#000000" stroke="none" x="324.199" y="742.244" font-size="7.853" xmlns:svgx="http://www.xml-cml.org/schema/svgx">g</text>
   <text id="text6759" font-weight="normal" font-family="Helvetica" svgx:width="333.0" svgx:fontName="AHODDH+Arial" clip-path="url(#clipPath47)" fill="#000000" stroke="none" x="328.532" y="742.244" font-size="7.853" xmlns:svgx="http://www.xml-cml.org/schema/svgx">r</text>
   <text id="text6761" font-weight="normal" font-family="Helvetica" svgx:width="333.0" svgx:fontName="AHODDH+Arial" clip-path="url(#clipPath47)" fill="#000000" stroke="none" x="331.112" y="742.244" font-size="7.853" xmlns:svgx="http://www.xml-cml.org/schema/svgx">r</text>
   <text id="text6763" font-weight="normal" font-family="Helvetica" svgx:width="556.0" svgx:fontName="AHODDH+Arial" clip-path="url(#clipPath47)" fill="#000000" stroke="none" x="165.718" y="734.419" font-size="7.853" xmlns:svgx="http://www.xml-cml.org/schema/svgx">0</text>
   <text id="text6767" font-weight="normal" font-family="Helvetica" svgx:width="278.0" svgx:fontName="AHODDH+Arial" clip-path="url(#clipPath47)" fill="#000000" stroke="none" x="309.813" y="734.42" font-size="7.853" xmlns:svgx="http://www.xml-cml.org/schema/svgx">.</text>
   <text id="text6769" font-weight="normal" font-family="Helvetica" svgx:width="556.0" svgx:fontName="AHODDH+Arial" clip-path="url(#clipPath47)" fill="#000000" stroke="none" x="311.975" y="734.42" font-size="7.853" xmlns:svgx="http://www.xml-cml.org/schema/svgx">5</text>
   <text id="text6773" font-weight="normal" font-family="Helvetica" svgx:width="556.0" svgx:fontName="AHODDH+Arial" clip-path="url(#clipPath47)" fill="#000000" stroke="none" x="455.973" y="734.42" font-size="7.853" xmlns:svgx="http://www.xml-cml.org/schema/svgx">1</text>
   <text id="text6777" font-weight="normal" font-family="Helvetica" svgx:width="333.0" svgx:fontName="AHODDH+Arial" clip-path="url(#clipPath47)" fill="#000000" stroke="none" x="146.085" y="720.452" font-size="7.853" xmlns:svgx="http://www.xml-cml.org/schema/svgx">-</text>
   <text id="text6779" font-weight="normal" font-family="Helvetica" svgx:width="556.0" svgx:fontName="AHODDH+Arial" clip-path="url(#clipPath47)" fill="#000000" stroke="none" x="148.821" y="720.452" font-size="7.853" xmlns:svgx="http://www.xml-cml.org/schema/svgx">2</text>
   <text id="text6783" font-weight="normal" font-family="Helvetica" svgx:width="333.0" svgx:fontName="AHODDH+Arial" clip-path="url(#clipPath47)" fill="#000000" stroke="none" x="146.085" y="677.108" font-size="7.853" xmlns:svgx="http://www.xml-cml.org/schema/svgx">-</text>
   <text id="text6785" font-weight="normal" font-family="Helvetica" svgx:width="556.0" svgx:fontName="AHODDH+Arial" clip-path="url(#clipPath47)" fill="#000000" stroke="none" x="148.821" y="677.108" font-size="7.853" xmlns:svgx="http://www.xml-cml.org/schema/svgx">1</text>
   <text id="text6789" font-weight="normal" font-family="Helvetica" svgx:width="556.0" svgx:fontName="AHODDH+Arial" clip-path="url(#clipPath47)" fill="#000000" stroke="none" x="148.821" y="633.764" font-size="7.853" xmlns:svgx="http://www.xml-cml.org/schema/svgx">0</text>
   <text id="text6793" font-weight="normal" font-family="Helvetica" svgx:width="556.0" svgx:fontName="AHODDH+Arial" clip-path="url(#clipPath47)" fill="#000000" stroke="none" x="148.821" y="590.372" font-size="7.853" xmlns:svgx="http://www.xml-cml.org/schema/svgx">1</text>
   <text id="text6797" font-weight="normal" font-family="Helvetica" svgx:width="556.0" svgx:fontName="AHODDH+Arial" clip-path="url(#clipPath47)" fill="#000000" stroke="none" x="148.821" y="547.22" font-size="7.853" xmlns:svgx="http://www.xml-cml.org/schema/svgx">2</text>
  </g>
  <g fill="orange">
   <polyline fill="none" stroke="#000000" stroke-width="0.245" id="polyline.11" points="434.325 706.532 391.461 693.956 337.221 678.068 316.005 671.78 288.501 663.764 268.053 657.86 264.549 656.9 251.541 652.964 251.157 652.964 248.229 651.956 247.221 651.764 242.901 650.42 211.269 641.204 207.141 640.004 196.341 636.884 167.829 628.436"/>
   <polyline fill="none" stroke="#000000" stroke-width="0.245" id="polyline.12" points="434.325 550.532 391.461 563.108 337.221 578.996 316.005 585.284 288.501 593.3 268.053 599.204 264.549 600.164 251.541 604.1 251.157 604.1 248.229 605.108 247.221 605.3 242.901 606.644 211.269 615.86 207.141 617.06 196.341 620.18 167.829 628.436"/>
   <circle fill="none" stroke="#000000" stroke-width="0.245" cx="196.265" cy="628.744" r="1.258" id="circle.13"/>
   <circle fill="none" stroke="#000000" stroke-width="0.245" cx="207.16" cy="627.745" r="1.28" id="circle.14"/>
   <circle fill="none" stroke="#000000" stroke-width="0.245" cx="211.288" cy="636.769" r="1.28" id="circle.15"/>
   <circle fill="none" stroke="#000000" stroke-width="0.245" cx="242.825" cy="618.912" r="1.258" id="circle.16"/>
   <circle fill="none" stroke="#000000" stroke-width="0.245" cx="247.145" cy="658.168" r="1.258" id="circle.17"/>
   <circle fill="none" stroke="#000000" stroke-width="0.245" cx="248.113" cy="612.624" r="1.258" id="circle.18"/>
   <circle fill="none" stroke="#000000" stroke-width="0.245" cx="251.176" cy="625.095" r="1.301" id="circle.19"/>
   <circle fill="none" stroke="#000000" stroke-width="0.245" cx="251.56" cy="609.985" r="1.301" id="circle.20"/>
   <circle fill="none" stroke="#000000" stroke-width="0.245" cx="264.433" cy="636.768" r="1.258" id="circle.21"/>
   <circle fill="none" stroke="#000000" stroke-width="0.245" cx="267.976" cy="625.297" r="1.28" id="circle.22"/>
   <circle fill="none" stroke="#000000" stroke-width="0.245" cx="288.425" cy="618.912" r="1.258" id="circle.23"/>
   <circle fill="none" stroke="#000000" stroke-width="0.245" cx="315.928" cy="585.073" r="1.28" id="circle.24"/>
   <circle fill="none" stroke="#000000" stroke-width="0.245" cx="337.145" cy="641.856" r="1.258" id="circle.25"/>
   <circle fill="none" stroke="#000000" stroke-width="0.245" cx="391.48" cy="644.535" r="1.301" id="circle.26"/>
   <circle fill="none" stroke="#000000" stroke-width="0.245" cx="434.306" cy="599.511" r="1.28" id="circle.27"/>
  </g>
  <g class="pathAnnotation NYI"/>
 </g>
</svg>
