<?xml version="1.0" encoding="UTF-8" standalone="no"?>
<svg
   xmlns:svgx="http://www.xml-cml.org/schema/svgx"
   xmlns:dc="http://purl.org/dc/elements/1.1/"
   xmlns:cc="http://creativecommons.org/ns#"
   xmlns:rdf="http://www.w3.org/1999/02/22-rdf-syntax-ns#"
   xmlns:svg="http://www.w3.org/2000/svg"
   xmlns="http://www.w3.org/2000/svg"
   id="svg10621"
   version="1.1"
   stroke-width="0.0"
   stroke="none"
   height="800.0"
   width="600.0">
  <metadata
     id="metadata10625">
    <rdf:RDF>
      <cc:Work
         rdf:about="">
        <dc:format>image/svg+xml</dc:format>
        <dc:type
           rdf:resource="http://purl.org/dc/dcmitype/StillImage" />
        <dc:title></dc:title>
      </cc:Work>
    </rdf:RDF>
  </metadata>
  <defs
     id="defs1">
    <clipPath
       id="clipPath7">
      <path
         id="path2"
         d="M297.941 64.797 L297.941 268.92 L532.611 268.92 L532.611 64.797 Z"
         fill="none"
         stroke-width="0.5"
         stroke="black" />
    </clipPath>
    <clipPath
       id="clipPath9">
      <path
         id="path5"
         d="M62.669 64.801 L62.669 315.41 L297.176 315.41 L297.176 64.801 Z"
         fill="none"
         stroke-width="0.5"
         stroke="black" />
    </clipPath>
    <clipPath
       id="clipPath8">
      <path
         id="path8"
         d="M297.938 340.038 L297.938 547.112 L532.455 547.112 L532.455 340.038 Z"
         fill="none"
         stroke-width="0.5"
         stroke="black" />
    </clipPath>
    <clipPath
       id="clipPath4">
      <path
         id="path11"
         d="M489.383 33.315 L489.383 39.268 L544.252 39.268 L544.252 33.315 Z"
         fill="none"
         stroke-width="0.5"
         stroke="black" />
    </clipPath>
    <clipPath
       id="clipPath5">
      <path
         id="path14"
         d="M51.276 64.751 L51.276 284.029 L286.0 284.029 L286.0 64.751 Z"
         fill="none"
         stroke-width="0.5"
         stroke="black" />
    </clipPath>
    <clipPath
       id="clipPath1">
      <path
         id="path17"
         d="M489.383 33.315 L489.383 39.268 L544.251 39.268 L544.251 33.315 Z"
         fill="none"
         stroke-width="0.5"
         stroke="black" />
    </clipPath>
    <clipPath
       id="clipPath10">
      <path
         id="path20"
         d="M62.655 370.883 L62.655 562.848 L297.443 562.848 L297.443 370.883 Z"
         fill="none"
         stroke-width="0.5"
         stroke="black" />
    </clipPath>
    <clipPath
       id="clipPath2">
      <path
         id="path23"
         d="M0.0 0.0 L595.0 0.0 L595.0 793.0 L0.0 793.0 L0.0 0.0 Z"
         fill="none"
         stroke-width="0.5"
         stroke="black" />
    </clipPath>
    <clipPath
       id="clipPath6">
      <path
         id="path26"
         d="M51.307 340.021 L51.307 544.755 L285.873 544.755 L285.873 340.021 Z"
         fill="none"
         stroke-width="0.5"
         stroke="black" />
    </clipPath>
    <clipPath
       id="clipPath3">
      <path
         id="path29"
         d="M51.024 33.315 L51.024 39.268 L105.893 39.268 L105.893 33.315 Z"
         fill="none"
         stroke-width="0.5"
         stroke="black" />
    </clipPath>
  </defs>
  <path
     id="path10091"
     d="M87.468 389.079 L289.419 389.079 L289.419 534.966 L87.468 534.966 Z"
     stroke-width="2.0"
     fill="#fffeff"
     clip-path="url(#clipPath2)"
     stroke="black" />
  <path
     id="path10093"
     d="M87.468 389.079 L289.419 389.079 L289.419 534.966 L87.468 534.966 Z"
     stroke-width="2.0"
     stroke="#fffeff"
     clip-path="url(#clipPath2)"
     fill="none" />
  <path
     id="path10095"
     d="M87.468 393.296 L289.419 393.296 "
     stroke-width="4.0"
     stroke="#eaf1f3"
     clip-path="url(#clipPath2)"
     fill="none" />
  <path
     id="path10097"
     d="M87.468 420.787 L289.419 420.787 "
     stroke-width="4.0"
     stroke="#eaf1f3"
     clip-path="url(#clipPath2)"
     fill="none" />
  <path
     id="path10099"
     d="M87.468 448.277 L289.419 448.277 "
     stroke-width="4.0"
     stroke="#eaf1f3"
     clip-path="url(#clipPath2)"
     fill="none" />
  <path
     id="path10101"
     d="M87.468 475.768 L289.419 475.768 "
     stroke-width="4.0"
     stroke="#eaf1f3"
     clip-path="url(#clipPath2)"
     fill="none" />
  <path
     id="path10103"
     d="M87.468 503.414 L289.419 503.414 "
     stroke-width="4.0"
     stroke="#eaf1f3"
     clip-path="url(#clipPath2)"
     fill="none" />
  <path
     id="path10105"
     d="M87.468 530.905 L289.419 530.905 "
     stroke-width="4.0"
     stroke="#eaf1f3"
     clip-path="url(#clipPath2)"
     fill="none" />
  <path
     id="path10107"
     d="M232.358 457.337 C232.358 456.556 232.887 455.931 233.547 455.931 C234.207 455.931 234.736 456.556 234.736 457.337 C234.736 458.118 234.207 458.742 233.547 458.742 C232.887 458.742 232.358 458.118 232.358 457.337 Z"
     stroke-width="4.0"
     stroke="#19466e"
     clip-path="url(#clipPath10)"
     fill="none" />
  <path
     id="path10109"
     d="M203.968 492.012 C203.968 491.231 204.527 490.606 205.226 490.606 C205.926 490.606 206.485 491.231 206.485 492.012 C206.485 492.793 205.926 493.418 205.226 493.418 C204.527 493.418 203.968 492.793 203.968 492.012 Z"
     stroke-width="4.0"
     stroke="#19466e"
     clip-path="url(#clipPath10)"
     fill="none" />
  <path
     id="path10111"
     d="M120.893 499.978 C120.893 499.197 121.422 498.572 122.082 498.572 C122.743 498.572 123.271 499.197 123.271 499.978 C123.271 500.759 122.743 501.384 122.082 501.384 C121.422 501.384 120.893 500.759 120.893 499.978 Z"
     stroke-width="4.0"
     stroke="#19466e"
     clip-path="url(#clipPath10)"
     fill="none" />
  <path
     id="path10113"
     d="M195.856 466.865 C195.856 466.084 196.384 465.459 197.045 465.459 C197.705 465.459 198.234 466.084 198.234 466.865 C198.234 467.645 197.705 468.27 197.045 468.27 C196.384 468.27 195.856 467.645 195.856 466.865 Z"
     stroke-width="4.0"
     stroke="#19466e"
     clip-path="url(#clipPath10)"
     fill="none" />
  <path
     id="path10115"
     d="M150.543 446.559 C150.543 445.778 151.071 445.153 151.732 445.153 C152.392 445.153 152.92 445.778 152.92 446.559 C152.92 447.34 152.392 447.965 151.732 447.965 C151.071 447.965 150.543 447.34 150.543 446.559 Z"
     stroke-width="4.0"
     stroke="#19466e"
     clip-path="url(#clipPath10)"
     fill="none" />
  <path
     id="path10117"
     d="M198.793 477.642 C198.793 476.861 199.352 476.236 200.052 476.236 C200.751 476.236 201.31 476.861 201.31 477.642 C201.31 478.423 200.751 479.048 200.052 479.048 C199.352 479.048 198.793 478.423 198.793 477.642 Z"
     stroke-width="4.0"
     stroke="#19466e"
     clip-path="url(#clipPath10)"
     fill="none" />
  <path
     id="path10119"
     d="M194.318 507.163 C194.318 506.382 194.846 505.757 195.506 505.757 C196.167 505.757 196.695 506.382 196.695 507.163 C196.695 507.944 196.167 508.569 195.506 508.569 C194.846 508.569 194.318 507.944 194.318 507.163 Z"
     stroke-width="4.0"
     stroke="#19466e"
     clip-path="url(#clipPath10)"
     fill="none" />
  <path
     id="path10121"
     d="M168.304 484.515 C168.304 483.734 168.864 483.109 169.563 483.109 C170.262 483.109 170.822 483.734 170.822 484.515 C170.822 485.296 170.262 485.92 169.563 485.92 C168.864 485.92 168.304 485.296 168.304 484.515 Z"
     stroke-width="4.0"
     stroke="#19466e"
     clip-path="url(#clipPath10)"
     fill="none" />
  <path
     id="path10123"
     d="M190.122 463.272 C190.122 462.491 190.681 461.866 191.381 461.866 C192.08 461.866 192.639 462.491 192.639 463.272 C192.639 464.053 192.08 464.678 191.381 464.678 C190.681 464.678 190.122 464.053 190.122 463.272 Z"
     stroke-width="4.0"
     stroke="#19466e"
     clip-path="url(#clipPath10)"
     fill="none" />
  <path
     id="path10125"
     d="M214.037 482.64 C214.037 481.859 214.597 481.234 215.296 481.234 C215.995 481.234 216.555 481.859 216.555 482.64 C216.555 483.421 215.995 484.046 215.296 484.046 C214.597 484.046 214.037 483.421 214.037 482.64 Z"
     stroke-width="4.0"
     stroke="#19466e"
     clip-path="url(#clipPath10)"
     fill="none" />
  <path
     id="path10127"
     d="M186.346 485.608 C186.346 484.827 186.905 484.202 187.605 484.202 C188.304 484.202 188.863 484.827 188.863 485.608 C188.863 486.389 188.304 487.014 187.605 487.014 C186.905 487.014 186.346 486.389 186.346 485.608 Z"
     stroke-width="4.0"
     stroke="#19466e"
     clip-path="url(#clipPath10)"
     fill="none" />
  <path
     id="path10129"
     d="M151.662 461.866 C151.662 461.085 152.221 460.46 152.92 460.46 C153.62 460.46 154.179 461.085 154.179 461.866 C154.179 462.647 153.62 463.272 152.92 463.272 C152.221 463.272 151.662 462.647 151.662 461.866 Z"
     stroke-width="4.0"
     stroke="#19466e"
     clip-path="url(#clipPath10)"
     fill="none" />
  <path
     id="path10131"
     d="M193.758 437.5 C193.758 436.719 194.287 436.094 194.947 436.094 C195.607 436.094 196.136 436.719 196.136 437.5 C196.136 438.281 195.607 438.906 194.947 438.906 C194.287 438.906 193.758 438.281 193.758 437.5 Z"
     stroke-width="4.0"
     stroke="#19466e"
     clip-path="url(#clipPath10)"
     fill="none" />
  <path
     id="path10133"
     d="M156.836 519.659 C156.836 518.878 157.396 518.253 158.095 518.253 C158.794 518.253 159.354 518.878 159.354 519.659 C159.354 520.44 158.794 521.063 158.095 521.063 C157.396 521.063 156.836 520.44 156.836 519.659 Z"
     stroke-width="4.0"
     stroke="#19466e"
     clip-path="url(#clipPath10)"
     fill="none" />
  <path
     id="path10135"
     d="M149.564 524.813 C149.564 524.032 150.092 523.407 150.753 523.407 C151.413 523.407 151.941 524.032 151.941 524.813 C151.941 525.594 151.413 526.219 150.753 526.219 C150.092 526.219 149.564 525.594 149.564 524.813 Z"
     stroke-width="4.0"
     stroke="#19466e"
     clip-path="url(#clipPath10)"
     fill="none" />
  <path
     id="path10137"
     d="M175.577 463.897 C175.577 463.116 176.105 462.491 176.766 462.491 C177.426 462.491 177.955 463.116 177.955 463.897 C177.955 464.678 177.426 465.303 176.766 465.303 C176.105 465.303 175.577 464.678 175.577 463.897 Z"
     stroke-width="4.0"
     stroke="#19466e"
     clip-path="url(#clipPath10)"
     fill="none" />
  <path
     id="path10139"
     d="M152.501 473.425 C152.501 472.644 153.06 472.019 153.759 472.019 C154.459 472.019 155.018 472.644 155.018 473.425 C155.018 474.206 154.459 474.83 153.759 474.83 C153.06 474.83 152.501 474.206 152.501 473.425 Z"
     stroke-width="4.0"
     stroke="#19466e"
     clip-path="url(#clipPath10)"
     fill="none" />
  <path
     id="path10141"
     d="M204.387 455.618 C204.387 454.837 204.916 454.213 205.576 454.213 C206.236 454.213 206.765 454.837 206.765 455.618 C206.765 456.399 206.236 457.024 205.576 457.024 C204.916 457.024 204.387 456.399 204.387 455.618 Z"
     stroke-width="4.0"
     stroke="#19466e"
     clip-path="url(#clipPath10)"
     fill="none" />
  <path
     id="path10143"
     d="M226.624 496.229 C226.624 495.448 227.184 494.823 227.883 494.823 C228.582 494.823 229.142 495.448 229.142 496.229 C229.142 497.01 228.582 497.635 227.883 497.635 C227.184 497.635 226.624 497.01 226.624 496.229 Z"
     stroke-width="4.0"
     stroke="#19466e"
     clip-path="url(#clipPath10)"
     fill="none" />
  <path
     id="path10145"
     d="M162.71 475.143 C162.71 474.362 163.239 473.737 163.899 473.737 C164.559 473.737 165.088 474.362 165.088 475.143 C165.088 475.924 164.559 476.549 163.899 476.549 C163.239 476.549 162.71 475.924 162.71 475.143 Z"
     stroke-width="4.0"
     stroke="#19466e"
     clip-path="url(#clipPath10)"
     fill="none" />
  <path
     id="path10147"
     d="M237.393 496.229 C237.393 495.448 237.953 494.823 238.652 494.823 C239.351 494.823 239.91 495.448 239.91 496.229 C239.91 497.01 239.351 497.635 238.652 497.635 C237.953 497.635 237.393 497.01 237.393 496.229 Z"
     stroke-width="4.0"
     stroke="#19466e"
     clip-path="url(#clipPath10)"
     fill="none" />
  <path
     id="path10149"
     d="M192.22 481.703 C192.22 480.922 192.748 480.297 193.409 480.297 C194.069 480.297 194.597 480.922 194.597 481.703 C194.597 482.484 194.069 483.109 193.409 483.109 C192.748 483.109 192.22 482.484 192.22 481.703 Z"
     stroke-width="4.0"
     stroke="#19466e"
     clip-path="url(#clipPath10)"
     fill="none" />
  <path
     id="path10151"
     d="M197.255 449.371 C197.255 448.59 197.814 447.965 198.513 447.965 C199.213 447.965 199.772 448.59 199.772 449.371 C199.772 450.152 199.213 450.776 198.513 450.776 C197.814 450.776 197.255 450.152 197.255 449.371 Z"
     stroke-width="4.0"
     stroke="#19466e"
     clip-path="url(#clipPath10)"
     fill="none" />
  <path
     id="path10153"
     d="M187.605 393.296 L185.507 396.264 "
     stroke-width="4.0"
     stroke="#000000"
     clip-path="url(#clipPath10)"
     fill="none" />
  <path
     id="path10155"
     d="M184.528 397.67 L182.43 400.638 "
     stroke-width="4.0"
     stroke="#000000"
     clip-path="url(#clipPath10)"
     fill="none" />
  <path
     id="path10157"
     d="M181.451 402.043 L179.353 405.011 "
     stroke-width="4.0"
     stroke="#000000"
     clip-path="url(#clipPath10)"
     fill="none" />
  <path
     id="path10159"
     d="M178.374 406.573 L176.276 409.541 "
     stroke-width="4.0"
     stroke="#000000"
     clip-path="url(#clipPath10)"
     fill="none" />
  <path
     id="path10161"
     d="M175.297 410.947 L173.199 413.914 "
     stroke-width="4.0"
     stroke="#000000"
     clip-path="url(#clipPath10)"
     fill="none" />
  <path
     id="path10163"
     d="M172.22 415.476 L170.123 418.444 "
     stroke-width="4.0"
     stroke="#000000"
     clip-path="url(#clipPath10)"
     fill="none" />
  <path
     id="path10165"
     d="M169.144 419.85 L167.046 422.817 "
     stroke-width="4.0"
     stroke="#000000"
     clip-path="url(#clipPath10)"
     fill="none" />
  <path
     id="path10167"
     d="M166.067 424.379 L163.969 427.347 "
     stroke-width="4.0"
     stroke="#000000"
     clip-path="url(#clipPath10)"
     fill="none" />
  <path
     id="path10169"
     d="M162.99 428.753 L160.892 431.721 "
     stroke-width="4.0"
     stroke="#000000"
     clip-path="url(#clipPath10)"
     fill="none" />
  <path
     id="path10171"
     d="M159.913 433.282 L157.815 436.094 "
     stroke-width="4.0"
     stroke="#000000"
     clip-path="url(#clipPath10)"
     fill="none" />
  <path
     id="path10173"
     d="M156.836 437.656 L154.738 440.624 "
     stroke-width="4.0"
     stroke="#000000"
     clip-path="url(#clipPath10)"
     fill="none" />
  <path
     id="path10175"
     d="M153.759 442.029 L151.662 444.997 "
     stroke-width="4.0"
     stroke="#000000"
     clip-path="url(#clipPath10)"
     fill="none" />
  <path
     id="path10177"
     d="M150.683 446.559 L148.585 449.527 "
     stroke-width="4.0"
     stroke="#000000"
     clip-path="url(#clipPath10)"
     fill="none" />
  <path
     id="path10179"
     d="M147.606 450.933 L145.508 453.9 "
     stroke-width="4.0"
     stroke="#000000"
     clip-path="url(#clipPath10)"
     fill="none" />
  <path
     id="path10181"
     d="M144.529 455.462 L142.431 458.43 "
     stroke-width="4.0"
     stroke="#000000"
     clip-path="url(#clipPath10)"
     fill="none" />
  <path
     id="path10183"
     d="M141.452 459.836 L139.354 462.803 "
     stroke-width="4.0"
     stroke="#000000"
     clip-path="url(#clipPath10)"
     fill="none" />
  <path
     id="path10185"
     d="M138.375 464.365 L136.278 467.177 "
     stroke-width="4.0"
     stroke="#000000"
     clip-path="url(#clipPath10)"
     fill="none" />
  <path
     id="path10187"
     d="M135.299 468.739 L133.201 471.707 "
     stroke-width="4.0"
     stroke="#000000"
     clip-path="url(#clipPath10)"
     fill="none" />
  <path
     id="path10189"
     d="M132.222 473.112 L130.124 476.08 "
     stroke-width="4.0"
     stroke="#000000"
     clip-path="url(#clipPath10)"
     fill="none" />
  <path
     id="path10191"
     d="M129.145 477.642 L127.047 480.61 "
     stroke-width="4.0"
     stroke="#000000"
     clip-path="url(#clipPath10)"
     fill="none" />
  <path
     id="path10193"
     d="M126.068 482.016 L123.97 484.983 "
     stroke-width="4.0"
     stroke="#000000"
     clip-path="url(#clipPath10)"
     fill="none" />
  <path
     id="path10195"
     d="M122.991 486.545 L120.893 489.513 "
     stroke-width="4.0"
     stroke="#000000"
     clip-path="url(#clipPath10)"
     fill="none" />
  <path
     id="path10197"
     d="M119.914 490.919 L117.817 493.886 "
     stroke-width="4.0"
     stroke="#000000"
     clip-path="url(#clipPath10)"
     fill="none" />
  <path
     id="path10199"
     d="M116.838 495.448 L114.74 498.416 "
     stroke-width="4.0"
     stroke="#000000"
     clip-path="url(#clipPath10)"
     fill="none" />
  <path
     id="path10201"
     d="M113.761 499.822 L111.663 502.789 "
     stroke-width="4.0"
     stroke="#000000"
     clip-path="url(#clipPath10)"
     fill="none" />
  <path
     id="path10203"
     d="M110.684 504.195 L108.586 507.163 "
     stroke-width="4.0"
     stroke="#000000"
     clip-path="url(#clipPath10)"
     fill="none" />
  <path
     id="path10205"
     d="M107.607 508.725 L105.509 511.693 "
     stroke-width="4.0"
     stroke="#000000"
     clip-path="url(#clipPath10)"
     fill="none" />
  <path
     id="path10207"
     d="M104.53 513.097 L102.433 516.066 "
     stroke-width="4.0"
     stroke="#000000"
     clip-path="url(#clipPath10)"
     fill="none" />
  <path
     id="path10209"
     d="M101.454 517.628 L99.356 520.596 "
     stroke-width="4.0"
     stroke="#000000"
     clip-path="url(#clipPath10)"
     fill="none" />
  <path
     id="path10211"
     d="M98.377 522.001 L96.419 524.813 "
     stroke-width="4.0"
     stroke="#000000"
     clip-path="url(#clipPath10)"
     fill="none" />
  <path
     id="path10213"
     d="M187.605 393.296 L189.563 396.264 "
     stroke-width="4.0"
     stroke="#000000"
     clip-path="url(#clipPath10)"
     fill="none" />
  <path
     id="path10215"
     d="M190.681 397.67 L192.639 400.638 "
     stroke-width="4.0"
     stroke="#000000"
     clip-path="url(#clipPath10)"
     fill="none" />
  <path
     id="path10217"
     d="M193.758 402.043 L195.716 405.011 "
     stroke-width="4.0"
     stroke="#000000"
     clip-path="url(#clipPath10)"
     fill="none" />
  <path
     id="path10219"
     d="M196.835 406.573 L198.793 409.541 "
     stroke-width="4.0"
     stroke="#000000"
     clip-path="url(#clipPath10)"
     fill="none" />
  <path
     id="path10221"
     d="M199.912 410.947 L201.87 413.914 "
     stroke-width="4.0"
     stroke="#000000"
     clip-path="url(#clipPath10)"
     fill="none" />
  <path
     id="path10223"
     d="M202.989 415.476 L204.947 418.444 "
     stroke-width="4.0"
     stroke="#000000"
     clip-path="url(#clipPath10)"
     fill="none" />
  <path
     id="path10225"
     d="M206.065 419.85 L208.023 422.817 "
     stroke-width="4.0"
     stroke="#000000"
     clip-path="url(#clipPath10)"
     fill="none" />
  <path
     id="path10227"
     d="M209.142 424.379 L211.1 427.347 "
     stroke-width="4.0"
     stroke="#000000"
     clip-path="url(#clipPath10)"
     fill="none" />
  <path
     id="path10229"
     d="M212.219 428.753 L214.177 431.721 "
     stroke-width="4.0"
     stroke="#000000"
     clip-path="url(#clipPath10)"
     fill="none" />
  <path
     id="path10231"
     d="M215.296 433.282 L217.254 436.094 "
     stroke-width="4.0"
     stroke="#000000"
     clip-path="url(#clipPath10)"
     fill="none" />
  <path
     id="path10233"
     d="M218.373 437.656 L220.331 440.624 "
     stroke-width="4.0"
     stroke="#000000"
     clip-path="url(#clipPath10)"
     fill="none" />
  <path
     id="path10235"
     d="M221.45 442.029 L223.408 444.997 "
     stroke-width="4.0"
     stroke="#000000"
     clip-path="url(#clipPath10)"
     fill="none" />
  <path
     id="path10237"
     d="M224.526 446.559 L226.484 449.527 "
     stroke-width="4.0"
     stroke="#000000"
     clip-path="url(#clipPath10)"
     fill="none" />
  <path
     id="path10239"
     d="M227.603 450.933 L229.561 453.9 "
     stroke-width="4.0"
     stroke="#000000"
     clip-path="url(#clipPath10)"
     fill="none" />
  <path
     id="path10241"
     d="M230.68 455.462 L232.638 458.43 "
     stroke-width="4.0"
     stroke="#000000"
     clip-path="url(#clipPath10)"
     fill="none" />
  <path
     id="path10243"
     d="M233.757 459.836 L235.715 462.803 "
     stroke-width="4.0"
     stroke="#000000"
     clip-path="url(#clipPath10)"
     fill="none" />
  <path
     id="path10245"
     d="M236.834 464.365 L238.792 467.177 "
     stroke-width="4.0"
     stroke="#000000"
     clip-path="url(#clipPath10)"
     fill="none" />
  <path
     id="path10247"
     d="M239.911 468.739 L241.868 471.707 "
     stroke-width="4.0"
     stroke="#000000"
     clip-path="url(#clipPath10)"
     fill="none" />
  <path
     id="path10249"
     d="M242.987 473.112 L244.945 476.08 "
     stroke-width="4.0"
     stroke="#000000"
     clip-path="url(#clipPath10)"
     fill="none" />
  <path
     id="path10251"
     d="M246.064 477.642 L248.022 480.61 "
     stroke-width="4.0"
     stroke="#000000"
     clip-path="url(#clipPath10)"
     fill="none" />
  <path
     id="path10253"
     d="M249.141 482.016 L251.099 484.983 "
     stroke-width="4.0"
     stroke="#000000"
     clip-path="url(#clipPath10)"
     fill="none" />
  <path
     id="path10255"
     d="M252.218 486.545 L254.176 489.513 "
     stroke-width="4.0"
     stroke="#000000"
     clip-path="url(#clipPath10)"
     fill="none" />
  <path
     id="path10257"
     d="M255.295 490.919 L257.253 493.886 "
     stroke-width="4.0"
     stroke="#000000"
     clip-path="url(#clipPath10)"
     fill="none" />
  <path
     id="path10259"
     d="M258.37 495.448 L260.329 498.416 "
     stroke-width="4.0"
     stroke="#000000"
     clip-path="url(#clipPath10)"
     fill="none" />
  <path
     id="path10261"
     d="M261.447 499.822 L263.406 502.789 "
     stroke-width="4.0"
     stroke="#000000"
     clip-path="url(#clipPath10)"
     fill="none" />
  <path
     id="path10263"
     d="M264.525 504.195 L266.483 507.163 "
     stroke-width="4.0"
     stroke="#000000"
     clip-path="url(#clipPath10)"
     fill="none" />
  <path
     id="path10265"
     d="M267.602 508.725 L269.56 511.693 "
     stroke-width="4.0"
     stroke="#000000"
     clip-path="url(#clipPath10)"
     fill="none" />
  <path
     id="path10267"
     d="M270.679 513.097 L272.637 516.066 "
     stroke-width="4.0"
     stroke="#000000"
     clip-path="url(#clipPath10)"
     fill="none" />
  <path
     id="path10269"
     d="M273.756 517.628 L275.714 520.596 "
     stroke-width="4.0"
     stroke="#000000"
     clip-path="url(#clipPath10)"
     fill="none" />
  <path
     id="path10271"
     d="M276.832 522.001 L278.65 524.813 "
     stroke-width="4.0"
     stroke="#000000"
     clip-path="url(#clipPath10)"
     fill="none" />
  <path
     id="path10273"
     d="M187.605 393.296 L187.605 524.813 "
     stroke-width="4.0"
     stroke="#000000"
     clip-path="url(#clipPath10)"
     fill="none" />
  <path
     id="path10275"
     d="M87.468 534.966 L87.468 389.079 "
     stroke-width="2.0"
     stroke="#000000"
     clip-path="url(#clipPath10)"
     fill="none" />
  <path
     id="path10277"
     d="M87.468 393.296 L85.09 393.296 "
     stroke-width="2.0"
     stroke="#000000"
     clip-path="url(#clipPath10)"
     fill="none" />
  <text
     id="text10279"
     font-weight="normal"
     font-family="Helvetica"
     font-size="6.208"
     y="395.171"
     x="82.064"
     transform="matrix(0.0,-1.0,1.0,0.0,-313.10638,477.23499)"
     svgx:width="556.0"
     svgx:fontName="SWHEEG+ArialMT"
     clip-path="url(#clipPath10)"
     fill="#000000"
     stroke="none">0</text>
  <path
     id="path10281"
     d="M87.468 420.787 L85.09 420.787 "
     stroke-width="2.0"
     stroke="#000000"
     clip-path="url(#clipPath10)"
     fill="none" />
  <text
     id="text10283"
     font-weight="normal"
     font-family="Helvetica"
     font-size="6.208"
     y="423.442"
     x="82.064"
     transform="matrix(0.0,-1.0,1.0,0.0,-341.37769,505.50629)"
     svgx:width="278.0"
     svgx:fontName="SWHEEG+ArialMT"
     clip-path="url(#clipPath10)"
     fill="#000000"
     stroke="none">.</text>
  <text
     id="text10285"
     font-weight="normal"
     font-family="Helvetica"
     font-size="6.208"
     y="421.566"
     x="82.064"
     transform="matrix(0.0,-1.0,1.0,0.0,-339.50146,503.63007)"
     svgx:width="556.0"
     svgx:fontName="SWHEEG+ArialMT"
     clip-path="url(#clipPath10)"
     fill="#000000"
     stroke="none">1</text>
  <path
     id="path10287"
     d="M87.468 448.277 L85.09 448.277 "
     stroke-width="2.0"
     stroke="#000000"
     clip-path="url(#clipPath10)"
     fill="none" />
  <text
     id="text10289"
     font-weight="normal"
     font-family="Helvetica"
     font-size="6.208"
     y="450.932"
     x="82.064"
     transform="matrix(0.0,-1.0,1.0,0.0,-368.8681,532.9967)"
     svgx:width="278.0"
     svgx:fontName="SWHEEG+ArialMT"
     clip-path="url(#clipPath10)"
     fill="#000000"
     stroke="none">.</text>
  <text
     id="text10291"
     font-weight="normal"
     font-family="Helvetica"
     font-size="6.208"
     y="449.056"
     x="82.064"
     transform="matrix(0.0,-1.0,1.0,0.0,-366.99188,531.12048)"
     svgx:width="556.0"
     svgx:fontName="SWHEEG+ArialMT"
     clip-path="url(#clipPath10)"
     fill="#000000"
     stroke="none">2</text>
  <path
     id="path10293"
     d="M87.468 475.768 L85.09 475.768 "
     stroke-width="2.0"
     stroke="#000000"
     clip-path="url(#clipPath10)"
     fill="none" />
  <text
     id="text10295"
     font-weight="normal"
     font-family="Helvetica"
     font-size="6.208"
     y="478.423"
     x="82.064"
     transform="matrix(0.0,-1.0,1.0,0.0,-396.35861,560.48721)"
     svgx:width="278.0"
     svgx:fontName="SWHEEG+ArialMT"
     clip-path="url(#clipPath10)"
     fill="#000000"
     stroke="none">.</text>
  <text
     id="text10297"
     font-weight="normal"
     font-family="Helvetica"
     font-size="6.208"
     y="476.547"
     x="82.064"
     transform="matrix(0.0,-1.0,1.0,0.0,-394.48239,558.61099)"
     svgx:width="556.0"
     svgx:fontName="SWHEEG+ArialMT"
     clip-path="url(#clipPath10)"
     fill="#000000"
     stroke="none">3</text>
  <path
     id="path10299"
     d="M87.468 503.414 L85.09 503.414 "
     stroke-width="2.0"
     stroke="#000000"
     clip-path="url(#clipPath10)"
     fill="none" />
  <text
     id="text10301"
     font-weight="normal"
     font-family="Helvetica"
     font-size="6.208"
     y="506.07"
     x="82.064"
     transform="matrix(0.0,-1.0,1.0,0.0,-424.00531,588.13391)"
     svgx:width="278.0"
     svgx:fontName="SWHEEG+ArialMT"
     clip-path="url(#clipPath10)"
     fill="#000000"
     stroke="none">.</text>
  <text
     id="text10303"
     font-weight="normal"
     font-family="Helvetica"
     font-size="6.208"
     y="504.193"
     x="82.064"
     transform="matrix(0.0,-1.0,1.0,0.0,-422.12909,586.25769)"
     svgx:width="556.0"
     svgx:fontName="SWHEEG+ArialMT"
     clip-path="url(#clipPath10)"
     fill="#000000"
     stroke="none">4</text>
  <path
     id="path10305"
     d="M87.468 530.905 L85.09 530.905 "
     stroke-width="2.0"
     stroke="#000000"
     clip-path="url(#clipPath10)"
     fill="none" />
  <text
     id="text10307"
     font-weight="normal"
     font-family="Helvetica"
     font-size="6.208"
     y="533.56"
     x="82.064"
     transform="matrix(0.0,-1.0,1.0,0.0,-451.49564,615.62424)"
     svgx:width="278.0"
     svgx:fontName="SWHEEG+ArialMT"
     clip-path="url(#clipPath10)"
     fill="#000000"
     stroke="none">.</text>
  <text
     id="text10309"
     font-weight="normal"
     font-family="Helvetica"
     font-size="6.208"
     y="531.684"
     x="82.064"
     transform="matrix(0.0,-1.0,1.0,0.0,-449.61942,613.74802)"
     svgx:width="556.0"
     svgx:fontName="SWHEEG+ArialMT"
     clip-path="url(#clipPath10)"
     fill="#000000"
     stroke="none">5</text>
  <text
     id="text10311"
     font-weight="normal"
     font-family="Helvetica"
     font-size="6.208"
     y="477.017"
     x="75.631"
     transform="matrix(0.0,-1.0,1.0,0.0,-401.38619,552.64799)"
     svgx:width="500.0"
     svgx:fontName="SWHEEG+ArialMT"
     clip-path="url(#clipPath10)"
     fill="#000000"
     stroke="none">s</text>
  <text
     id="text10313"
     font-weight="normal"
     font-family="Helvetica"
     font-size="6.208"
     y="473.737"
     x="75.631"
     transform="matrix(0.0,-1.0,1.0,0.0,-398.10607,549.36787)"
     svgx:width="556.0"
     svgx:fontName="SWHEEG+ArialMT"
     clip-path="url(#clipPath10)"
     fill="#000000"
     stroke="none">e</text>
  <text
     id="text10315"
     font-weight="normal"
     font-family="Helvetica"
     font-size="6.208"
     y="469.988"
     x="75.631"
     transform="matrix(0.0,-1.0,1.0,0.0,-394.35757,545.61936)"
     svgx:width="333.0"
     svgx:fontName="SWHEEG+ArialMT"
     clip-path="url(#clipPath10)"
     fill="#000000"
     stroke="none">(</text>
  <text
     id="text10317"
     font-weight="normal"
     font-family="Helvetica"
     font-size="6.208"
     y="467.801"
     x="75.631"
     transform="matrix(0.0,-1.0,1.0,0.0,-392.17037,543.43217)"
     svgx:width="222.0"
     svgx:fontName="SWHEEG+ArialMT"
     clip-path="url(#clipPath10)"
     fill="#000000"
     stroke="none">l</text>
  <text
     id="text10319"
     font-weight="normal"
     font-family="Helvetica"
     font-size="6.208"
     y="466.397"
     x="75.631"
     transform="matrix(0.0,-1.0,1.0,0.0,-390.7665,542.0283)"
     svgx:width="556.0"
     svgx:fontName="SWHEEG+ArialMT"
     clip-path="url(#clipPath10)"
     fill="#000000"
     stroke="none">o</text>
  <text
     id="text10321"
     font-weight="normal"
     font-family="Helvetica"
     font-size="6.208"
     y="462.648"
     x="75.631"
     transform="matrix(0.0,-1.0,1.0,0.0,-387.01733,538.27912)"
     svgx:width="556.0"
     svgx:fontName="SWHEEG+ArialMT"
     clip-path="url(#clipPath10)"
     fill="#000000"
     stroke="none">g</text>
  <text
     id="text10323"
     font-weight="normal"
     font-family="Helvetica"
     font-size="6.208"
     y="459.053"
     x="75.631"
     transform="matrix(0.0,-1.0,1.0,0.0,-383.42233,534.68412)"
     svgx:width="778.0"
     svgx:fontName="SWHEEG+ArialMT"
     clip-path="url(#clipPath10)"
     fill="#000000"
     stroke="none">O</text>
  <text
     id="text10325"
     font-weight="normal"
     font-family="Helvetica"
     font-size="6.208"
     y="453.899"
     x="75.631"
     transform="matrix(0.0,-1.0,1.0,0.0,-378.26797,529.52976)"
     svgx:width="722.0"
     svgx:fontName="SWHEEG+ArialMT"
     clip-path="url(#clipPath10)"
     fill="#000000"
     stroke="none">R</text>
  <text
     id="text10327"
     font-weight="normal"
     font-family="Helvetica"
     font-size="6.208"
     y="449.215"
     x="75.631"
     transform="matrix(0.0,-1.0,1.0,0.0,-373.58398,524.84577)"
     svgx:width="333.0"
     svgx:fontName="SWHEEG+ArialMT"
     clip-path="url(#clipPath10)"
     fill="#000000"
     stroke="none">)</text>
  <path
     id="path10329"
     d="M87.468 534.966 L289.419 534.966 "
     stroke-width="2.0"
     stroke="#000000"
     clip-path="url(#clipPath10)"
     fill="none" />
  <path
     id="path10331"
     d="M91.104 534.966 L91.104 537.621 "
     stroke-width="2.0"
     stroke="#000000"
     clip-path="url(#clipPath10)"
     fill="none" />
  <text
     id="text10333"
     font-weight="normal"
     font-family="Helvetica"
     font-size="6.208"
     y="545.469"
     x="88.587"
     svgx:width="333.0"
     svgx:fontName="SWHEEG+ArialMT"
     clip-path="url(#clipPath10)"
     fill="#000000"
     stroke="none">-</text>
  <text
     id="text10335"
     font-weight="normal"
     font-family="Helvetica"
     font-size="6.208"
     y="545.469"
     x="90.543"
     svgx:width="556.0"
     svgx:fontName="SWHEEG+ArialMT"
     clip-path="url(#clipPath10)"
     fill="#000000"
     stroke="none">1</text>
  <path
     id="path10337"
     d="M139.774 534.966 L139.774 537.621 "
     stroke-width="2.0"
     stroke="#000000"
     clip-path="url(#clipPath10)"
     fill="none" />
  <text
     id="text10339"
     font-weight="normal"
     font-family="Helvetica"
     font-size="6.208"
     y="545.469"
     x="136.417"
     svgx:width="333.0"
     svgx:fontName="SWHEEG+ArialMT"
     clip-path="url(#clipPath10)"
     fill="#000000"
     stroke="none">-</text>
  <text
     id="text10341"
     font-weight="normal"
     font-family="Helvetica"
     font-size="6.208"
     y="545.469"
     x="138.375"
     svgx:width="278.0"
     svgx:fontName="SWHEEG+ArialMT"
     clip-path="url(#clipPath10)"
     fill="#000000"
     stroke="none">.</text>
  <text
     id="text10343"
     font-weight="normal"
     font-family="Helvetica"
     font-size="6.208"
     y="545.469"
     x="139.914"
     svgx:width="556.0"
     svgx:fontName="SWHEEG+ArialMT"
     clip-path="url(#clipPath10)"
     fill="#000000"
     stroke="none">5</text>
  <path
     id="path10345"
     d="M188.444 534.966 L188.444 537.621 "
     stroke-width="2.0"
     stroke="#000000"
     clip-path="url(#clipPath10)"
     fill="none" />
  <text
     id="text10347"
     font-weight="normal"
     font-family="Helvetica"
     font-size="6.208"
     y="545.469"
     x="186.905"
     svgx:width="556.0"
     svgx:fontName="SWHEEG+ArialMT"
     clip-path="url(#clipPath10)"
     fill="#000000"
     stroke="none">0</text>
  <path
     id="path10349"
     d="M237.113 534.966 L237.113 537.621 "
     stroke-width="2.0"
     stroke="#000000"
     clip-path="url(#clipPath10)"
     fill="none" />
  <text
     id="text10351"
     font-weight="normal"
     font-family="Helvetica"
     font-size="6.208"
     y="545.469"
     x="234.736"
     svgx:width="278.0"
     svgx:fontName="SWHEEG+ArialMT"
     clip-path="url(#clipPath10)"
     fill="#000000"
     stroke="none">.</text>
  <text
     id="text10353"
     font-weight="normal"
     font-family="Helvetica"
     font-size="6.208"
     y="545.469"
     x="236.275"
     svgx:width="556.0"
     svgx:fontName="SWHEEG+ArialMT"
     clip-path="url(#clipPath10)"
     fill="#000000"
     stroke="none">5</text>
  <path
     id="path10355"
     d="M285.783 534.966 L285.783 537.621 "
     stroke-width="2.0"
     stroke="#000000"
     clip-path="url(#clipPath10)"
     fill="none" />
  <text
     id="text10357"
     font-weight="normal"
     font-family="Helvetica"
     font-size="6.208"
     y="545.469"
     x="284.245"
     svgx:width="556.0"
     svgx:fontName="SWHEEG+ArialMT"
     clip-path="url(#clipPath10)"
     fill="#000000"
     stroke="none">1</text>
  <text
     id="text10359"
     font-weight="normal"
     font-family="Helvetica"
     font-size="6.208"
     y="550.486"
     x="182.01"
     svgx:width="222.0"
     svgx:fontName="SWHEEG+ArialMT"
     clip-path="url(#clipPath10)"
     fill="#000000"
     stroke="none">l</text>
  <text
     id="text10361"
     font-weight="normal"
     font-family="Helvetica"
     font-size="6.208"
     y="550.486"
     x="183.267"
     svgx:width="556.0"
     svgx:fontName="SWHEEG+ArialMT"
     clip-path="url(#clipPath10)"
     fill="#000000"
     stroke="none">o</text>
  <text
     id="text10363"
     font-weight="normal"
     font-family="Helvetica"
     font-size="6.208"
     y="550.486"
     x="186.624"
     svgx:width="556.0"
     svgx:fontName="SWHEEG+ArialMT"
     clip-path="url(#clipPath10)"
     fill="#000000"
     stroke="none">g</text>
  <text
     id="text10365"
     font-weight="normal"
     font-family="Helvetica"
     font-size="6.208"
     y="550.486"
     x="189.843"
     svgx:width="556.0"
     svgx:fontName="SWHEEG+ArialMT"
     clip-path="url(#clipPath10)"
     fill="#000000"
     stroke="none">o</text>
  <text
     id="text10367"
     font-weight="normal"
     font-family="Helvetica"
     font-size="6.208"
     y="550.486"
     x="193.199"
     svgx:width="333.0"
     svgx:fontName="SWHEEG+ArialMT"
     clip-path="url(#clipPath10)"
     fill="#000000"
     stroke="none">r</text>
  <text
     id="text10369"
     font-weight="normal"
     font-family="Helvetica"
     font-size="6.799"
     y="385.653"
     x="122.991"
     svgx:width="611.0"
     svgx:fontName="SWHEEG+ArialMT"
     clip-path="url(#clipPath10)"
     fill="#000000"
     stroke="none">F</text>
  <text
     id="text10371"
     font-weight="normal"
     font-family="Helvetica"
     font-size="6.799"
     y="385.653"
     x="126.907"
     svgx:width="556.0"
     svgx:fontName="SWHEEG+ArialMT"
     clip-path="url(#clipPath10)"
     fill="#000000"
     stroke="none">u</text>
  <text
     id="text10373"
     font-weight="normal"
     font-family="Helvetica"
     font-size="6.799"
     y="385.653"
     x="130.401"
     svgx:width="556.0"
     svgx:fontName="SWHEEG+ArialMT"
     clip-path="url(#clipPath10)"
     fill="#000000"
     stroke="none">n</text>
  <text
     id="text10375"
     font-weight="normal"
     font-family="Helvetica"
     font-size="6.799"
     y="385.653"
     x="134.037"
     svgx:width="556.0"
     svgx:fontName="SWHEEG+ArialMT"
     clip-path="url(#clipPath10)"
     fill="#000000"
     stroke="none">n</text>
  <text
     id="text10377"
     font-weight="normal"
     font-family="Helvetica"
     font-size="6.799"
     y="385.653"
     x="137.53"
     svgx:width="556.0"
     svgx:fontName="SWHEEG+ArialMT"
     clip-path="url(#clipPath10)"
     fill="#000000"
     stroke="none">e</text>
  <text
     id="text10379"
     font-weight="normal"
     font-family="Helvetica"
     font-size="6.799"
     y="385.653"
     x="141.023"
     svgx:width="222.0"
     svgx:fontName="SWHEEG+ArialMT"
     clip-path="url(#clipPath10)"
     fill="#000000"
     stroke="none">l</text>
  <text
     id="text10383"
     font-weight="normal"
     font-family="Helvetica"
     font-size="6.799"
     y="385.653"
     x="144.243"
     svgx:width="556.0"
     svgx:fontName="SWHEEG+ArialMT"
     clip-path="url(#clipPath10)"
     fill="#000000"
     stroke="none">p</text>
  <text
     id="text10385"
     font-weight="normal"
     font-family="Helvetica"
     font-size="6.799"
     y="385.653"
     x="147.736"
     svgx:width="222.0"
     svgx:fontName="SWHEEG+ArialMT"
     clip-path="url(#clipPath10)"
     fill="#000000"
     stroke="none">l</text>
  <text
     id="text10387"
     font-weight="normal"
     font-family="Helvetica"
     font-size="6.799"
     y="385.653"
     x="149.135"
     svgx:width="556.0"
     svgx:fontName="SWHEEG+ArialMT"
     clip-path="url(#clipPath10)"
     fill="#000000"
     stroke="none">o</text>
  <text
     id="text10389"
     font-weight="normal"
     font-family="Helvetica"
     font-size="6.799"
     y="385.653"
     x="152.771"
     svgx:width="278.0"
     svgx:fontName="SWHEEG+ArialMT"
     clip-path="url(#clipPath10)"
     fill="#000000"
     stroke="none">t</text>
  <text
     id="text10393"
     font-weight="normal"
     font-family="Helvetica"
     font-size="6.799"
     y="385.653"
     x="156.41"
     svgx:width="722.0"
     svgx:fontName="SWHEEG+ArialMT"
     clip-path="url(#clipPath10)"
     fill="#000000"
     stroke="none">w</text>
  <text
     id="text10395"
     font-weight="normal"
     font-family="Helvetica"
     font-size="6.799"
     y="385.653"
     x="160.885"
     svgx:width="222.0"
     svgx:fontName="SWHEEG+ArialMT"
     clip-path="url(#clipPath10)"
     fill="#000000"
     stroke="none">i</text>
  <text
     id="text10397"
     font-weight="normal"
     font-family="Helvetica"
     font-size="6.799"
     y="385.653"
     x="162.284"
     svgx:width="278.0"
     svgx:fontName="SWHEEG+ArialMT"
     clip-path="url(#clipPath10)"
     fill="#000000"
     stroke="none">t</text>
  <text
     id="text10399"
     font-weight="normal"
     font-family="Helvetica"
     font-size="6.799"
     y="385.653"
     x="164.102"
     svgx:width="556.0"
     svgx:fontName="SWHEEG+ArialMT"
     clip-path="url(#clipPath10)"
     fill="#000000"
     stroke="none">h</text>
  <text
     id="text10403"
     font-weight="normal"
     font-family="Helvetica"
     font-size="6.799"
     y="385.653"
     x="169.416"
     svgx:width="556.0"
     svgx:fontName="SWHEEG+ArialMT"
     clip-path="url(#clipPath10)"
     fill="#000000"
     stroke="none">p</text>
  <text
     id="text10405"
     font-weight="normal"
     font-family="Helvetica"
     font-size="6.799"
     y="385.653"
     x="172.909"
     svgx:width="500.0"
     svgx:fontName="SWHEEG+ArialMT"
     clip-path="url(#clipPath10)"
     fill="#000000"
     stroke="none">s</text>
  <text
     id="text10407"
     font-weight="normal"
     font-family="Helvetica"
     font-size="6.799"
     y="385.653"
     x="176.126"
     svgx:width="556.0"
     svgx:fontName="SWHEEG+ArialMT"
     clip-path="url(#clipPath10)"
     fill="#000000"
     stroke="none">e</text>
  <text
     id="text10409"
     font-weight="normal"
     font-family="Helvetica"
     font-size="6.799"
     y="385.653"
     x="179.762"
     svgx:width="556.0"
     svgx:fontName="SWHEEG+ArialMT"
     clip-path="url(#clipPath10)"
     fill="#000000"
     stroke="none">u</text>
  <text
     id="text10411"
     font-weight="normal"
     font-family="Helvetica"
     font-size="6.799"
     y="385.653"
     x="183.255"
     svgx:width="556.0"
     svgx:fontName="SWHEEG+ArialMT"
     clip-path="url(#clipPath10)"
     fill="#000000"
     stroke="none">d</text>
  <text
     id="text10413"
     font-weight="normal"
     font-family="Helvetica"
     font-size="6.799"
     y="385.653"
     x="186.749"
     svgx:width="556.0"
     svgx:fontName="SWHEEG+ArialMT"
     clip-path="url(#clipPath10)"
     fill="#000000"
     stroke="none">o</text>
  <text
     id="text10417"
     font-weight="normal"
     font-family="Helvetica"
     font-size="6.799"
     y="385.653"
     x="192.206"
     svgx:width="556.0"
     svgx:fontName="SWHEEG+ArialMT"
     clip-path="url(#clipPath10)"
     fill="#000000"
     stroke="none">9</text>
  <text
     id="text10419"
     font-weight="normal"
     font-family="Helvetica"
     font-size="6.799"
     y="385.653"
     x="195.7"
     svgx:width="556.0"
     svgx:fontName="SWHEEG+ArialMT"
     clip-path="url(#clipPath10)"
     fill="#000000"
     stroke="none">5</text>
  <text
     id="text10421"
     font-weight="normal"
     font-family="Helvetica"
     font-size="6.799"
     y="385.653"
     x="199.193"
     svgx:width="889.0"
     svgx:fontName="SWHEEG+ArialMT"
     clip-path="url(#clipPath10)"
     fill="#000000"
     stroke="none">%</text>
  <text
     id="text10425"
     font-weight="normal"
     font-family="Helvetica"
     font-size="6.799"
     y="385.653"
     x="206.748"
     svgx:width="500.0"
     svgx:fontName="SWHEEG+ArialMT"
     clip-path="url(#clipPath10)"
     fill="#000000"
     stroke="none">c</text>
  <text
     id="text10427"
     font-weight="normal"
     font-family="Helvetica"
     font-size="6.799"
     y="385.653"
     x="209.964"
     svgx:width="556.0"
     svgx:fontName="SWHEEG+ArialMT"
     clip-path="url(#clipPath10)"
     fill="#000000"
     stroke="none">o</text>
  <text
     id="text10429"
     font-weight="normal"
     font-family="Helvetica"
     font-size="6.799"
     y="385.653"
     x="213.458"
     svgx:width="556.0"
     svgx:fontName="SWHEEG+ArialMT"
     clip-path="url(#clipPath10)"
     fill="#000000"
     stroke="none">n</text>
  <text
     id="text10431"
     font-weight="normal"
     font-family="Helvetica"
     font-size="6.799"
     y="385.653"
     x="217.094"
     svgx:width="278.0"
     svgx:fontName="SWHEEG+ArialMT"
     clip-path="url(#clipPath10)"
     fill="#000000"
     stroke="none">f</text>
  <text
     id="text10433"
     font-weight="normal"
     font-family="Helvetica"
     font-size="6.799"
     y="385.653"
     x="218.912"
     svgx:width="222.0"
     svgx:fontName="SWHEEG+ArialMT"
     clip-path="url(#clipPath10)"
     fill="#000000"
     stroke="none">i</text>
  <text
     id="text10435"
     font-weight="normal"
     font-family="Helvetica"
     font-size="6.799"
     y="385.653"
     x="220.311"
     svgx:width="556.0"
     svgx:fontName="SWHEEG+ArialMT"
     clip-path="url(#clipPath10)"
     fill="#000000"
     stroke="none">d</text>
  <text
     id="text10437"
     font-weight="normal"
     font-family="Helvetica"
     font-size="6.799"
     y="385.653"
     x="223.804"
     svgx:width="556.0"
     svgx:fontName="SWHEEG+ArialMT"
     clip-path="url(#clipPath10)"
     fill="#000000"
     stroke="none">e</text>
  <text
     id="text10439"
     font-weight="normal"
     font-family="Helvetica"
     font-size="6.799"
     y="385.653"
     x="227.44"
     svgx:width="556.0"
     svgx:fontName="SWHEEG+ArialMT"
     clip-path="url(#clipPath10)"
     fill="#000000"
     stroke="none">n</text>
  <text
     id="text10441"
     font-weight="normal"
     font-family="Helvetica"
     font-size="6.799"
     y="385.653"
     x="230.933"
     svgx:width="500.0"
     svgx:fontName="SWHEEG+ArialMT"
     clip-path="url(#clipPath10)"
     fill="#000000"
     stroke="none">c</text>
  <text
     id="text10443"
     font-weight="normal"
     font-family="Helvetica"
     font-size="6.799"
     y="385.653"
     x="234.15"
     svgx:width="556.0"
     svgx:fontName="SWHEEG+ArialMT"
     clip-path="url(#clipPath10)"
     fill="#000000"
     stroke="none">e</text>
  <text
     id="text10447"
     font-weight="normal"
     font-family="Helvetica"
     font-size="6.799"
     y="385.653"
     x="239.464"
     svgx:width="222.0"
     svgx:fontName="SWHEEG+ArialMT"
     clip-path="url(#clipPath10)"
     fill="#000000"
     stroke="none">l</text>
  <text
     id="text10449"
     font-weight="normal"
     font-family="Helvetica"
     font-size="6.799"
     y="385.653"
     x="240.863"
     svgx:width="222.0"
     svgx:fontName="SWHEEG+ArialMT"
     clip-path="url(#clipPath10)"
     fill="#000000"
     stroke="none">i</text>
  <text
     id="text10451"
     font-weight="normal"
     font-family="Helvetica"
     font-size="6.799"
     y="385.653"
     x="242.261"
     svgx:width="833.0"
     svgx:fontName="SWHEEG+ArialMT"
     clip-path="url(#clipPath10)"
     fill="#000000"
     stroke="none">m</text>
  <text
     id="text10453"
     font-weight="normal"
     font-family="Helvetica"
     font-size="6.799"
     y="385.653"
     x="247.576"
     svgx:width="222.0"
     svgx:fontName="SWHEEG+ArialMT"
     clip-path="url(#clipPath10)"
     fill="#000000"
     stroke="none">i</text>
  <text
     id="text10455"
     font-weight="normal"
     font-family="Helvetica"
     font-size="6.799"
     y="385.653"
     x="248.975"
     svgx:width="278.0"
     svgx:fontName="SWHEEG+ArialMT"
     clip-path="url(#clipPath10)"
     fill="#000000"
     stroke="none">t</text>
  <text
     id="text10457"
     font-weight="normal"
     font-family="Helvetica"
     font-size="6.799"
     y="385.653"
     x="250.793"
     svgx:width="500.0"
     svgx:fontName="SWHEEG+ArialMT"
     clip-path="url(#clipPath10)"
     fill="#000000"
     stroke="none">s</text>
</svg>
