<?xml version="1.0" encoding="UTF-8"?>
<svg height="800.0" width="700.0" xmlns="http://www.w3.org/2000/svg">
 <g>
  <g stroke="pink">
   <path id="path6191" stroke-width="0.0" fill="#ffffff" clip-path="url(#clipPath2)" stroke="black" signature="MLLLZ" d="M324.217 259.959 L506.564 259.959 L506.564 381.096 L324.217 381.096 Z"/>
   <path id="path6193" stroke-width="0.0" fill="#ffffff" clip-path="url(#clipPath2)" stroke="black" signature="MLLLLLLLLLLLLLLZ" d="M324.217 259.959 L324.217 259.829 L506.694 259.829 L506.694 381.225 L324.087 381.225 L324.087 259.829 L324.217 259.829 L324.217 259.959 L324.347 259.959 L324.347 380.966 L506.434 380.966 L506.434 260.089 L324.217 260.089 L324.217 259.959 L324.347 259.959 Z"/>
   <path id="path6195" stroke-width="0.0" fill="#edfbf7" clip-path="url(#clipPath2)" stroke="black" signature="MLLLZ" d="M323.958 263.72 L506.824 263.72 L506.824 263.202 L323.958 263.202 Z"/>
   <path id="path6197" stroke-width="0.0" fill="#edfbf7" clip-path="url(#clipPath2)" stroke="black" signature="MLLLZ" d="M323.958 292.254 L506.824 292.254 L506.824 291.736 L323.958 291.736 Z"/>
   <path id="path6199" stroke-width="0.0" fill="#edfbf7" clip-path="url(#clipPath2)" stroke="black" signature="MLLLZ" d="M323.958 320.787 L506.824 320.787 L506.824 320.269 L323.958 320.269 Z"/>
   <path id="path6201" stroke-width="0.0" fill="#edfbf7" clip-path="url(#clipPath2)" stroke="black" signature="MLLLZ" d="M323.958 349.449 L506.824 349.449 L506.824 348.931 L323.958 348.931 Z"/>
   <path id="path6203" stroke-width="0.0" fill="#3b7fff" clip-path="url(#clipPath8)" stroke="black" signature="MCCCC" d="M369.551 353.211 C369.551 352.13 370.393 351.266 371.445 351.266 C372.498 351.266 373.339 352.13 373.339 353.211 C373.339 354.292 372.498 355.156 371.445 355.156 C370.393 355.156 369.551 354.292 369.551 353.211 "/>
   <path id="path6205" stroke-width="0.0" fill="#3b7fff" clip-path="url(#clipPath8)" stroke="black" signature="MLCCCCLLCCCCZ" d="M369.551 353.211 L369.292 353.211 C369.294 351.993 370.246 351.009 371.445 351.007 C372.645 351.009 373.597 351.993 373.599 353.211 C373.597 354.429 372.645 355.413 371.445 355.415 C370.246 355.413 369.294 354.429 369.292 353.211 L369.551 353.211 L369.81 353.211 C369.812 354.156 370.54 354.897 371.445 354.897 C372.35 354.897 373.078 354.156 373.08 353.211 C373.078 352.266 372.35 351.525 371.445 351.525 C370.54 351.525 369.812 352.266 369.81 353.211 Z"/>
   <path id="path6207" stroke-width="0.0" fill="#3b7fff" clip-path="url(#clipPath8)" stroke="black" signature="MCCCC" d="M351.998 357.491 C351.998 356.411 352.813 355.546 353.829 355.546 C354.847 355.546 355.66 356.411 355.66 357.491 C355.66 358.572 354.847 359.437 353.829 359.437 C352.813 359.437 351.998 358.572 351.998 357.491 "/>
   <path id="path6209" stroke-width="0.0" fill="#3b7fff" clip-path="url(#clipPath8)" stroke="black" signature="MLCCCCLLCCCCZ" d="M351.998 357.491 L351.739 357.491 C351.741 356.28 352.658 355.288 353.829 355.287 C355.001 355.288 355.917 356.281 355.919 357.491 C355.917 358.702 355.001 359.695 353.829 359.696 C352.658 359.695 351.741 358.702 351.739 357.491 L351.998 357.491 L352.257 357.491 C352.26 358.442 352.967 359.176 353.829 359.177 C354.693 359.176 355.399 358.442 355.401 357.491 C355.399 356.54 354.693 355.807 353.829 355.805 C352.967 355.807 352.259 356.541 352.257 357.491 Z"/>
   <path id="path6211" stroke-width="0.0" fill="#3b7fff" clip-path="url(#clipPath8)" stroke="black" signature="MCCCC" d="M356.797 351.266 C356.797 350.185 357.611 349.32 358.628 349.32 C359.645 349.32 360.459 350.185 360.459 351.266 C360.459 352.346 359.645 353.211 358.628 353.211 C357.611 353.211 356.797 352.346 356.797 351.266 "/>
   <path id="path6213" stroke-width="0.0" fill="#3b7fff" clip-path="url(#clipPath8)" stroke="black" signature="MLCCCCLLCCCCZ" d="M356.797 351.266 L356.538 351.266 C356.54 350.055 357.457 349.062 358.628 349.061 C359.8 349.062 360.716 350.055 360.718 351.266 C360.716 352.476 359.8 353.469 358.628 353.47 C357.457 353.469 356.54 352.476 356.538 351.266 L356.797 351.266 L357.056 351.266 C357.059 352.216 357.765 352.95 358.628 352.952 C359.491 352.95 360.197 352.217 360.199 351.266 C360.197 350.315 359.491 349.581 358.628 349.58 C357.765 349.581 357.059 350.315 357.056 351.266 Z"/>
   <path id="path6215" stroke-width="0.0" fill="#3b7fff" clip-path="url(#clipPath8)" stroke="black" signature="MCCCC" d="M365.51 353.081 C365.51 352.001 366.352 351.136 367.404 351.136 C368.457 351.136 369.298 352.001 369.298 353.081 C369.298 354.161 368.457 355.027 367.404 355.027 C366.352 355.027 365.51 354.161 365.51 353.081 "/>
   <path id="path6217" stroke-width="0.0" fill="#3b7fff" clip-path="url(#clipPath8)" stroke="black" signature="MLCCCCLLCCCCZ" d="M365.51 353.082 L365.251 353.082 C365.253 351.865 366.205 350.88 367.404 350.878 C368.604 350.88 369.556 351.865 369.558 353.082 C369.556 354.299 368.604 355.285 367.404 355.286 C366.205 355.285 365.253 354.299 365.251 353.082 L365.51 353.082 L365.769 353.082 C365.771 354.026 366.499 354.768 367.404 354.768 C368.309 354.768 369.038 354.026 369.039 353.082 C369.038 352.138 368.309 351.396 367.404 351.396 C366.499 351.396 365.771 352.138 365.769 353.082 Z"/>
   <path id="path6219" stroke-width="0.0" fill="#3b7fff" clip-path="url(#clipPath8)" stroke="black" signature="MCCCC" d="M382.305 351.395 C382.305 350.315 383.119 349.45 384.136 349.45 C385.153 349.45 385.967 350.315 385.967 351.395 C385.967 352.476 385.153 353.341 384.136 353.341 C383.119 353.341 382.305 352.476 382.305 351.395 "/>
   <path id="path6221" stroke-width="0.0" fill="#3b7fff" clip-path="url(#clipPath8)" stroke="black" signature="MLCCCCLLCCCCZ" d="M382.305 351.395 L382.046 351.395 C382.048 350.185 382.965 349.192 384.136 349.191 C385.308 349.192 386.224 350.185 386.226 351.395 C386.224 352.606 385.308 353.599 384.136 353.6 C382.965 353.599 382.048 352.606 382.046 351.395 L382.305 351.395 L382.564 351.395 C382.567 352.346 383.273 353.08 384.136 353.081 C384.999 353.08 385.706 352.346 385.708 351.395 C385.706 350.445 384.999 349.711 384.136 349.709 C383.273 349.711 382.567 350.444 382.564 351.395 Z"/>
   <path id="path6223" stroke-width="0.0" fill="#3b7fff" clip-path="url(#clipPath8)" stroke="black" signature="MCCCC" d="M369.551 353.47 C369.551 352.39 370.393 351.525 371.445 351.525 C372.498 351.525 373.339 352.39 373.339 353.47 C373.339 354.551 372.498 355.416 371.445 355.416 C370.393 355.416 369.551 354.551 369.551 353.47 "/>
   <path id="path6225" stroke-width="0.0" fill="#3b7fff" clip-path="url(#clipPath8)" stroke="black" signature="MLCCCCLLCCCCZ" d="M369.551 353.47 L369.292 353.47 C369.294 352.253 370.246 351.268 371.445 351.266 C372.645 351.268 373.597 352.253 373.599 353.47 C373.597 354.688 372.645 355.673 371.445 355.675 C370.246 355.673 369.294 354.688 369.292 353.47 L369.551 353.47 L369.81 353.47 C369.812 354.415 370.54 355.156 371.445 355.156 C372.35 355.156 373.078 354.415 373.08 353.47 C373.079 352.526 372.35 351.784 371.445 351.784 C370.54 351.784 369.812 352.526 369.81 353.47 Z"/>
   <path id="path6227" d="M382.305 351.395 C382.305 350.315 383.119 349.45 384.136 349.45 C385.153 349.45 385.967 350.315 385.967 351.395 C385.967 352.476 385.153 353.341 384.136 353.341 C383.119 353.341 382.305 352.476 382.305 351.395 " stroke-width="0.0" fill="#3b7fff" clip-path="url(#clipPath8)" stroke="black" signature="MCCCC"/>
   <path id="path6229" d="M382.305 351.395 L382.046 351.395 C382.048 350.185 382.965 349.192 384.136 349.191 C385.308 349.192 386.224 350.185 386.226 351.395 C386.224 352.606 385.308 353.599 384.136 353.6 C382.965 353.599 382.048 352.606 382.046 351.395 L382.305 351.395 L382.564 351.395 C382.567 352.346 383.273 353.08 384.136 353.081 C384.999 353.08 385.706 352.346 385.708 351.395 C385.706 350.445 384.999 349.711 384.136 349.709 C383.273 349.711 382.567 350.444 382.564 351.395 Z" stroke-width="0.0" fill="#3b7fff" clip-path="url(#clipPath8)" stroke="black" signature="MLCCCCLLCCCCZ"/>
   <path id="path6231" stroke-width="0.0" fill="#3b7fff" clip-path="url(#clipPath8)" stroke="black" signature="MCCCC" d="M489.769 346.986 C489.769 345.906 490.583 345.041 491.6 345.041 C492.617 345.041 493.431 345.906 493.431 346.986 C493.431 348.066 492.617 348.932 491.6 348.932 C490.583 348.932 489.769 348.066 489.769 346.986 "/>
   <path id="path6233" stroke-width="0.0" fill="#3b7fff" clip-path="url(#clipPath8)" stroke="black" signature="MLCCCCLLCCCCZ" d="M489.769 346.986 L489.51 346.986 C489.512 345.776 490.429 344.783 491.6 344.782 C492.771 344.783 493.688 345.776 493.69 346.986 C493.688 348.196 492.772 349.19 491.6 349.191 C490.428 349.19 489.512 348.196 489.51 346.986 L489.769 346.986 L490.028 346.986 C490.031 347.937 490.737 348.671 491.6 348.672 C492.463 348.671 493.17 347.936 493.172 346.986 C493.17 346.036 492.463 345.302 491.6 345.3 C490.737 345.302 490.031 346.036 490.028 346.986 Z"/>
   <path id="path6235" stroke-width="0.0" fill="#060808" clip-path="url(#clipPath8)" stroke="black" signature="MLLL" d="M387.94 263.303 L386.756 266.645 L386.267 266.472 L387.451 263.13 "/>
   <path id="path6237" stroke-width="0.0" fill="#060808" clip-path="url(#clipPath8)" stroke="black" signature="MLLL" d="M386.543 267.695 L385.512 271.176 L385.014 271.029 L386.046 267.548 "/>
   <path id="path6239" stroke-width="0.0" fill="#060808" clip-path="url(#clipPath8)" stroke="black" signature="MLLL" d="M385.153 272.105 L384.122 275.585 L383.625 275.438 L384.656 271.958 "/>
   <path id="path6241" stroke-width="0.0" fill="#060808" clip-path="url(#clipPath8)" stroke="black" signature="MLLL" d="M383.891 276.645 L382.86 280.125 L382.363 279.978 L383.394 276.498 "/>
   <path id="path6243" stroke-width="0.0" fill="#060808" clip-path="url(#clipPath8)" stroke="black" signature="MLLL" d="M382.501 281.055 L381.47 284.535 L380.973 284.387 L382.004 280.908 "/>
   <path id="path6245" stroke-width="0.0" fill="#060808" clip-path="url(#clipPath8)" stroke="black" signature="MLLL" d="M381.112 285.465 L380.081 288.945 L379.584 288.798 L380.615 285.318 "/>
   <path id="path6247" stroke-width="0.0" fill="#060808" clip-path="url(#clipPath8)" stroke="black" signature="MLLL" d="M379.85 290.003 L378.819 293.484 L378.322 293.336 L379.353 289.856 "/>
   <path id="path6249" stroke-width="0.0" fill="#060808" clip-path="url(#clipPath8)" stroke="black" signature="MLLL" d="M378.461 294.413 L377.43 297.893 L376.932 297.746 L377.964 294.266 "/>
   <path id="path6251" stroke-width="0.0" fill="#060808" clip-path="url(#clipPath8)" stroke="black" signature="MLLL" d="M377.207 298.97 L376.023 302.312 L375.534 302.139 L376.718 298.797 "/>
   <path id="path6253" stroke-width="0.0" fill="#060808" clip-path="url(#clipPath8)" stroke="black" signature="MLLL" d="M375.809 303.362 L374.778 306.843 L374.28 306.695 L375.312 303.215 "/>
   <path id="path6255" stroke-width="0.0" fill="#060808" clip-path="url(#clipPath8)" stroke="black" signature="MLLL" d="M374.42 307.773 L373.389 311.253 L372.892 311.105 L373.923 307.626 "/>
   <path id="path6257" stroke-width="0.0" fill="#060808" clip-path="url(#clipPath8)" stroke="black" signature="MLLL" d="M373.157 312.311 L372.126 315.791 L371.629 315.644 L372.66 312.164 "/>
   <path id="path6259" stroke-width="0.0" fill="#060808" clip-path="url(#clipPath8)" stroke="black" signature="MLLL" d="M371.768 316.721 L370.737 320.201 L370.24 320.054 L371.271 316.574 "/>
   <path id="path6261" stroke-width="0.0" fill="#060808" clip-path="url(#clipPath8)" stroke="black" signature="MLLL" d="M370.379 321.131 L369.348 324.611 L368.85 324.464 L369.882 320.984 "/>
   <path id="path6263" stroke-width="0.0" fill="#060808" clip-path="url(#clipPath8)" stroke="black" signature="MLLL" d="M369.116 325.67 L368.085 329.15 L367.588 329.003 L368.619 325.523 "/>
   <path id="path6265" stroke-width="0.0" fill="#060808" clip-path="url(#clipPath8)" stroke="black" signature="MLLL" d="M367.727 330.08 L366.696 333.56 L366.199 333.413 L367.23 329.933 "/>
   <path id="path6267" stroke-width="0.0" fill="#060808" clip-path="url(#clipPath8)" stroke="black" signature="MLLL" d="M366.338 334.49 L365.307 337.97 L364.81 337.823 L365.841 334.342 "/>
   <path id="path6269" stroke-width="0.0" fill="#060808" clip-path="url(#clipPath8)" stroke="black" signature="MLLL" d="M365.075 339.029 L364.044 342.509 L363.546 342.362 L364.578 338.882 "/>
   <path id="path6271" stroke-width="0.0" fill="#060808" clip-path="url(#clipPath8)" stroke="black" signature="MLLL" d="M363.686 343.439 L362.655 346.919 L362.158 346.772 L363.189 343.292 "/>
   <path id="path6273" stroke-width="0.0" fill="#060808" clip-path="url(#clipPath8)" stroke="black" signature="MLLL" d="M362.432 347.995 L361.248 351.337 L360.759 351.164 L361.943 347.822 "/>
   <path id="path6275" stroke-width="0.0" fill="#060808" clip-path="url(#clipPath8)" stroke="black" signature="MLLL" d="M361.034 352.388 L360.003 355.868 L359.506 355.721 L360.537 352.241 "/>
   <path id="path6277" stroke-width="0.0" fill="#060808" clip-path="url(#clipPath8)" stroke="black" signature="MLLL" d="M359.636 356.781 L359.388 357.803 L358.884 357.681 L359.132 356.659 "/>
   <path id="path6279" stroke-width="0.0" fill="#060808" clip-path="url(#clipPath8)" stroke="black" signature="MLLL" d="M387.78 263.136 L388.817 266.485 L388.321 266.638 L387.285 263.289 "/>
   <path id="path6281" stroke-width="0.0" fill="#060808" clip-path="url(#clipPath8)" stroke="black" signature="MLLL" d="M389.047 267.548 L390.078 271.029 L389.581 271.176 L388.55 267.695 "/>
   <path id="path6283" stroke-width="0.0" fill="#060808" clip-path="url(#clipPath8)" stroke="black" signature="MLLL" d="M390.436 271.958 L391.466 275.439 L390.969 275.586 L389.939 272.105 "/>
   <path id="path6285" stroke-width="0.0" fill="#060808" clip-path="url(#clipPath8)" stroke="black" signature="MLLL" d="M391.686 276.492 L392.863 279.966 L392.371 280.132 L391.195 276.658 "/>
   <path id="path6287" stroke-width="0.0" fill="#060808" clip-path="url(#clipPath8)" stroke="black" signature="MLLL" d="M393.088 280.908 L394.119 284.388 L393.621 284.535 L392.591 281.055 "/>
   <path id="path6289" stroke-width="0.0" fill="#060808" clip-path="url(#clipPath8)" stroke="black" signature="MLLL" d="M394.477 285.317 L395.508 288.797 L395.01 288.944 L393.98 285.464 "/>
   <path id="path6291" stroke-width="0.0" fill="#060808" clip-path="url(#clipPath8)" stroke="black" signature="MLLL" d="M395.74 289.856 L396.771 293.337 L396.274 293.484 L395.243 290.003 "/>
   <path id="path6293" stroke-width="0.0" fill="#060808" clip-path="url(#clipPath8)" stroke="black" signature="MLLL" d="M397.129 294.266 L398.16 297.747 L397.662 297.894 L396.632 294.413 "/>
   <path id="path6295" stroke-width="0.0" fill="#060808" clip-path="url(#clipPath8)" stroke="black" signature="MLLL" d="M398.513 298.803 L399.55 302.152 L399.055 302.305 L398.018 298.956 "/>
   <path id="path6297" stroke-width="0.0" fill="#060808" clip-path="url(#clipPath8)" stroke="black" signature="MLLL" d="M399.781 303.215 L400.812 306.696 L400.314 306.843 L399.284 303.362 "/>
   <path id="path6299" stroke-width="0.0" fill="#060808" clip-path="url(#clipPath8)" stroke="black" signature="MLLL" d="M401.17 307.625 L402.201 311.105 L401.703 311.252 L400.673 307.772 "/>
   <path id="path6301" stroke-width="0.0" fill="#060808" clip-path="url(#clipPath8)" stroke="black" signature="MLLL" d="M402.42 312.158 L403.597 315.632 L403.105 315.799 L401.929 312.324 "/>
   <path id="path6303" stroke-width="0.0" fill="#060808" clip-path="url(#clipPath8)" stroke="black" signature="MLLL" d="M403.822 316.574 L404.852 320.054 L404.355 320.202 L403.325 316.721 "/>
   <path id="path6305" stroke-width="0.0" fill="#060808" clip-path="url(#clipPath8)" stroke="black" signature="MLLL" d="M405.21 320.983 L406.241 324.463 L405.744 324.611 L404.713 321.13 "/>
   <path id="path6307" stroke-width="0.0" fill="#060808" clip-path="url(#clipPath8)" stroke="black" signature="MLLL" d="M406.474 325.523 L407.505 329.003 L407.007 329.151 L405.977 325.67 "/>
   <path id="path6309" stroke-width="0.0" fill="#060808" clip-path="url(#clipPath8)" stroke="black" signature="MLLL" d="M407.863 329.933 L408.894 333.413 L408.396 333.561 L407.366 330.08 "/>
   <path id="path6311" stroke-width="0.0" fill="#060808" clip-path="url(#clipPath8)" stroke="black" signature="MLLL" d="M409.251 334.342 L410.282 337.823 L409.785 337.97 L408.754 334.489 "/>
   <path id="path6313" stroke-width="0.0" fill="#060808" clip-path="url(#clipPath8)" stroke="black" signature="MLLL" d="M410.515 338.882 L411.546 342.363 L411.048 342.51 L410.018 339.029 "/>
   <path id="path6315" stroke-width="0.0" fill="#060808" clip-path="url(#clipPath8)" stroke="black" signature="MLLL" d="M411.904 343.291 L412.935 346.772 L412.437 346.919 L411.407 343.438 "/>
   <path id="path6317" stroke-width="0.0" fill="#060808" clip-path="url(#clipPath8)" stroke="black" signature="MLLL" d="M413.288 347.829 L414.325 351.178 L413.83 351.331 L412.793 347.982 "/>
   <path id="path6319" stroke-width="0.0" fill="#060808" clip-path="url(#clipPath8)" stroke="black" signature="MLLL" d="M414.556 352.241 L415.587 355.721 L415.089 355.868 L414.059 352.388 "/>
   <path id="path6321" stroke-width="0.0" fill="#060808" clip-path="url(#clipPath8)" stroke="black" signature="MLLL" d="M415.96 356.659 L416.209 357.681 L415.705 357.804 L415.456 356.782 "/>
   <path id="path6323" stroke-width="0.0" fill="#060808" clip-path="url(#clipPath8)" stroke="black" signature="MLLL" d="M387.869 263.201 L387.869 357.75 L387.351 357.75 L387.351 263.201 "/>
   <path id="path6325" stroke-width="0.0" fill="#060808" clip-path="url(#clipPath8)" stroke="black" signature="MLLL" d="M324.087 381.226 L324.087 259.829 L324.346 259.829 L324.346 381.226 "/>
   <path id="path6327" stroke-width="0.0" fill="#060808" clip-path="url(#clipPath8)" stroke="black" signature="MLLL" d="M324.347 263.591 L321.941 263.591 L321.941 263.332 L324.347 263.332 "/>
   <path id="path6331" stroke-width="0.0" fill="#060808" clip-path="url(#clipPath8)" stroke="black" signature="MLLL" d="M324.347 292.124 L321.941 292.124 L321.941 291.865 L324.347 291.865 "/>
   <path id="path6337" stroke-width="0.0" fill="#060808" clip-path="url(#clipPath8)" stroke="black" signature="MLLL" d="M324.347 320.658 L321.941 320.658 L321.941 320.398 L324.347 320.398 "/>
   <path id="path6341" stroke-width="0.0" fill="#060808" clip-path="url(#clipPath8)" stroke="black" signature="MLLL" d="M324.347 349.32 L321.941 349.32 L321.941 349.061 L324.347 349.061 "/>
   <path id="path6349" stroke-width="0.0" fill="#060808" clip-path="url(#clipPath8)" stroke="black" signature="MLLL" d="M324.347 377.854 L321.941 377.854 L321.941 377.595 L324.347 377.595 "/>
   <path id="path6371" stroke-width="0.0" fill="#060808" clip-path="url(#clipPath8)" stroke="black" signature="MLLL" d="M324.087 380.967 L506.693 380.967 L506.693 381.226 L324.087 381.226 "/>
   <path id="path6373" stroke-width="0.0" fill="#060808" clip-path="url(#clipPath8)" stroke="black" signature="MLLL" d="M327.63 380.967 L327.63 383.431 L327.371 383.431 L327.371 380.967 "/>
   <path id="path6377" stroke-width="0.0" fill="#060808" clip-path="url(#clipPath2)" stroke="black" signature="MLLLZ" d="M371.316 383.431 L371.575 383.431 L371.575 380.967 L371.316 380.967 Z"/>
   <path id="path6381" stroke-width="0.0" fill="#060808" clip-path="url(#clipPath2)" stroke="black" signature="MLLLZ" d="M415.261 383.431 L415.52 383.431 L415.52 380.967 L415.261 380.967 Z"/>
   <path id="path6387" stroke-width="0.0" fill="#060808" clip-path="url(#clipPath2)" stroke="black" signature="MLLLZ" d="M459.206 383.431 L459.465 383.431 L459.465 380.967 L459.206 380.967 Z"/>
   <path id="path6393" stroke-width="0.0" fill="#060808" clip-path="url(#clipPath2)" stroke="black" signature="MLLLZ" d="M503.151 383.431 L503.41 383.431 L503.41 380.967 L503.151 380.967 Z"/>
   <text id="text6329" font-weight="normal" font-family="Helvetica" svgx:width="556.0" svgx:fontName="KXXXPR+ArialMT" clip-path="url(#clipPath2)" fill="#060808" stroke="none" transform="matrix(0.0,-1.0,1.0,0.0,54.31268,584.35614)" x="319.334" y="265.022" font-size="5.375" xmlns:svgx="http://www.xml-cml.org/schema/svgx">0</text>
   <text id="text6333" font-weight="normal" font-family="Helvetica" svgx:width="278.0" svgx:fontName="KXXXPR+ArialMT" clip-path="url(#clipPath2)" fill="#060808" stroke="none" transform="matrix(0.0,-1.0,1.0,0.0,25.1326,613.53622)" x="319.334" y="294.202" font-size="5.375" xmlns:svgx="http://www.xml-cml.org/schema/svgx">.</text>
   <text id="text6335" font-weight="normal" font-family="Helvetica" svgx:width="556.0" svgx:fontName="KXXXPR+ArialMT" clip-path="url(#clipPath2)" fill="#060808" stroke="none" transform="matrix(0.0,-1.0,1.0,0.0,26.68506,611.98376)" x="319.334" y="292.649" font-size="5.375" xmlns:svgx="http://www.xml-cml.org/schema/svgx">5</text>
   <text id="text6339" font-weight="normal" font-family="Helvetica" svgx:width="556.0" svgx:fontName="KXXXPR+ArialMT" clip-path="url(#clipPath2)" fill="#060808" stroke="none" transform="matrix(0.0,-1.0,1.0,0.0,-2.74258,641.41141)" x="319.334" y="322.077" font-size="5.375" xmlns:svgx="http://www.xml-cml.org/schema/svgx">1</text>
   <text id="text6343" font-weight="normal" font-family="Helvetica" svgx:width="556.0" svgx:fontName="KXXXPR+ArialMT" clip-path="url(#clipPath2)" fill="#060808" stroke="none" transform="matrix(0.0,-1.0,1.0,0.0,-33.62448,672.2933)" x="319.334" y="352.959" font-size="5.375" xmlns:svgx="http://www.xml-cml.org/schema/svgx">1</text>
   <text id="text6345" font-weight="normal" font-family="Helvetica" svgx:width="278.0" svgx:fontName="KXXXPR+ArialMT" clip-path="url(#clipPath2)" fill="#060808" stroke="none" transform="matrix(0.0,-1.0,1.0,0.0,-30.51413,669.18295)" x="319.334" y="349.849" font-size="5.375" xmlns:svgx="http://www.xml-cml.org/schema/svgx">.</text>
   <text id="text6347" font-weight="normal" font-family="Helvetica" svgx:width="556.0" svgx:fontName="KXXXPR+ArialMT" clip-path="url(#clipPath2)" fill="#060808" stroke="none" transform="matrix(0.0,-1.0,1.0,0.0,-29.08151,667.75034)" x="319.334" y="348.416" font-size="5.375" xmlns:svgx="http://www.xml-cml.org/schema/svgx">5</text>
   <text id="text6351" font-weight="normal" font-family="Helvetica" svgx:width="556.0" svgx:fontName="KXXXPR+ArialMT" clip-path="url(#clipPath2)" fill="#060808" stroke="none" transform="matrix(0.0,-1.0,1.0,0.0,-59.944,698.61282)" x="319.334" y="379.278" font-size="5.375" xmlns:svgx="http://www.xml-cml.org/schema/svgx">2</text>
   <text id="text6353" font-weight="normal" font-family="Helvetica" svgx:width="500.0" svgx:fontName="KXXXPR+ArialMT" clip-path="url(#clipPath2)" fill="#060808" stroke="none" transform="matrix(0.0,-1.0,1.0,0.0,-19.44504,646.50937)" x="313.532" y="332.977" font-size="5.375" xmlns:svgx="http://www.xml-cml.org/schema/svgx">s</text>
   <text id="text6355" font-weight="normal" font-family="Helvetica" svgx:width="556.0" svgx:fontName="KXXXPR+ArialMT" clip-path="url(#clipPath2)" fill="#060808" stroke="none" transform="matrix(0.0,-1.0,1.0,0.0,-16.72144,643.78577)" x="313.532" y="330.254" font-size="5.375" xmlns:svgx="http://www.xml-cml.org/schema/svgx">e</text>
   <text id="text6357" font-weight="normal" font-family="Helvetica" svgx:width="333.0" svgx:fontName="KXXXPR+ArialMT" clip-path="url(#clipPath2)" fill="#060808" stroke="none" transform="matrix(0.0,-1.0,1.0,0.0,-13.61108,640.67542)" x="313.532" y="327.143" font-size="5.375" xmlns:svgx="http://www.xml-cml.org/schema/svgx">(</text>
   <text id="text6359" font-weight="normal" font-family="Helvetica" svgx:width="222.0" svgx:fontName="KXXXPR+ArialMT" clip-path="url(#clipPath2)" fill="#060808" stroke="none" transform="matrix(0.0,-1.0,1.0,0.0,-11.79718,638.86151)" x="313.532" y="325.329" font-size="5.375" xmlns:svgx="http://www.xml-cml.org/schema/svgx">l</text>
   <text id="text6361" font-weight="normal" font-family="Helvetica" svgx:width="556.0" svgx:fontName="KXXXPR+ArialMT" clip-path="url(#clipPath2)" fill="#060808" stroke="none" transform="matrix(0.0,-1.0,1.0,0.0,-10.62601,637.69034)" x="313.532" y="324.158" font-size="5.375" xmlns:svgx="http://www.xml-cml.org/schema/svgx">o</text>
   <text id="text6363" font-weight="normal" font-family="Helvetica" svgx:width="556.0" svgx:fontName="KXXXPR+ArialMT" clip-path="url(#clipPath2)" fill="#060808" stroke="none" transform="matrix(0.0,-1.0,1.0,0.0,-7.51566,634.57999)" x="313.532" y="321.048" font-size="5.375" xmlns:svgx="http://www.xml-cml.org/schema/svgx">g</text>
   <text id="text6365" font-weight="normal" font-family="Helvetica" svgx:width="778.0" svgx:fontName="KXXXPR+ArialMT" clip-path="url(#clipPath2)" fill="#060808" stroke="none" transform="matrix(0.0,-1.0,1.0,0.0,-4.53058,631.59491)" x="313.532" y="318.063" font-size="5.375" xmlns:svgx="http://www.xml-cml.org/schema/svgx">O</text>
   <text id="text6367" font-weight="normal" font-family="Helvetica" svgx:width="722.0" svgx:fontName="KXXXPR+ArialMT" clip-path="url(#clipPath2)" fill="#060808" stroke="none" transform="matrix(0.0,-1.0,1.0,0.0,-0.25452,627.31885)" x="313.532" y="313.787" font-size="5.375" xmlns:svgx="http://www.xml-cml.org/schema/svgx">R</text>
   <text id="text6369" font-weight="normal" font-family="Helvetica" svgx:width="333.0" svgx:fontName="KXXXPR+ArialMT" clip-path="url(#clipPath2)" fill="#060808" stroke="none" transform="matrix(0.0,-1.0,1.0,0.0,3.64023,623.4241)" x="313.532" y="309.892" font-size="5.375" xmlns:svgx="http://www.xml-cml.org/schema/svgx">)</text>
   <text id="text6375" font-weight="normal" font-family="Helvetica" svgx:width="556.0" svgx:fontName="KXXXPR+ArialMT" clip-path="url(#clipPath2)" fill="#060808" stroke="none" x="326.11" y="389.818" font-size="5.375" xmlns:svgx="http://www.xml-cml.org/schema/svgx">0</text>
   <text id="text6379" font-weight="normal" font-family="Helvetica" svgx:width="556.0" svgx:fontName="KXXXPR+ArialMT" clip-path="url(#clipPath2)" fill="#060808" stroke="none" x="370.058" y="389.818" font-size="5.375" xmlns:svgx="http://www.xml-cml.org/schema/svgx">5</text>
   <text id="text6383" font-weight="normal" font-family="Helvetica" svgx:width="556.0" svgx:fontName="KXXXPR+ArialMT" clip-path="url(#clipPath2)" fill="#060808" stroke="none" x="412.487" y="389.818" font-size="5.375" xmlns:svgx="http://www.xml-cml.org/schema/svgx">1</text>
   <text id="text6385" font-weight="normal" font-family="Helvetica" svgx:width="556.0" svgx:fontName="KXXXPR+ArialMT" clip-path="url(#clipPath2)" fill="#060808" stroke="none" x="415.393" y="389.818" font-size="5.375" xmlns:svgx="http://www.xml-cml.org/schema/svgx">0</text>
   <text id="text6389" font-weight="normal" font-family="Helvetica" svgx:width="556.0" svgx:fontName="KXXXPR+ArialMT" clip-path="url(#clipPath2)" fill="#060808" stroke="none" x="456.429" y="389.818" font-size="5.375" xmlns:svgx="http://www.xml-cml.org/schema/svgx">1</text>
   <text id="text6391" font-weight="normal" font-family="Helvetica" svgx:width="556.0" svgx:fontName="KXXXPR+ArialMT" clip-path="url(#clipPath2)" fill="#060808" stroke="none" x="459.335" y="389.818" font-size="5.375" xmlns:svgx="http://www.xml-cml.org/schema/svgx">5</text>
   <text id="text6395" font-weight="normal" font-family="Helvetica" svgx:width="556.0" svgx:fontName="KXXXPR+ArialMT" clip-path="url(#clipPath2)" fill="#060808" stroke="none" x="500.377" y="389.818" font-size="5.375" xmlns:svgx="http://www.xml-cml.org/schema/svgx">2</text>
   <text id="text6397" font-weight="normal" font-family="Helvetica" svgx:width="556.0" svgx:fontName="KXXXPR+ArialMT" clip-path="url(#clipPath2)" fill="#060808" stroke="none" x="503.283" y="389.818" font-size="5.375" xmlns:svgx="http://www.xml-cml.org/schema/svgx">0</text>
   <text id="text6399" font-weight="normal" font-family="Helvetica" svgx:width="778.0" svgx:fontName="KXXXPR+ArialMT" clip-path="url(#clipPath8)" fill="#060808" stroke="none" x="411.474" y="393.978" font-size="5.375" xmlns:svgx="http://www.xml-cml.org/schema/svgx">O</text>
   <text id="text6401" font-weight="normal" font-family="Helvetica" svgx:width="722.0" svgx:fontName="KXXXPR+ArialMT" clip-path="url(#clipPath8)" fill="#060808" stroke="none" x="415.521" y="393.978" font-size="5.375" xmlns:svgx="http://www.xml-cml.org/schema/svgx">R</text>
   <text id="text6403" font-weight="normal" font-family="Helvetica" svgx:width="611.0" svgx:fontName="KXXXPR+ArialMT" clip-path="url(#clipPath2)" fill="#060808" stroke="none" x="356.293" y="257.119" font-size="5.887" xmlns:svgx="http://www.xml-cml.org/schema/svgx">F</text>
   <text id="text6405" font-weight="normal" font-family="Helvetica" svgx:width="556.0" svgx:fontName="KXXXPR+ArialMT" clip-path="url(#clipPath2)" fill="#060808" stroke="none" x="359.83" y="257.119" font-size="5.887" xmlns:svgx="http://www.xml-cml.org/schema/svgx">u</text>
   <text id="text6407" font-weight="normal" font-family="Helvetica" svgx:width="556.0" svgx:fontName="KXXXPR+ArialMT" clip-path="url(#clipPath2)" fill="#060808" stroke="none" x="362.99" y="257.119" font-size="5.887" xmlns:svgx="http://www.xml-cml.org/schema/svgx">n</text>
   <text id="text6409" font-weight="normal" font-family="Helvetica" svgx:width="556.0" svgx:fontName="KXXXPR+ArialMT" clip-path="url(#clipPath2)" fill="#060808" stroke="none" x="366.272" y="257.119" font-size="5.887" xmlns:svgx="http://www.xml-cml.org/schema/svgx">n</text>
   <text id="text6411" font-weight="normal" font-family="Helvetica" svgx:width="556.0" svgx:fontName="KXXXPR+ArialMT" clip-path="url(#clipPath2)" fill="#060808" stroke="none" x="369.432" y="257.119" font-size="5.887" xmlns:svgx="http://www.xml-cml.org/schema/svgx">e</text>
   <text id="text6413" font-weight="normal" font-family="Helvetica" svgx:width="222.0" svgx:fontName="KXXXPR+ArialMT" clip-path="url(#clipPath2)" fill="#060808" stroke="none" x="372.592" y="257.119" font-size="5.887" xmlns:svgx="http://www.xml-cml.org/schema/svgx">l</text>
   <text id="text6417" font-weight="normal" font-family="Helvetica" svgx:width="556.0" svgx:fontName="KXXXPR+ArialMT" clip-path="url(#clipPath2)" fill="#060808" stroke="none" x="375.497" y="257.119" font-size="5.887" xmlns:svgx="http://www.xml-cml.org/schema/svgx">p</text>
   <text id="text6419" font-weight="normal" font-family="Helvetica" svgx:width="222.0" svgx:fontName="KXXXPR+ArialMT" clip-path="url(#clipPath2)" fill="#060808" stroke="none" x="378.657" y="257.119" font-size="5.887" xmlns:svgx="http://www.xml-cml.org/schema/svgx">l</text>
   <text id="text6421" font-weight="normal" font-family="Helvetica" svgx:width="556.0" svgx:fontName="KXXXPR+ArialMT" clip-path="url(#clipPath2)" fill="#060808" stroke="none" x="379.923" y="257.119" font-size="5.887" xmlns:svgx="http://www.xml-cml.org/schema/svgx">o</text>
   <text id="text6423" font-weight="normal" font-family="Helvetica" svgx:width="278.0" svgx:fontName="KXXXPR+ArialMT" clip-path="url(#clipPath2)" fill="#060808" stroke="none" x="383.205" y="257.119" font-size="5.887" xmlns:svgx="http://www.xml-cml.org/schema/svgx">t</text>
   <text id="text6427" font-weight="normal" font-family="Helvetica" svgx:width="722.0" svgx:fontName="KXXXPR+ArialMT" clip-path="url(#clipPath2)" fill="#060808" stroke="none" x="386.481" y="257.119" font-size="5.887" xmlns:svgx="http://www.xml-cml.org/schema/svgx">w</text>
   <text id="text6429" font-weight="normal" font-family="Helvetica" svgx:width="222.0" svgx:fontName="KXXXPR+ArialMT" clip-path="url(#clipPath2)" fill="#060808" stroke="none" x="390.524" y="257.119" font-size="5.887" xmlns:svgx="http://www.xml-cml.org/schema/svgx">i</text>
   <text id="text6431" font-weight="normal" font-family="Helvetica" svgx:width="278.0" svgx:fontName="KXXXPR+ArialMT" clip-path="url(#clipPath2)" fill="#060808" stroke="none" x="391.791" y="257.119" font-size="5.887" xmlns:svgx="http://www.xml-cml.org/schema/svgx">t</text>
   <text id="text6433" font-weight="normal" font-family="Helvetica" svgx:width="556.0" svgx:fontName="KXXXPR+ArialMT" clip-path="url(#clipPath2)" fill="#060808" stroke="none" x="393.429" y="257.119" font-size="5.887" xmlns:svgx="http://www.xml-cml.org/schema/svgx">h</text>
   <text id="text6437" font-weight="normal" font-family="Helvetica" svgx:width="556.0" svgx:fontName="KXXXPR+ArialMT" clip-path="url(#clipPath2)" fill="#060808" stroke="none" x="398.227" y="257.119" font-size="5.887" xmlns:svgx="http://www.xml-cml.org/schema/svgx">p</text>
   <text id="text6439" font-weight="normal" font-family="Helvetica" svgx:width="500.0" svgx:fontName="KXXXPR+ArialMT" clip-path="url(#clipPath2)" fill="#060808" stroke="none" x="401.387" y="257.119" font-size="5.887" xmlns:svgx="http://www.xml-cml.org/schema/svgx">s</text>
   <text id="text6441" font-weight="normal" font-family="Helvetica" svgx:width="556.0" svgx:fontName="KXXXPR+ArialMT" clip-path="url(#clipPath2)" fill="#060808" stroke="none" x="404.291" y="257.119" font-size="5.887" xmlns:svgx="http://www.xml-cml.org/schema/svgx">e</text>
   <text id="text6443" font-weight="normal" font-family="Helvetica" svgx:width="556.0" svgx:fontName="KXXXPR+ArialMT" clip-path="url(#clipPath2)" fill="#060808" stroke="none" x="407.574" y="257.119" font-size="5.887" xmlns:svgx="http://www.xml-cml.org/schema/svgx">u</text>
   <text id="text6445" font-weight="normal" font-family="Helvetica" svgx:width="556.0" svgx:fontName="KXXXPR+ArialMT" clip-path="url(#clipPath2)" fill="#060808" stroke="none" x="410.734" y="257.119" font-size="5.887" xmlns:svgx="http://www.xml-cml.org/schema/svgx">d</text>
   <text id="text6447" font-weight="normal" font-family="Helvetica" svgx:width="556.0" svgx:fontName="KXXXPR+ArialMT" clip-path="url(#clipPath2)" fill="#060808" stroke="none" x="413.894" y="257.119" font-size="5.887" xmlns:svgx="http://www.xml-cml.org/schema/svgx">o</text>
   <text id="text6451" font-weight="normal" font-family="Helvetica" svgx:width="556.0" svgx:fontName="KXXXPR+ArialMT" clip-path="url(#clipPath2)" fill="#060808" stroke="none" x="418.814" y="257.119" font-size="5.887" xmlns:svgx="http://www.xml-cml.org/schema/svgx">9</text>
   <text id="text6453" font-weight="normal" font-family="Helvetica" svgx:width="556.0" svgx:fontName="KXXXPR+ArialMT" clip-path="url(#clipPath2)" fill="#060808" stroke="none" x="421.974" y="257.119" font-size="5.887" xmlns:svgx="http://www.xml-cml.org/schema/svgx">5</text>
   <text id="text6455" font-weight="normal" font-family="Helvetica" svgx:width="889.0" svgx:fontName="KXXXPR+ArialMT" clip-path="url(#clipPath2)" fill="#060808" stroke="none" x="425.134" y="257.119" font-size="5.887" xmlns:svgx="http://www.xml-cml.org/schema/svgx">%</text>
   <text id="text6459" font-weight="normal" font-family="Helvetica" svgx:width="500.0" svgx:fontName="KXXXPR+ArialMT" clip-path="url(#clipPath2)" fill="#060808" stroke="none" x="431.948" y="257.119" font-size="5.887" xmlns:svgx="http://www.xml-cml.org/schema/svgx">c</text>
   <text id="text6461" font-weight="normal" font-family="Helvetica" svgx:width="556.0" svgx:fontName="KXXXPR+ArialMT" clip-path="url(#clipPath2)" fill="#060808" stroke="none" x="434.852" y="257.119" font-size="5.887" xmlns:svgx="http://www.xml-cml.org/schema/svgx">o</text>
   <text id="text6463" font-weight="normal" font-family="Helvetica" svgx:width="556.0" svgx:fontName="KXXXPR+ArialMT" clip-path="url(#clipPath2)" fill="#060808" stroke="none" x="438.012" y="257.119" font-size="5.887" xmlns:svgx="http://www.xml-cml.org/schema/svgx">n</text>
   <text id="text6465" font-weight="normal" font-family="Helvetica" svgx:width="278.0" svgx:fontName="KXXXPR+ArialMT" clip-path="url(#clipPath2)" fill="#060808" stroke="none" x="441.294" y="257.119" font-size="5.887" xmlns:svgx="http://www.xml-cml.org/schema/svgx">f</text>
   <text id="text6467" font-weight="normal" font-family="Helvetica" svgx:width="222.0" svgx:fontName="KXXXPR+ArialMT" clip-path="url(#clipPath2)" fill="#060808" stroke="none" x="442.932" y="257.119" font-size="5.887" xmlns:svgx="http://www.xml-cml.org/schema/svgx">i</text>
   <text id="text6469" font-weight="normal" font-family="Helvetica" svgx:width="556.0" svgx:fontName="KXXXPR+ArialMT" clip-path="url(#clipPath2)" fill="#060808" stroke="none" x="444.199" y="257.119" font-size="5.887" xmlns:svgx="http://www.xml-cml.org/schema/svgx">d</text>
   <text id="text6471" font-weight="normal" font-family="Helvetica" svgx:width="556.0" svgx:fontName="KXXXPR+ArialMT" clip-path="url(#clipPath2)" fill="#060808" stroke="none" x="447.359" y="257.119" font-size="5.887" xmlns:svgx="http://www.xml-cml.org/schema/svgx">e</text>
   <text id="text6473" font-weight="normal" font-family="Helvetica" svgx:width="556.0" svgx:fontName="KXXXPR+ArialMT" clip-path="url(#clipPath2)" fill="#060808" stroke="none" x="450.641" y="257.119" font-size="5.887" xmlns:svgx="http://www.xml-cml.org/schema/svgx">n</text>
   <text id="text6475" font-weight="normal" font-family="Helvetica" svgx:width="500.0" svgx:fontName="KXXXPR+ArialMT" clip-path="url(#clipPath2)" fill="#060808" stroke="none" x="453.801" y="257.119" font-size="5.887" xmlns:svgx="http://www.xml-cml.org/schema/svgx">c</text>
   <text id="text6477" font-weight="normal" font-family="Helvetica" svgx:width="556.0" svgx:fontName="KXXXPR+ArialMT" clip-path="url(#clipPath2)" fill="#060808" stroke="none" x="456.705" y="257.119" font-size="5.887" xmlns:svgx="http://www.xml-cml.org/schema/svgx">e</text>
   <text id="text6481" font-weight="normal" font-family="Helvetica" svgx:width="222.0" svgx:fontName="KXXXPR+ArialMT" clip-path="url(#clipPath2)" fill="#060808" stroke="none" x="461.503" y="257.119" font-size="5.887" xmlns:svgx="http://www.xml-cml.org/schema/svgx">l</text>
   <text id="text6483" font-weight="normal" font-family="Helvetica" svgx:width="222.0" svgx:fontName="KXXXPR+ArialMT" clip-path="url(#clipPath2)" fill="#060808" stroke="none" x="462.77" y="257.119" font-size="5.887" xmlns:svgx="http://www.xml-cml.org/schema/svgx">i</text>
   <text id="text6485" font-weight="normal" font-family="Helvetica" svgx:width="833.0" svgx:fontName="KXXXPR+ArialMT" clip-path="url(#clipPath2)" fill="#060808" stroke="none" x="464.036" y="257.119" font-size="5.887" xmlns:svgx="http://www.xml-cml.org/schema/svgx">m</text>
   <text id="text6487" font-weight="normal" font-family="Helvetica" svgx:width="222.0" svgx:fontName="KXXXPR+ArialMT" clip-path="url(#clipPath2)" fill="#060808" stroke="none" x="468.84" y="257.119" font-size="5.887" xmlns:svgx="http://www.xml-cml.org/schema/svgx">i</text>
   <text id="text6489" font-weight="normal" font-family="Helvetica" svgx:width="278.0" svgx:fontName="KXXXPR+ArialMT" clip-path="url(#clipPath2)" fill="#060808" stroke="none" x="470.106" y="257.119" font-size="5.887" xmlns:svgx="http://www.xml-cml.org/schema/svgx">t</text>
   <text id="text6491" font-weight="normal" font-family="Helvetica" svgx:width="500.0" svgx:fontName="KXXXPR+ArialMT" clip-path="url(#clipPath2)" fill="#060808" stroke="none" x="471.744" y="257.119" font-size="5.887" xmlns:svgx="http://www.xml-cml.org/schema/svgx">s</text>
  </g>
  <g fill="orange">
   <circle fill="#3b7fff" stroke="black" stroke-width="0.0" cx="371.445" cy="353.211" r="1.686" id="circle.6"/>
   <circle fill="#3b7fff" stroke="black" stroke-width="0.0" cx="353.829" cy="357.491" r="1.669" id="circle.8"/>
   <circle fill="#3b7fff" stroke="black" stroke-width="0.0" cx="358.628" cy="351.266" r="1.669" id="circle.10"/>
   <circle fill="#3b7fff" stroke="black" stroke-width="0.0" cx="367.404" cy="353.081" r="1.686" id="circle.12"/>
   <circle fill="#3b7fff" stroke="black" stroke-width="0.0" cx="384.136" cy="351.395" r="1.669" id="circle.14"/>
   <circle fill="#3b7fff" stroke="black" stroke-width="0.0" cx="371.445" cy="353.47" r="1.686" id="circle.16"/>
   <circle fill="#3b7fff" stroke="black" stroke-width="0.0" cx="491.6" cy="346.986" r="1.669" id="circle.18"/>
  </g>
  <g class="pathAnnotation NYI"/>
  <g class="plotBox">
   <g class="axis">
    <g class="axisTickBox">
     <rect stroke="black" x="318.958" y="371.226" width="192.86599999999999" height="28.0" stroke-width="0.2" fill="yellow" opacity="0.3"/>
     <rect stroke="black" x="327.501" y="380.967" width="175.78000000000003" height="2.4639999999999986" stroke-width="0.2" fill="green" opacity="0.3"/>
    </g>
    <g class="axisTextBox">
     <rect stroke="black" x="318.958" y="371.226" width="192.86599999999999" height="28.0" stroke-width="0.2" fill="yellow" opacity="0.3"/>
     <rect stroke="black" x="326.11" y="384.443" width="180.28699999999998" height="5.375" stroke-width="0.2" fill="green" opacity="0.3"/>
    </g>
   </g>
   <g class="axis">
    <g class="axisTickBox">
     <rect stroke="black" x="305.958" y="254.829" width="28.0" height="131.397" stroke-width="0.2" fill="yellow" opacity="0.3"/>
     <rect stroke="black" x="321.941" y="263.462" width="2.406000000000006" height="114.26300000000003" stroke-width="0.2" fill="green" opacity="0.3"/>
    </g>
    <g class="axisTextBox">
     <rect stroke="black" x="305.958" y="254.829" width="28.0" height="131.397" stroke-width="0.2" fill="yellow" opacity="0.3"/>
     <rect stroke="black" x="313.959" y="262.01214" width="5.3756799999999885" height="117.26668000000006" stroke-width="0.2" fill="green" opacity="0.3"/>
    </g>
   </g>
   <g class="axis">
    <g class="axisTickBox">
     <rect stroke="black" x="318.958" y="241.829" width="192.86599999999999" height="28.0" stroke-width="0.2" fill="yellow" opacity="0.3"/>
    </g>
    <g class="axisTextBox">
     <rect stroke="black" x="318.958" y="241.829" width="192.86599999999999" height="28.0" stroke-width="0.2" fill="yellow" opacity="0.3"/>
    </g>
   </g>
   <g class="axis">
    <g class="axisTickBox">
     <rect stroke="black" x="496.824" y="254.829" width="27.999999999999943" height="131.397" stroke-width="0.2" fill="yellow" opacity="0.3"/>
    </g>
    <g class="axisTextBox">
     <rect stroke="black" x="496.824" y="254.829" width="27.999999999999943" height="131.397" stroke-width="0.2" fill="yellow" opacity="0.3"/>
    </g>
   </g>
  </g>
 </g>
</svg>
