<?xml version="1.0" encoding="UTF-8"?>
<svg height="800.0" width="700.0" xmlns="http://www.w3.org/2000/svg">
 <g>
  <g stroke="pink">
   <path id="path999" stroke-width="0.3" stroke="#000000" clip-path="url(#clipPath1)" fill="none" signature="ML" d="M90.896 383.659 L93.731 383.659 "/>
   <path id="path1001" stroke-width="0.3" stroke="#000000" clip-path="url(#clipPath1)" fill="none" signature="ML" d="M90.896 411.722 L93.731 411.722 "/>
   <path id="path1003" stroke-width="0.3" stroke="#000000" clip-path="url(#clipPath1)" fill="none" signature="ML" d="M90.896 439.785 L93.731 439.785 "/>
   <path id="path1005" stroke-width="0.3" stroke="#000000" clip-path="url(#clipPath1)" fill="none" signature="ML" d="M90.896 467.565 L93.731 467.565 "/>
   <path id="path1007" stroke-width="0.3" stroke="#000000" clip-path="url(#clipPath1)" fill="none" signature="ML" d="M90.896 495.344 L93.731 495.344 "/>
   <path id="path1009" stroke-width="0.3" stroke="#000000" clip-path="url(#clipPath1)" fill="none" signature="ML" d="M94.447 505.465 L94.447 502.63 "/>
   <path id="path1011" stroke-width="0.3" stroke="#000000" clip-path="url(#clipPath1)" fill="none" signature="ML" d="M141.309 505.465 L141.309 502.63 "/>
   <path id="path1013" stroke-width="0.3" stroke="#000000" clip-path="url(#clipPath1)" fill="none" signature="ML" d="M187.888 505.465 L187.888 502.63 "/>
   <path id="path1015" stroke-width="0.3" stroke="#000000" clip-path="url(#clipPath1)" fill="none" signature="ML" d="M234.38 505.465 L234.38 502.63 "/>
   <path id="path1017" stroke-width="0.5" stroke="#000000" clip-path="url(#clipPath1)" fill="none" signature="MLL" d="M90.848 383.612 L90.848 505.59 L284.518 505.59 "/>
   <path id="path1019" stroke-width="0.3" stroke-dasharray="1 1" stroke="#000000" clip-path="url(#clipPath1)" fill="none" signature="ML" d="M121.449 500.155 L196.695 385.459 "/>
   <path id="path1021" stroke-width="0.3" stroke-dasharray="2 2" stroke="#000000" clip-path="url(#clipPath1)" fill="none" signature="ML" d="M199.443 386.355 L274.337 500.933 "/>
   <path id="path1023" stroke-width="0.3" stroke="#000000" clip-path="url(#clipPath1)" fill="none" signature="MLMLLML" d="M119.825 502.631 L120.366 501.806 M197.236 384.635 L197.778 383.809 L198.333 384.658 M274.892 501.782 L275.447 502.631 "/>
   <path id="path1025" stroke-width="0.3" stroke="#000000" clip-path="url(#clipPath1)" fill="none" signature="ML" d="M197.637 383.713 L197.637 502.535 "/>
   <path id="path1027" stroke-width="0.3" fill="#0032e5" clip-path="url(#clipPath2)" stroke="black" signature="MCCCC" d="M189.305 410.722 C190.088 410.722 190.722 410.087 190.722 409.305 C190.722 408.522 190.088 407.888 189.305 407.888 C188.522 407.888 187.888 408.522 187.888 409.305 C187.888 410.087 188.522 410.722 189.305 410.722 "/>
   <path id="path1029" stroke-width="0.3" fill="#0032e5" clip-path="url(#clipPath2)" stroke="black" signature="MCCCC" d="M189.975 420.36 C190.758 420.36 191.392 419.725 191.392 418.943 C191.392 418.16 190.758 417.526 189.975 417.526 C189.192 417.526 188.558 418.16 188.558 418.943 C188.558 419.725 189.192 420.36 189.975 420.36 "/>
   <path id="path1031" stroke-width="0.3" fill="#0032e5" clip-path="url(#clipPath2)" stroke="black" signature="MCCCC" d="M192.14 443.408 C192.923 443.408 193.557 442.773 193.557 441.991 C193.557 441.208 192.923 440.574 192.14 440.574 C191.357 440.574 190.723 441.208 190.723 441.991 C190.723 442.773 191.357 443.408 192.14 443.408 "/>
   <path id="path1033" stroke-width="0.3" fill="#0032e5" clip-path="url(#clipPath2)" stroke="black" signature="MCCCC" d="M182.188 468.832 C182.971 468.832 183.605 468.197 183.605 467.415 C183.605 466.632 182.971 465.998 182.188 465.998 C181.405 465.998 180.771 466.632 180.771 467.415 C180.771 468.197 181.405 468.832 182.188 468.832 "/>
   <path id="path1035" stroke-width="0.3" fill="#0032e5" clip-path="url(#clipPath2)" stroke="black" signature="MCCCC" d="M189.305 467.415 C190.088 467.415 190.722 466.78 190.722 465.998 C190.722 465.215 190.088 464.581 189.305 464.581 C188.522 464.581 187.888 465.215 187.888 465.998 C187.888 466.78 188.522 467.415 189.305 467.415 "/>
   <path id="path1037" stroke-width="0.3" fill="#0032e5" clip-path="url(#clipPath2)" stroke="black" signature="MCCCC" d="M209.117 426.029 C209.9 426.029 210.534 425.394 210.534 424.612 C210.534 423.829 209.9 423.195 209.117 423.195 C208.334 423.195 207.7 423.829 207.7 424.612 C207.7 425.394 208.334 426.029 209.117 426.029 "/>
   <path id="path1039" stroke-width="0.3" fill="#0032e5" clip-path="url(#clipPath2)" stroke="black" signature="MCCCC" d="M200.613 443.124 C201.396 443.124 202.03 442.489 202.03 441.707 C202.03 440.924 201.396 440.29 200.613 440.29 C199.83 440.29 199.196 440.924 199.196 441.707 C199.196 442.489 199.83 443.124 200.613 443.124 "/>
   <path id="path1041" stroke-width="0.3" fill="#0032e5" clip-path="url(#clipPath2)" stroke="black" signature="MCCCC" d="M201.605 441.052 C202.388 441.052 203.022 440.417 203.022 439.635 C203.022 438.852 202.388 438.218 201.605 438.218 C200.822 438.218 200.188 438.852 200.188 439.635 C200.188 440.417 200.822 441.052 201.605 441.052 "/>
   <path id="path1043" stroke-width="0.3" fill="#0032e5" clip-path="url(#clipPath2)" stroke="black" signature="MCCCC" d="M204.44 443.408 C205.223 443.408 205.857 442.773 205.857 441.991 C205.857 441.208 205.223 440.574 204.44 440.574 C203.657 440.574 203.023 441.208 203.023 441.991 C203.023 442.773 203.657 443.408 204.44 443.408 "/>
   <path id="path1045" stroke-width="0.3" fill="#0032e5" clip-path="url(#clipPath2)" stroke="black" signature="MCCCC" d="M206.849 449.698 C207.632 449.698 208.266 449.063 208.266 448.281 C208.266 447.498 207.632 446.864 206.849 446.864 C206.066 446.864 205.432 447.498 205.432 448.281 C205.432 449.063 206.066 449.698 206.849 449.698 "/>
   <path id="path1047" stroke-width="0.3" fill="#0032e5" clip-path="url(#clipPath2)" stroke="black" signature="MCCCC" d="M202.03 451.682 C202.813 451.682 203.447 451.047 203.447 450.265 C203.447 449.482 202.813 448.848 202.03 448.848 C201.247 448.848 200.613 449.482 200.613 450.265 C200.613 451.047 201.247 451.682 202.03 451.682 "/>
   <path id="path1049" stroke-width="0.3" fill="#0032e5" clip-path="url(#clipPath2)" stroke="black" signature="MCCCC" d="M201.038 461.658 C201.821 461.658 202.455 461.023 202.455 460.241 C202.455 459.458 201.821 458.824 201.038 458.824 C200.255 458.824 199.621 459.458 199.621 460.241 C199.621 461.023 200.255 461.658 201.038 461.658 "/>
   <path id="path1051" stroke-width="0.3" fill="#0032e5" clip-path="url(#clipPath2)" stroke="black" signature="MCCCC" d="M203.306 465.005 C204.089 465.005 204.723 464.37 204.723 463.588 C204.723 462.805 204.089 462.171 203.306 462.171 C202.523 462.171 201.889 462.805 201.889 463.588 C201.889 464.37 202.523 465.005 203.306 465.005 "/>
   <path id="path1053" stroke-width="0.3" fill="#0032e5" clip-path="url(#clipPath2)" stroke="black" signature="MCCCC" d="M206.849 464.493 C207.632 464.493 208.266 463.858 208.266 463.076 C208.266 462.293 207.632 461.659 206.849 461.659 C206.066 461.659 205.432 462.293 205.432 463.076 C205.432 463.858 206.066 464.493 206.849 464.493 "/>
   <path id="path1055" stroke-width="0.3" fill="#0032e5" clip-path="url(#clipPath2)" stroke="black" signature="MCCCC" d="M211.951 461.037 C212.734 461.037 213.368 460.402 213.368 459.62 C213.368 458.837 212.734 458.203 211.951 458.203 C211.168 458.203 210.534 458.837 210.534 459.62 C210.534 460.402 211.168 461.037 211.951 461.037 "/>
   <path id="path1057" stroke-width="0.3" fill="#0032e5" clip-path="url(#clipPath2)" stroke="black" signature="MCCCC" d="M212.66 462.454 C213.443 462.454 214.077 461.819 214.077 461.037 C214.077 460.254 213.443 459.62 212.66 459.62 C211.877 459.62 211.243 460.254 211.243 461.037 C211.243 461.819 211.877 462.454 212.66 462.454 "/>
   <path id="path1059" stroke-width="0.3" fill="#0032e5" clip-path="url(#clipPath2)" stroke="black" signature="MCCCC" d="M223.432 498.879 C224.215 498.879 224.849 498.244 224.849 497.462 C224.849 496.679 224.215 496.045 223.432 496.045 C222.649 496.045 222.015 496.679 222.015 497.462 C222.015 498.244 222.649 498.879 223.432 498.879 "/>
   <path id="path1061" stroke-width="0.3" fill="#0032e5" clip-path="url(#clipPath2)" stroke="black" signature="MCCCC" d="M210.818 503.856 C211.601 503.856 212.235 503.221 212.235 502.439 C212.235 501.656 211.601 501.022 210.818 501.022 C210.035 501.022 209.401 501.656 209.401 502.439 C209.401 503.221 210.035 503.856 210.818 503.856 "/>
   <text id="text871" font-weight="normal" font-family="Helvetica" svgx:hexCode="2013" svgx:charCode="8211" svgx:width="0.0" svgx:fontName="RFAWEV+HelveticaLTStd-Roman" clip-path="url(#clipPath1)" fill="#000000" stroke="none" x="88.911" y="518.149" font-size="7.797" xmlns:svgx="http://www.xml-cml.org/schema/svgx">–</text>
   <text id="text873" font-weight="normal" font-family="Helvetica" svgx:width="556.0" svgx:fontName="RFAWEV+HelveticaLTStd-Roman" clip-path="url(#clipPath1)" fill="#000000" stroke="none" x="92.947" y="518.149" font-size="7.797" xmlns:svgx="http://www.xml-cml.org/schema/svgx">2</text>
   <text id="text875" font-weight="normal" font-family="Helvetica" svgx:width="556.0" svgx:fontName="RFAWEV+HelveticaLTStd-Roman" clip-path="url(#clipPath1)" fill="#000000" stroke="none" x="96.983" y="518.149" font-size="7.797" xmlns:svgx="http://www.xml-cml.org/schema/svgx">0</text>
   <text id="text879" font-weight="normal" font-family="Helvetica" svgx:hexCode="2013" svgx:charCode="8211" svgx:width="0.0" svgx:fontName="RFAWEV+HelveticaLTStd-Roman" clip-path="url(#clipPath1)" fill="#000000" stroke="none" x="134.071" y="518.149" font-size="7.797" xmlns:svgx="http://www.xml-cml.org/schema/svgx">–</text>
   <text id="text881" font-weight="normal" font-family="Helvetica" svgx:width="556.0" svgx:fontName="RFAWEV+HelveticaLTStd-Roman" clip-path="url(#clipPath1)" fill="#000000" stroke="none" x="138.106" y="518.149" font-size="7.797" xmlns:svgx="http://www.xml-cml.org/schema/svgx">1</text>
   <text id="text883" font-weight="normal" font-family="Helvetica" svgx:width="556.0" svgx:fontName="RFAWEV+HelveticaLTStd-Roman" clip-path="url(#clipPath1)" fill="#000000" stroke="none" x="141.724" y="518.149" font-size="7.797" xmlns:svgx="http://www.xml-cml.org/schema/svgx">0</text>
   <text id="text887" font-weight="normal" font-family="Helvetica" svgx:width="556.0" svgx:fontName="RFAWEV+HelveticaLTStd-Roman" clip-path="url(#clipPath1)" fill="#000000" stroke="none" x="185.895" y="518.149" font-size="7.797" xmlns:svgx="http://www.xml-cml.org/schema/svgx">0</text>
   <text id="text891" font-weight="normal" font-family="Helvetica" svgx:width="556.0" svgx:fontName="RFAWEV+HelveticaLTStd-Roman" clip-path="url(#clipPath1)" fill="#000000" stroke="none" x="230.089" y="518.149" font-size="7.797" xmlns:svgx="http://www.xml-cml.org/schema/svgx">1</text>
   <text id="text893" font-weight="normal" font-family="Helvetica" svgx:width="556.0" svgx:fontName="RFAWEV+HelveticaLTStd-Roman" clip-path="url(#clipPath1)" fill="#000000" stroke="none" x="233.707" y="518.149" font-size="7.797" xmlns:svgx="http://www.xml-cml.org/schema/svgx">0</text>
   <text id="text897" font-weight="normal" font-family="Helvetica" svgx:width="556.0" svgx:fontName="RFAWEV+HelveticaLTStd-Roman" clip-path="url(#clipPath1)" fill="#000000" stroke="none" x="276.783" y="518.149" font-size="7.797" xmlns:svgx="http://www.xml-cml.org/schema/svgx">2</text>
   <text id="text899" font-weight="normal" font-family="Helvetica" svgx:width="556.0" svgx:fontName="RFAWEV+HelveticaLTStd-Roman" clip-path="url(#clipPath1)" fill="#000000" stroke="none" x="280.819" y="518.149" font-size="7.797" xmlns:svgx="http://www.xml-cml.org/schema/svgx">0</text>
   <text id="text901" font-weight="normal" font-family="Helvetica" font-size="7.797" y="531.818" x="147.75" svgx:width="667.0" svgx:fontName="RFAWEV+HelveticaLTStd-Roman" clip-path="url(#clipPath1)" fill="#000000" stroke="none" xmlns:svgx="http://www.xml-cml.org/schema/svgx">B</text>
   <text id="text903" font-weight="normal" font-family="Helvetica" font-size="7.797" y="531.818" x="152.63" svgx:width="556.0" svgx:fontName="RFAWEV+HelveticaLTStd-Roman" clip-path="url(#clipPath1)" fill="#000000" stroke="none" xmlns:svgx="http://www.xml-cml.org/schema/svgx">o</text>
   <text id="text905" font-weight="normal" font-family="Helvetica" font-size="7.797" y="531.818" x="156.665" svgx:width="556.0" svgx:fontName="RFAWEV+HelveticaLTStd-Roman" clip-path="url(#clipPath1)" fill="#000000" stroke="none" xmlns:svgx="http://www.xml-cml.org/schema/svgx">d</text>
   <text id="text907" font-weight="normal" font-family="Helvetica" font-size="7.797" y="531.818" x="160.701" svgx:width="500.0" svgx:fontName="RFAWEV+HelveticaLTStd-Roman" clip-path="url(#clipPath1)" fill="#000000" stroke="none" xmlns:svgx="http://www.xml-cml.org/schema/svgx">y</text>
   <text id="text911" font-weight="normal" font-family="Helvetica" font-size="7.797" y="531.818" x="166.234" svgx:width="833.0" svgx:fontName="RFAWEV+HelveticaLTStd-Roman" clip-path="url(#clipPath1)" fill="#000000" stroke="none" xmlns:svgx="http://www.xml-cml.org/schema/svgx">m</text>
   <text id="text913" font-weight="normal" font-family="Helvetica" font-size="7.797" y="531.818" x="172.374" svgx:width="556.0" svgx:fontName="RFAWEV+HelveticaLTStd-Roman" clip-path="url(#clipPath1)" fill="#000000" stroke="none" xmlns:svgx="http://www.xml-cml.org/schema/svgx">a</text>
   <text id="text915" font-weight="normal" font-family="Helvetica" font-size="7.797" y="531.818" x="176.41" svgx:width="500.0" svgx:fontName="RFAWEV+HelveticaLTStd-Roman" clip-path="url(#clipPath1)" fill="#000000" stroke="none" xmlns:svgx="http://www.xml-cml.org/schema/svgx">s</text>
   <text id="text917" font-weight="normal" font-family="Helvetica" font-size="7.797" y="531.818" x="180.02" svgx:width="500.0" svgx:fontName="RFAWEV+HelveticaLTStd-Roman" clip-path="url(#clipPath1)" fill="#000000" stroke="none" xmlns:svgx="http://www.xml-cml.org/schema/svgx">s</text>
   <text id="text921" font-weight="normal" font-family="Helvetica" font-size="7.797" y="531.818" x="185.553" svgx:width="222.0" svgx:fontName="RFAWEV+HelveticaLTStd-Roman" clip-path="url(#clipPath1)" fill="#000000" stroke="none" xmlns:svgx="http://www.xml-cml.org/schema/svgx">i</text>
   <text id="text923" font-weight="normal" font-family="Helvetica" font-size="7.797" y="531.818" x="187.05" svgx:width="556.0" svgx:fontName="RFAWEV+HelveticaLTStd-Roman" clip-path="url(#clipPath1)" fill="#000000" stroke="none" xmlns:svgx="http://www.xml-cml.org/schema/svgx">n</text>
   <text id="text925" font-weight="normal" font-family="Helvetica" font-size="7.797" y="531.818" x="191.085" svgx:width="556.0" svgx:fontName="RFAWEV+HelveticaLTStd-Roman" clip-path="url(#clipPath1)" fill="#000000" stroke="none" xmlns:svgx="http://www.xml-cml.org/schema/svgx">d</text>
   <text id="text927" font-weight="normal" font-family="Helvetica" font-size="7.797" y="531.818" x="195.121" svgx:width="556.0" svgx:fontName="RFAWEV+HelveticaLTStd-Roman" clip-path="url(#clipPath1)" fill="#000000" stroke="none" xmlns:svgx="http://www.xml-cml.org/schema/svgx">e</text>
   <text id="text929" font-weight="normal" font-family="Helvetica" font-size="7.797" y="531.818" x="198.929" svgx:width="500.0" svgx:fontName="RFAWEV+HelveticaLTStd-Roman" clip-path="url(#clipPath1)" fill="#000000" stroke="none" xmlns:svgx="http://www.xml-cml.org/schema/svgx">x</text>
   <text id="text933" font-weight="normal" font-family="Helvetica" font-size="7.797" y="531.818" x="204.462" svgx:width="333.0" svgx:fontName="RFAWEV+HelveticaLTStd-Roman" clip-path="url(#clipPath1)" fill="#000000" stroke="none" xmlns:svgx="http://www.xml-cml.org/schema/svgx">(</text>
   <text id="text935" font-weight="normal" font-family="Helvetica" font-size="7.797" y="531.818" x="206.802" svgx:width="500.0" svgx:fontName="RFAWEV+HelveticaLTStd-Roman" clip-path="url(#clipPath1)" fill="#000000" stroke="none" xmlns:svgx="http://www.xml-cml.org/schema/svgx">k</text>
   <text id="text937" font-weight="normal" font-family="Helvetica" font-size="7.797" y="531.818" x="210.26" svgx:width="556.0" svgx:fontName="RFAWEV+HelveticaLTStd-Roman" clip-path="url(#clipPath1)" fill="#000000" stroke="none" xmlns:svgx="http://www.xml-cml.org/schema/svgx">g</text>
   <text id="text939" font-weight="normal" font-family="Helvetica" font-size="7.797" y="531.818" x="214.296" svgx:width="278.0" svgx:fontName="RFAWEV+HelveticaLTStd-Roman" clip-path="url(#clipPath1)" fill="#000000" stroke="none" xmlns:svgx="http://www.xml-cml.org/schema/svgx">/</text>
   <text id="text941" font-weight="normal" font-family="Helvetica" font-size="7.797" y="531.818" x="216.219" svgx:width="833.0" svgx:fontName="RFAWEV+HelveticaLTStd-Roman" clip-path="url(#clipPath1)" fill="#000000" stroke="none" xmlns:svgx="http://www.xml-cml.org/schema/svgx">m</text>
   <text id="text943" font-weight="normal" font-family="Helvetica" font-size="4.664" y="528.718" x="222.359" svgx:width="556.0" svgx:fontName="RFAWEV+HelveticaLTStd-Roman" clip-path="url(#clipPath1)" fill="#000000" stroke="none" xmlns:svgx="http://www.xml-cml.org/schema/svgx">2</text>
   <text id="text945" font-weight="normal" font-family="Helvetica" font-size="7.797" y="531.818" x="224.836" svgx:width="333.0" svgx:fontName="RFAWEV+HelveticaLTStd-Roman" clip-path="url(#clipPath1)" fill="#000000" stroke="none" xmlns:svgx="http://www.xml-cml.org/schema/svgx">)</text>
   <text id="text947" font-weight="normal" font-family="Helvetica" svgx:width="667.0" svgx:fontName="RFAWEV+HelveticaLTStd-Roman" clip-path="url(#clipPath1)" fill="#000000" stroke="none" transform="matrix(0.0,-1.0,1.0,0.0,-401.65009,547.62549)" x="72.988" y="474.638" font-size="7.797" xmlns:svgx="http://www.xml-cml.org/schema/svgx">S</text>
   <text id="text949" font-weight="normal" font-family="Helvetica" svgx:width="667.0" svgx:fontName="RFAWEV+HelveticaLTStd-Roman" clip-path="url(#clipPath1)" fill="#000000" stroke="none" transform="matrix(0.0,-1.0,1.0,0.0,-396.77087,542.74628)" x="72.988" y="469.759" font-size="7.797" xmlns:svgx="http://www.xml-cml.org/schema/svgx">E</text>
   <text id="text953" font-weight="normal" font-family="Helvetica" svgx:width="556.0" svgx:fontName="RFAWEV+HelveticaLTStd-Roman" clip-path="url(#clipPath1)" fill="#000000" stroke="none" transform="matrix(0.0,-1.0,1.0,0.0,-389.96887,535.94427)" x="72.988" y="462.957" font-size="7.797" xmlns:svgx="http://www.xml-cml.org/schema/svgx">o</text>
   <text id="text955" font-weight="normal" font-family="Helvetica" svgx:width="278.0" svgx:fontName="RFAWEV+HelveticaLTStd-Roman" clip-path="url(#clipPath1)" fill="#000000" stroke="none" transform="matrix(0.0,-1.0,1.0,0.0,-385.93326,531.90866)" x="72.988" y="458.921" font-size="7.797" xmlns:svgx="http://www.xml-cml.org/schema/svgx">f</text>
   <text id="text959" font-weight="normal" font-family="Helvetica" svgx:width="556.0" svgx:fontName="RFAWEV+HelveticaLTStd-Roman" clip-path="url(#clipPath1)" fill="#000000" stroke="none" transform="matrix(0.0,-1.0,1.0,0.0,-382.08768,528.06308)" x="72.988" y="455.075" font-size="7.797" xmlns:svgx="http://www.xml-cml.org/schema/svgx">b</text>
   <text id="text961" font-weight="normal" font-family="Helvetica" svgx:width="556.0" svgx:fontName="RFAWEV+HelveticaLTStd-Roman" clip-path="url(#clipPath1)" fill="#000000" stroke="none" transform="matrix(0.0,-1.0,1.0,0.0,-378.05206,524.02747)" x="72.988" y="451.04" font-size="7.797" xmlns:svgx="http://www.xml-cml.org/schema/svgx">o</text>
   <text id="text963" font-weight="normal" font-family="Helvetica" svgx:width="556.0" svgx:fontName="RFAWEV+HelveticaLTStd-Roman" clip-path="url(#clipPath1)" fill="#000000" stroke="none" transform="matrix(0.0,-1.0,1.0,0.0,-374.01645,519.99185)" x="72.988" y="447.004" font-size="7.797" xmlns:svgx="http://www.xml-cml.org/schema/svgx">d</text>
   <text id="text965" font-weight="normal" font-family="Helvetica" svgx:width="500.0" svgx:fontName="RFAWEV+HelveticaLTStd-Roman" clip-path="url(#clipPath1)" fill="#000000" stroke="none" transform="matrix(0.0,-1.0,1.0,0.0,-369.98083,515.95624)" x="72.988" y="442.969" font-size="7.797" xmlns:svgx="http://www.xml-cml.org/schema/svgx">y</text>
   <text id="text969" font-weight="normal" font-family="Helvetica" svgx:width="833.0" svgx:fontName="RFAWEV+HelveticaLTStd-Roman" clip-path="url(#clipPath1)" fill="#000000" stroke="none" transform="matrix(0.0,-1.0,1.0,0.0,-364.44806,510.42346)" x="72.988" y="437.436" font-size="7.797" xmlns:svgx="http://www.xml-cml.org/schema/svgx">m</text>
   <text id="text971" font-weight="normal" font-family="Helvetica" svgx:width="556.0" svgx:fontName="RFAWEV+HelveticaLTStd-Roman" clip-path="url(#clipPath1)" fill="#000000" stroke="none" transform="matrix(0.0,-1.0,1.0,0.0,-358.30725,504.28265)" x="72.988" y="431.295" font-size="7.797" xmlns:svgx="http://www.xml-cml.org/schema/svgx">a</text>
   <text id="text973" font-weight="normal" font-family="Helvetica" svgx:width="500.0" svgx:fontName="RFAWEV+HelveticaLTStd-Roman" clip-path="url(#clipPath1)" fill="#000000" stroke="none" transform="matrix(0.0,-1.0,1.0,0.0,-354.27164,500.24704)" x="72.988" y="427.259" font-size="7.797" xmlns:svgx="http://www.xml-cml.org/schema/svgx">s</text>
   <text id="text975" font-weight="normal" font-family="Helvetica" svgx:width="500.0" svgx:fontName="RFAWEV+HelveticaLTStd-Roman" clip-path="url(#clipPath1)" fill="#000000" stroke="none" transform="matrix(0.0,-1.0,1.0,0.0,-350.66165,496.63705)" x="72.988" y="423.649" font-size="7.797" xmlns:svgx="http://www.xml-cml.org/schema/svgx">s</text>
   <text id="text979" font-weight="normal" font-family="Helvetica" svgx:width="222.0" svgx:fontName="RFAWEV+HelveticaLTStd-Roman" clip-path="url(#clipPath1)" fill="#000000" stroke="none" transform="matrix(0.0,-1.0,1.0,0.0,-345.12888,491.10428)" x="72.988" y="418.117" font-size="7.797" xmlns:svgx="http://www.xml-cml.org/schema/svgx">i</text>
   <text id="text981" font-weight="normal" font-family="Helvetica" svgx:width="556.0" svgx:fontName="RFAWEV+HelveticaLTStd-Roman" clip-path="url(#clipPath1)" fill="#000000" stroke="none" transform="matrix(0.0,-1.0,1.0,0.0,-343.63168,489.60709)" x="72.988" y="416.619" font-size="7.797" xmlns:svgx="http://www.xml-cml.org/schema/svgx">n</text>
   <text id="text983" font-weight="normal" font-family="Helvetica" svgx:width="556.0" svgx:fontName="RFAWEV+HelveticaLTStd-Roman" clip-path="url(#clipPath1)" fill="#000000" stroke="none" transform="matrix(0.0,-1.0,1.0,0.0,-339.59607,485.57147)" x="72.988" y="412.584" font-size="7.797" xmlns:svgx="http://www.xml-cml.org/schema/svgx">d</text>
   <text id="text985" font-weight="normal" font-family="Helvetica" svgx:width="556.0" svgx:fontName="RFAWEV+HelveticaLTStd-Roman" clip-path="url(#clipPath1)" fill="#000000" stroke="none" transform="matrix(0.0,-1.0,1.0,0.0,-335.56046,481.53586)" x="72.988" y="408.548" font-size="7.797" xmlns:svgx="http://www.xml-cml.org/schema/svgx">e</text>
   <text id="text987" font-weight="normal" font-family="Helvetica" svgx:width="500.0" svgx:fontName="RFAWEV+HelveticaLTStd-Roman" clip-path="url(#clipPath1)" fill="#000000" stroke="none" transform="matrix(0.0,-1.0,1.0,0.0,-331.75284,477.72824)" x="72.988" y="404.741" font-size="7.797" xmlns:svgx="http://www.xml-cml.org/schema/svgx">x</text>
   <text id="text989" font-weight="normal" font-family="Helvetica" svgx:width="556.0" svgx:fontName="RFAWEV+HelveticaLTStd-Roman" clip-path="url(#clipPath1)" fill="#000000" stroke="none" x="80.704" y="387.192" font-size="7.797" xmlns:svgx="http://www.xml-cml.org/schema/svgx">0</text>
   <text id="text991" font-weight="normal" font-family="Helvetica" svgx:width="556.0" svgx:fontName="RFAWEV+HelveticaLTStd-Roman" clip-path="url(#clipPath1)" fill="#000000" stroke="none" x="80.704" y="414.986" font-size="7.797" xmlns:svgx="http://www.xml-cml.org/schema/svgx">2</text>
   <text id="text993" font-weight="normal" font-family="Helvetica" svgx:width="556.0" svgx:fontName="RFAWEV+HelveticaLTStd-Roman" clip-path="url(#clipPath1)" fill="#000000" stroke="none" x="80.704" y="442.781" font-size="7.797" xmlns:svgx="http://www.xml-cml.org/schema/svgx">4</text>
   <text id="text995" font-weight="normal" font-family="Helvetica" svgx:width="556.0" svgx:fontName="RFAWEV+HelveticaLTStd-Roman" clip-path="url(#clipPath1)" fill="#000000" stroke="none" x="80.704" y="470.575" font-size="7.797" xmlns:svgx="http://www.xml-cml.org/schema/svgx">6</text>
   <text id="text997" font-weight="normal" font-family="Helvetica" svgx:width="556.0" svgx:fontName="RFAWEV+HelveticaLTStd-Roman" clip-path="url(#clipPath1)" fill="#000000" stroke="none" x="80.704" y="498.37" font-size="7.797" xmlns:svgx="http://www.xml-cml.org/schema/svgx">8</text>
  </g>
  <g fill="orange">
   <polyline fill="none" stroke="#000000" stroke-width="0.3" id="polyline.13" points="198.333 384.658 197.778 383.809 197.236 384.635"/>
   <circle fill="#0032e5" stroke="black" stroke-width="0.3" cx="189.305" cy="409.305" r="1.416" id="circle.16"/>
   <circle fill="#0032e5" stroke="black" stroke-width="0.3" cx="189.975" cy="418.943" r="1.416" id="circle.17"/>
   <circle fill="#0032e5" stroke="black" stroke-width="0.3" cx="192.14" cy="441.991" r="1.416" id="circle.18"/>
   <circle fill="#0032e5" stroke="black" stroke-width="0.3" cx="182.188" cy="467.415" r="1.416" id="circle.19"/>
   <circle fill="#0032e5" stroke="black" stroke-width="0.3" cx="189.305" cy="465.998" r="1.416" id="circle.20"/>
   <circle fill="#0032e5" stroke="black" stroke-width="0.3" cx="209.117" cy="424.612" r="1.416" id="circle.21"/>
   <circle fill="#0032e5" stroke="black" stroke-width="0.3" cx="200.613" cy="441.707" r="1.416" id="circle.22"/>
   <circle fill="#0032e5" stroke="black" stroke-width="0.3" cx="201.605" cy="439.635" r="1.416" id="circle.23"/>
   <circle fill="#0032e5" stroke="black" stroke-width="0.3" cx="204.44" cy="441.991" r="1.416" id="circle.24"/>
   <circle fill="#0032e5" stroke="black" stroke-width="0.3" cx="206.849" cy="448.281" r="1.416" id="circle.25"/>
   <circle fill="#0032e5" stroke="black" stroke-width="0.3" cx="202.03" cy="450.265" r="1.416" id="circle.26"/>
   <circle fill="#0032e5" stroke="black" stroke-width="0.3" cx="201.038" cy="460.241" r="1.416" id="circle.27"/>
   <circle fill="#0032e5" stroke="black" stroke-width="0.3" cx="203.306" cy="463.588" r="1.416" id="circle.28"/>
   <circle fill="#0032e5" stroke="black" stroke-width="0.3" cx="206.849" cy="463.076" r="1.416" id="circle.29"/>
   <circle fill="#0032e5" stroke="black" stroke-width="0.3" cx="211.951" cy="459.62" r="1.416" id="circle.30"/>
   <circle fill="#0032e5" stroke="black" stroke-width="0.3" cx="212.66" cy="461.037" r="1.416" id="circle.31"/>
   <circle fill="#0032e5" stroke="black" stroke-width="0.3" cx="223.432" cy="497.462" r="1.416" id="circle.32"/>
   <circle fill="#0032e5" stroke="black" stroke-width="0.3" cx="210.818" cy="502.439" r="1.416" id="circle.33"/>
  </g>
  <g class="pathAnnotation NYI"/>
  <g class="plotBox">
   <g class="axis">
    <g class="axisTickBox">
     <rect stroke="black" x="85.848" y="495.59" width="203.66999999999996" height="28.000000000000057" stroke-width="0.2" fill="yellow" opacity="0.3"/>
     <rect stroke="black" x="94.447" y="502.63" width="139.933" height="2.8349999999999795" stroke-width="0.2" fill="green" opacity="0.3"/>
    </g>
    <g class="axisTextBox">
     <rect stroke="black" x="85.848" y="495.59" width="203.66999999999996" height="28.000000000000057" stroke-width="0.2" fill="yellow" opacity="0.3"/>
     <rect stroke="black" x="88.911" y="510.352" width="196.60464000000002" height="7.7970000000000255" stroke-width="0.2" fill="green" opacity="0.3"/>
    </g>
   </g>
   <g class="axis">
    <g class="axisTickBox">
     <rect stroke="black" x="72.848" y="378.612" width="28.0" height="131.97799999999995" stroke-width="0.2" fill="yellow" opacity="0.3"/>
     <rect stroke="black" x="90.896" y="383.659" width="2.8349999999999937" height="111.685" stroke-width="0.2" fill="green" opacity="0.3"/>
    </g>
    <g class="axisTextBox">
     <rect stroke="black" x="72.848" y="378.612" width="28.0" height="131.97799999999995" stroke-width="0.2" fill="yellow" opacity="0.3"/>
     <rect stroke="black" x="65.19115999999997" y="328.09573" width="7.7970000000000255" height="76.64451000000003" stroke-width="0.2" fill="green" opacity="0.3"/>
    </g>
   </g>
   <g class="axis">
    <g class="axisTickBox">
     <rect stroke="black" x="85.848" y="365.612" width="203.66999999999996" height="28.0" stroke-width="0.2" fill="yellow" opacity="0.3"/>
    </g>
    <g class="axisTextBox">
     <rect stroke="black" x="85.848" y="365.612" width="203.66999999999996" height="28.0" stroke-width="0.2" fill="yellow" opacity="0.3"/>
    </g>
   </g>
   <g class="axis">
    <g class="axisTickBox">
     <rect stroke="black" x="274.518" y="378.612" width="28.0" height="131.97799999999995" stroke-width="0.2" fill="yellow" opacity="0.3"/>
    </g>
    <g class="axisTextBox">
     <rect stroke="black" x="274.518" y="378.612" width="28.0" height="131.97799999999995" stroke-width="0.2" fill="yellow" opacity="0.3"/>
    </g>
   </g>
  </g>
 </g>
</svg>
