<?xml version="1.0" encoding="UTF-8" standalone="no"?>
<svg
   xmlns:svgx="http://www.xml-cml.org/schema/svgx"
   xmlns:dc="http://purl.org/dc/elements/1.1/"
   xmlns:cc="http://creativecommons.org/ns#"
   xmlns:rdf="http://www.w3.org/1999/02/22-rdf-syntax-ns#"
   xmlns:svg="http://www.w3.org/2000/svg"
   xmlns="http://www.w3.org/2000/svg"
   id="svg7294"
   version="1.1"
   stroke-width="0.0"
   stroke="none"
   height="800.0"
   width="600.0">
  <metadata
     id="metadata7298">
    <rdf:RDF>
      <cc:Work
         rdf:about="">
        <dc:format>image/svg+xml</dc:format>
        <dc:type
           rdf:resource="http://purl.org/dc/dcmitype/StillImage" />
        <dc:title></dc:title>
      </cc:Work>
    </rdf:RDF>
  </metadata>
  <defs
     id="defs1">
    <clipPath
       id="clipPath1">
      <path
         id="path2"
         d="M0.0 0.0 L595.0 0.0 L595.0 790.0 L0.0 790.0 L0.0 0.0 Z"
         fill="none"
         stroke-width="0.5"
         stroke="black" />
    </clipPath>
    <clipPath
       id="clipPath5">
      <path
         id="path5"
         d="M57.193 704.213 L57.193 731.978 L164.316 731.978 L164.316 704.213 Z"
         fill="none"
         stroke-width="0.5"
         stroke="black" />
    </clipPath>
    <clipPath
       id="clipPath8">
      <path
         id="path8"
         d="M57.068 518.403 L57.068 707.735 L290.926 707.735 L290.926 518.403 Z"
         fill="none"
         stroke-width="0.5"
         stroke="black" />
    </clipPath>
    <clipPath
       id="clipPath16">
      <path
         id="path11"
         d="M57.068 94.091 L57.068 586.109 L290.926 586.109 L290.926 94.091 Z"
         fill="none"
         stroke-width="0.5"
         stroke="black" />
    </clipPath>
    <clipPath
       id="clipPath12">
      <path
         id="path14"
         d="M57.068 393.998 L57.068 637.253 L538.958 637.253 L538.958 393.998 Z"
         fill="none"
         stroke-width="0.5"
         stroke="black" />
    </clipPath>
    <clipPath
       id="clipPath14">
      <path
         id="path17"
         d="M57.068 94.091 L57.068 316.928 L538.958 316.928 L538.958 94.091 Z"
         fill="none"
         stroke-width="0.5"
         stroke="black" />
    </clipPath>
    <clipPath
       id="clipPath7">
      <path
         id="path20"
         d="M65.822 518.403 L65.822 707.735 L282.172 707.735 L282.172 518.403 Z"
         fill="none"
         stroke-width="0.5"
         stroke="black" />
    </clipPath>
    <clipPath
       id="clipPath17">
      <path
         id="path23"
         d="M66.281 94.091 L66.281 586.109 L281.715 586.109 L281.715 94.091 Z"
         fill="none"
         stroke-width="0.5"
         stroke="black" />
    </clipPath>
    <clipPath
       id="clipPath11">
      <path
         id="path26"
         d="M99.588 393.999 L99.588 637.253 L496.438 637.253 L496.438 393.999 Z"
         fill="none"
         stroke-width="0.5"
         stroke="black" />
    </clipPath>
    <clipPath
       id="clipPath4">
      <path
         id="path29"
         d="M57.193 704.213 L57.193 724.283 L164.059 724.283 L164.059 704.213 Z"
         fill="none"
         stroke-width="0.5"
         stroke="black" />
    </clipPath>
    <clipPath
       id="clipPath13">
      <path
         id="path32"
         d="M99.588 94.092 L99.588 316.928 L496.438 316.928 L496.438 94.092 Z"
         fill="none"
         stroke-width="0.5"
         stroke="black" />
    </clipPath>
    <clipPath
       id="clipPath3">
      <path
         id="path35"
         d="M448.875 34.142 L448.875 56.757 L538.466 56.757 L538.466 34.142 Z"
         fill="none"
         stroke-width="0.5"
         stroke="black" />
    </clipPath>
    <clipPath
       id="clipPath10">
      <path
         id="path38"
         d="M57.068 94.091 L57.068 350.986 L538.958 350.986 L538.958 94.091 Z"
         fill="none"
         stroke-width="0.5"
         stroke="black" />
    </clipPath>
    <clipPath
       id="clipPath9">
      <path
         id="path41"
         d="M99.588 94.091 L99.588 350.986 L496.438 350.986 L496.438 94.091 Z"
         fill="none"
         stroke-width="0.5"
         stroke="black" />
    </clipPath>
    <clipPath
       id="clipPath2">
      <path
         id="path44"
         d="M0.0 0.0 L0.0 790.0 L595.0 790.0 L595.0 0.0 Z"
         fill="none"
         stroke-width="0.5"
         stroke="black" />
    </clipPath>
    <clipPath
       id="clipPath6">
      <path
         id="path47"
         d="M486.52 108.228 L486.52 129.152 L539.028 129.152 L539.028 108.228 Z"
         fill="none"
         stroke-width="0.5"
         stroke="black" />
    </clipPath>
    <clipPath
       id="clipPath15">
      <path
         id="path50"
         d="M57.068 94.091 L57.068 717.713 L538.958 717.713 L538.958 94.091 Z"
         fill="none"
         stroke-width="0.5"
         stroke="black" />
    </clipPath>
  </defs>
  <path
     id="path6566"
     d="M272.18 99.151 C272.396 99.279 272.764 99.423 273.116 99.423 C273.623 99.423 273.862 99.174 273.862 98.847 C273.862 98.51 273.662 98.335 273.149 98.142 C272.446 97.886 272.116 97.508 272.116 97.045 C272.116 96.421 272.631 95.909 273.456 95.909 C273.846 95.909 274.191 96.012 274.397 96.149 L274.23 96.661 C274.079 96.565 273.798 96.429 273.438 96.429 C273.022 96.429 272.798 96.67 272.798 96.957 C272.798 97.277 273.022 97.422 273.526 97.622 C274.191 97.87 274.543 98.206 274.543 98.782 C274.543 99.47 274.007 99.951 273.102 99.951 C272.677 99.951 272.287 99.839 272.013 99.68 ZM270.477 95.06 L270.477 95.988 L271.487 95.988 L271.487 96.525 L270.477 96.525 L270.477 98.615 C270.477 99.094 270.613 99.367 271.007 99.367 C271.199 99.367 271.311 99.351 271.415 99.319 L271.448 99.855 C271.311 99.903 271.096 99.951 270.824 99.951 C270.495 99.951 270.23 99.839 270.061 99.655 C269.871 99.439 269.79 99.094 269.79 98.639 L269.79 96.525 L269.19 96.525 L269.19 95.988 L269.79 95.988 L269.79 95.268 ZM267.759 95.988 L268.464 95.988 L268.464 99.863 L267.759 99.863 ZM268.543 94.9 C268.543 95.141 268.374 95.332 268.094 95.332 C267.84 95.332 267.671 95.141 267.671 94.9 C267.671 94.66 267.847 94.46 268.112 94.46 C268.366 94.46 268.543 94.651 268.543 94.9 M261.089 97.038 C261.089 96.629 261.074 96.309 261.057 95.988 L261.675 95.988 L261.706 96.621 L261.73 96.621 C261.946 96.253 262.305 95.909 262.954 95.909 C263.474 95.909 263.874 96.228 264.045 96.685 L264.058 96.685 C264.18 96.462 264.339 96.301 264.501 96.18 C264.732 96.005 264.98 95.909 265.347 95.909 C265.868 95.909 266.628 96.245 266.628 97.59 L266.628 99.863 L265.94 99.863 L265.94 97.678 C265.94 96.925 265.66 96.485 265.1 96.485 C264.691 96.485 264.386 96.781 264.259 97.117 C264.229 97.222 264.202 97.341 264.202 97.47 L264.202 99.863 L263.514 99.863 L263.514 97.542 C263.514 96.925 263.243 96.485 262.706 96.485 C262.274 96.485 261.946 96.837 261.834 97.189 C261.793 97.286 261.777 97.413 261.777 97.534 L261.777 99.863 L261.089 99.863 ZM259.218 95.988 L259.921 95.988 L259.921 99.863 L259.218 99.863 ZM260.003 94.9 C260.003 95.141 259.834 95.332 259.552 95.332 C259.298 95.332 259.13 95.141 259.13 94.9 C259.13 94.66 259.307 94.46 259.569 94.46 C259.826 94.46 260.003 94.651 260.003 94.9 M257.331 94.18 L258.035 94.18 L258.035 99.864 L257.331 99.864 ZM254.087 97.549 C254.093 97.109 253.901 96.413 253.108 96.413 C252.388 96.413 252.085 97.062 252.027 97.549 ZM252.019 98.054 C252.037 99.007 252.636 99.399 253.349 99.399 C253.852 99.399 254.167 99.31 254.423 99.198 L254.551 99.703 C254.302 99.815 253.87 99.951 253.253 99.951 C252.06 99.951 251.349 99.159 251.349 97.991 C251.349 96.821 252.037 95.909 253.165 95.909 C254.438 95.909 254.766 97.013 254.766 97.726 C254.766 97.87 254.757 97.974 254.741 98.054 ZM250.807 99.727 C250.623 99.815 250.217 99.951 249.693 99.951 C248.526 99.951 247.764 99.159 247.764 97.974 C247.764 96.781 248.582 95.909 249.847 95.909 C250.263 95.909 250.632 96.012 250.823 96.117 L250.663 96.653 C250.495 96.565 250.23 96.469 249.847 96.469 C248.957 96.469 248.479 97.133 248.479 97.934 C248.479 98.831 249.053 99.383 249.823 99.383 C250.222 99.383 250.487 99.287 250.686 99.198 ZM243.605 97.038 C243.605 96.629 243.599 96.309 243.574 95.988 L244.199 95.988 L244.238 96.629 L244.254 96.629 C244.449 96.269 244.894 95.909 245.535 95.909 C246.073 95.909 246.905 96.228 246.905 97.558 L246.905 99.863 L246.201 99.863 L246.201 97.63 C246.201 97.005 245.969 96.485 245.303 96.485 C244.847 96.485 244.487 96.813 244.36 97.206 C244.327 97.294 244.311 97.413 244.311 97.534 L244.311 99.863 L243.605 99.863 ZM242.057 97.549 C242.065 97.109 241.873 96.413 241.082 96.413 C240.36 96.413 240.055 97.062 240.001 97.549 ZM239.991 98.054 C240.007 99.007 240.607 99.399 241.321 99.399 C241.826 99.399 242.138 99.31 242.393 99.198 L242.521 99.703 C242.274 99.815 241.842 99.951 241.224 99.951 C240.034 99.951 239.319 99.159 239.319 97.991 C239.319 96.821 240.007 95.909 241.136 95.909 C242.41 95.909 242.738 97.013 242.738 97.726 C242.738 97.87 242.73 97.974 242.715 98.054 ZM237.73 97.565 C237.73 97.478 237.722 97.358 237.699 97.27 C237.594 96.83 237.21 96.462 236.682 96.462 C235.956 96.462 235.521 97.102 235.521 97.95 C235.521 98.734 235.915 99.383 236.667 99.383 C237.138 99.383 237.571 99.063 237.699 98.542 C237.722 98.447 237.73 98.35 237.73 98.238 ZM238.428 94.18 L238.428 98.862 C238.428 99.207 238.443 99.599 238.459 99.863 L237.837 99.863 L237.803 99.191 L237.78 99.191 C237.571 99.624 237.107 99.951 236.474 99.951 C235.537 99.951 234.808 99.159 234.808 97.982 C234.801 96.694 235.61 95.909 236.545 95.909 C237.147 95.909 237.54 96.189 237.715 96.493 L237.73 96.493 L237.73 94.18 ZM230.979 99.863 L230.979 96.525 L230.443 96.525 L230.443 95.988 L230.979 95.988 L230.979 95.772 C230.979 94.756 231.579 94.091 232.668 94.091 C233.028 94.091 233.452 94.203 233.653 94.348 L233.452 94.884 C233.277 94.763 232.979 94.66 232.635 94.66 C231.891 94.66 231.676 95.18 231.676 95.797 L231.676 95.988 L233.926 95.988 L233.926 99.863 L233.219 99.863 L233.219 96.525 L231.676 96.525 L231.676 99.863 ZM226.468 97.038 C226.468 96.629 226.46 96.309 226.436 95.988 L227.061 95.988 L227.1 96.629 L227.116 96.629 C227.308 96.269 227.757 95.909 228.397 95.909 C228.934 95.909 229.766 96.228 229.766 97.558 L229.766 99.863 L229.061 99.863 L229.061 97.63 C229.061 97.005 228.83 96.485 228.166 96.485 C227.71 96.485 227.349 96.813 227.221 97.206 C227.189 97.294 227.173 97.413 227.173 97.534 L227.173 99.863 L226.468 99.863 ZM222.518 97.934 C222.518 98.782 222.999 99.423 223.686 99.423 C224.359 99.423 224.863 98.791 224.863 97.917 C224.863 97.262 224.536 96.438 223.703 96.438 C222.878 96.438 222.518 97.206 222.518 97.934 M225.585 97.894 C225.585 99.327 224.583 99.951 223.655 99.951 C222.614 99.951 221.798 99.183 221.798 97.958 C221.798 96.67 222.654 95.909 223.718 95.909 C224.831 95.909 225.585 96.717 225.585 97.894 M221.257 99.727 C221.073 99.815 220.665 99.951 220.144 99.951 C218.975 99.951 218.215 99.159 218.215 97.974 C218.215 96.781 219.031 95.909 220.296 95.909 C220.714 95.909 221.081 96.012 221.272 96.117 L221.112 96.653 C220.945 96.565 220.68 96.469 220.296 96.469 C219.407 96.469 218.927 97.133 218.927 97.934 C218.927 98.831 219.504 99.383 220.272 99.383 C220.673 99.383 220.936 99.287 221.136 99.198 ZM214.068 98.326 C214.052 98.991 214.308 99.495 214.748 99.495 C215.213 99.495 215.421 98.999 215.421 98.31 C215.421 97.678 215.236 97.149 214.74 97.149 C214.308 97.149 214.068 97.67 214.068 98.326 M215.973 98.278 C215.973 99.375 215.404 99.92 214.732 99.92 C214.076 99.92 213.524 99.399 213.516 98.35 C213.516 97.309 214.076 96.725 214.78 96.725 C215.501 96.725 215.973 97.286 215.973 98.278 M211.281 99.96 L214.347 94.564 L214.797 94.564 L211.73 99.96 ZM210.673 96.165 C210.656 96.83 210.914 97.334 211.354 97.334 C211.817 97.334 212.025 96.837 212.025 96.156 C212.025 95.516 211.842 94.995 211.345 94.995 C210.914 94.995 210.673 95.516 210.673 96.165 M212.578 96.117 C212.578 97.214 212.009 97.757 211.338 97.757 C210.68 97.757 210.128 97.238 210.12 96.197 C210.12 95.155 210.68 94.572 211.385 94.572 C212.106 94.572 212.578 95.132 212.578 96.117 M209.243 95.253 L207.257 95.253 L207.057 96.589 C207.178 96.573 207.29 96.565 207.482 96.565 C207.89 96.565 208.282 96.645 208.602 96.845 C209.011 97.069 209.348 97.525 209.348 98.174 C209.348 99.191 208.54 99.951 207.409 99.951 C206.842 99.951 206.37 99.792 206.112 99.631 L206.289 99.094 C206.506 99.223 206.929 99.383 207.409 99.383 C208.067 99.383 208.642 98.951 208.635 98.255 C208.635 97.582 208.179 97.109 207.146 97.109 C206.842 97.109 206.609 97.133 206.418 97.157 L206.753 94.66 L209.243 94.66 ZM202.699 96.38 C202.699 97.029 203.09 97.486 203.699 97.486 C204.172 97.486 204.539 97.253 204.724 96.942 C204.764 96.869 204.788 96.797 204.788 96.677 C204.788 95.788 204.46 95.108 203.715 95.108 C203.122 95.108 202.699 95.636 202.699 96.38 M202.442 99.367 C202.593 99.383 202.77 99.367 203.009 99.343 C203.418 99.287 203.802 99.127 204.099 98.839 C204.443 98.526 204.691 98.07 204.788 97.462 L204.764 97.462 C204.476 97.814 204.059 98.014 203.531 98.014 C202.602 98.014 202.002 97.309 202.002 96.421 C202.002 95.437 202.715 94.572 203.779 94.572 C204.844 94.572 205.502 95.428 205.502 96.773 C205.502 97.909 205.117 98.71 204.603 99.207 C204.203 99.599 203.651 99.839 203.09 99.903 C202.834 99.943 202.61 99.951 202.442 99.943 ZM196.611 97.934 C196.611 98.782 197.092 99.423 197.78 99.423 C198.452 99.423 198.957 98.791 198.957 97.917 C198.957 97.262 198.629 96.438 197.796 96.438 C196.971 96.438 196.611 97.206 196.611 97.934 M199.678 97.894 C199.678 99.327 198.676 99.951 197.749 99.951 C196.708 99.951 195.89 99.183 195.89 97.958 C195.89 96.67 196.747 95.909 197.811 95.909 C198.925 95.909 199.678 96.717 199.678 97.894 M194.301 97.565 C194.301 97.478 194.294 97.358 194.27 97.27 C194.165 96.83 193.782 96.462 193.252 96.462 C192.524 96.462 192.092 97.102 192.092 97.95 C192.092 98.734 192.484 99.383 193.236 99.383 C193.709 99.383 194.141 99.063 194.27 98.542 C194.294 98.447 194.301 98.35 194.301 98.238 ZM194.998 94.18 L194.998 98.862 C194.998 99.207 195.013 99.599 195.03 99.863 L194.406 99.863 L194.374 99.191 L194.349 99.191 C194.141 99.624 193.677 99.951 193.045 99.951 C192.107 99.951 191.38 99.159 191.38 97.982 C191.372 96.694 192.179 95.909 193.116 95.909 C193.718 95.909 194.11 96.189 194.286 96.493 L194.301 96.493 L194.301 94.18 ZM190.496 98.798 C190.496 99.207 190.504 99.559 190.527 99.863 L189.902 99.863 L189.863 99.231 L189.846 99.231 C189.67 99.544 189.254 99.951 188.566 99.951 C187.957 99.951 187.228 99.607 187.228 98.255 L187.228 95.988 L187.933 95.988 L187.933 98.127 C187.933 98.862 188.166 99.367 188.798 99.367 C189.269 99.367 189.597 99.038 189.726 98.718 C189.765 98.623 189.79 98.495 189.79 98.359 L189.79 95.988 L190.496 95.988 ZM185.704 97.549 C185.711 97.109 185.519 96.413 184.725 96.413 C184.005 96.413 183.701 97.062 183.645 97.549 ZM183.636 98.054 C183.653 99.007 184.253 99.399 184.967 99.399 C185.47 99.399 185.782 99.31 186.04 99.198 L186.167 99.703 C185.919 99.815 185.486 99.951 184.87 99.951 C183.676 99.951 182.965 99.159 182.965 97.991 C182.965 96.821 183.653 95.909 184.781 95.909 C186.055 95.909 186.384 97.013 186.384 97.726 C186.384 97.87 186.375 97.974 186.36 98.054 ZM179.982 99.151 C180.198 99.279 180.566 99.423 180.918 99.423 C181.422 99.423 181.663 99.174 181.663 98.847 C181.663 98.51 181.463 98.335 180.951 98.142 C180.246 97.886 179.917 97.508 179.917 97.045 C179.917 96.421 180.429 95.909 181.255 95.909 C181.647 95.909 181.991 96.012 182.198 96.149 L182.031 96.661 C181.879 96.565 181.599 96.429 181.238 96.429 C180.822 96.429 180.598 96.67 180.598 96.957 C180.598 97.277 180.822 97.422 181.327 97.622 C181.991 97.87 182.343 98.206 182.343 98.782 C182.343 99.47 181.806 99.951 180.902 99.951 C180.478 99.951 180.086 99.839 179.814 99.68 ZM176.223 98.285 C176.223 98.391 176.231 98.486 176.256 98.574 C176.384 99.063 176.807 99.399 177.312 99.399 C178.057 99.399 178.49 98.791 178.49 97.901 C178.49 97.133 178.081 96.469 177.338 96.469 C176.855 96.469 176.399 96.805 176.272 97.334 C176.248 97.422 176.223 97.525 176.223 97.614 ZM175.527 97.253 C175.527 96.757 175.51 96.356 175.495 95.988 L176.12 95.988 L176.16 96.653 L176.176 96.653 C176.456 96.18 176.921 95.909 177.553 95.909 C178.497 95.909 179.202 96.702 179.202 97.87 C179.202 99.262 178.346 99.951 177.432 99.951 C176.921 99.951 176.471 99.727 176.239 99.343 L176.223 99.343 L176.223 101.448 L175.527 101.448 ZM169.394 94.18 L170.098 94.18 L170.098 96.606 L170.113 96.606 C170.226 96.405 170.403 96.22 170.618 96.101 C170.826 95.981 171.074 95.909 171.339 95.909 C171.86 95.909 172.692 96.228 172.692 97.558 L172.692 99.863 L171.987 99.863 L171.987 97.637 C171.987 97.013 171.756 96.493 171.091 96.493 C170.634 96.493 170.281 96.813 170.146 97.189 C170.106 97.294 170.098 97.398 170.098 97.525 L170.098 99.863 L169.394 99.863 ZM167.595 95.06 L167.595 95.988 L168.603 95.988 L168.603 96.525 L167.595 96.525 L167.595 98.615 C167.595 99.094 167.731 99.367 168.124 99.367 C168.315 99.367 168.426 99.351 168.532 99.319 L168.563 99.855 C168.426 99.903 168.211 99.951 167.939 99.951 C167.612 99.951 167.347 99.839 167.179 99.655 C166.987 99.439 166.906 99.094 166.906 98.639 L166.906 96.525 L166.305 96.525 L166.305 95.988 L166.906 95.988 L166.906 95.268 ZM164.875 95.988 L165.58 95.988 L165.58 99.863 L164.875 99.863 ZM165.659 94.9 C165.659 95.141 165.491 95.332 165.211 95.332 C164.955 95.332 164.787 95.141 164.787 94.9 C164.787 94.66 164.964 94.46 165.227 94.46 C165.483 94.46 165.659 94.651 165.659 94.9 M159.269 95.988 L159.79 97.958 C159.894 98.391 159.998 98.791 160.07 99.191 L160.093 99.191 C160.182 98.798 160.31 98.383 160.438 97.965 L161.071 95.988 L161.663 95.988 L162.262 97.926 C162.407 98.391 162.52 98.798 162.607 99.191 L162.632 99.191 C162.696 98.798 162.8 98.391 162.928 97.934 L163.481 95.988 L164.176 95.988 L162.928 99.863 L162.287 99.863 L161.696 98.014 C161.559 97.582 161.447 97.198 161.351 96.741 L161.335 96.741 C161.237 97.206 161.118 97.606 160.981 98.022 L160.358 99.863 L159.718 99.863 L158.549 95.988 ZM155.495 95.06 L155.495 95.988 L156.503 95.988 L156.503 96.525 L155.495 96.525 L155.495 98.615 C155.495 99.094 155.631 99.367 156.023 99.367 C156.215 99.367 156.328 99.351 156.431 99.319 L156.464 99.855 C156.328 99.903 156.111 99.951 155.839 99.951 C155.511 99.951 155.246 99.839 155.078 99.655 C154.886 99.439 154.807 99.094 154.807 98.639 L154.807 96.525 L154.206 96.525 L154.206 95.988 L154.807 95.988 L154.807 95.268 ZM150.696 97.934 C150.696 98.782 151.176 99.423 151.865 99.423 C152.538 99.423 153.042 98.791 153.042 97.917 C153.042 97.262 152.714 96.438 151.882 96.438 C151.056 96.438 150.696 97.206 150.696 97.934 M153.762 97.894 C153.762 99.327 152.761 99.951 151.833 99.951 C150.792 99.951 149.975 99.183 149.975 97.958 C149.975 96.67 150.832 95.909 151.896 95.909 C153.009 95.909 153.762 96.717 153.762 97.894 M148.369 94.18 L149.073 94.18 L149.073 99.864 L148.369 99.864 ZM144.514 98.285 C144.514 98.391 144.522 98.486 144.547 98.574 C144.675 99.063 145.099 99.399 145.603 99.399 C146.348 99.399 146.779 98.791 146.779 97.901 C146.779 97.133 146.372 96.469 145.627 96.469 C145.147 96.469 144.691 96.805 144.563 97.334 C144.538 97.422 144.514 97.525 144.514 97.614 ZM143.819 97.253 C143.819 96.757 143.802 96.356 143.786 95.988 L144.41 95.988 L144.45 96.653 L144.466 96.653 C144.746 96.18 145.211 95.909 145.843 95.909 C146.788 95.909 147.493 96.702 147.493 97.87 C147.493 99.262 146.636 99.951 145.723 99.951 C145.211 99.951 144.762 99.727 144.53 99.343 L144.514 99.343 L144.514 101.448 L143.819 101.448 ZM140.235 94.18 L140.94 94.18 L140.94 99.864 L140.235 99.864 ZM138.686 97.549 C138.694 97.109 138.502 96.413 137.71 96.413 C136.989 96.413 136.684 97.062 136.628 97.549 ZM136.62 98.054 C136.636 99.007 137.236 99.399 137.95 99.399 C138.454 99.399 138.766 99.31 139.022 99.198 L139.15 99.703 C138.902 99.815 138.47 99.951 137.853 99.951 C136.66 99.951 135.948 99.159 135.948 97.991 C135.948 96.821 136.636 95.909 137.766 95.909 C139.038 95.909 139.366 97.013 139.366 97.726 C139.366 97.87 139.358 97.974 139.343 98.054 ZM131.79 97.038 C131.79 96.629 131.782 96.309 131.758 95.988 L132.383 95.988 L132.422 96.629 L132.438 96.629 C132.631 96.269 133.078 95.909 133.719 95.909 C134.256 95.909 135.088 96.228 135.088 97.558 L135.088 99.863 L134.383 99.863 L134.383 97.63 C134.383 97.005 134.152 96.485 133.487 96.485 C133.03 96.485 132.671 96.813 132.542 97.206 C132.509 97.294 132.495 97.413 132.495 97.534 L132.495 99.863 L131.79 99.863 ZM127.352 97.038 C127.352 96.629 127.343 96.309 127.319 95.988 L127.944 95.988 L127.984 96.629 L128.0 96.629 C128.192 96.269 128.639 95.909 129.28 95.909 C129.817 95.909 130.649 96.228 130.649 97.558 L130.649 99.863 L129.946 99.863 L129.946 97.63 C129.946 97.005 129.714 96.485 129.049 96.485 C128.592 96.485 128.231 96.813 128.104 97.206 C128.071 97.294 128.055 97.413 128.055 97.534 L128.055 99.863 L127.352 99.863 ZM126.187 98.798 C126.187 99.207 126.195 99.559 126.219 99.863 L125.595 99.863 L125.555 99.231 L125.538 99.231 C125.364 99.544 124.946 99.951 124.257 99.951 C123.649 99.951 122.921 99.607 122.921 98.255 L122.921 95.988 L123.624 95.988 L123.624 98.127 C123.624 98.862 123.857 99.367 124.489 99.367 C124.963 99.367 125.29 99.038 125.418 98.718 C125.459 98.623 125.483 98.495 125.483 98.359 L125.483 95.988 L126.187 95.988 ZM120.681 99.863 L120.681 96.525 L120.145 96.525 L120.145 95.988 L120.681 95.988 L120.681 95.805 C120.681 95.26 120.809 94.763 121.13 94.452 C121.395 94.194 121.746 94.091 122.075 94.091 C122.331 94.091 122.539 94.148 122.675 94.203 L122.579 94.749 C122.474 94.699 122.339 94.66 122.131 94.66 C121.531 94.66 121.378 95.18 121.378 95.78 L121.378 95.988 L122.315 95.988 L122.315 96.525 L121.378 96.525 L121.378 99.863 ZM115.65 99.151 C115.867 99.279 116.235 99.423 116.588 99.423 C117.092 99.423 117.332 99.174 117.332 98.847 C117.332 98.51 117.132 98.335 116.62 98.142 C115.915 97.886 115.587 97.508 115.587 97.045 C115.587 96.421 116.099 95.909 116.924 95.909 C117.316 95.909 117.66 96.012 117.868 96.149 L117.7 96.661 C117.549 96.565 117.268 96.429 116.908 96.429 C116.491 96.429 116.267 96.67 116.267 96.957 C116.267 97.277 116.491 97.422 116.996 97.622 C117.66 97.87 118.012 98.206 118.012 98.782 C118.012 99.47 117.476 99.951 116.572 99.951 C116.147 99.951 115.756 99.839 115.483 99.68 ZM114.973 94.323 C114.788 94.995 114.443 95.86 114.227 96.228 L113.779 96.277 C113.948 95.805 114.163 94.98 114.252 94.403 ZM112.23 97.517 C112.23 97.398 112.223 97.294 112.191 97.206 C112.063 96.789 111.726 96.453 111.206 96.453 C110.534 96.453 110.053 97.021 110.053 97.917 C110.053 98.678 110.445 99.31 111.198 99.31 C111.638 99.31 112.031 99.038 112.174 98.59 C112.215 98.47 112.23 98.335 112.23 98.214 ZM112.935 99.295 C112.935 100.192 112.751 100.727 112.382 101.072 C111.998 101.417 111.455 101.537 110.966 101.537 C110.502 101.537 109.989 101.424 109.677 101.216 L109.852 100.672 C110.11 100.839 110.51 100.984 110.99 100.984 C111.711 100.984 112.239 100.608 112.239 99.624 L112.239 99.198 L112.223 99.198 C112.014 99.559 111.59 99.847 110.99 99.847 C110.029 99.847 109.341 99.031 109.341 97.958 C109.341 96.645 110.197 95.909 111.094 95.909 C111.766 95.909 112.127 96.253 112.303 96.573 L112.319 96.573 L112.343 95.988 L112.968 95.988 C112.944 96.261 112.935 96.581 112.935 97.045 ZM107.761 97.517 C107.761 97.398 107.753 97.294 107.72 97.206 C107.592 96.789 107.256 96.453 106.736 96.453 C106.063 96.453 105.583 97.021 105.583 97.917 C105.583 98.678 105.975 99.31 106.728 99.31 C107.168 99.31 107.56 99.038 107.704 98.59 C107.745 98.47 107.761 98.335 107.761 98.214 ZM108.465 99.295 C108.465 100.192 108.28 100.727 107.912 101.072 C107.528 101.417 106.985 101.537 106.495 101.537 C106.031 101.537 105.519 101.424 105.206 101.216 L105.383 100.672 C105.638 100.839 106.038 100.984 106.519 100.984 C107.24 100.984 107.768 100.608 107.768 99.624 L107.768 99.198 L107.753 99.198 C107.544 99.559 107.12 99.847 106.519 99.847 C105.559 99.847 104.87 99.031 104.87 97.958 C104.87 96.645 105.727 95.909 106.623 95.909 C107.296 95.909 107.656 96.253 107.832 96.573 L107.848 96.573 L107.873 95.988 L108.497 95.988 C108.473 96.261 108.465 96.581 108.465 97.045 ZM103.601 97.549 C103.609 97.109 103.417 96.413 102.624 96.413 C101.904 96.413 101.6 97.062 101.545 97.549 ZM101.536 98.054 C101.552 99.007 102.153 99.399 102.864 99.399 C103.369 99.399 103.681 99.31 103.938 99.198 L104.066 99.703 C103.817 99.815 103.385 99.951 102.769 99.951 C101.576 99.951 100.864 99.159 100.864 97.991 C100.864 96.821 101.552 95.909 102.68 95.909 C103.954 95.909 104.282 97.013 104.282 97.726 C104.282 97.87 104.274 97.974 104.257 98.054 ZM97.53 99.335 C97.674 99.359 97.865 99.367 98.113 99.367 C98.835 99.367 99.499 99.102 99.499 98.318 C99.499 97.59 98.866 97.277 98.106 97.277 L97.53 97.277 ZM97.53 96.757 L98.162 96.757 C98.89 96.757 99.323 96.364 99.323 95.844 C99.323 95.219 98.85 94.964 98.146 94.964 C97.826 94.964 97.641 94.987 97.53 95.012 ZM96.833 94.548 C97.137 94.476 97.625 94.427 98.106 94.427 C98.802 94.427 99.25 94.548 99.578 94.819 C99.86 95.028 100.034 95.348 100.034 95.772 C100.034 96.301 99.683 96.757 99.122 96.957 L99.122 96.981 C99.635 97.102 100.235 97.525 100.235 98.326 C100.235 98.791 100.051 99.151 99.77 99.408 C99.403 99.752 98.794 99.912 97.914 99.912 C97.434 99.912 97.064 99.879 96.833 99.847 Z"
     stroke-width="0.0"
     fill="#000000"
     clip-path="url(#clipPath16)"
     stroke="black" />
  <text
     id="text6568"
     font-weight="normal"
     font-family="Helvetica"
     font-size="8.801"
     y="169.316"
     x="73.84"
     transform="matrix(0.0,-1.0,1.0,0.0,-95.47537,243.15598)"
     svgx:width="222.0"
     svgx:fontName="DpnrtlHelvetica"
     clip-path="url(#clipPath1)"
     fill="#000000"
     stroke="none">l</text>
  <text
     id="text6570"
     font-weight="normal"
     font-family="Helvetica"
     font-size="8.801"
     y="167.362"
     x="73.84"
     transform="matrix(0.0,-1.0,1.0,0.0,-93.52151,241.20212)"
     svgx:width="556.0"
     svgx:fontName="DpnrtlHelvetica"
     clip-path="url(#clipPath1)"
     fill="#000000"
     stroke="none">o</text>
  <text
     id="text6572"
     font-weight="normal"
     font-family="Helvetica"
     font-size="8.801"
     y="162.468"
     x="73.84"
     transform="matrix(0.0,-1.0,1.0,0.0,-88.62808,236.30869)"
     svgx:width="556.0"
     svgx:fontName="DpnrtlHelvetica"
     clip-path="url(#clipPath1)"
     fill="#000000"
     stroke="none">g</text>
  <text
     id="text6574"
     font-weight="normal"
     font-family="Helvetica"
     font-size="8.801"
     y="157.575"
     x="73.84"
     transform="matrix(0.0,-1.0,1.0,0.0,-83.73465,231.41525)"
     svgx:width="278.0"
     svgx:fontName="DpnrtlHelvetica"
     clip-path="url(#clipPath1)"
     fill="#000000"
     stroke="none">[</text>
  <text
     id="text6576"
     font-weight="normal"
     font-family="Helvetica"
     font-size="8.801"
     y="155.128"
     x="73.84"
     transform="matrix(0.0,-1.0,1.0,0.0,-81.28793,228.96854)"
     svgx:width="556.0"
     svgx:fontName="DpnrtlHelvetica"
     clip-path="url(#clipPath1)"
     fill="#000000"
     stroke="none">h</text>
  <text
     id="text6578"
     font-weight="normal"
     font-family="Helvetica"
     font-size="8.801"
     y="150.235"
     x="73.84"
     transform="matrix(0.0,-1.0,1.0,0.0,-76.3945,224.0751)"
     svgx:width="333.0"
     svgx:fontName="DpnrtlHelvetica"
     clip-path="url(#clipPath1)"
     fill="#000000"
     stroke="none">r</text>
  <text
     id="text6580"
     font-weight="normal"
     font-family="Helvetica"
     font-size="8.801"
     y="147.304"
     x="73.84"
     transform="matrix(0.0,-1.0,1.0,0.0,-73.46371,221.14432)"
     svgx:width="278.0"
     svgx:fontName="DpnrtlHelvetica"
     clip-path="url(#clipPath1)"
     fill="#000000"
     stroke="none">]</text>
  <text
     id="text6582"
     font-weight="normal"
     font-family="Helvetica"
     font-size="8.801"
     y="243.446"
     x="159.024"
     svgx:width="500.0"
     svgx:fontName="DpnrtlHelvetica"
     clip-path="url(#clipPath1)"
     fill="#000000"
     stroke="none">s</text>
  <text
     id="text6584"
     font-weight="normal"
     font-family="Helvetica"
     font-size="8.801"
     y="243.446"
     x="163.425"
     svgx:width="278.0"
     svgx:fontName="DpnrtlHelvetica"
     clip-path="url(#clipPath1)"
     fill="#000000"
     stroke="none">.</text>
  <text
     id="text6586"
     font-weight="normal"
     font-family="Helvetica"
     font-size="8.801"
     y="243.446"
     x="165.872"
     svgx:width="556.0"
     svgx:fontName="DpnrtlHelvetica"
     clip-path="url(#clipPath1)"
     fill="#000000"
     stroke="none">e</text>
  <text
     id="text6588"
     font-weight="normal"
     font-family="Helvetica"
     font-size="8.801"
     y="243.446"
     x="170.765"
     svgx:width="278.0"
     svgx:fontName="DpnrtlHelvetica"
     clip-path="url(#clipPath1)"
     fill="#000000"
     stroke="none">.</text>
  <text
     id="text6592"
     font-weight="normal"
     font-family="Helvetica"
     font-size="8.801"
     y="243.446"
     x="175.658"
     svgx:width="556.0"
     svgx:fontName="DpnrtlHelvetica"
     clip-path="url(#clipPath1)"
     fill="#000000"
     stroke="none">o</text>
  <text
     id="text6594"
     font-weight="normal"
     font-family="Helvetica"
     font-size="8.801"
     y="243.446"
     x="180.552"
     svgx:width="278.0"
     svgx:fontName="DpnrtlHelvetica"
     clip-path="url(#clipPath1)"
     fill="#000000"
     stroke="none">f</text>
  <text
     id="text6596"
     font-weight="normal"
     font-family="Helvetica"
     font-size="8.801"
     y="243.446"
     x="182.998"
     svgx:width="278.0"
     svgx:fontName="DpnrtlHelvetica"
     clip-path="url(#clipPath1)"
     fill="#000000"
     stroke="none">:</text>
  <text
     id="text6600"
     font-weight="normal"
     font-family="Helvetica"
     font-size="8.801"
     y="243.446"
     x="187.892"
     svgx:width="222.0"
     svgx:fontName="DpnrtlHelvetica"
     clip-path="url(#clipPath1)"
     fill="#000000"
     stroke="none">l</text>
  <text
     id="text6602"
     font-weight="normal"
     font-family="Helvetica"
     font-size="8.801"
     y="243.446"
     x="189.846"
     svgx:width="556.0"
     svgx:fontName="DpnrtlHelvetica"
     clip-path="url(#clipPath1)"
     fill="#000000"
     stroke="none">o</text>
  <text
     id="text6604"
     font-weight="normal"
     font-family="Helvetica"
     font-size="8.801"
     y="243.446"
     x="194.739"
     svgx:width="556.0"
     svgx:fontName="DpnrtlHelvetica"
     clip-path="url(#clipPath1)"
     fill="#000000"
     stroke="none">g</text>
  <text
     id="text6606"
     font-weight="normal"
     font-family="Helvetica"
     font-size="8.801"
     y="243.446"
     x="199.633"
     svgx:width="278.0"
     svgx:fontName="DpnrtlHelvetica"
     clip-path="url(#clipPath1)"
     fill="#000000"
     stroke="none">[</text>
  <text
     id="text6608"
     font-weight="normal"
     font-family="Helvetica"
     font-size="8.801"
     y="243.446"
     x="202.079"
     svgx:width="556.0"
     svgx:fontName="DpnrtlHelvetica"
     clip-path="url(#clipPath1)"
     fill="#000000"
     stroke="none">h</text>
  <text
     id="text6610"
     font-weight="normal"
     font-family="Helvetica"
     font-size="8.801"
     y="243.446"
     x="206.973"
     svgx:width="333.0"
     svgx:fontName="DpnrtlHelvetica"
     clip-path="url(#clipPath1)"
     fill="#000000"
     stroke="none">r</text>
  <text
     id="text6612"
     font-weight="normal"
     font-family="Helvetica"
     font-size="8.801"
     y="243.446"
     x="209.903"
     svgx:width="278.0"
     svgx:fontName="DpnrtlHelvetica"
     clip-path="url(#clipPath1)"
     fill="#000000"
     stroke="none">]</text>
  <text
     id="text6614"
     font-weight="normal"
     font-family="Helvetica"
     font-size="6.83"
     y="231.449"
     x="91.34"
     svgx:width="556.0"
     svgx:fontName="DpnrtlHelvetica"
     clip-path="url(#clipPath1)"
     fill="#000000"
     stroke="none">0</text>
  <path
     id="path6616"
     d="M93.425 223.872 L93.425 221.222 "
     stroke-width="0.93699997"
     stroke="#000000"
     clip-path="url(#clipPath16)"
     fill="none" />
  <text
     id="text6618"
     font-weight="normal"
     font-family="Helvetica"
     font-size="6.83"
     y="231.449"
     x="136.361"
     svgx:width="278.0"
     svgx:fontName="DpnrtlHelvetica"
     clip-path="url(#clipPath1)"
     fill="#000000"
     stroke="none">.</text>
  <text
     id="text6620"
     font-weight="normal"
     font-family="Helvetica"
     font-size="6.83"
     y="231.449"
     x="138.26"
     svgx:width="556.0"
     svgx:fontName="DpnrtlHelvetica"
     clip-path="url(#clipPath1)"
     fill="#000000"
     stroke="none">2</text>
  <path
     id="path6622"
     d="M139.212 223.872 L139.212 221.222 "
     stroke-width="0.93699997"
     stroke="#000000"
     clip-path="url(#clipPath16)"
     fill="none" />
  <text
     id="text6624"
     font-weight="normal"
     font-family="Helvetica"
     font-size="6.83"
     y="231.449"
     x="182.144"
     svgx:width="278.0"
     svgx:fontName="DpnrtlHelvetica"
     clip-path="url(#clipPath1)"
     fill="#000000"
     stroke="none">.</text>
  <text
     id="text6626"
     font-weight="normal"
     font-family="Helvetica"
     font-size="6.83"
     y="231.449"
     x="184.043"
     svgx:width="556.0"
     svgx:fontName="DpnrtlHelvetica"
     clip-path="url(#clipPath1)"
     fill="#000000"
     stroke="none">4</text>
  <path
     id="path6628"
     d="M184.999 223.872 L184.999 221.222 "
     stroke-width="0.93699997"
     stroke="#000000"
     clip-path="url(#clipPath16)"
     fill="none" />
  <text
     id="text6630"
     font-weight="normal"
     font-family="Helvetica"
     font-size="6.83"
     y="231.449"
     x="227.92"
     svgx:width="278.0"
     svgx:fontName="DpnrtlHelvetica"
     clip-path="url(#clipPath1)"
     fill="#000000"
     stroke="none">.</text>
  <text
     id="text6632"
     font-weight="normal"
     font-family="Helvetica"
     font-size="6.83"
     y="231.449"
     x="229.819"
     svgx:width="556.0"
     svgx:fontName="DpnrtlHelvetica"
     clip-path="url(#clipPath1)"
     fill="#000000"
     stroke="none">6</text>
  <path
     id="path6634"
     d="M230.78 223.872 L230.78 221.222 "
     stroke-width="0.93699997"
     stroke="#000000"
     clip-path="url(#clipPath16)"
     fill="none" />
  <text
     id="text6636"
     font-weight="normal"
     font-family="Helvetica"
     font-size="6.83"
     y="231.449"
     x="273.713"
     svgx:width="278.0"
     svgx:fontName="DpnrtlHelvetica"
     clip-path="url(#clipPath1)"
     fill="#000000"
     stroke="none">.</text>
  <text
     id="text6638"
     font-weight="normal"
     font-family="Helvetica"
     font-size="6.83"
     y="231.449"
     x="275.612"
     svgx:width="556.0"
     svgx:fontName="DpnrtlHelvetica"
     clip-path="url(#clipPath1)"
     fill="#000000"
     stroke="none">8</text>
  <path
     id="path6640"
     d="M276.573 223.872 L276.573 221.222 "
     stroke-width="0.93699997"
     stroke="#000000"
     clip-path="url(#clipPath16)"
     fill="none" />
  <text
     id="text6642"
     font-weight="normal"
     font-family="Helvetica"
     font-size="6.83"
     y="219.194"
     x="77.503"
     svgx:hexCode="2212"
     svgx:charCode="8722"
     svgx:width="0.0"
     svgx:fontName="DpnrtlHelvetica"
     clip-path="url(#clipPath1)"
     fill="#000000"
     stroke="none">−</text>
  <text
     id="text6644"
     font-weight="normal"
     font-family="Helvetica"
     font-size="6.83"
     y="219.194"
     x="81.492"
     svgx:width="556.0"
     svgx:fontName="DpnrtlHelvetica"
     clip-path="url(#clipPath1)"
     fill="#000000"
     stroke="none">1</text>
  <path
     id="path6646"
     d="M89.055 217.138 L86.219 217.138 "
     stroke-width="0.93699997"
     stroke="#000000"
     clip-path="url(#clipPath16)"
     fill="none" />
  <text
     id="text6648"
     font-weight="normal"
     font-family="Helvetica"
     font-size="6.83"
     y="184.008"
     x="81.018"
     svgx:width="556.0"
     svgx:fontName="DpnrtlHelvetica"
     clip-path="url(#clipPath1)"
     fill="#000000"
     stroke="none">0</text>
  <path
     id="path6650"
     d="M89.055 181.953 L86.219 181.953 "
     stroke-width="0.93699997"
     stroke="#000000"
     clip-path="url(#clipPath16)"
     fill="none" />
  <text
     id="text6652"
     font-weight="normal"
     font-family="Helvetica"
     font-size="6.83"
     y="148.825"
     x="81.018"
     svgx:width="556.0"
     svgx:fontName="DpnrtlHelvetica"
     clip-path="url(#clipPath1)"
     fill="#000000"
     stroke="none">1</text>
  <path
     id="path6654"
     d="M89.055 146.77 L86.219 146.77 "
     stroke-width="0.93699997"
     stroke="#000000"
     clip-path="url(#clipPath16)"
     fill="none" />
  <text
     id="text6656"
     font-weight="normal"
     font-family="Helvetica"
     font-size="6.83"
     y="113.638"
     x="81.018"
     svgx:width="556.0"
     svgx:fontName="DpnrtlHelvetica"
     clip-path="url(#clipPath1)"
     fill="#000000"
     stroke="none">2</text>
  <path
     id="path6658"
     d="M 89.055,221.222 V 103.458 M 280.943,221.222 H 89.055 m 0,-109.635 h -2.836"
     stroke-width="0.93699997"
     stroke="#000000"
     clip-path="url(#clipPath17)"
     fill="none" />
  <path
     id="path6660"
     d="M251.373 109.182 L256.839 107.544 M241.848 112.054 L251.373 109.182 M236.439 113.685 L241.848 112.054 M234.724 114.2 L236.439 113.685 M224.561 117.261 L234.724 114.2 M202.858 123.799 L224.561 117.261 M188.66 128.073 L202.858 123.799 M175.009 132.185 L188.66 128.073 M169.133 133.956 L175.009 132.185 M93.425 156.759 L169.133 133.956 M251.373 204.337 L256.839 205.981 M241.848 201.471 L251.373 204.337 M236.439 199.841 L241.848 201.471 M234.724 199.325 L236.439 199.841 M224.561 196.258 L234.724 199.325 M202.858 189.724 L224.561 196.258 M188.66 185.445 L202.858 189.724 M175.009 181.331 L188.66 185.445 M169.133 179.561 L175.009 181.331 M93.425 156.759 L169.133 179.561 M251.373 156.759 L256.839 156.759 M241.848 156.759 L251.373 156.759 M236.439 156.759 L241.848 156.759 M234.724 156.759 L236.439 156.759 M224.561 156.759 L234.724 156.759 M202.858 156.759 L224.561 156.759 M188.66 156.759 L202.858 156.759 M175.009 156.759 L188.66 156.759 M169.133 156.759 L175.009 156.759 M93.425 156.759 L169.133 156.759 "
     stroke-width="0.93699997"
     stroke="#000000"
     clip-path="url(#clipPath16)"
     fill="none" />
  <path
     id="path6662"
     d="M258.267 150.412 C258.267 149.627 257.63 148.99 256.845 148.99 C256.06 148.99 255.425 149.627 255.425 150.412 C255.425 151.197 256.06 151.834 256.845 151.834 C257.63 151.834 258.267 151.197 258.267 150.412 M252.802 124.324 C252.802 123.512 252.143 122.853 251.331 122.853 C250.518 122.853 249.862 123.512 249.862 124.324 C249.862 125.136 250.518 125.795 251.331 125.795 C252.143 125.795 252.802 125.136 252.802 124.324 M243.411 157.91 C243.411 157.048 242.713 156.348 241.85 156.348 C240.989 156.348 240.287 157.048 240.287 157.91 C240.287 158.772 240.989 159.472 241.85 159.472 C242.713 159.472 243.411 158.772 243.411 157.91 M238.083 130.52 C238.083 129.624 237.355 128.895 236.458 128.895 C235.561 128.895 234.835 129.624 234.835 130.52 C234.835 131.417 235.561 132.145 236.458 132.145 C237.355 132.145 238.083 131.417 238.083 130.52 M236.368 132.627 C236.368 131.718 235.633 130.983 234.722 130.983 C233.816 130.983 233.079 131.718 233.079 132.627 C233.079 133.535 233.816 134.272 234.722 134.272 C235.633 134.272 236.368 133.535 236.368 132.627 M226.333 188.521 C226.333 187.544 225.54 186.75 224.561 186.75 C223.585 186.75 222.791 187.544 222.791 188.521 C222.791 189.499 223.585 190.291 224.561 190.291 C225.54 190.291 226.333 189.499 226.333 188.521 M205.0 145.33 C205.0 144.157 204.049 143.204 202.874 143.204 C201.7 143.204 200.747 144.157 200.747 145.33 C200.747 146.503 201.7 147.456 202.874 147.456 C204.049 147.456 205.0 146.503 205.0 145.33 M191.122 149.296 C191.122 147.95 190.03 146.856 188.682 146.856 C187.336 146.856 186.244 147.95 186.244 149.296 C186.244 150.642 187.336 151.736 188.682 151.736 C190.03 151.736 191.122 150.642 191.122 149.296 M177.84 159.893 C177.84 158.319 176.562 157.042 174.989 157.042 C173.415 157.042 172.137 158.319 172.137 159.893 C172.137 161.468 173.415 162.744 174.989 162.744 C176.562 162.744 177.84 161.468 177.84 159.893 M172.238 176.439 C172.238 174.742 170.861 173.364 169.163 173.364 C167.467 173.364 166.09 174.742 166.09 176.439 C166.09 178.136 167.467 179.512 169.163 179.512 C170.861 179.512 172.238 178.136 172.238 176.439 "
     stroke-width="0.93699997"
     stroke="#000000"
     clip-path="url(#clipPath16)"
     fill="none" />
  <text
     id="text6666"
     font-weight="normal"
     font-family="Helvetica"
     font-size="8.432"
     y="211.698"
     x="94.708"
     svgx:width="667.0"
     svgx:fontName="VxxcftArialMT"
     clip-path="url(#clipPath1)"
     fill="#000000"
     stroke="none">E</text>
  <text
     id="text6668"
     font-weight="normal"
     font-family="Helvetica"
     font-size="8.432"
     y="211.698"
     x="100.332"
     svgx:width="556.0"
     svgx:fontName="VxxcftArialMT"
     clip-path="url(#clipPath1)"
     fill="#000000"
     stroke="none">g</text>
  <text
     id="text6670"
     font-weight="normal"
     font-family="Helvetica"
     font-size="8.432"
     y="211.698"
     x="105.02"
     svgx:width="556.0"
     svgx:fontName="VxxcftArialMT"
     clip-path="url(#clipPath1)"
     fill="#000000"
     stroke="none">g</text>
  <text
     id="text6672"
     font-weight="normal"
     font-family="Helvetica"
     font-size="8.432"
     y="211.698"
     x="109.709"
     svgx:width="556.0"
     svgx:fontName="VxxcftArialMT"
     clip-path="url(#clipPath1)"
     fill="#000000"
     stroke="none">e</text>
  <text
     id="text6674"
     font-weight="normal"
     font-family="Helvetica"
     font-size="8.432"
     y="211.698"
     x="114.397"
     svgx:width="333.0"
     svgx:fontName="VxxcftArialMT"
     clip-path="url(#clipPath1)"
     fill="#000000"
     stroke="none">r</text>
  <text
     id="text6676"
     font-weight="normal"
     font-family="Helvetica"
     font-size="8.432"
     y="211.698"
     x="117.516"
     svgx:hexCode="2019"
     svgx:charCode="8217"
     svgx:width="0.0"
     svgx:fontName="VxxcftArialMT"
     clip-path="url(#clipPath1)"
     fill="#000000"
     stroke="none">’</text>
  <text
     id="text6678"
     font-weight="normal"
     font-family="Helvetica"
     font-size="8.432"
     y="211.698"
     x="119.253"
     svgx:width="500.0"
     svgx:fontName="VxxcftArialMT"
     clip-path="url(#clipPath1)"
     fill="#000000"
     stroke="none">s</text>
  <text
     id="text6682"
     font-weight="normal"
     font-family="Helvetica"
     font-size="8.432"
     y="211.698"
     x="125.813"
     svgx:width="278.0"
     svgx:fontName="VxxcftArialMT"
     clip-path="url(#clipPath1)"
     fill="#000000"
     stroke="none">t</text>
  <text
     id="text6684"
     font-weight="normal"
     font-family="Helvetica"
     font-size="8.432"
     y="211.698"
     x="128.157"
     svgx:width="556.0"
     svgx:fontName="VxxcftArialMT"
     clip-path="url(#clipPath1)"
     fill="#000000"
     stroke="none">e</text>
  <text
     id="text6686"
     font-weight="normal"
     font-family="Helvetica"
     font-size="8.432"
     y="211.698"
     x="132.845"
     svgx:width="500.0"
     svgx:fontName="VxxcftArialMT"
     clip-path="url(#clipPath1)"
     fill="#000000"
     stroke="none">s</text>
  <text
     id="text6688"
     font-weight="normal"
     font-family="Helvetica"
     font-size="8.432"
     y="211.698"
     x="137.061"
     svgx:width="278.0"
     svgx:fontName="VxxcftArialMT"
     clip-path="url(#clipPath1)"
     fill="#000000"
     stroke="none">t</text>
  <text
     id="text6690"
     font-weight="normal"
     font-family="Helvetica"
     font-size="8.432"
     y="211.698"
     x="139.405"
     svgx:width="278.0"
     svgx:fontName="VxxcftArialMT"
     clip-path="url(#clipPath1)"
     fill="#000000"
     stroke="none">:</text>
  <text
     id="text6694"
     font-weight="normal"
     font-family="Helvetica"
     font-size="8.432"
     y="211.698"
     x="144.093"
     svgx:width="667.0"
     svgx:fontName="VxxcftArialMT"
     clip-path="url(#clipPath1)"
     fill="#000000"
     stroke="none">P</text>
  <text
     id="text6696"
     font-weight="normal"
     font-family="Helvetica"
     font-size="8.432"
     y="211.698"
     x="149.717"
     svgx:width="584.0"
     svgx:fontName="VxxcftArialMT"
     clip-path="url(#clipPath1)"
     fill="#000000"
     stroke="none">=</text>
  <text
     id="text6698"
     font-weight="normal"
     font-family="Helvetica"
     font-size="8.432"
     y="211.698"
     x="154.642"
     svgx:width="556.0"
     svgx:fontName="VxxcftArialMT"
     clip-path="url(#clipPath1)"
     fill="#000000"
     stroke="none">0</text>
  <text
     id="text6700"
     font-weight="normal"
     font-family="Helvetica"
     font-size="8.432"
     y="211.698"
     x="159.33"
     svgx:width="278.0"
     svgx:fontName="VxxcftArialMT"
     clip-path="url(#clipPath1)"
     fill="#000000"
     stroke="none">.</text>
  <text
     id="text6702"
     font-weight="normal"
     font-family="Helvetica"
     font-size="8.432"
     y="211.698"
     x="161.674"
     svgx:width="556.0"
     svgx:fontName="VxxcftArialMT"
     clip-path="url(#clipPath1)"
     fill="#000000"
     stroke="none">1</text>
  <text
     id="text6704"
     font-weight="normal"
     font-family="Helvetica"
     font-size="8.432"
     y="211.698"
     x="166.362"
     svgx:width="556.0"
     svgx:fontName="VxxcftArialMT"
     clip-path="url(#clipPath1)"
     fill="#000000"
     stroke="none">0</text>
  <text
     id="text6706"
     font-weight="normal"
     font-family="Helvetica"
     font-size="8.432"
     y="211.698"
     x="171.05"
     svgx:width="556.0"
     svgx:fontName="VxxcftArialMT"
     clip-path="url(#clipPath1)"
     fill="#000000"
     stroke="none">8</text>
</svg>
