<?xml version="1.0" encoding="UTF-8" standalone="no"?>
<svg
   xmlns:svgx="http://www.xml-cml.org/schema/svgx"
   xmlns:dc="http://purl.org/dc/elements/1.1/"
   xmlns:cc="http://creativecommons.org/ns#"
   xmlns:rdf="http://www.w3.org/1999/02/22-rdf-syntax-ns#"
   xmlns:svg="http://www.w3.org/2000/svg"
   xmlns="http://www.w3.org/2000/svg"
   id="svg8044"
   version="1.1"
   stroke-width="0.0"
   stroke="none"
   height="800.0"
   width="600.0">
  <metadata
     id="metadata8048">
    <rdf:RDF>
      <cc:Work
         rdf:about="">
        <dc:format>image/svg+xml</dc:format>
        <dc:type
           rdf:resource="http://purl.org/dc/dcmitype/StillImage" />
        <dc:title></dc:title>
      </cc:Work>
    </rdf:RDF>
  </metadata>
  <defs
     id="defs1">
    <clipPath
       id="clipPath5">
      <path
         id="path2"
         d="M99.212 507.863 L99.212 572.904 L510.236 572.904 L510.236 507.863 Z"
         fill="none"
         stroke-width="0.5"
         stroke="black" />
    </clipPath>
    <clipPath
       id="clipPath2">
      <path
         id="path5"
         d="M0.0 0.0 L595.0 0.0 L595.0 841.0 L0.0 841.0 L0.0 0.0 Z"
         fill="none"
         stroke-width="0.5"
         stroke="black" />
    </clipPath>
    <clipPath
       id="clipPath12">
      <path
         id="path8"
         d="M106.735 99.245 L106.735 211.284 L284.575 211.284 L284.575 99.245 Z"
         fill="none"
         stroke-width="0.5"
         stroke="black" />
    </clipPath>
    <clipPath
       id="clipPath1">
      <path
         id="path11"
         d="M0.0 0.0 L0.0 841.0 L595.0 841.0 L595.0 0.0 Z"
         fill="none"
         stroke-width="0.5"
         stroke="black" />
    </clipPath>
    <clipPath
       id="clipPath11">
      <path
         id="path14"
         d="M99.212 639.535 L99.212 716.319 L510.236 716.319 L510.236 639.535 Z"
         fill="none"
         stroke-width="0.5"
         stroke="black" />
    </clipPath>
    <clipPath
       id="clipPath7">
      <path
         id="path17"
         d="M85.039 116.254 L85.039 202.975 L496.063 202.975 L496.063 116.254 Z"
         fill="none"
         stroke-width="0.5"
         stroke="black" />
    </clipPath>
    <clipPath
       id="clipPath9">
      <path
         id="path20"
         d="M85.039 396.801 L85.039 502.493 L496.063 502.493 L496.063 396.801 Z"
         fill="none"
         stroke-width="0.5"
         stroke="black" />
    </clipPath>
    <clipPath
       id="clipPath3">
      <path
         id="path23"
         d="M99.212 242.817 L99.212 306.955 L510.236 306.955 L510.236 242.817 Z"
         fill="none"
         stroke-width="0.5"
         stroke="black" />
    </clipPath>
    <clipPath
       id="clipPath6">
      <path
         id="path26"
         d="M99.212 629.614 L99.212 716.335 L510.236 716.335 L510.236 629.614 Z"
         fill="none"
         stroke-width="0.5"
         stroke="black" />
    </clipPath>
    <clipPath
       id="clipPath10">
      <path
         id="path29"
         d="M99.212 496.66 L99.212 583.381 L510.236 583.381 L510.236 496.66 Z"
         fill="none"
         stroke-width="0.5"
         stroke="black" />
    </clipPath>
    <clipPath
       id="clipPath8">
      <path
         id="path32"
         d="M85.039 265.129 L85.039 340.107 L496.063 340.107 L496.063 265.129 Z"
         fill="none"
         stroke-width="0.5"
         stroke="black" />
    </clipPath>
    <clipPath
       id="clipPath13">
      <path
         id="path35"
         d="M318.199 99.704 L318.199 211.743 L496.039 211.743 L496.039 99.704 Z"
         fill="none"
         stroke-width="0.5"
         stroke="black" />
    </clipPath>
    <clipPath
       id="clipPath4">
      <path
         id="path38"
         d="M99.212 364.002 L99.212 450.723 L510.236 450.723 L510.236 364.002 Z"
         fill="none"
         stroke-width="0.5"
         stroke="black" />
    </clipPath>
  </defs>
  <path
     id="path7640"
     d="M109.887 100.149 L283.709 100.149 L283.709 208.399 L109.887 208.399 ZM109.887 111.987 L107.27 111.987 M109.887 158.188 L107.27 158.188 M109.887 204.805 L107.27 204.805 M113.717 208.399 L113.717 211.054 M169.287 208.399 L169.287 211.054 M224.652 208.399 L224.652 211.054 M279.608 208.399 L279.608 211.054 M242.897 103.89 L114.312 146.292 L242.897 188.694 M114.312 146.292 L243.142 146.292 M177.022 140.422 C177.423 140.422 177.748 140.751 177.748 141.158 C177.748 141.565 177.423 141.894 177.022 141.894 C176.622 141.894 176.297 141.565 176.297 141.158 C176.297 140.751 176.622 140.422 177.022 140.422 ZM235.724 131.278 C236.124 131.278 236.449 131.608 236.449 132.014 C236.449 132.421 236.124 132.75 235.724 132.75 C235.323 132.75 234.998 132.421 234.998 132.014 C234.998 131.608 235.323 131.278 235.724 131.278 ZM243.004 150.386 C243.404 150.386 243.729 150.716 243.729 151.122 C243.729 151.529 243.404 151.858 243.004 151.858 C242.603 151.858 242.278 151.529 242.278 151.122 C242.278 150.716 242.603 150.386 243.004 150.386 ZM223.244 144.173 C223.645 144.173 223.969 144.503 223.969 144.909 C223.969 145.316 223.645 145.646 223.244 145.646 C222.843 145.646 222.518 145.316 222.518 144.909 C222.518 144.503 222.843 144.173 223.244 144.173 ZM222.088 169.025 C222.489 169.025 222.814 169.355 222.814 169.762 C222.814 170.168 222.489 170.498 222.088 170.498 C221.687 170.498 221.363 170.168 221.363 169.762 C221.363 169.355 221.687 169.025 222.088 169.025 Z"
     stroke-width="0.445"
     stroke="#000000"
     clip-path="url(#clipPath12)"
     fill="none" />
  <text
     id="text7862"
     font-weight="bold"
     font-family="Helvetica"
     font-size="7.0"
     y="164.981"
     x="90.173"
     transform="matrix(0.0,-1.0,1.0,0.0,-74.80818,255.15398)"
     svgx:width="446.0"
     svgx:fontName="MQIDYU+NaomiSansEFNMedium"
     clip-path="url(#clipPath2)"
     fill="#000000"
     stroke="none">L</text>
  <text
     id="text7864"
     font-weight="bold"
     font-family="Helvetica"
     font-size="7.0"
     y="161.859"
     x="90.173"
     transform="matrix(0.0,-1.0,1.0,0.0,-71.68617,252.03197)"
     svgx:width="542.0"
     svgx:fontName="MQIDYU+NaomiSansEFNMedium"
     clip-path="url(#clipPath2)"
     fill="#000000"
     stroke="none">o</text>
  <text
     id="text7866"
     font-weight="bold"
     font-family="Helvetica"
     font-size="7.0"
     y="158.065"
     x="90.173"
     transform="matrix(0.0,-1.0,1.0,0.0,-67.89217,248.23796)"
     svgx:width="528.0"
     svgx:fontName="MQIDYU+NaomiSansEFNMedium"
     clip-path="url(#clipPath2)"
     fill="#000000"
     stroke="none">g</text>
  <text
     id="text7868"
     font-weight="bold"
     font-family="Helvetica"
     font-size="7.0"
     y="154.369"
     x="90.173"
     transform="matrix(0.0,-1.0,1.0,0.0,-64.19618,244.54198)"
     svgx:width="687.0"
     svgx:fontName="MQIDYU+NaomiSansEFNMedium"
     clip-path="url(#clipPath2)"
     fill="#000000"
     stroke="none">O</text>
  <text
     id="text7870"
     font-weight="bold"
     font-family="Helvetica"
     font-size="7.0"
     y="149.56"
     x="90.173"
     transform="matrix(0.0,-1.0,1.0,0.0,-59.38716,239.73296)"
     svgx:width="573.0"
     svgx:fontName="MQIDYU+NaomiSansEFNMedium"
     clip-path="url(#clipPath2)"
     fill="#000000"
     stroke="none">R</text>
  <text
     id="text7882"
     font-weight="normal"
     font-family="Helvetica"
     font-size="7.0"
     y="113.548"
     x="100.842"
     svgx:width="540.0"
     svgx:fontName="CWIVOO+NaomiSansEFNLight"
     clip-path="url(#clipPath2)"
     fill="#000000"
     stroke="none">1</text>
  <text
     id="text7884"
     font-weight="normal"
     font-family="Helvetica"
     font-size="7.0"
     y="160.322"
     x="100.842"
     svgx:width="540.0"
     svgx:fontName="CWIVOO+NaomiSansEFNLight"
     clip-path="url(#clipPath2)"
     fill="#000000"
     stroke="none">0</text>
  <text
     id="text7886"
     font-weight="normal"
     font-family="Helvetica"
     font-size="7.0"
     y="207.096"
     x="97.377"
     svgx:hexCode="2013"
     svgx:charCode="8211"
     svgx:width="419.0"
     svgx:fontName="CWIVOO+NaomiSansEFNLight"
     clip-path="url(#clipPath2)"
     fill="#000000"
     stroke="none">–</text>
  <text
     id="text7888"
     font-weight="normal"
     font-family="Helvetica"
     font-size="7.0"
     y="207.096"
     x="100.842"
     svgx:width="540.0"
     svgx:fontName="CWIVOO+NaomiSansEFNLight"
     clip-path="url(#clipPath2)"
     fill="#000000"
     stroke="none">1</text>
  <text
     id="text7902"
     font-weight="normal"
     font-family="Helvetica"
     font-size="7.0"
     y="220.48"
     x="111.174"
     svgx:width="540.0"
     svgx:fontName="CWIVOO+NaomiSansEFNLight"
     clip-path="url(#clipPath2)"
     fill="#000000"
     stroke="none">0</text>
  <text
     id="text7906"
     font-weight="normal"
     font-family="Helvetica"
     font-size="7.0"
     y="220.48"
     x="164.5"
     svgx:width="540.0"
     svgx:fontName="CWIVOO+NaomiSansEFNLight"
     clip-path="url(#clipPath2)"
     fill="#000000"
     stroke="none">0</text>
  <text
     id="text7908"
     font-weight="normal"
     font-family="Helvetica"
     font-size="7.0"
     y="220.48"
     x="168.28"
     svgx:width="225.0"
     svgx:fontName="CWIVOO+NaomiSansEFNLight"
     clip-path="url(#clipPath2)"
     fill="#000000"
     stroke="none">.</text>
  <text
     id="text7910"
     font-weight="normal"
     font-family="Helvetica"
     font-size="7.0"
     y="220.48"
     x="169.855"
     svgx:width="540.0"
     svgx:fontName="CWIVOO+NaomiSansEFNLight"
     clip-path="url(#clipPath2)"
     fill="#000000"
     stroke="none">2</text>
  <text
     id="text7914"
     font-weight="normal"
     font-family="Helvetica"
     font-size="7.0"
     y="220.48"
     x="220.5"
     svgx:width="540.0"
     svgx:fontName="CWIVOO+NaomiSansEFNLight"
     clip-path="url(#clipPath2)"
     fill="#000000"
     stroke="none">0</text>
  <text
     id="text7916"
     font-weight="normal"
     font-family="Helvetica"
     font-size="7.0"
     y="220.48"
     x="224.28"
     svgx:width="225.0"
     svgx:fontName="CWIVOO+NaomiSansEFNLight"
     clip-path="url(#clipPath2)"
     fill="#000000"
     stroke="none">.</text>
  <text
     id="text7918"
     font-weight="normal"
     font-family="Helvetica"
     font-size="7.0"
     y="220.48"
     x="225.855"
     svgx:width="540.0"
     svgx:fontName="CWIVOO+NaomiSansEFNLight"
     clip-path="url(#clipPath2)"
     fill="#000000"
     stroke="none">4</text>
  <text
     id="text7922"
     font-weight="normal"
     font-family="Helvetica"
     font-size="7.0"
     y="220.48"
     x="274.498"
     svgx:width="540.0"
     svgx:fontName="CWIVOO+NaomiSansEFNLight"
     clip-path="url(#clipPath2)"
     fill="#000000"
     stroke="none">0</text>
  <text
     id="text7924"
     font-weight="normal"
     font-family="Helvetica"
     font-size="7.0"
     y="220.48"
     x="278.278"
     svgx:width="225.0"
     svgx:fontName="CWIVOO+NaomiSansEFNLight"
     clip-path="url(#clipPath2)"
     fill="#000000"
     stroke="none">.</text>
  <text
     id="text7926"
     font-weight="normal"
     font-family="Helvetica"
     font-size="7.0"
     y="220.48"
     x="279.853"
     svgx:width="540.0"
     svgx:fontName="CWIVOO+NaomiSansEFNLight"
     clip-path="url(#clipPath2)"
     fill="#000000"
     stroke="none">6</text>
  <text
     id="text7948"
     font-weight="bold"
     font-family="Helvetica"
     font-size="7.0"
     y="230.483"
     x="177.086"
     svgx:width="539.0"
     svgx:fontName="MQIDYU+NaomiSansEFNMedium"
     clip-path="url(#clipPath2)"
     fill="#000000"
     stroke="none">S</text>
  <text
     id="text7950"
     font-weight="bold"
     font-family="Helvetica"
     font-size="7.0"
     y="230.483"
     x="180.859"
     svgx:width="507.0"
     svgx:fontName="MQIDYU+NaomiSansEFNMedium"
     clip-path="url(#clipPath2)"
     fill="#000000"
     stroke="none">E</text>
  <text
     id="text7954"
     font-weight="bold"
     font-family="Helvetica"
     font-size="7.0"
     y="230.483"
     x="186.41"
     svgx:width="542.0"
     svgx:fontName="MQIDYU+NaomiSansEFNMedium"
     clip-path="url(#clipPath2)"
     fill="#000000"
     stroke="none">o</text>
  <text
     id="text7956"
     font-weight="bold"
     font-family="Helvetica"
     font-size="7.0"
     y="230.483"
     x="190.204"
     svgx:width="330.0"
     svgx:fontName="MQIDYU+NaomiSansEFNMedium"
     clip-path="url(#clipPath2)"
     fill="#000000"
     stroke="none">f</text>
  <text
     id="text7960"
     font-weight="bold"
     font-family="Helvetica"
     font-size="7.0"
     y="230.483"
     x="194.516"
     svgx:width="256.0"
     svgx:fontName="MQIDYU+NaomiSansEFNMedium"
     clip-path="url(#clipPath2)"
     fill="#000000"
     stroke="none">l</text>
  <text
     id="text7962"
     font-weight="bold"
     font-family="Helvetica"
     font-size="7.0"
     y="230.483"
     x="196.308"
     svgx:width="542.0"
     svgx:fontName="MQIDYU+NaomiSansEFNMedium"
     clip-path="url(#clipPath2)"
     fill="#000000"
     stroke="none">o</text>
  <text
     id="text7964"
     font-weight="bold"
     font-family="Helvetica"
     font-size="7.0"
     y="230.483"
     x="200.102"
     svgx:width="528.0"
     svgx:fontName="MQIDYU+NaomiSansEFNMedium"
     clip-path="url(#clipPath2)"
     fill="#000000"
     stroke="none">g</text>
  <text
     id="text7966"
     font-weight="bold"
     font-family="Helvetica"
     font-size="7.0"
     y="230.483"
     x="203.798"
     svgx:width="687.0"
     svgx:fontName="MQIDYU+NaomiSansEFNMedium"
     clip-path="url(#clipPath2)"
     fill="#000000"
     stroke="none">O</text>
  <text
     id="text7968"
     font-weight="bold"
     font-family="Helvetica"
     font-size="7.0"
     y="230.483"
     x="208.607"
     svgx:width="573.0"
     svgx:fontName="MQIDYU+NaomiSansEFNMedium"
     clip-path="url(#clipPath2)"
     fill="#000000"
     stroke="none">R</text>
</svg>
