<?xml version="1.0" encoding="UTF-8"?>
<svg height="800.0" width="700.0" xmlns="http://www.w3.org/2000/svg">
 <g>
  <g stroke="pink">
   <path id="path7640" stroke-width="0.445" stroke="#000000" clip-path="url(#clipPath12)" fill="none" signature="MLLLZMLMLMLMLMLMLMLMLLMLMCCCCZMCCCCZMCCCCZMCCCCZMCCCCZ" d="M109.887 100.149 L283.709 100.149 L283.709 208.399 L109.887 208.399 ZM109.887 111.987 L107.27 111.987 M109.887 158.188 L107.27 158.188 M109.887 204.805 L107.27 204.805 M113.717 208.399 L113.717 211.054 M169.287 208.399 L169.287 211.054 M224.652 208.399 L224.652 211.054 M279.608 208.399 L279.608 211.054 M242.897 103.89 L114.312 146.292 L242.897 188.694 M114.312 146.292 L243.142 146.292 M177.022 140.422 C177.423 140.422 177.748 140.751 177.748 141.158 C177.748 141.565 177.423 141.894 177.022 141.894 C176.622 141.894 176.297 141.565 176.297 141.158 C176.297 140.751 176.622 140.422 177.022 140.422 ZM235.724 131.278 C236.124 131.278 236.449 131.608 236.449 132.014 C236.449 132.421 236.124 132.75 235.724 132.75 C235.323 132.75 234.998 132.421 234.998 132.014 C234.998 131.608 235.323 131.278 235.724 131.278 ZM243.004 150.386 C243.404 150.386 243.729 150.716 243.729 151.122 C243.729 151.529 243.404 151.858 243.004 151.858 C242.603 151.858 242.278 151.529 242.278 151.122 C242.278 150.716 242.603 150.386 243.004 150.386 ZM223.244 144.173 C223.645 144.173 223.969 144.503 223.969 144.909 C223.969 145.316 223.645 145.646 223.244 145.646 C222.843 145.646 222.518 145.316 222.518 144.909 C222.518 144.503 222.843 144.173 223.244 144.173 ZM222.088 169.025 C222.489 169.025 222.814 169.355 222.814 169.762 C222.814 170.168 222.489 170.498 222.088 170.498 C221.687 170.498 221.363 170.168 221.363 169.762 C221.363 169.355 221.687 169.025 222.088 169.025 Z"/>
   <text id="text7862" font-weight="bold" font-family="Helvetica" font-size="7.0" y="164.981" x="90.173" transform="matrix(0.0,-1.0,1.0,0.0,-74.80818,255.15398)" svgx:width="446.0" svgx:fontName="MQIDYU+NaomiSansEFNMedium" clip-path="url(#clipPath2)" fill="#000000" stroke="none" xmlns:svgx="http://www.xml-cml.org/schema/svgx">L</text>
   <text id="text7864" font-weight="bold" font-family="Helvetica" font-size="7.0" y="161.859" x="90.173" transform="matrix(0.0,-1.0,1.0,0.0,-71.68617,252.03197)" svgx:width="542.0" svgx:fontName="MQIDYU+NaomiSansEFNMedium" clip-path="url(#clipPath2)" fill="#000000" stroke="none" xmlns:svgx="http://www.xml-cml.org/schema/svgx">o</text>
   <text id="text7866" font-weight="bold" font-family="Helvetica" font-size="7.0" y="158.065" x="90.173" transform="matrix(0.0,-1.0,1.0,0.0,-67.89217,248.23796)" svgx:width="528.0" svgx:fontName="MQIDYU+NaomiSansEFNMedium" clip-path="url(#clipPath2)" fill="#000000" stroke="none" xmlns:svgx="http://www.xml-cml.org/schema/svgx">g</text>
   <text id="text7868" font-weight="bold" font-family="Helvetica" font-size="7.0" y="154.369" x="90.173" transform="matrix(0.0,-1.0,1.0,0.0,-64.19618,244.54198)" svgx:width="687.0" svgx:fontName="MQIDYU+NaomiSansEFNMedium" clip-path="url(#clipPath2)" fill="#000000" stroke="none" xmlns:svgx="http://www.xml-cml.org/schema/svgx">O</text>
   <text id="text7870" font-weight="bold" font-family="Helvetica" font-size="7.0" y="149.56" x="90.173" transform="matrix(0.0,-1.0,1.0,0.0,-59.38716,239.73296)" svgx:width="573.0" svgx:fontName="MQIDYU+NaomiSansEFNMedium" clip-path="url(#clipPath2)" fill="#000000" stroke="none" xmlns:svgx="http://www.xml-cml.org/schema/svgx">R</text>
   <text id="text7882" font-weight="normal" font-family="Helvetica" svgx:width="540.0" svgx:fontName="CWIVOO+NaomiSansEFNLight" clip-path="url(#clipPath2)" fill="#000000" stroke="none" x="100.842" y="113.548" font-size="7.0" xmlns:svgx="http://www.xml-cml.org/schema/svgx">1</text>
   <text id="text7884" font-weight="normal" font-family="Helvetica" svgx:width="540.0" svgx:fontName="CWIVOO+NaomiSansEFNLight" clip-path="url(#clipPath2)" fill="#000000" stroke="none" x="100.842" y="160.322" font-size="7.0" xmlns:svgx="http://www.xml-cml.org/schema/svgx">0</text>
   <text id="text7886" font-weight="normal" font-family="Helvetica" svgx:hexCode="2013" svgx:charCode="8211" svgx:width="419.0" svgx:fontName="CWIVOO+NaomiSansEFNLight" clip-path="url(#clipPath2)" fill="#000000" stroke="none" x="97.377" y="207.096" font-size="7.0" xmlns:svgx="http://www.xml-cml.org/schema/svgx">–</text>
   <text id="text7888" font-weight="normal" font-family="Helvetica" svgx:width="540.0" svgx:fontName="CWIVOO+NaomiSansEFNLight" clip-path="url(#clipPath2)" fill="#000000" stroke="none" x="100.842" y="207.096" font-size="7.0" xmlns:svgx="http://www.xml-cml.org/schema/svgx">1</text>
   <text id="text7902" font-weight="normal" font-family="Helvetica" svgx:width="540.0" svgx:fontName="CWIVOO+NaomiSansEFNLight" clip-path="url(#clipPath2)" fill="#000000" stroke="none" x="111.174" y="220.48" font-size="7.0" xmlns:svgx="http://www.xml-cml.org/schema/svgx">0</text>
   <text id="text7906" font-weight="normal" font-family="Helvetica" svgx:width="540.0" svgx:fontName="CWIVOO+NaomiSansEFNLight" clip-path="url(#clipPath2)" fill="#000000" stroke="none" x="164.5" y="220.48" font-size="7.0" xmlns:svgx="http://www.xml-cml.org/schema/svgx">0</text>
   <text id="text7908" font-weight="normal" font-family="Helvetica" svgx:width="225.0" svgx:fontName="CWIVOO+NaomiSansEFNLight" clip-path="url(#clipPath2)" fill="#000000" stroke="none" x="168.28" y="220.48" font-size="7.0" xmlns:svgx="http://www.xml-cml.org/schema/svgx">.</text>
   <text id="text7910" font-weight="normal" font-family="Helvetica" svgx:width="540.0" svgx:fontName="CWIVOO+NaomiSansEFNLight" clip-path="url(#clipPath2)" fill="#000000" stroke="none" x="169.855" y="220.48" font-size="7.0" xmlns:svgx="http://www.xml-cml.org/schema/svgx">2</text>
   <text id="text7914" font-weight="normal" font-family="Helvetica" svgx:width="540.0" svgx:fontName="CWIVOO+NaomiSansEFNLight" clip-path="url(#clipPath2)" fill="#000000" stroke="none" x="220.5" y="220.48" font-size="7.0" xmlns:svgx="http://www.xml-cml.org/schema/svgx">0</text>
   <text id="text7916" font-weight="normal" font-family="Helvetica" svgx:width="225.0" svgx:fontName="CWIVOO+NaomiSansEFNLight" clip-path="url(#clipPath2)" fill="#000000" stroke="none" x="224.28" y="220.48" font-size="7.0" xmlns:svgx="http://www.xml-cml.org/schema/svgx">.</text>
   <text id="text7918" font-weight="normal" font-family="Helvetica" svgx:width="540.0" svgx:fontName="CWIVOO+NaomiSansEFNLight" clip-path="url(#clipPath2)" fill="#000000" stroke="none" x="225.855" y="220.48" font-size="7.0" xmlns:svgx="http://www.xml-cml.org/schema/svgx">4</text>
   <text id="text7922" font-weight="normal" font-family="Helvetica" svgx:width="540.0" svgx:fontName="CWIVOO+NaomiSansEFNLight" clip-path="url(#clipPath2)" fill="#000000" stroke="none" x="274.498" y="220.48" font-size="7.0" xmlns:svgx="http://www.xml-cml.org/schema/svgx">0</text>
   <text id="text7924" font-weight="normal" font-family="Helvetica" svgx:width="225.0" svgx:fontName="CWIVOO+NaomiSansEFNLight" clip-path="url(#clipPath2)" fill="#000000" stroke="none" x="278.278" y="220.48" font-size="7.0" xmlns:svgx="http://www.xml-cml.org/schema/svgx">.</text>
   <text id="text7926" font-weight="normal" font-family="Helvetica" svgx:width="540.0" svgx:fontName="CWIVOO+NaomiSansEFNLight" clip-path="url(#clipPath2)" fill="#000000" stroke="none" x="279.853" y="220.48" font-size="7.0" xmlns:svgx="http://www.xml-cml.org/schema/svgx">6</text>
   <text id="text7948" font-weight="bold" font-family="Helvetica" svgx:width="539.0" svgx:fontName="MQIDYU+NaomiSansEFNMedium" clip-path="url(#clipPath2)" fill="#000000" stroke="none" x="177.086" y="230.483" font-size="7.0" xmlns:svgx="http://www.xml-cml.org/schema/svgx">S</text>
   <text id="text7950" font-weight="bold" font-family="Helvetica" svgx:width="507.0" svgx:fontName="MQIDYU+NaomiSansEFNMedium" clip-path="url(#clipPath2)" fill="#000000" stroke="none" x="180.859" y="230.483" font-size="7.0" xmlns:svgx="http://www.xml-cml.org/schema/svgx">E</text>
   <text id="text7954" font-weight="bold" font-family="Helvetica" svgx:width="542.0" svgx:fontName="MQIDYU+NaomiSansEFNMedium" clip-path="url(#clipPath2)" fill="#000000" stroke="none" x="186.41" y="230.483" font-size="7.0" xmlns:svgx="http://www.xml-cml.org/schema/svgx">o</text>
   <text id="text7956" font-weight="bold" font-family="Helvetica" svgx:width="330.0" svgx:fontName="MQIDYU+NaomiSansEFNMedium" clip-path="url(#clipPath2)" fill="#000000" stroke="none" x="190.204" y="230.483" font-size="7.0" xmlns:svgx="http://www.xml-cml.org/schema/svgx">f</text>
   <text id="text7960" font-weight="bold" font-family="Helvetica" svgx:width="256.0" svgx:fontName="MQIDYU+NaomiSansEFNMedium" clip-path="url(#clipPath2)" fill="#000000" stroke="none" x="194.516" y="230.483" font-size="7.0" xmlns:svgx="http://www.xml-cml.org/schema/svgx">l</text>
   <text id="text7962" font-weight="bold" font-family="Helvetica" svgx:width="542.0" svgx:fontName="MQIDYU+NaomiSansEFNMedium" clip-path="url(#clipPath2)" fill="#000000" stroke="none" x="196.308" y="230.483" font-size="7.0" xmlns:svgx="http://www.xml-cml.org/schema/svgx">o</text>
   <text id="text7964" font-weight="bold" font-family="Helvetica" svgx:width="528.0" svgx:fontName="MQIDYU+NaomiSansEFNMedium" clip-path="url(#clipPath2)" fill="#000000" stroke="none" x="200.102" y="230.483" font-size="7.0" xmlns:svgx="http://www.xml-cml.org/schema/svgx">g</text>
   <text id="text7966" font-weight="bold" font-family="Helvetica" svgx:width="687.0" svgx:fontName="MQIDYU+NaomiSansEFNMedium" clip-path="url(#clipPath2)" fill="#000000" stroke="none" x="203.798" y="230.483" font-size="7.0" xmlns:svgx="http://www.xml-cml.org/schema/svgx">O</text>
   <text id="text7968" font-weight="bold" font-family="Helvetica" svgx:width="573.0" svgx:fontName="MQIDYU+NaomiSansEFNMedium" clip-path="url(#clipPath2)" fill="#000000" stroke="none" x="208.607" y="230.483" font-size="7.0" xmlns:svgx="http://www.xml-cml.org/schema/svgx">R</text>
  </g>
  <g fill="orange">
   <polyline fill="none" stroke="#000000" stroke-width="0.445" id="polyline.8" points="242.897 188.694 114.312 146.292 242.897 103.89"/>
   <circle fill="none" stroke="#000000" stroke-width="0.445" cx="177.022" cy="141.158" r="1.126" id="circle.10"/>
   <circle fill="none" stroke="#000000" stroke-width="0.445" cx="235.724" cy="132.014" r="1.126" id="circle.11"/>
   <circle fill="none" stroke="#000000" stroke-width="0.445" cx="243.004" cy="151.122" r="1.126" id="circle.12"/>
   <circle fill="none" stroke="#000000" stroke-width="0.445" cx="223.244" cy="144.909" r="1.126" id="circle.13"/>
   <circle fill="none" stroke="#000000" stroke-width="0.445" cx="222.088" cy="169.762" r="1.126" id="circle.14"/>
  </g>
  <g class="pathAnnotation NYI"/>
  <g class="plotBox">
   <g class="axis">
    <g class="axisTickBox">
     <rect stroke="black" x="104.887" y="198.399" width="183.822" height="28.0" stroke-width="0.2" fill="yellow" opacity="0.3"/>
     <rect stroke="black" x="113.717" y="208.399" width="165.89100000000002" height="2.655000000000001" stroke-width="0.2" fill="green" opacity="0.3"/>
    </g>
    <g class="axisTextBox">
     <rect stroke="black" x="104.887" y="198.399" width="183.822" height="28.0" stroke-width="0.2" fill="yellow" opacity="0.3"/>
     <rect stroke="black" x="111.174" y="213.48" width="173.124" height="7.0" stroke-width="0.2" fill="green" opacity="0.3"/>
    </g>
   </g>
   <g class="axis">
    <g class="axisTickBox">
     <rect stroke="black" x="91.887" y="95.149" width="28.0" height="118.25" stroke-width="0.2" fill="yellow" opacity="0.3"/>
     <rect stroke="black" x="107.27" y="111.987" width="2.6170000000000044" height="92.81800000000001" stroke-width="0.2" fill="green" opacity="0.3"/>
    </g>
    <g class="axisTextBox">
     <rect stroke="black" x="91.887" y="95.149" width="28.0" height="118.25" stroke-width="0.2" fill="yellow" opacity="0.3"/>
     <rect stroke="black" x="97.377" y="106.548" width="7.840000000000003" height="100.548" stroke-width="0.2" fill="green" opacity="0.3"/>
    </g>
   </g>
   <g class="axis">
    <g class="axisTickBox">
     <rect stroke="black" x="104.887" y="82.149" width="183.822" height="28.0" stroke-width="0.2" fill="yellow" opacity="0.3"/>
    </g>
    <g class="axisTextBox">
     <rect stroke="black" x="104.887" y="82.149" width="183.822" height="28.0" stroke-width="0.2" fill="yellow" opacity="0.3"/>
    </g>
   </g>
   <g class="axis">
    <g class="axisTickBox">
     <rect stroke="black" x="273.709" y="95.149" width="28.0" height="118.25" stroke-width="0.2" fill="yellow" opacity="0.3"/>
    </g>
    <g class="axisTextBox">
     <rect stroke="black" x="273.709" y="95.149" width="28.0" height="118.25" stroke-width="0.2" fill="yellow" opacity="0.3"/>
    </g>
   </g>
  </g>
 </g>
</svg>
