<?xml version="1.0" encoding="UTF-8" standalone="no"?>
<svg
   xmlns:svgx="http://www.xml-cml.org/schema/svgx"
   xmlns:dc="http://purl.org/dc/elements/1.1/"
   xmlns:cc="http://creativecommons.org/ns#"
   xmlns:rdf="http://www.w3.org/1999/02/22-rdf-syntax-ns#"
   xmlns:svg="http://www.w3.org/2000/svg"
   xmlns="http://www.w3.org/2000/svg"
   id="svg6663"
   version="1.1"
   stroke-width="0.0"
   stroke="none"
   height="800.0"
   width="600.0">
  <metadata
     id="metadata6667">
    <rdf:RDF>
      <cc:Work
         rdf:about="">
        <dc:format>image/svg+xml</dc:format>
        <dc:type
           rdf:resource="http://purl.org/dc/dcmitype/StillImage" />
        <dc:title></dc:title>
      </cc:Work>
    </rdf:RDF>
  </metadata>
  <defs
     id="defs1">
    <clipPath
       id="clipPath8">
      <path
         id="path2"
         d="M301.812 244.849 L301.812 395.441 L513.809 395.441 L513.809 244.849 Z"
         fill="none"
         stroke-width="0.5"
         stroke="black" />
    </clipPath>
    <clipPath
       id="clipPath3">
      <path
         id="path5"
         d="M489.383 33.315 L489.383 39.268 L544.252 39.268 L544.252 33.315 Z"
         fill="none"
         stroke-width="0.5"
         stroke="black" />
    </clipPath>
    <clipPath
       id="clipPath6">
      <path
         id="path8"
         d="M301.812 73.505 L301.812 232.983 L513.809 232.983 L513.809 73.505 Z"
         fill="none"
         stroke-width="0.5"
         stroke="black" />
    </clipPath>
    <clipPath
       id="clipPath4">
      <path
         id="path11"
         d="M489.383 33.315 L489.383 39.268 L544.251 39.268 L544.251 33.315 Z"
         fill="none"
         stroke-width="0.5"
         stroke="black" />
    </clipPath>
    <clipPath
       id="clipPath5">
      <path
         id="path14"
         d="M87.385 73.505 L87.385 232.983 L297.322 232.983 L297.322 73.505 Z"
         fill="none"
         stroke-width="0.5"
         stroke="black" />
    </clipPath>
    <clipPath
       id="clipPath2">
      <path
         id="path17"
         d="M0.0 0.0 L595.0 0.0 L595.0 793.0 L0.0 793.0 L0.0 0.0 Z"
         fill="none"
         stroke-width="0.5"
         stroke="black" />
    </clipPath>
    <clipPath
       id="clipPath7">
      <path
         id="path20"
         d="M87.385 244.849 L87.385 395.441 L297.322 395.441 L297.322 244.849 Z"
         fill="none"
         stroke-width="0.5"
         stroke="black" />
    </clipPath>
    <clipPath
       id="clipPath1">
      <path
         id="path23"
         d="M51.024 33.315 L51.024 39.268 L105.893 39.268 L105.893 33.315 Z"
         fill="none"
         stroke-width="0.5"
         stroke="black" />
    </clipPath>
  </defs>
  <path
     id="path5853"
     d="M107.731 259.959 L290.078 259.959 L290.078 381.096 L107.731 381.096 Z"
     stroke-width="0.0"
     fill="#ffffff"
     clip-path="url(#clipPath2)"
     stroke="black" />
  <path
     id="path5855"
     d="M107.731 259.959 L107.731 259.829 L290.208 259.829 L290.208 381.225 L107.601 381.225 L107.601 259.829 L107.731 259.829 L107.731 259.959 L107.861 259.959 L107.861 380.966 L289.948 380.966 L289.948 260.089 L107.731 260.089 L107.731 259.959 L107.861 259.959 Z"
     stroke-width="0.0"
     fill="#ffffff"
     clip-path="url(#clipPath2)"
     stroke="black" />
  <path
     id="path5857"
     d="M107.472 263.72 L290.338 263.72 L290.338 263.202 L107.472 263.202 Z"
     stroke-width="0.0"
     fill="#edfbf7"
     clip-path="url(#clipPath2)"
     stroke="black" />
  <path
     id="path5859"
     d="M107.472 301.721 L290.338 301.721 L290.338 301.203 L107.472 301.203 Z"
     stroke-width="0.0"
     fill="#edfbf7"
     clip-path="url(#clipPath2)"
     stroke="black" />
  <path
     id="path5861"
     d="M107.472 339.852 L290.338 339.852 L290.338 339.334 L107.472 339.334 Z"
     stroke-width="0.0"
     fill="#edfbf7"
     clip-path="url(#clipPath2)"
     stroke="black" />
  <path
     id="path5863"
     d="M107.472 377.983 L290.338 377.983 L290.338 377.465 L107.472 377.465 Z"
     stroke-width="0.0"
     fill="#edfbf7"
     clip-path="url(#clipPath2)"
     stroke="black" />
  <path
     id="path5865"
     d="M262.043 361.382 C262.043 360.302 262.886 359.437 263.938 359.437 C264.991 359.437 265.832 360.302 265.832 361.382 C265.832 362.463 264.991 363.328 263.938 363.328 C262.886 363.328 262.043 362.463 262.043 361.382 "
     stroke-width="0.0"
     fill="#3b7fff"
     clip-path="url(#clipPath7)"
     stroke="black" />
  <path
     id="path5867"
     d="M262.043 361.382 L261.785 361.382 C261.786 360.165 262.739 359.18 263.938 359.178 C265.138 359.18 266.09 360.165 266.092 361.382 C266.09 362.6 265.138 363.585 263.938 363.587 C262.739 363.585 261.786 362.6 261.785 361.382 L262.043 361.382 L262.303 361.382 C262.305 362.327 263.033 363.068 263.938 363.068 C264.843 363.068 265.572 362.327 265.573 361.382 C265.572 360.438 264.843 359.696 263.938 359.696 C263.033 359.696 262.305 360.438 262.303 361.382 Z"
     stroke-width="0.0"
     fill="#3b7fff"
     clip-path="url(#clipPath7)"
     stroke="black" />
  <path
     id="path5869"
     d="M158.747 362.679 C158.747 361.598 159.589 360.734 160.641 360.734 C161.694 360.734 162.536 361.598 162.536 362.679 C162.536 363.759 161.694 364.624 160.641 364.624 C159.589 364.624 158.747 363.759 158.747 362.679 "
     stroke-width="0.0"
     fill="#3b7fff"
     clip-path="url(#clipPath7)"
     stroke="black" />
  <path
     id="path5871"
     d="M158.747 362.679 L158.488 362.679 C158.49 361.461 159.442 360.477 160.641 360.475 C161.841 360.477 162.793 361.461 162.795 362.679 C162.793 363.896 161.841 364.881 160.641 364.883 C159.442 364.881 158.49 363.896 158.488 362.679 L158.747 362.679 L159.006 362.679 C159.008 363.623 159.736 364.365 160.641 364.365 C161.546 364.365 162.275 363.623 162.276 362.679 C162.275 361.734 161.547 360.993 160.641 360.993 C159.736 360.993 159.008 361.734 159.006 362.679 Z"
     stroke-width="0.0"
     fill="#3b7fff"
     clip-path="url(#clipPath7)"
     stroke="black" />
  <path
     id="path5873"
     d="M230.221 371.369 C230.221 370.289 231.035 369.424 232.052 369.424 C233.069 369.424 233.883 370.289 233.883 371.369 C233.883 372.45 233.069 373.315 232.052 373.315 C231.035 373.315 230.221 372.45 230.221 371.369 "
     stroke-width="0.0"
     fill="#3b7fff"
     clip-path="url(#clipPath7)"
     stroke="black" />
  <path
     id="path5875"
     d="M230.221 371.369 L229.962 371.369 C229.964 370.159 230.881 369.166 232.052 369.165 C233.224 369.166 234.14 370.159 234.142 371.369 C234.14 372.58 233.224 373.573 232.052 373.574 C230.881 373.573 229.964 372.58 229.962 371.369 L230.221 371.369 L230.48 371.369 C230.483 372.32 231.189 373.054 232.052 373.055 C232.915 373.054 233.621 372.32 233.623 371.369 C233.621 370.418 232.915 369.685 232.052 369.683 C231.189 369.685 230.483 370.419 230.48 371.369 Z"
     stroke-width="0.0"
     fill="#3b7fff"
     clip-path="url(#clipPath7)"
     stroke="black" />
  <path
     id="path5877"
     d="M275.682 369.164 C275.682 368.084 276.524 367.219 277.576 367.219 C278.629 367.219 279.47 368.084 279.47 369.164 C279.47 370.245 278.629 371.11 277.576 371.11 C276.524 371.11 275.682 370.245 275.682 369.164 "
     stroke-width="0.0"
     fill="#3b7fff"
     clip-path="url(#clipPath7)"
     stroke="black" />
  <path
     id="path5879"
     d="M275.682 369.164 L275.423 369.164 C275.425 367.947 276.377 366.962 277.576 366.96 C278.776 366.962 279.728 367.947 279.73 369.164 C279.728 370.382 278.776 371.367 277.576 371.369 C276.377 371.367 275.425 370.382 275.423 369.164 L275.682 369.164 L275.941 369.164 C275.943 370.109 276.671 370.85 277.576 370.85 C278.481 370.85 279.21 370.109 279.211 369.164 C279.21 368.22 278.481 367.478 277.576 367.478 C276.671 367.478 275.943 368.22 275.941 369.164 Z"
     stroke-width="0.0"
     fill="#3b7fff"
     clip-path="url(#clipPath7)"
     stroke="black" />
  <path
     id="path5881"
     d="M246.385 361.772 C246.385 360.691 247.227 359.826 248.279 359.826 C249.332 359.826 250.174 360.691 250.174 361.772 C250.174 362.852 249.332 363.717 248.279 363.717 C247.227 363.717 246.385 362.852 246.385 361.772 "
     stroke-width="0.0"
     fill="#3b7fff"
     clip-path="url(#clipPath7)"
     stroke="black" />
  <path
     id="path5883"
     d="M246.385 361.772 L246.126 361.772 C246.128 360.554 247.08 359.569 248.279 359.567 C249.479 359.569 250.431 360.554 250.433 361.772 C250.431 362.989 249.479 363.974 248.279 363.976 C247.08 363.974 246.128 362.989 246.126 361.772 L246.385 361.772 L246.644 361.772 C246.646 362.716 247.374 363.458 248.279 363.458 C249.184 363.458 249.913 362.716 249.914 361.772 C249.913 360.827 249.184 360.086 248.279 360.086 C247.374 360.086 246.646 360.827 246.644 361.772 Z"
     stroke-width="0.0"
     fill="#3b7fff"
     clip-path="url(#clipPath7)"
     stroke="black" />
  <path
     id="path5885"
     d="M209.259 346.467 C209.259 345.387 210.101 344.522 211.153 344.522 C212.206 344.522 213.048 345.387 213.048 346.467 C213.048 347.548 212.206 348.413 211.153 348.413 C210.101 348.413 209.259 347.548 209.259 346.467 "
     stroke-width="0.0"
     fill="#3b7fff"
     clip-path="url(#clipPath7)"
     stroke="black" />
  <path
     id="path5887"
     d="M209.259 346.467 L209.0 346.467 C209.002 345.25 209.954 344.265 211.153 344.263 C212.353 344.265 213.305 345.25 213.307 346.467 C213.305 347.685 212.353 348.67 211.153 348.672 C209.954 348.67 209.002 347.685 209.0 346.467 L209.259 346.467 L209.518 346.467 C209.52 347.412 210.248 348.153 211.153 348.153 C212.058 348.153 212.787 347.412 212.788 346.467 C212.787 345.523 212.058 344.781 211.153 344.781 C210.248 344.781 209.52 345.523 209.518 346.467 Z"
     stroke-width="0.0"
     fill="#3b7fff"
     clip-path="url(#clipPath7)"
     stroke="black" />
  <path
     id="path5889"
     d="M109.12 363.458 C109.12 362.377 109.962 361.512 111.014 361.512 C112.067 361.512 112.909 362.377 112.909 363.458 C112.909 364.538 112.067 365.403 111.014 365.403 C109.962 365.403 109.12 364.538 109.12 363.458 "
     stroke-width="0.0"
     fill="#3b7fff"
     clip-path="url(#clipPath7)"
     stroke="black" />
  <path
     id="path5891"
     d="M109.12 363.458 L108.861 363.458 C108.863 362.24 109.815 361.255 111.014 361.253 C112.214 361.255 113.166 362.24 113.168 363.458 C113.166 364.675 112.214 365.66 111.014 365.662 C109.815 365.66 108.863 364.675 108.861 363.458 L109.12 363.458 L109.379 363.458 C109.381 364.402 110.109 365.144 111.014 365.144 C111.919 365.144 112.648 364.402 112.649 363.458 C112.648 362.513 111.919 361.772 111.014 361.772 C110.109 361.772 109.381 362.513 109.379 363.458 Z"
     stroke-width="0.0"
     fill="#3b7fff"
     clip-path="url(#clipPath7)"
     stroke="black" />
  <path
     id="path5893"
     d="M257.624 361.252 C257.624 360.172 258.438 359.307 259.454 359.307 C260.471 359.307 261.286 360.172 261.286 361.252 C261.286 362.333 260.471 363.198 259.454 363.198 C258.438 363.198 257.624 362.333 257.624 361.252 "
     stroke-width="0.0"
     fill="#3b7fff"
     clip-path="url(#clipPath7)"
     stroke="black" />
  <path
     id="path5895"
     d="M257.624 361.252 L257.365 361.252 C257.367 360.042 258.284 359.049 259.454 359.048 C260.627 359.049 261.543 360.042 261.545 361.252 C261.543 362.463 260.627 363.456 259.454 363.457 C258.284 363.456 257.367 362.463 257.365 361.252 L257.624 361.252 L257.882 361.252 C257.886 362.203 258.591 362.937 259.454 362.938 C260.317 362.937 261.024 362.203 261.027 361.252 C261.024 360.302 260.317 359.568 259.454 359.566 C258.591 359.568 257.886 360.302 257.882 361.252 Z"
     stroke-width="0.0"
     fill="#3b7fff"
     clip-path="url(#clipPath7)"
     stroke="black" />
  <path
     id="path5897"
     d="M237.167 375.778 C237.167 374.698 237.981 373.833 238.998 373.833 C240.015 373.833 240.829 374.698 240.829 375.778 C240.829 376.859 240.015 377.724 238.998 377.724 C237.981 377.724 237.167 376.859 237.167 375.778 "
     stroke-width="0.0"
     fill="#3b7fff"
     clip-path="url(#clipPath7)"
     stroke="black" />
  <path
     id="path5899"
     d="M237.167 375.778 L236.908 375.778 C236.91 374.568 237.827 373.575 238.998 373.574 C240.17 373.575 241.086 374.568 241.088 375.778 C241.086 376.989 240.17 377.982 238.998 377.983 C237.827 377.982 236.91 376.989 236.908 375.778 L237.167 375.778 L237.426 375.778 C237.429 376.729 238.135 377.463 238.998 377.464 C239.861 377.463 240.568 376.729 240.57 375.778 C240.568 374.828 239.861 374.094 238.998 374.092 C238.135 374.094 237.429 374.828 237.426 375.778 Z"
     stroke-width="0.0"
     fill="#3b7fff"
     clip-path="url(#clipPath7)"
     stroke="black" />
  <path
     id="path5901"
     d="M240.071 333.238 C240.071 332.157 240.913 331.293 241.965 331.293 C243.018 331.293 243.86 332.157 243.86 333.238 C243.86 334.318 243.018 335.183 241.965 335.183 C240.913 335.183 240.071 334.318 240.071 333.238 "
     stroke-width="0.0"
     fill="#3b7fff"
     clip-path="url(#clipPath7)"
     stroke="black" />
  <path
     id="path5903"
     d="M240.071 333.238 L239.812 333.238 C239.814 332.02 240.766 331.036 241.965 331.034 C243.165 331.036 244.117 332.02 244.119 333.238 C244.117 334.455 243.165 335.44 241.965 335.442 C240.766 335.44 239.814 334.455 239.812 333.238 L240.071 333.238 L240.33 333.238 C240.332 334.182 241.06 334.924 241.965 334.924 C242.87 334.924 243.599 334.182 243.6 333.238 C243.599 332.293 242.871 331.552 241.965 331.552 C241.06 331.552 240.332 332.293 240.33 333.238 Z"
     stroke-width="0.0"
     fill="#3b7fff"
     clip-path="url(#clipPath7)"
     stroke="black" />
  <path
     id="path5905"
     d="M225.388 263.335 L223.907 266.529 L223.437 266.311 L224.918 263.117 "
     stroke-width="0.0"
     fill="#060808"
     clip-path="url(#clipPath7)"
     stroke="black" />
  <path
     id="path5907"
     d="M223.62 267.615 L222.139 270.809 L221.669 270.591 L223.15 267.397 "
     stroke-width="0.0"
     fill="#060808"
     clip-path="url(#clipPath7)"
     stroke="black" />
  <path
     id="path5909"
     d="M221.724 271.759 L220.251 275.087 L219.777 274.877 L221.25 271.549 "
     stroke-width="0.0"
     fill="#060808"
     clip-path="url(#clipPath7)"
     stroke="black" />
  <path
     id="path5911"
     d="M219.956 276.04 L218.483 279.367 L218.009 279.157 L219.482 275.83 "
     stroke-width="0.0"
     fill="#060808"
     clip-path="url(#clipPath7)"
     stroke="black" />
  <path
     id="path5913"
     d="M218.056 280.307 L216.728 283.642 L216.246 283.451 L217.574 280.115 "
     stroke-width="0.0"
     fill="#060808"
     clip-path="url(#clipPath7)"
     stroke="black" />
  <path
     id="path5915"
     d="M216.294 284.599 L214.821 287.927 L214.347 287.717 L215.82 284.389 "
     stroke-width="0.0"
     fill="#060808"
     clip-path="url(#clipPath7)"
     stroke="black" />
  <path
     id="path5917"
     d="M214.394 288.867 L213.066 292.202 L212.584 292.01 L213.912 288.675 "
     stroke-width="0.0"
     fill="#060808"
     clip-path="url(#clipPath7)"
     stroke="black" />
  <path
     id="path5919"
     d="M212.632 293.159 L211.159 296.487 L210.685 296.277 L212.158 292.949 "
     stroke-width="0.0"
     fill="#060808"
     clip-path="url(#clipPath7)"
     stroke="black" />
  <path
     id="path5921"
     d="M210.732 297.426 L209.404 300.761 L208.922 300.57 L210.25 297.234 "
     stroke-width="0.0"
     fill="#060808"
     clip-path="url(#clipPath7)"
     stroke="black" />
  <path
     id="path5923"
     d="M208.97 301.72 L207.497 305.047 L207.023 304.837 L208.496 301.51 "
     stroke-width="0.0"
     fill="#060808"
     clip-path="url(#clipPath7)"
     stroke="black" />
  <path
     id="path5925"
     d="M207.202 305.999 L205.729 309.327 L205.255 309.117 L206.728 305.789 "
     stroke-width="0.0"
     fill="#060808"
     clip-path="url(#clipPath7)"
     stroke="black" />
  <path
     id="path5927"
     d="M205.302 310.266 L203.974 313.601 L203.492 313.41 L204.82 310.074 "
     stroke-width="0.0"
     fill="#060808"
     clip-path="url(#clipPath7)"
     stroke="black" />
  <path
     id="path5929"
     d="M203.54 314.559 L202.067 317.887 L201.593 317.677 L203.066 314.349 "
     stroke-width="0.0"
     fill="#060808"
     clip-path="url(#clipPath7)"
     stroke="black" />
  <path
     id="path5931"
     d="M201.64 318.826 L200.312 322.161 L199.83 321.97 L201.158 318.634 "
     stroke-width="0.0"
     fill="#060808"
     clip-path="url(#clipPath7)"
     stroke="black" />
  <path
     id="path5933"
     d="M199.878 323.119 L198.405 326.447 L197.931 326.237 L199.404 322.909 "
     stroke-width="0.0"
     fill="#060808"
     clip-path="url(#clipPath7)"
     stroke="black" />
  <path
     id="path5935"
     d="M197.978 327.386 L196.65 330.721 L196.168 330.53 L197.496 327.194 "
     stroke-width="0.0"
     fill="#060808"
     clip-path="url(#clipPath7)"
     stroke="black" />
  <path
     id="path5937"
     d="M196.215 331.679 L194.742 335.007 L194.268 334.797 L195.741 331.469 "
     stroke-width="0.0"
     fill="#060808"
     clip-path="url(#clipPath7)"
     stroke="black" />
  <path
     id="path5939"
     d="M194.447 335.959 L192.974 339.287 L192.5 339.077 L193.973 335.749 "
     stroke-width="0.0"
     fill="#060808"
     clip-path="url(#clipPath7)"
     stroke="black" />
  <path
     id="path5941"
     d="M192.553 340.239 L191.08 343.567 L190.606 343.357 L192.079 340.029 "
     stroke-width="0.0"
     fill="#060808"
     clip-path="url(#clipPath7)"
     stroke="black" />
  <path
     id="path5943"
     d="M190.786 344.519 L189.313 347.847 L188.839 347.637 L190.312 344.309 "
     stroke-width="0.0"
     fill="#060808"
     clip-path="url(#clipPath7)"
     stroke="black" />
  <path
     id="path5945"
     d="M188.886 348.787 L187.558 352.122 L187.076 351.93 L188.404 348.595 "
     stroke-width="0.0"
     fill="#060808"
     clip-path="url(#clipPath7)"
     stroke="black" />
  <path
     id="path5947"
     d="M187.123 352.949 L185.65 356.277 L185.176 356.067 L186.649 352.739 "
     stroke-width="0.0"
     fill="#060808"
     clip-path="url(#clipPath7)"
     stroke="black" />
  <path
     id="path5949"
     d="M185.224 357.217 L183.896 360.552 L183.414 360.36 L184.742 357.025 "
     stroke-width="0.0"
     fill="#060808"
     clip-path="url(#clipPath7)"
     stroke="black" />
  <path
     id="path5951"
     d="M183.461 361.509 L181.988 364.837 L181.514 364.628 L182.987 361.299 "
     stroke-width="0.0"
     fill="#060808"
     clip-path="url(#clipPath7)"
     stroke="black" />
  <path
     id="path5953"
     d="M181.693 365.789 L180.22 369.117 L179.746 368.907 L181.219 365.579 "
     stroke-width="0.0"
     fill="#060808"
     clip-path="url(#clipPath7)"
     stroke="black" />
  <path
     id="path5955"
     d="M179.794 370.057 L178.466 373.392 L177.984 373.2 L179.312 369.865 "
     stroke-width="0.0"
     fill="#060808"
     clip-path="url(#clipPath7)"
     stroke="black" />
  <path
     id="path5957"
     d="M178.036 374.362 L177.178 376.124 L176.711 375.897 L177.57 374.135 "
     stroke-width="0.0"
     fill="#060808"
     clip-path="url(#clipPath7)"
     stroke="black" />
  <path
     id="path5959"
     d="M225.17 263.117 L226.651 266.311 L226.181 266.529 L224.7 263.335 "
     stroke-width="0.0"
     fill="#060808"
     clip-path="url(#clipPath7)"
     stroke="black" />
  <path
     id="path5961"
     d="M226.938 267.397 L228.419 270.591 L227.949 270.809 L226.468 267.615 "
     stroke-width="0.0"
     fill="#060808"
     clip-path="url(#clipPath7)"
     stroke="black" />
  <path
     id="path5963"
     d="M228.851 271.554 L230.179 274.89 L229.698 275.081 L228.369 271.746 "
     stroke-width="0.0"
     fill="#060808"
     clip-path="url(#clipPath7)"
     stroke="black" />
  <path
     id="path5965"
     d="M230.606 275.83 L232.079 279.157 L231.605 279.367 L230.132 276.04 "
     stroke-width="0.0"
     fill="#060808"
     clip-path="url(#clipPath7)"
     stroke="black" />
  <path
     id="path5967"
     d="M232.513 280.115 L233.841 283.451 L233.36 283.642 L232.031 280.307 "
     stroke-width="0.0"
     fill="#060808"
     clip-path="url(#clipPath7)"
     stroke="black" />
  <path
     id="path5969"
     d="M234.268 284.389 L235.741 287.717 L235.267 287.927 L233.794 284.599 "
     stroke-width="0.0"
     fill="#060808"
     clip-path="url(#clipPath7)"
     stroke="black" />
  <path
     id="path5971"
     d="M236.175 288.675 L237.503 292.01 L237.022 292.202 L235.693 288.867 "
     stroke-width="0.0"
     fill="#060808"
     clip-path="url(#clipPath7)"
     stroke="black" />
  <path
     id="path5973"
     d="M237.93 292.949 L239.403 296.277 L238.929 296.487 L237.456 293.159 "
     stroke-width="0.0"
     fill="#060808"
     clip-path="url(#clipPath7)"
     stroke="black" />
  <path
     id="path5975"
     d="M239.698 297.229 L241.171 300.557 L240.696 300.767 L239.224 297.439 "
     stroke-width="0.0"
     fill="#060808"
     clip-path="url(#clipPath7)"
     stroke="black" />
  <path
     id="path5977"
     d="M241.605 301.515 L242.933 304.85 L242.452 305.042 L241.123 301.707 "
     stroke-width="0.0"
     fill="#060808"
     clip-path="url(#clipPath7)"
     stroke="black" />
  <path
     id="path5979"
     d="M243.36 305.79 L244.833 309.118 L244.358 309.328 L242.886 306.0 "
     stroke-width="0.0"
     fill="#060808"
     clip-path="url(#clipPath7)"
     stroke="black" />
  <path
     id="path5981"
     d="M245.267 310.074 L246.595 313.409 L246.114 313.602 L244.785 310.266 "
     stroke-width="0.0"
     fill="#060808"
     clip-path="url(#clipPath7)"
     stroke="black" />
  <path
     id="path5983"
     d="M247.022 314.349 L248.495 317.677 L248.021 317.887 L246.548 314.559 "
     stroke-width="0.0"
     fill="#060808"
     clip-path="url(#clipPath7)"
     stroke="black" />
  <path
     id="path5985"
     d="M248.929 318.634 L250.257 321.969 L249.776 322.161 L248.447 318.826 "
     stroke-width="0.0"
     fill="#060808"
     clip-path="url(#clipPath7)"
     stroke="black" />
  <path
     id="path5987"
     d="M250.684 322.909 L252.157 326.237 L251.682 326.447 L250.21 323.119 "
     stroke-width="0.0"
     fill="#060808"
     clip-path="url(#clipPath7)"
     stroke="black" />
  <path
     id="path5989"
     d="M252.452 327.189 L253.925 330.517 L253.451 330.727 L251.978 327.399 "
     stroke-width="0.0"
     fill="#060808"
     clip-path="url(#clipPath7)"
     stroke="black" />
  <path
     id="path5991"
     d="M254.359 331.474 L255.687 334.809 L255.206 335.001 L253.877 331.666 "
     stroke-width="0.0"
     fill="#060808"
     clip-path="url(#clipPath7)"
     stroke="black" />
  <path
     id="path5993"
     d="M256.115 335.749 L257.588 339.077 L257.113 339.287 L255.641 335.959 "
     stroke-width="0.0"
     fill="#060808"
     clip-path="url(#clipPath7)"
     stroke="black" />
  <path
     id="path5995"
     d="M258.021 340.034 L259.349 343.369 L258.868 343.561 L257.539 340.226 "
     stroke-width="0.0"
     fill="#060808"
     clip-path="url(#clipPath7)"
     stroke="black" />
  <path
     id="path5997"
     d="M259.776 344.309 L261.249 347.637 L260.774 347.847 L259.302 344.519 "
     stroke-width="0.0"
     fill="#060808"
     clip-path="url(#clipPath7)"
     stroke="black" />
  <path
     id="path5999"
     d="M261.683 348.595 L263.011 351.93 L262.53 352.122 L261.201 348.787 "
     stroke-width="0.0"
     fill="#060808"
     clip-path="url(#clipPath7)"
     stroke="black" />
  <path
     id="path6001"
     d="M263.439 352.74 L264.912 356.068 L264.437 356.277 L262.965 352.949 "
     stroke-width="0.0"
     fill="#060808"
     clip-path="url(#clipPath7)"
     stroke="black" />
  <path
     id="path6003"
     d="M265.207 357.02 L266.68 360.347 L266.206 360.557 L264.733 357.23 "
     stroke-width="0.0"
     fill="#060808"
     clip-path="url(#clipPath7)"
     stroke="black" />
  <path
     id="path6005"
     d="M267.113 361.305 L268.441 364.64 L267.96 364.832 L266.632 361.497 "
     stroke-width="0.0"
     fill="#060808"
     clip-path="url(#clipPath7)"
     stroke="black" />
  <path
     id="path6007"
     d="M268.868 365.579 L270.341 368.908 L269.866 369.117 L268.395 365.789 "
     stroke-width="0.0"
     fill="#060808"
     clip-path="url(#clipPath7)"
     stroke="black" />
  <path
     id="path6009"
     d="M270.775 369.865 L272.103 373.2 L271.622 373.392 L270.293 370.057 "
     stroke-width="0.0"
     fill="#060808"
     clip-path="url(#clipPath7)"
     stroke="black" />
  <path
     id="path6011"
     d="M272.518 374.135 L273.376 375.897 L272.91 376.124 L272.052 374.362 "
     stroke-width="0.0"
     fill="#060808"
     clip-path="url(#clipPath7)"
     stroke="black" />
  <path
     id="path6013"
     d="M225.303 263.201 L225.303 376.037 L224.785 376.037 L224.785 263.201 "
     stroke-width="0.0"
     fill="#060808"
     clip-path="url(#clipPath7)"
     stroke="black" />
  <path
     id="path6015"
     d="M107.601 381.226 L107.601 259.829 L107.86 259.829 L107.86 381.226 "
     stroke-width="0.0"
     fill="#060808"
     clip-path="url(#clipPath7)"
     stroke="black" />
  <path
     id="path6017"
     d="M107.86 263.591 L105.454 263.591 L105.454 263.332 L107.86 263.332 "
     stroke-width="0.0"
     fill="#060808"
     clip-path="url(#clipPath7)"
     stroke="black" />
  <text
     id="text6019"
     font-weight="normal"
     font-family="Helvetica"
     font-size="5.375"
     y="265.022"
     x="102.853"
     transform="matrix(0.0,-1.0,1.0,0.0,-162.16853,367.87493)"
     svgx:width="556.0"
     svgx:fontName="KXXXPR+ArialMT"
     clip-path="url(#clipPath2)"
     fill="#060808"
     stroke="none">0</text>
  <path
     id="path6021"
     d="M107.86 301.592 L105.454 301.592 L105.454 301.333 L107.86 301.333 "
     stroke-width="0.0"
     fill="#060808"
     clip-path="url(#clipPath7)"
     stroke="black" />
  <text
     id="text6023"
     font-weight="normal"
     font-family="Helvetica"
     font-size="5.375"
     y="303.666"
     x="102.853"
     transform="matrix(0.0,-1.0,1.0,0.0,-200.81269,406.5191)"
     svgx:width="278.0"
     svgx:fontName="KXXXPR+ArialMT"
     clip-path="url(#clipPath2)"
     fill="#060808"
     stroke="none">.</text>
  <text
     id="text6025"
     font-weight="normal"
     font-family="Helvetica"
     font-size="5.375"
     y="302.113"
     x="102.853"
     transform="matrix(0.0,-1.0,1.0,0.0,-199.26023,404.96664)"
     svgx:width="556.0"
     svgx:fontName="KXXXPR+ArialMT"
     clip-path="url(#clipPath2)"
     fill="#060808"
     stroke="none">1</text>
  <path
     id="path6027"
     d="M107.86 339.722 L105.454 339.722 L105.454 339.463 L107.86 339.463 "
     stroke-width="0.0"
     fill="#060808"
     clip-path="url(#clipPath7)"
     stroke="black" />
  <text
     id="text6029"
     font-weight="normal"
     font-family="Helvetica"
     font-size="5.375"
     y="341.798"
     x="102.853"
     transform="matrix(0.0,-1.0,1.0,0.0,-238.9452,444.6516)"
     svgx:width="278.0"
     svgx:fontName="KXXXPR+ArialMT"
     clip-path="url(#clipPath2)"
     fill="#060808"
     stroke="none">.</text>
  <text
     id="text6031"
     font-weight="normal"
     font-family="Helvetica"
     font-size="5.375"
     y="340.246"
     x="102.853"
     transform="matrix(0.0,-1.0,1.0,0.0,-237.39274,443.09914)"
     svgx:width="556.0"
     svgx:fontName="KXXXPR+ArialMT"
     clip-path="url(#clipPath2)"
     fill="#060808"
     stroke="none">2</text>
  <path
     id="path6033"
     d="M107.86 377.854 L105.454 377.854 L105.454 377.595 L107.86 377.595 "
     stroke-width="0.0"
     fill="#060808"
     clip-path="url(#clipPath7)"
     stroke="black" />
  <text
     id="text6035"
     font-weight="normal"
     font-family="Helvetica"
     font-size="5.375"
     y="379.931"
     x="102.853"
     transform="matrix(0.0,-1.0,1.0,0.0,-277.07771,482.78411)"
     svgx:width="278.0"
     svgx:fontName="KXXXPR+ArialMT"
     clip-path="url(#clipPath2)"
     fill="#060808"
     stroke="none">.</text>
  <text
     id="text6037"
     font-weight="normal"
     font-family="Helvetica"
     font-size="5.375"
     y="378.378"
     x="102.853"
     transform="matrix(0.0,-1.0,1.0,0.0,-275.52525,481.23165)"
     svgx:width="556.0"
     svgx:fontName="KXXXPR+ArialMT"
     clip-path="url(#clipPath2)"
     fill="#060808"
     stroke="none">3</text>
  <text
     id="text6039"
     font-weight="normal"
     font-family="Helvetica"
     font-size="5.375"
     y="331.293"
     x="97.046"
     transform="matrix(0.0,-1.0,1.0,0.0,-234.24719,428.3385)"
     svgx:width="500.0"
     svgx:fontName="KXXXPR+ArialMT"
     clip-path="url(#clipPath2)"
     fill="#060808"
     stroke="none">s</text>
  <text
     id="text6041"
     font-weight="normal"
     font-family="Helvetica"
     font-size="5.375"
     y="328.569"
     x="97.046"
     transform="matrix(0.0,-1.0,1.0,0.0,-231.52359,425.6149)"
     svgx:width="556.0"
     svgx:fontName="KXXXPR+ArialMT"
     clip-path="url(#clipPath2)"
     fill="#060808"
     stroke="none">e</text>
  <text
     id="text6043"
     font-weight="normal"
     font-family="Helvetica"
     font-size="5.375"
     y="325.459"
     x="97.046"
     transform="matrix(0.0,-1.0,1.0,0.0,-228.41324,422.50455)"
     svgx:width="333.0"
     svgx:fontName="KXXXPR+ArialMT"
     clip-path="url(#clipPath2)"
     fill="#060808"
     stroke="none">(</text>
  <text
     id="text6045"
     font-weight="normal"
     font-family="Helvetica"
     font-size="5.375"
     y="323.645"
     x="97.046"
     transform="matrix(0.0,-1.0,1.0,0.0,-226.59933,420.69064)"
     svgx:width="667.0"
     svgx:fontName="KXXXPR+ArialMT"
     clip-path="url(#clipPath2)"
     fill="#060808"
     stroke="none">S</text>
  <text
     id="text6047"
     font-weight="normal"
     font-family="Helvetica"
     font-size="5.375"
     y="320.012"
     x="97.046"
     transform="matrix(0.0,-1.0,1.0,0.0,-222.96606,417.05737)"
     svgx:width="833.0"
     svgx:fontName="KXXXPR+ArialMT"
     clip-path="url(#clipPath2)"
     fill="#060808"
     stroke="none">M</text>
  <text
     id="text6049"
     font-weight="normal"
     font-family="Helvetica"
     font-size="5.375"
     y="315.474"
     x="97.046"
     transform="matrix(0.0,-1.0,1.0,0.0,-218.42856,412.51987)"
     svgx:width="722.0"
     svgx:fontName="KXXXPR+ArialMT"
     clip-path="url(#clipPath2)"
     fill="#060808"
     stroke="none">D</text>
  <text
     id="text6051"
     font-weight="normal"
     font-family="Helvetica"
     font-size="5.375"
     y="311.579"
     x="97.046"
     transform="matrix(0.0,-1.0,1.0,0.0,-214.53378,408.62509)"
     svgx:width="333.0"
     svgx:fontName="KXXXPR+ArialMT"
     clip-path="url(#clipPath2)"
     fill="#060808"
     stroke="none">)</text>
  <path
     id="path6053"
     d="M107.601 380.967 L290.207 380.967 L290.207 381.226 L107.601 381.226 "
     stroke-width="0.0"
     fill="#060808"
     clip-path="url(#clipPath7)"
     stroke="black" />
  <path
     id="path6055"
     d="M121.12 380.967 L121.12 383.431 L120.861 383.431 L120.861 380.967 "
     stroke-width="0.0"
     fill="#060808"
     clip-path="url(#clipPath7)"
     stroke="black" />
  <text
     id="text6057"
     font-weight="normal"
     font-family="Helvetica"
     font-size="5.375"
     y="389.818"
     x="116.441"
     svgx:width="333.0"
     svgx:fontName="KXXXPR+ArialMT"
     clip-path="url(#clipPath2)"
     fill="#060808"
     stroke="none">-</text>
  <text
     id="text6059"
     font-weight="normal"
     font-family="Helvetica"
     font-size="5.375"
     y="389.818"
     x="118.207"
     svgx:width="556.0"
     svgx:fontName="KXXXPR+ArialMT"
     clip-path="url(#clipPath2)"
     fill="#060808"
     stroke="none">1</text>
  <text
     id="text6061"
     font-weight="normal"
     font-family="Helvetica"
     font-size="5.375"
     y="389.818"
     x="121.114"
     svgx:width="278.0"
     svgx:fontName="KXXXPR+ArialMT"
     clip-path="url(#clipPath2)"
     fill="#060808"
     stroke="none">.</text>
  <text
     id="text6063"
     font-weight="normal"
     font-family="Helvetica"
     font-size="5.375"
     y="389.818"
     x="122.625"
     svgx:width="556.0"
     svgx:fontName="KXXXPR+ArialMT"
     clip-path="url(#clipPath2)"
     fill="#060808"
     stroke="none">5</text>
  <path
     id="path6065"
     d="M162.28 383.431 L162.539 383.431 L162.539 380.967 L162.28 380.967 Z"
     stroke-width="0.0"
     fill="#060808"
     clip-path="url(#clipPath2)"
     stroke="black" />
  <text
     id="text6067"
     font-weight="normal"
     font-family="Helvetica"
     font-size="5.375"
     y="389.818"
     x="160.133"
     svgx:width="333.0"
     svgx:fontName="KXXXPR+ArialMT"
     clip-path="url(#clipPath2)"
     fill="#060808"
     stroke="none">-</text>
  <text
     id="text6069"
     font-weight="normal"
     font-family="Helvetica"
     font-size="5.375"
     y="389.818"
     x="161.899"
     svgx:width="556.0"
     svgx:fontName="KXXXPR+ArialMT"
     clip-path="url(#clipPath2)"
     fill="#060808"
     stroke="none">1</text>
  <path
     id="path6071"
     d="M203.7 383.431 L203.959 383.431 L203.959 380.967 L203.7 380.967 Z"
     stroke-width="0.0"
     fill="#060808"
     clip-path="url(#clipPath2)"
     stroke="black" />
  <text
     id="text6073"
     font-weight="normal"
     font-family="Helvetica"
     font-size="5.375"
     y="389.818"
     x="200.797"
     svgx:width="333.0"
     svgx:fontName="KXXXPR+ArialMT"
     clip-path="url(#clipPath2)"
     fill="#060808"
     stroke="none">-</text>
  <text
     id="text6075"
     font-weight="normal"
     font-family="Helvetica"
     font-size="5.375"
     y="389.818"
     x="202.564"
     svgx:width="278.0"
     svgx:fontName="KXXXPR+ArialMT"
     clip-path="url(#clipPath2)"
     fill="#060808"
     stroke="none">.</text>
  <text
     id="text6077"
     font-weight="normal"
     font-family="Helvetica"
     font-size="5.375"
     y="389.818"
     x="203.958"
     svgx:width="556.0"
     svgx:fontName="KXXXPR+ArialMT"
     clip-path="url(#clipPath2)"
     fill="#060808"
     stroke="none">5</text>
  <path
     id="path6079"
     d="M245.119 383.431 L245.378 383.431 L245.378 380.967 L245.119 380.967 Z"
     stroke-width="0.0"
     fill="#060808"
     clip-path="url(#clipPath2)"
     stroke="black" />
  <text
     id="text6081"
     font-weight="normal"
     font-family="Helvetica"
     font-size="5.375"
     y="389.818"
     x="243.858"
     svgx:width="556.0"
     svgx:fontName="KXXXPR+ArialMT"
     clip-path="url(#clipPath2)"
     fill="#060808"
     stroke="none">0</text>
  <path
     id="path6083"
     d="M286.664 383.431 L286.923 383.431 L286.923 380.967 L286.664 380.967 Z"
     stroke-width="0.0"
     fill="#060808"
     clip-path="url(#clipPath2)"
     stroke="black" />
  <text
     id="text6085"
     font-weight="normal"
     font-family="Helvetica"
     font-size="5.375"
     y="389.818"
     x="284.647"
     svgx:width="278.0"
     svgx:fontName="KXXXPR+ArialMT"
     clip-path="url(#clipPath2)"
     fill="#060808"
     stroke="none">.</text>
  <text
     id="text6087"
     font-weight="normal"
     font-family="Helvetica"
     font-size="5.375"
     y="389.818"
     x="286.042"
     svgx:width="556.0"
     svgx:fontName="KXXXPR+ArialMT"
     clip-path="url(#clipPath2)"
     fill="#060808"
     stroke="none">5</text>
  <text
     id="text6089"
     font-weight="normal"
     font-family="Helvetica"
     font-size="5.375"
     y="393.978"
     x="193.093"
     svgx:width="667.0"
     svgx:fontName="KXXXPR+ArialMT"
     clip-path="url(#clipPath7)"
     fill="#060808"
     stroke="none">S</text>
  <text
     id="text6091"
     font-weight="normal"
     font-family="Helvetica"
     font-size="5.375"
     y="393.978"
     x="196.63"
     svgx:width="833.0"
     svgx:fontName="KXXXPR+ArialMT"
     clip-path="url(#clipPath7)"
     fill="#060808"
     stroke="none">M</text>
  <text
     id="text6093"
     font-weight="normal"
     font-family="Helvetica"
     font-size="5.375"
     y="393.978"
     x="200.926"
     svgx:width="722.0"
     svgx:fontName="KXXXPR+ArialMT"
     clip-path="url(#clipPath7)"
     fill="#060808"
     stroke="none">D</text>
  <text
     id="text6095"
     font-weight="normal"
     font-family="Helvetica"
     font-size="5.887"
     y="257.119"
     x="139.806"
     svgx:width="611.0"
     svgx:fontName="KXXXPR+ArialMT"
     clip-path="url(#clipPath2)"
     fill="#060808"
     stroke="none">F</text>
  <text
     id="text6097"
     font-weight="normal"
     font-family="Helvetica"
     font-size="5.887"
     y="257.119"
     x="143.344"
     svgx:width="556.0"
     svgx:fontName="KXXXPR+ArialMT"
     clip-path="url(#clipPath2)"
     fill="#060808"
     stroke="none">u</text>
  <text
     id="text6099"
     font-weight="normal"
     font-family="Helvetica"
     font-size="5.887"
     y="257.119"
     x="146.504"
     svgx:width="556.0"
     svgx:fontName="KXXXPR+ArialMT"
     clip-path="url(#clipPath2)"
     fill="#060808"
     stroke="none">n</text>
  <text
     id="text6101"
     font-weight="normal"
     font-family="Helvetica"
     font-size="5.887"
     y="257.119"
     x="149.786"
     svgx:width="556.0"
     svgx:fontName="KXXXPR+ArialMT"
     clip-path="url(#clipPath2)"
     fill="#060808"
     stroke="none">n</text>
  <text
     id="text6103"
     font-weight="normal"
     font-family="Helvetica"
     font-size="5.887"
     y="257.119"
     x="152.946"
     svgx:width="556.0"
     svgx:fontName="KXXXPR+ArialMT"
     clip-path="url(#clipPath2)"
     fill="#060808"
     stroke="none">e</text>
  <text
     id="text6105"
     font-weight="normal"
     font-family="Helvetica"
     font-size="5.887"
     y="257.119"
     x="156.106"
     svgx:width="222.0"
     svgx:fontName="KXXXPR+ArialMT"
     clip-path="url(#clipPath2)"
     fill="#060808"
     stroke="none">l</text>
  <text
     id="text6109"
     font-weight="normal"
     font-family="Helvetica"
     font-size="5.887"
     y="257.119"
     x="159.01"
     svgx:width="556.0"
     svgx:fontName="KXXXPR+ArialMT"
     clip-path="url(#clipPath2)"
     fill="#060808"
     stroke="none">p</text>
  <text
     id="text6111"
     font-weight="normal"
     font-family="Helvetica"
     font-size="5.887"
     y="257.119"
     x="162.17"
     svgx:width="222.0"
     svgx:fontName="KXXXPR+ArialMT"
     clip-path="url(#clipPath2)"
     fill="#060808"
     stroke="none">l</text>
  <text
     id="text6113"
     font-weight="normal"
     font-family="Helvetica"
     font-size="5.887"
     y="257.119"
     x="163.437"
     svgx:width="556.0"
     svgx:fontName="KXXXPR+ArialMT"
     clip-path="url(#clipPath2)"
     fill="#060808"
     stroke="none">o</text>
  <text
     id="text6115"
     font-weight="normal"
     font-family="Helvetica"
     font-size="5.887"
     y="257.119"
     x="166.719"
     svgx:width="278.0"
     svgx:fontName="KXXXPR+ArialMT"
     clip-path="url(#clipPath2)"
     fill="#060808"
     stroke="none">t</text>
  <text
     id="text6119"
     font-weight="normal"
     font-family="Helvetica"
     font-size="5.887"
     y="257.119"
     x="169.995"
     svgx:width="722.0"
     svgx:fontName="KXXXPR+ArialMT"
     clip-path="url(#clipPath2)"
     fill="#060808"
     stroke="none">w</text>
  <text
     id="text6121"
     font-weight="normal"
     font-family="Helvetica"
     font-size="5.887"
     y="257.119"
     x="174.038"
     svgx:width="222.0"
     svgx:fontName="KXXXPR+ArialMT"
     clip-path="url(#clipPath2)"
     fill="#060808"
     stroke="none">i</text>
  <text
     id="text6123"
     font-weight="normal"
     font-family="Helvetica"
     font-size="5.887"
     y="257.119"
     x="175.304"
     svgx:width="278.0"
     svgx:fontName="KXXXPR+ArialMT"
     clip-path="url(#clipPath2)"
     fill="#060808"
     stroke="none">t</text>
  <text
     id="text6125"
     font-weight="normal"
     font-family="Helvetica"
     font-size="5.887"
     y="257.119"
     x="176.942"
     svgx:width="556.0"
     svgx:fontName="KXXXPR+ArialMT"
     clip-path="url(#clipPath2)"
     fill="#060808"
     stroke="none">h</text>
  <text
     id="text6129"
     font-weight="normal"
     font-family="Helvetica"
     font-size="5.887"
     y="257.119"
     x="181.741"
     svgx:width="556.0"
     svgx:fontName="KXXXPR+ArialMT"
     clip-path="url(#clipPath2)"
     fill="#060808"
     stroke="none">p</text>
  <text
     id="text6131"
     font-weight="normal"
     font-family="Helvetica"
     font-size="5.887"
     y="257.119"
     x="184.901"
     svgx:width="500.0"
     svgx:fontName="KXXXPR+ArialMT"
     clip-path="url(#clipPath2)"
     fill="#060808"
     stroke="none">s</text>
  <text
     id="text6133"
     font-weight="normal"
     font-family="Helvetica"
     font-size="5.887"
     y="257.119"
     x="187.805"
     svgx:width="556.0"
     svgx:fontName="KXXXPR+ArialMT"
     clip-path="url(#clipPath2)"
     fill="#060808"
     stroke="none">e</text>
  <text
     id="text6135"
     font-weight="normal"
     font-family="Helvetica"
     font-size="5.887"
     y="257.119"
     x="191.087"
     svgx:width="556.0"
     svgx:fontName="KXXXPR+ArialMT"
     clip-path="url(#clipPath2)"
     fill="#060808"
     stroke="none">u</text>
  <text
     id="text6137"
     font-weight="normal"
     font-family="Helvetica"
     font-size="5.887"
     y="257.119"
     x="194.247"
     svgx:width="556.0"
     svgx:fontName="KXXXPR+ArialMT"
     clip-path="url(#clipPath2)"
     fill="#060808"
     stroke="none">d</text>
  <text
     id="text6139"
     font-weight="normal"
     font-family="Helvetica"
     font-size="5.887"
     y="257.119"
     x="197.407"
     svgx:width="556.0"
     svgx:fontName="KXXXPR+ArialMT"
     clip-path="url(#clipPath2)"
     fill="#060808"
     stroke="none">o</text>
  <text
     id="text6143"
     font-weight="normal"
     font-family="Helvetica"
     font-size="5.887"
     y="257.119"
     x="202.327"
     svgx:width="556.0"
     svgx:fontName="KXXXPR+ArialMT"
     clip-path="url(#clipPath2)"
     fill="#060808"
     stroke="none">9</text>
  <text
     id="text6145"
     font-weight="normal"
     font-family="Helvetica"
     font-size="5.887"
     y="257.119"
     x="205.487"
     svgx:width="556.0"
     svgx:fontName="KXXXPR+ArialMT"
     clip-path="url(#clipPath2)"
     fill="#060808"
     stroke="none">5</text>
  <text
     id="text6147"
     font-weight="normal"
     font-family="Helvetica"
     font-size="5.887"
     y="257.119"
     x="208.647"
     svgx:width="889.0"
     svgx:fontName="KXXXPR+ArialMT"
     clip-path="url(#clipPath2)"
     fill="#060808"
     stroke="none">%</text>
  <text
     id="text6151"
     font-weight="normal"
     font-family="Helvetica"
     font-size="5.887"
     y="257.119"
     x="215.461"
     svgx:width="500.0"
     svgx:fontName="KXXXPR+ArialMT"
     clip-path="url(#clipPath2)"
     fill="#060808"
     stroke="none">c</text>
  <text
     id="text6153"
     font-weight="normal"
     font-family="Helvetica"
     font-size="5.887"
     y="257.119"
     x="218.366"
     svgx:width="556.0"
     svgx:fontName="KXXXPR+ArialMT"
     clip-path="url(#clipPath2)"
     fill="#060808"
     stroke="none">o</text>
  <text
     id="text6155"
     font-weight="normal"
     font-family="Helvetica"
     font-size="5.887"
     y="257.119"
     x="221.526"
     svgx:width="556.0"
     svgx:fontName="KXXXPR+ArialMT"
     clip-path="url(#clipPath2)"
     fill="#060808"
     stroke="none">n</text>
  <text
     id="text6157"
     font-weight="normal"
     font-family="Helvetica"
     font-size="5.887"
     y="257.119"
     x="224.808"
     svgx:width="278.0"
     svgx:fontName="KXXXPR+ArialMT"
     clip-path="url(#clipPath2)"
     fill="#060808"
     stroke="none">f</text>
  <text
     id="text6159"
     font-weight="normal"
     font-family="Helvetica"
     font-size="5.887"
     y="257.119"
     x="226.446"
     svgx:width="222.0"
     svgx:fontName="KXXXPR+ArialMT"
     clip-path="url(#clipPath2)"
     fill="#060808"
     stroke="none">i</text>
  <text
     id="text6161"
     font-weight="normal"
     font-family="Helvetica"
     font-size="5.887"
     y="257.119"
     x="227.712"
     svgx:width="556.0"
     svgx:fontName="KXXXPR+ArialMT"
     clip-path="url(#clipPath2)"
     fill="#060808"
     stroke="none">d</text>
  <text
     id="text6163"
     font-weight="normal"
     font-family="Helvetica"
     font-size="5.887"
     y="257.119"
     x="230.872"
     svgx:width="556.0"
     svgx:fontName="KXXXPR+ArialMT"
     clip-path="url(#clipPath2)"
     fill="#060808"
     stroke="none">e</text>
  <text
     id="text6165"
     font-weight="normal"
     font-family="Helvetica"
     font-size="5.887"
     y="257.119"
     x="234.154"
     svgx:width="556.0"
     svgx:fontName="KXXXPR+ArialMT"
     clip-path="url(#clipPath2)"
     fill="#060808"
     stroke="none">n</text>
  <text
     id="text6167"
     font-weight="normal"
     font-family="Helvetica"
     font-size="5.887"
     y="257.119"
     x="237.314"
     svgx:width="500.0"
     svgx:fontName="KXXXPR+ArialMT"
     clip-path="url(#clipPath2)"
     fill="#060808"
     stroke="none">c</text>
  <text
     id="text6169"
     font-weight="normal"
     font-family="Helvetica"
     font-size="5.887"
     y="257.119"
     x="240.219"
     svgx:width="556.0"
     svgx:fontName="KXXXPR+ArialMT"
     clip-path="url(#clipPath2)"
     fill="#060808"
     stroke="none">e</text>
  <text
     id="text6173"
     font-weight="normal"
     font-family="Helvetica"
     font-size="5.887"
     y="257.119"
     x="245.017"
     svgx:width="222.0"
     svgx:fontName="KXXXPR+ArialMT"
     clip-path="url(#clipPath2)"
     fill="#060808"
     stroke="none">l</text>
  <text
     id="text6175"
     font-weight="normal"
     font-family="Helvetica"
     font-size="5.887"
     y="257.119"
     x="246.283"
     svgx:width="222.0"
     svgx:fontName="KXXXPR+ArialMT"
     clip-path="url(#clipPath2)"
     fill="#060808"
     stroke="none">i</text>
  <text
     id="text6177"
     font-weight="normal"
     font-family="Helvetica"
     font-size="5.887"
     y="257.119"
     x="247.55"
     svgx:width="833.0"
     svgx:fontName="KXXXPR+ArialMT"
     clip-path="url(#clipPath2)"
     fill="#060808"
     stroke="none">m</text>
  <text
     id="text6179"
     font-weight="normal"
     font-family="Helvetica"
     font-size="5.887"
     y="257.119"
     x="252.354"
     svgx:width="222.0"
     svgx:fontName="KXXXPR+ArialMT"
     clip-path="url(#clipPath2)"
     fill="#060808"
     stroke="none">i</text>
  <text
     id="text6181"
     font-weight="normal"
     font-family="Helvetica"
     font-size="5.887"
     y="257.119"
     x="253.62"
     svgx:width="278.0"
     svgx:fontName="KXXXPR+ArialMT"
     clip-path="url(#clipPath2)"
     fill="#060808"
     stroke="none">t</text>
  <text
     id="text6183"
     font-weight="normal"
     font-family="Helvetica"
     font-size="5.887"
     y="257.119"
     x="255.258"
     svgx:width="500.0"
     svgx:fontName="KXXXPR+ArialMT"
     clip-path="url(#clipPath2)"
     fill="#060808"
     stroke="none">s</text>
</svg>
